<?xml version="1.0" encoding="utf-8"?>
<!-- Generator: Adobe Illustrator 20.1.0, SVG Export Plug-In . SVG Version: 6.00 Build 0)  -->
<svg version="1.1" id="Layer_1" xmlns="http://www.w3.org/2000/svg" xmlns:xlink="http://www.w3.org/1999/xlink" x="0px" y="0px"
	 viewBox="0 0 800 600" style="enable-background:new 0 0 800 600;" xml:space="preserve">
<style type="text/css">
	.st0{fill:#F5BB71;stroke:#8C4B31;stroke-width:0.1045;stroke-linejoin:round;}
	.st1{fill:#88421E;}
	.st2{fill:#8C4B31;}
	.st3{fill:#602912;}
	.st4{fill:#4D2511;}
	.st5{fill:#753517;}
	.st6{fill:#E88E4F;}
	.st7{fill:#D67F43;}
	.st8{fill:#CF7539;}
	.st9{fill:#A15538;}
	.st10{fill:#CC6328;}
	.st11{fill:#C75D28;}
	.st12{fill:#8A5121;}
	.st13{fill:#8B471F;}
	.st14{fill:#612D12;}
	.st15{fill:#713D28;}
	.st16{fill:#783718;}
	.st17{fill:#B05326;}
	.st18{fill:#A85325;}
	.st19{fill:#F3742C;}
	.st20{fill:#B9623F;}
	.st21{fill:#E77224;}
	.st22{fill:#C75A28;}
	.st23{fill:#B05326;stroke:#8C4B31;stroke-width:0.1045;stroke-linejoin:round;}
	.st24{fill:#B15F31;stroke:#8C4B31;stroke-width:0.1045;stroke-linejoin:round;}
	.st25{fill:#FFDD9E;stroke:#D67F43;stroke-width:0.1045;stroke-linejoin:round;}
	.st26{fill:#E87A2C;stroke:#D67F43;stroke-width:0.1045;stroke-linejoin:round;}
	.st27{fill:#CC6328;stroke:#8C4B31;stroke-width:0.1045;stroke-linejoin:round;}
	.st28{fill:#E77224;stroke:#8C4B31;stroke-width:0.1045;stroke-linejoin:round;}
	.st29{fill:#F68C43;stroke:#D67F43;stroke-width:0.1045;stroke-linejoin:round;}
	.st30{fill:#CF7539;stroke:#D67F43;stroke-width:0.1045;stroke-linejoin:round;}
	.st31{fill:#E87A2C;stroke:#8C4B31;stroke-width:0.1045;stroke-linejoin:round;}
	.st32{fill:#E88E4F;stroke:#D67F43;stroke-width:0.1045;stroke-linejoin:round;}
	.st33{fill:#B05326;stroke:#D67F43;stroke-width:0.1045;stroke-linejoin:round;}
	.st34{fill:#FAAC60;stroke:#D67F43;stroke-width:0.1045;stroke-linejoin:round;}
	.st35{fill:#88421E;stroke:#8C4B31;stroke-width:0.1045;stroke-linejoin:round;}
	.st36{fill:#E88E4F;stroke:#B07158;stroke-width:0.1045;stroke-linejoin:round;}
	.st37{fill:#D1AC8A;}
	.st38{fill:#2C3947;}
</style>
<g>
	<title>logo-red-dark</title>
	<polygon class="st0" points="150.8,251.2 146.1,236 151.2,242.3 	"/>
	<polygon class="st1" points="103.1,303.5 117.8,284 108.3,316.3 	"/>
	<path class="st2" d="M117.7,284.3l-9.4,31.8l-5.2-12.6L117.7,284.3 M118,283.8L103,303.5l5.3,12.9L118,283.8L118,283.8L118,283.8z"
		/>
	<path class="st3" d="M106.8,340.9c-0.1-0.4,1-15.9,1.6-24.2l13,38.4L106.8,340.9z"/>
	<path class="st2" d="M108.4,316.9l12.9,38l-14.5-14.1C106.7,340,107.8,325.2,108.4,316.9 M108.3,316.4c0,0-1.8,23.9-1.6,24.5
		l14.8,14.4L108.3,316.4L108.3,316.4z"/>
	<polygon class="st4" points="103.2,303.9 108.3,316.4 105.7,319 	"/>
	<path class="st2" d="M103.3,304.4l4.9,12l-2.5,2.5L103.3,304.4 M103,303.5l2.7,15.7l2.7-2.7L103,303.5L103,303.5L103,303.5z"/>
	<polygon class="st4" points="105.7,319.1 108.3,316.6 106.7,340 	"/>
	<path class="st2" d="M108.2,316.7l-1.5,22.4l-0.9-19.9L108.2,316.7 M108.3,316.4l-2.7,2.7l1,21.8L108.3,316.4L108.3,316.4z"/>
	<polygon class="st4" points="132.7,368.5 121.7,355.5 154.5,371.3 	"/>
	<path class="st2" d="M121.9,355.6l32.3,15.6l-21.4-2.8L121.9,355.6 M121.5,355.3l11.2,13.2l22.1,2.9L121.5,355.3L121.5,355.3
		L121.5,355.3z"/>
	<polygon class="st4" points="155,371.3 202.8,352.6 172.5,373.5 	"/>
	<path class="st2" d="M202.4,352.8l-30,20.6l-17.2-2.1L202.4,352.8 M203.2,352.4l-48.4,19l17.7,2.2L203.2,352.4L203.2,352.4
		L203.2,352.4z"/>
	<polygon class="st5" points="199,309.9 216.8,318.6 203.3,352.1 	"/>
	<path class="st2" d="M199.1,310l17.7,8.6l-13.5,33.3L199.1,310 M198.9,309.8l4.3,42.6l13.7-33.8L198.9,309.8L198.9,309.8
		L198.9,309.8z"/>
	<polygon class="st6" points="191.4,297.1 198.1,282 216.7,318.4 	"/>
	<path class="st7" d="M198.2,282.2l18.4,36l-25.1-21.1L198.2,282.2 M198.1,281.9l-6.8,15.2l25.5,21.5L198.1,281.9L198.1,281.9
		L198.1,281.9z"/>
	<polygon class="st8" points="199,309.7 191.6,297.3 216.6,318.3 	"/>
	<path class="st9" d="M191.8,297.6l24.4,20.5l-17.2-8.4L191.8,297.6 M191.4,297.1l7.6,12.7l18,8.8L191.4,297.1L191.4,297.1
		L191.4,297.1z"/>
	<polygon class="st10" points="148.2,334.5 169.3,317.1 188.9,347.5 	"/>
	<path class="st2" d="M169.3,317.1l19.4,30.3l-40.4-13L169.3,317.1 M169.4,317l-21.3,17.5l40.9,13.1L169.4,317L169.4,317L169.4,317z
		"/>
	<polygon class="st11" points="169.4,317 198.9,309.9 189,347.5 	"/>
	<path class="st12" d="M198.8,309.9l-9.8,37.4l-19.4-30.3L198.8,309.9 M198.9,309.8l-29.6,7.2l19.7,30.6L198.9,309.8L198.9,309.8
		L198.9,309.8z"/>
	<polygon class="st10" points="191.4,297.2 198.8,309.8 169.5,316.9 	"/>
	<path class="st12" d="M191.3,297.2l7.4,12.5l-29,7.1L191.3,297.2 M191.4,297.1l-22,19.9l29.6-7.2L191.4,297.1L191.4,297.1z"/>
	<polygon class="st13" points="189.1,347.6 198.9,310.1 203.2,352.3 	"/>
	<path class="st2" d="M198.9,310.4l4.2,41.8l-14-4.7L198.9,310.4 M198.9,309.8l-9.9,37.8l14.2,4.7L198.9,309.8L198.9,309.8z"/>
	<polygon class="st14" points="189,347.7 203.1,352.4 155.2,371.1 	"/>
	<path class="st15" d="M189,347.7l13.9,4.6l-47.3,18.6L189,347.7 M189,347.6l-34.2,23.8l48.4-19L189,347.6L189,347.6L189,347.6z"/>
	<polygon class="st5" points="139,346.7 188.8,347.7 154.8,371.3 	"/>
	<path class="st2" d="M139.1,346.7l49.6,1l-33.8,23.5L139.1,346.7 M138.9,346.6l15.9,24.7l34.2-23.7L138.9,346.6L138.9,346.6
		L138.9,346.6z"/>
	<polygon class="st14" points="121.6,355.3 138.9,346.7 154.7,371.2 	"/>
	<path class="st15" d="M138.9,346.8l15.7,24.3l-32.8-15.8L138.9,346.8 M138.9,346.6l-17.4,8.7l33.3,16.1L138.9,346.6L138.9,346.6
		L138.9,346.6z"/>
	<polygon class="st5" points="108.5,316.6 138.8,346.6 121.5,355.2 	"/>
	<path class="st15" d="M108.6,316.8l30.1,29.8l-17.1,8.6L108.6,316.8 M108.3,316.4l13.2,38.9l17.4-8.7L108.3,316.4L108.3,316.4
		L108.3,316.4z"/>
	<polygon class="st14" points="108.5,316.5 143.8,317.6 138.9,346.5 	"/>
	<path class="st2" d="M108.6,316.5l35.2,1.1l-5,28.7L108.6,316.5 M108.3,316.4l30.6,30.2l5-29.1L108.3,316.4L108.3,316.4
		L108.3,316.4z"/>
	<polygon class="st13" points="139,346.6 148.3,334.2 188.7,347.6 	"/>
	<path class="st2" d="M148.3,334.2l40,13.3l-49.2-1L148.3,334.2 M148.3,334.1l-9.4,12.5l50.1,1L148.3,334.1L148.3,334.1L148.3,334.1
		z"/>
	<polygon class="st16" points="143.9,317.8 148.2,334.1 139,346.4 	"/>
	<path class="st15" d="M143.9,318.1l4.2,16l-9.1,12.1L143.9,318.1 M143.9,317.6l-5,29.1l9.4-12.5L143.9,317.6L143.9,317.6
		L143.9,317.6z"/>
	<polygon class="st17" points="144,317.6 155.7,317 148.3,334 	"/>
	<path class="st2" d="M155.6,317.1l-7.3,16.7l-4.2-16.1L155.6,317.1 M155.8,317l-11.9,0.6l4.3,16.6L155.8,317L155.8,317L155.8,317z"
		/>
	<polygon class="st18" points="158.4,303.6 155.7,316.9 144,317.5 	"/>
	<path class="st2" d="M158.3,303.8l-2.6,13.1l-11.5,0.6L158.3,303.8 M158.5,303.5l-14.6,14.1l11.9-0.6L158.5,303.5L158.5,303.5
		L158.5,303.5z"/>
	<polygon class="st19" points="156.3,289.6 159,288.2 158.5,302.9 	"/>
	<path class="st20" d="M158.9,288.3l-0.5,14.1l-2-12.8L158.9,288.3 M159,288.1l-2.8,1.5l2.2,13.9L159,288.1L159,288.1z"/>
	<polygon class="st19" points="155.8,279.3 157.2,267.8 159,287.7 	"/>
	<path class="st2" d="M157.1,268.3l1.7,19l-3-8L157.1,268.3 M157.2,267.3l-1.4,12.1l3.3,8.8L157.2,267.3L157.2,267.3L157.2,267.3z"
		/>
	<polygon class="st21" points="156.3,289.8 158.4,303.5 144.1,317.3 	"/>
	<path class="st20" d="M156.2,290l2.1,13.5l-14.2,13.7L156.2,290 M156.3,289.6l-12.4,28l14.6-14.1L156.3,289.6L156.3,289.6
		L156.3,289.6z"/>
	<polygon class="st17" points="155.8,279.7 159,288.1 156.3,289.5 	"/>
	<path class="st2" d="M155.9,280l3,8l-2.5,1.4L155.9,280 M155.8,279.3l0.5,10.2l2.8-1.5L155.8,279.3L155.8,279.3L155.8,279.3z"/>
	<polygon class="st10" points="155.7,279.5 156.2,289.6 108.9,316 	"/>
	<path class="st20" d="M155.7,279.6l0.5,10l-46.7,26.1L155.7,279.6 M155.8,279.4l-47.4,37.1l48-26.8L155.8,279.4L155.8,279.4
		L155.8,279.4z"/>
	<polygon class="st22" points="108.5,316.4 156.2,289.7 143.9,317.5 	"/>
	<path class="st12" d="M156.1,289.8l-12.2,27.6l-35.1-1.1L156.1,289.8 M156.3,289.6l-47.9,26.8l35.6,1.2L156.3,289.6L156.3,289.6
		L156.3,289.6z"/>
	<polygon class="st23" points="118,283.8 155.8,279.3 108.3,316.4 	"/>
	<polygon class="st24" points="130.4,267.3 155.8,279.3 118,283.8 	"/>
	<polygon class="st25" points="151.2,242.3 157.2,267.3 150.8,251.2 	"/>
	<polygon class="st25" points="144.7,223.6 146.1,236 151.2,242.3 	"/>
	<polygon class="st26" points="140.6,242.3 144.7,223.6 146.1,236 	"/>
	<polygon class="st27" points="155.8,279.3 142.5,264.7 130.4,267.3 	"/>
	<polygon class="st28" points="157.2,267.3 142.5,264.7 155.8,279.3 	"/>
	<polygon class="st29" points="140.6,242.3 143.9,248.8 142.5,264.7 	"/>
	<polygon class="st30" points="146.1,236 143.9,248.8 140.6,242.3 	"/>
	<polygon class="st31" points="143.9,248.8 150.8,251.2 157.2,267.3 	"/>
	<polygon class="st29" points="146.1,236 143.9,248.8 150.8,251.2 	"/>
	<polygon class="st32" points="177.9,241.5 173.1,229.6 184.1,234.3 	"/>
	<polygon class="st24" points="177.9,241.5 181.7,249 178.8,275.5 	"/>
	<polygon class="st33" points="184.1,234.3 181.7,249 177.9,241.5 	"/>
	<polygon class="st28" points="184.1,234.3 181.7,249 194.9,254.1 	"/>
	<polygon class="st34" points="140.6,242.3 118,283.8 130.4,267.3 	"/>
	<polygon class="st28" points="169.4,317 190.1,295.3 191.4,297.1 	"/>
	<polygon class="st25" points="198.1,281.9 190.1,295.3 191.4,297.1 	"/>
	<polygon class="st35" points="194.9,254.1 178.8,275.5 181.7,249 	"/>
	<polygon class="st25" points="184.1,234.3 169.6,220.1 173.1,229.6 	"/>
	<polygon class="st36" points="130.4,267.3 140.6,242.3 142.5,264.7 	"/>
	<polygon class="st36" points="143.9,248.8 157.2,267.3 142.5,264.7 	"/>
	<polygon class="st37" points="198.2,281.9 199.6,276.7 216.4,317.4 	"/>
	<path class="st7" d="M199.6,276.8l16.2,39.4l-17.6-34.4L199.6,276.8 M199.6,276.5l-1.5,5.4l18.8,36.6L199.6,276.5L199.6,276.5
		L199.6,276.5z"/>
	<path class="st38" d="M242.1,325.6l31.1-34.3h6.7l-24,26.1l26.1,35h-6.7l-23.2-30.9l-10,9.1v21.8h-5.6v-87.5h5.6v43.9l-0.4,16.8
		L242.1,325.6L242.1,325.6z"/>
	<path class="st38" d="M316.9,353.5c-8.9,0-15.8-2.7-20.7-8.2c-5-5.5-7.4-13.1-7.4-23c0-9.8,2.4-17.6,7.2-23.4
		c4.8-5.9,11.2-8.8,19.4-8.8c7.2,0,12.8,2.5,17,7.5c4.2,5,6.2,11.8,6.2,20.5v4.5h-43.9c0.1,8.4,2,14.8,5.9,19.2
		c3.8,4.4,9.3,6.6,16.5,6.6c3.1,0,6.1-0.2,9.2-0.7c2.6-0.5,6-1.5,10-3.1v5c-3.1,1.4-6.3,2.4-9.5,3.1
		C323.4,353.3,320.1,353.6,316.9,353.5z M315.3,295c-5.9,0-10.6,1.9-14.1,5.8c-3.6,3.9-5.6,9.5-6.2,16.8h37.7
		c0-7.1-1.5-12.6-4.6-16.6C324.9,297,320.7,295,315.3,295L315.3,295z"/>
	<path class="st38" d="M342.9,291.3h5.7l12.9,34.3c3.9,10.5,6.4,17.6,7.5,21.3h0.3c1.6-4.8,4.1-12.1,7.7-21.7l12.9-34h5.7l-27.3,71
		c-2.2,5.8-4.1,9.7-5.6,11.7c-1.4,1.9-3.2,3.5-5.2,4.6c-2,1-4.4,1.5-7.3,1.5c-2.4,0-4.8-0.4-7.1-1.2v-4.8c2.3,0.6,4.6,0.9,7,0.9
		c1.8,0,3.5-0.4,5-1.4c1.6-1.1,3-2.5,4-4.2c1.2-1.9,2.5-4.9,4.1-9c1.6-4.1,2.6-6.8,3-8L342.9,291.3z"/>
	<path class="st38" d="M454.4,330.5c0,7.2-2.6,12.9-7.9,16.9c-5.2,4-12.3,6.1-21.3,6.1c-9.7,0-17.2-1.3-22.4-3.8v-9.2
		c3.5,1.5,7.2,2.6,11,3.4c3.9,0.8,7.8,1.2,11.8,1.3c6.4,0,11.1-1.2,14.4-3.6c3.2-2.4,4.8-5.8,4.8-10.1c0-2.8-0.6-5.2-1.7-7
		c-1.1-1.8-3-3.5-5.7-5c-2.7-1.5-6.7-3.3-12.2-5.2c-7.6-2.7-13.1-6-16.4-9.7c-3.3-3.7-4.9-8.7-4.9-14.7c0-6.3,2.4-11.4,7.1-15.1
		c4.7-3.7,11-5.6,18.8-5.6c8.2,0,15.6,1.5,22.5,4.5l-3,8.3c-6.8-2.8-13.4-4.3-19.7-4.3c-5,0-9,1.1-11.8,3.3
		c-2.8,2.2-4.3,5.2-4.3,9.1c0,2.8,0.5,5.2,1.6,7c1,1.8,2.8,3.5,5.3,5c2.5,1.5,6.3,3.2,11.4,5c8.6,3.1,14.5,6.4,17.8,9.9
		C452.8,320.3,454.4,324.9,454.4,330.5z"/>
	<path class="st38" d="M495.2,353.5c-3.8,0-7.5-0.7-11-2.2c-3.3-1.5-6.2-3.9-8.3-6.8h-0.7c0.4,3.4,0.7,6.8,0.7,10.2v25.4h-9.3v-89.3
		h7.6l1.3,8.4h0.4c2.4-3.4,5.2-5.8,8.4-7.3c3.2-1.5,6.8-2.2,10.9-2.2c8.2,0,14.4,2.8,18.9,8.4c4.4,5.6,6.6,13.4,6.6,23.5
		c0,10.1-2.3,18-6.8,23.6C509.5,350.7,503.2,353.5,495.2,353.5z M493.8,297.6c-6.3,0-10.8,1.7-13.6,5.2c-2.8,3.5-4.2,9-4.3,16.7v2.1
		c0,8.7,1.4,14.9,4.3,18.6c2.9,3.7,7.5,5.6,13.9,5.6c5.3,0,9.5-2.2,12.5-6.5c3-4.3,4.5-10.3,4.5-17.8c0-7.7-1.5-13.6-4.5-17.7
		C503.5,299.6,499.3,297.6,493.8,297.6L493.8,297.6z"/>
	<path class="st38" d="M574.8,352.4l-1.9-8.8h-0.4c-3.1,3.9-6.1,6.5-9.2,7.8c-3,1.4-6.9,2.1-11.4,2.1c-6.1,0-10.9-1.6-14.3-4.7
		c-3.5-3.2-5.2-7.6-5.2-13.4c0-12.5,9.9-19,29.8-19.6l10.5-0.3v-3.8c0-4.8-1-8.4-3.1-10.7c-2.1-2.3-5.4-3.5-10-3.5
		c-5.1,0-10.9,1.6-17.4,4.7l-2.9-7.1c3.1-1.7,6.5-3,10-3.9c3.5-0.9,7.2-1.4,10.9-1.4c7.3,0,12.8,1.6,16.3,4.9
		c3.5,3.3,5.3,8.5,5.3,15.7v42.1L574.8,352.4L574.8,352.4z M553.7,345.8c5.8,0,10.3-1.6,13.7-4.8c3.3-3.2,5-7.6,5-13.4v-5.6
		l-9.3,0.4c-7.4,0.3-12.7,1.4-16,3.5c-3.3,2-4.9,5.2-4.9,9.5c0,3.4,1,5.9,3.1,7.7C547.2,345,550.1,345.8,553.7,345.8L553.7,345.8z"
		/>
	<path class="st38" d="M628.9,289.6c2.5,0,4.9,0.2,7.3,0.7L635,299c-2.2-0.5-4.5-0.8-6.7-0.8c-5,0-9.2,2-12.8,6.1
		c-3.5,4.1-5.3,9.1-5.3,15.1v33.1h-9.3v-61.7h7.7l1.1,11.4h0.4c2.3-4,5-7.1,8.2-9.3C621.4,290.8,625.1,289.6,628.9,289.6z"/>
	<path class="st38" d="M657,320.9c2.3-3.1,4.7-6.1,7.3-9l19.9-21.1h11.1L670.3,317l26.6,35.4h-11.3L664,323.3l-7,6.1v23.1h-9.2
		v-87.5h9.2v46.4c0,2.1-0.1,5.3-0.4,9.6L657,320.9L657,320.9z"/>
</g>
</svg>
