<svg id="Layer_1" data-name="Layer 1" xmlns="http://www.w3.org/2000/svg" viewBox="0 0 50 50"><defs><style>.cls-1,.cls-3,.cls-4{fill:#fff;}.cls-1,.cls-4{stroke:#070f11;stroke-miterlimit:10;}.cls-1{stroke-width:0.71px;}.cls-2{fill:#152021;}.cls-4{stroke-width:0.77px;}.cls-5{fill:#e74b4c;}</style></defs><title>icon-writing</title><rect class="cls-1" x="32.69" y="7.36" width="7.61" height="35.53"/><path class="cls-2" d="M9,43.82a1.16,1.16,0,0,1-.49-.9l0-35.78A1.08,1.08,0,0,1,9.62,6H35.52a3.91,3.91,0,0,1,2.27.72,4.07,4.07,0,0,1,1.78,3.33V40a4,4,0,0,1-4,4H9.63A1.34,1.34,0,0,1,9,43.82Z"/><path class="cls-3" d="M37.66,6.95a3.8,3.8,0,0,1,1.66,3.14V40a3.82,3.82,0,0,1-3.8,3.81l-25.9,0a.8.8,0,0,1-.49-.15.86.86,0,0,1-.37-.72l0-35.78a.86.86,0,0,1,.87-.87H35.53a3.77,3.77,0,0,1,2.13.68m.26-.39h0a4.09,4.09,0,0,0-2.39-.74H9.63A1.3,1.3,0,0,0,8.32,7.13l0,35.78A1.32,1.32,0,0,0,8.87,44a1.36,1.36,0,0,0,.73.23H35.5A4.26,4.26,0,0,0,39.76,40l0-29.91a4.29,4.29,0,0,0-1.86-3.52Z"/><rect class="cls-4" x="13.14" y="12.66" width="21.78" height="7.88"/><rect class="cls-5" x="30.35" y="6.28" width="2.63" height="37.54"/></svg>