<svg id="Layer_1" data-name="Layer 1" xmlns="http://www.w3.org/2000/svg" viewBox="0 0 148.9 32.75"><defs><style>.cls-1{fill:#353263;}.cls-2{fill:#eb2441;}</style></defs><title>cod-logo</title><path class="cls-1" d="M9.31,16.5a4.6,4.6,0,0,1,4.62-4.62A4.88,4.88,0,0,1,17,13.06c.12.11.12.22,0,.34l-.38.38a.21.21,0,0,1-.33,0,3.71,3.71,0,0,0-2.37-.88,3.6,3.6,0,0,0,0,7.2,3.66,3.66,0,0,0,2.37-.9.22.22,0,0,1,.33,0l.38.38c.12.12.12.23,0,.34a4.88,4.88,0,0,1-3.08,1.18A4.6,4.6,0,0,1,9.31,16.5Z"/><path class="cls-1" d="M18.18,16.5a4.62,4.62,0,1,1,4.62,4.62A4.61,4.61,0,0,1,18.18,16.5Zm8.22,0a3.6,3.6,0,1,0-3.6,3.6A3.58,3.58,0,0,0,26.4,16.5Z"/><path class="cls-1" d="M29.36,20.76V12.24A.21.21,0,0,1,29.6,12h.71a.29.29,0,0,1,.29.18l3,6.7c.08.19.23.19.31,0l3-6.7a.3.3,0,0,1,.29-.18h.7a.21.21,0,0,1,.24.24v8.52a.21.21,0,0,1-.24.24h-.54a.22.22,0,0,1-.24-.24V14.61c0-.23-.18-.29-.28-.06l-2.79,6.26a.29.29,0,0,1-.29.18h0a.3.3,0,0,1-.29-.18l-2.78-6.25c-.09-.23-.28-.18-.28.06v6.13a.21.21,0,0,1-.24.24H29.6A.21.21,0,0,1,29.36,20.76Z"/><path class="cls-1" d="M40.72,20.76V12.24A.21.21,0,0,1,41,12h3.25a2.72,2.72,0,1,1,0,5.45H42a.22.22,0,0,0-.24.24v3.07a.21.21,0,0,1-.24.24H41A.21.21,0,0,1,40.72,20.76Zm3.4-4.22A1.68,1.68,0,0,0,46,14.74a1.73,1.73,0,0,0-1.83-1.83H42a.22.22,0,0,0-.24.24v3.14a.22.22,0,0,0,.24.24Z"/><path class="cls-2" d="M53.82,19.25c.11.26,0,.41-.29.41H48.61c-.27,0-.38-.15-.29-.41L50.83,13c.14-.29.35-.29.49,0Z"/><path class="cls-1" d="M56.22,19.87a.22.22,0,0,1,0-.33l.38-.38a.2.2,0,0,1,.33,0,2.67,2.67,0,0,0,2.08,1,1.63,1.63,0,0,0,1.83-1.54c0-1-.95-1.44-2-1.86-1.24-.52-2.41-1-2.41-2.55A2.33,2.33,0,0,1,59,11.88a3.28,3.28,0,0,1,2.44,1.05.21.21,0,0,1,0,.33l-.3.31c-.11.12-.23.11-.35,0A2.35,2.35,0,0,0,59,12.8a1.4,1.4,0,0,0-1.55,1.37c0,1,1,1.39,2,1.81s2.36,1,2.36,2.64a2.48,2.48,0,0,1-2.74,2.5A4,4,0,0,1,56.22,19.87Z"/><path class="cls-1" d="M63.08,19.87a.22.22,0,0,1,0-.33l.38-.38a.2.2,0,0,1,.33,0,2.67,2.67,0,0,0,2.08,1,1.63,1.63,0,0,0,1.83-1.54c0-1-.95-1.44-2-1.86-1.24-.52-2.41-1-2.41-2.55a2.33,2.33,0,0,1,2.5-2.36,3.28,3.28,0,0,1,2.44,1.05.21.21,0,0,1,0,.33l-.3.31c-.11.12-.23.11-.35,0a2.35,2.35,0,0,0-1.78-.77,1.4,1.4,0,0,0-1.55,1.37c0,1,1,1.39,2,1.81s2.36,1,2.36,2.64A2.48,2.48,0,0,1,66,21.11,4,4,0,0,1,63.08,19.87Z"/><path class="cls-1" d="M73.46,16.5a4.62,4.62,0,1,1,4.62,4.62A4.61,4.61,0,0,1,73.46,16.5Zm8.22,0a3.6,3.6,0,1,0-3.6,3.6A3.58,3.58,0,0,0,81.68,16.5Z"/><path class="cls-1" d="M84.64,20.76V12.24a.21.21,0,0,1,.24-.24h4.46a.21.21,0,0,1,.24.24v.48a.21.21,0,0,1-.24.24H85.9a.22.22,0,0,0-.24.24v2.58a.22.22,0,0,0,.24.24h2.94a.21.21,0,0,1,.24.24v.48a.21.21,0,0,1-.24.24H85.9a.22.22,0,0,0-.24.24v3.54a.21.21,0,0,1-.24.24h-.54A.21.21,0,0,1,84.64,20.76Z"/><path class="cls-1" d="M94.82,20.76V12.24a.21.21,0,0,1,.24-.24h2.48a4.17,4.17,0,0,1,4.5,4.5,4.17,4.17,0,0,1-4.5,4.5H95.06A.21.21,0,0,1,94.82,20.76ZM97.53,20c2.31,0,3.49-1.29,3.49-3.54S99.85,13,97.53,13H96.07a.22.22,0,0,0-.24.24v6.6a.22.22,0,0,0,.24.24Z"/><path class="cls-1" d="M104,20.76V12.24a.21.21,0,0,1,.24-.24h4.46a.21.21,0,0,1,.24.24v.48a.21.21,0,0,1-.24.24H105.3a.22.22,0,0,0-.24.24v2.59a.22.22,0,0,0,.24.24h2.94a.21.21,0,0,1,.24.24v.48a.21.21,0,0,1-.24.24H105.3a.22.22,0,0,0-.24.24v2.57a.22.22,0,0,0,.24.24h3.45a.21.21,0,0,1,.24.24v.48a.21.21,0,0,1-.24.24h-4.46A.21.21,0,0,1,104,20.76Z"/><path class="cls-1" d="M110.28,19.87a.22.22,0,0,1,0-.33l.38-.38a.2.2,0,0,1,.33,0,2.67,2.67,0,0,0,2.08,1,1.63,1.63,0,0,0,1.83-1.54c0-1-.95-1.44-2-1.86-1.24-.52-2.41-1-2.41-2.55a2.33,2.33,0,0,1,2.5-2.36,3.28,3.28,0,0,1,2.44,1.05.21.21,0,0,1,0,.33l-.3.31c-.11.12-.23.11-.35,0a2.35,2.35,0,0,0-1.78-.77,1.4,1.4,0,0,0-1.55,1.37c0,1,1,1.39,2,1.81s2.36,1,2.36,2.64a2.48,2.48,0,0,1-2.74,2.5A4,4,0,0,1,110.28,19.87Z"/><path class="cls-1" d="M117.8,20.76V12.24A.21.21,0,0,1,118,12h.54a.21.21,0,0,1,.24.24v8.52a.21.21,0,0,1-.24.24H118A.21.21,0,0,1,117.8,20.76Z"/><path class="cls-1" d="M128.46,18.38a3.54,3.54,0,0,1-3.08,1.71,3.6,3.6,0,1,1,2.88-5.77.24.24,0,0,0,.34.09l.46-.28a.21.21,0,0,0,.08-.33,4.62,4.62,0,1,0-3.76,7.31,4.5,4.5,0,0,0,4.22-2.78c0-.11,0-.22-.21-.22h-.65C128.61,18.12,128.59,18.17,128.46,18.38Z"/><path class="cls-1" d="M131.8,20.76V12.24A.21.21,0,0,1,132,12h.26a.35.35,0,0,1,.3.13l5.72,6.74c.15.16.3.11.3-.11V12.24a.22.22,0,0,1,.24-.24h.48a.21.21,0,0,1,.24.24v8.52a.21.21,0,0,1-.24.24h-.26a.36.36,0,0,1-.3-.13l-5.72-6.74c-.14-.16-.3-.11-.3.11v6.53a.21.21,0,0,1-.24.24H132A.21.21,0,0,1,131.8,20.76Z"/><path class="cls-2" d="M59.63,22.58a10.46,10.46,0,0,1-7.1,4.31.73.73,0,0,0-.59.45l-.71,1.77c-.09.19-.23.19-.32,0l-.71-1.78a.73.73,0,0,0-.59-.45,10.44,10.44,0,0,1-7.3-4.59,1.54,1.54,0,0,0,.71-.68s.07,0,.08.06a9.45,9.45,0,0,0,6.5,4.19,10,10,0,0,0,1.46.11,9.05,9.05,0,0,0,1.48-.12,9.35,9.35,0,0,0,5.85-3.3,4.42,4.42,0,0,0,1.24,0Z"/><path class="cls-2" d="M59.65,10.42a4.63,4.63,0,0,0-.65,0,4.21,4.21,0,0,0-.62,0,9.32,9.32,0,0,0-4.86-3.09l-.14,0A2.85,2.85,0,0,1,51.61,6h0l-.28-.47a.29.29,0,0,0-.52,0L50.53,6h0a2.84,2.84,0,0,1-1.76,1.28l-.15,0a9.4,9.4,0,0,0-4.91,3.16H42.44a10.48,10.48,0,0,1,5.89-4.13,2.71,2.71,0,0,0,1.61-1.25l.87-1.46a.29.29,0,0,1,.52,0l.87,1.46a2.71,2.71,0,0,0,1.62,1.25A10.47,10.47,0,0,1,59.65,10.42Z"/><rect class="cls-2" x="126.4" y="16.29" width="3.6" height="0.96" rx="0.21" ry="0.21"/></svg>