<svg xmlns="http://www.w3.org/2000/svg" viewBox="0 0 447.3 150"><defs><style>.cls-1{fill:#fefefe;}</style></defs><title>keyspark-logo-white</title><g id="Layer_2" data-name="Layer 2"><g id="Layer_1-2" data-name="Layer 1"><path class="cls-1" d="M102.1,61.35l-1,3.67-5.51,9.15L81.42,88.94,67.13,100.67l-.14,0,5.13-11.69L74,79.74l.37-10.48-1.28-14.2L69,38,64.57,25.25,61.76,38,46.28,66.3,36.07,79.74l1.81,10.68.7,14.73a.71.71,0,0,0,0,.11l10.11,9.81,7.66,9L71.47,126l12.09,1.48,21-14.44,9.34-23Z"/><polygon class="cls-1" points="87.63 38.02 88.18 58.27 97.77 45.51 91.36 33.72 82.09 22.5 84.77 30.93 87.63 38.02"/><path class="cls-1" d="M75,3A72,72,0,1,1,3,75,72.08,72.08,0,0,1,75,3m0-3a75,75,0,1,0,75,75A75,75,0,0,0,75,0Z"/><path class="cls-1" d="M209.31,93.19h-3.86L188.1,69.33l-6,5.32V93.19h-3.15V48h3.15v23.5l5-5L204.8,48h4L190.3,67.1Z"/><path class="cls-1" d="M228.51,93.81q-7.33,0-11.42-4.51T213,76.65q0-8,4-12.88a13.06,13.06,0,0,1,10.67-4.84A11.52,11.52,0,0,1,237,63.08q3.43,4.14,3.43,11.25v2.47H216.21q.06,6.93,3.23,10.57T228.51,91a28.09,28.09,0,0,0,5.05-.4,30.64,30.64,0,0,0,5.52-1.73v2.78a24.55,24.55,0,0,1-5.26,1.68A29.16,29.16,0,0,1,228.51,93.81Zm-.9-32.15a10.07,10.07,0,0,0-7.79,3.2q-2.94,3.2-3.43,9.23h20.77q0-5.84-2.54-9.13A8.36,8.36,0,0,0,227.61,61.66Z"/><path class="cls-1" d="M244.06,59.59h3.15l7.11,18.86q3.25,8.69,4.11,11.72h.19q1.3-4,4.24-11.9L270,59.59h3.15l-15.06,39a30.47,30.47,0,0,1-3.06,6.43,8.2,8.2,0,0,1-2.89,2.5,8.81,8.81,0,0,1-4,.83,13.79,13.79,0,0,1-3.93-.65V105.1a14.46,14.46,0,0,0,3.86.5,5.2,5.2,0,0,0,2.78-.74,7,7,0,0,0,2.18-2.3,30.32,30.32,0,0,0,2.26-4.95q1.28-3.39,1.65-4.41Z"/><path class="cls-1" d="M305.15,80.92a11.38,11.38,0,0,1-4.36,9.46q-4.36,3.43-12,3.43t-12.55-2.38v-7a34.11,34.11,0,0,0,6.57,2.29,27.84,27.84,0,0,0,6.48.83q4.39,0,6.48-1.67a5.44,5.44,0,0,0,2.09-4.48,5.62,5.62,0,0,0-1.92-4.3Q294,75.36,288,72.94q-6.18-2.5-8.72-5.72a12.1,12.1,0,0,1-2.54-7.73,10.83,10.83,0,0,1,4-8.9q4-3.25,10.79-3.25a31.71,31.71,0,0,1,12.92,2.84l-2.35,6a28.25,28.25,0,0,0-10.76-2.54,8.26,8.26,0,0,0-5.44,1.56,5.13,5.13,0,0,0-1.85,4.13,5.81,5.81,0,0,0,.74,3,7.59,7.59,0,0,0,2.44,2.37,41.26,41.26,0,0,0,6.12,2.94,33.56,33.56,0,0,1,7.3,3.86,11.37,11.37,0,0,1,3.4,4.05A12.17,12.17,0,0,1,305.15,80.92Z"/><path class="cls-1" d="M330.47,93.81a12,12,0,0,1-10.08-4.67H320q.43,4.33.43,5.25v14h-7.27V59H319q.25,1,1,4.57h.37q3.4-5.19,10.2-5.19a11.86,11.86,0,0,1,10,4.64q3.57,4.64,3.57,13T340.5,89.11A12,12,0,0,1,330.47,93.81Zm-1.76-29.49q-4.33,0-6.32,2.54t-2,8.1V76q0,6.25,2,9t6.46,2.8a6.56,6.56,0,0,0,5.81-3.09q2-3.09,2-8.81t-2-8.7A6.76,6.76,0,0,0,328.71,64.32Z"/><path class="cls-1" d="M374,93.19l-1.45-4.76h-.25a14,14,0,0,1-5,4.25,15.74,15.74,0,0,1-6.43,1.13q-5,0-7.87-2.72t-2.83-7.7a9,9,0,0,1,3.93-8q3.93-2.69,12-2.94l5.91-.19V70.47a6.92,6.92,0,0,0-1.53-4.9,6.24,6.24,0,0,0-4.75-1.62,16.4,16.4,0,0,0-5,.77A38.07,38.07,0,0,0,356,66.54l-2.35-5.19a25.28,25.28,0,0,1,6.09-2.21,28,28,0,0,1,6.25-.76q6.52,0,9.85,2.84t3.32,8.94v23Zm-10.82-4.95A9,9,0,0,0,369.5,86a8,8,0,0,0,2.4-6.2v-3l-4.39.19q-5.13.18-7.47,1.71a5.21,5.21,0,0,0-2.33,4.68A4.57,4.57,0,0,0,359.07,87,5.84,5.84,0,0,0,363.15,88.25Z"/><path class="cls-1" d="M406.65,58.38a17.49,17.49,0,0,1,3.62.31l-.71,6.77a13.69,13.69,0,0,0-3.21-.37,9.31,9.31,0,0,0-7.06,2.84,10.28,10.28,0,0,0-2.71,7.39V93.19H389.3V59H395l1,6h.37a13.54,13.54,0,0,1,4.44-4.85A10.54,10.54,0,0,1,406.65,58.38Z"/><path class="cls-1" d="M423.62,75.14,427.73,70l10.33-11h8.38L432.68,73.69,447.3,93.19h-8.53l-11-15-4,3.28V93.19h-7.2V45.09h7.2V68.55l-.37,6.58Z"/></g></g></svg>