<svg xmlns="http://www.w3.org/2000/svg" viewBox="0 0 428.97 180.02"><defs><style>.cls-1{fill:#333;opacity:0.7;}.cls-2{fill:#262626;}.cls-3,.cls-5{fill:#007aa3;}.cls-4{fill:#fff;}.cls-5{opacity:0.8;}</style></defs><title>icon-travelight-logo</title><g id="Layer_2" data-name="Layer 2"><g id="Layer_2-2" data-name="Layer 2"><rect class="cls-1" width="428.97" height="180.02"/><path class="cls-2" d="M46.22,112.48H40.9v-40H33.68V67.15H53.32v5.33h-7.1Z"/><path class="cls-2" d="M79.61,112.48H74.23V67.15h9.65a9.71,9.71,0,0,1,9.71,9.65v6.77a10,10,0,0,1-2.88,6.77A9.8,9.8,0,0,1,94,97.66v14.81H88.6V97.66a4.54,4.54,0,0,0-4.44-4.49H79.61Zm0-40V87.85h4.49a4.19,4.19,0,0,0,4.05-4.27V76.81a4.29,4.29,0,0,0-4.27-4.33Z"/><path class="cls-2" d="M131.26,112.44l-2.61-11.21h-7.49l-2.5,11.21h-5.49l9.15-45.32h4.94l9.49,45.32Zm-3.61-16.59-2.83-13.65c-.89,4.44-1.66,8.65-2.66,13.65Z"/><polygon class="cls-3" points="128.7 101.24 121.22 101.24 122.21 95.86 127.7 95.86 128.7 101.24"/><path class="cls-2" d="M157.33,67.15l6.38,33.62,6.21-33.62h5.44l-8.16,45.32h-7l-8.32-45.32Z"/><path class="cls-2" d="M212.35,67.15v5.33H200.26V87.79h10.6v5.33h-10.6v14h12.09v5.33H194.93V67.15Z"/><path class="cls-4" d="M271.93,112.48H266.6V67.15h5.33Z"/><path class="cls-4" d="M293.22,103.71v-27c0-5.27,5.27-9.54,11.32-9.54,5.55,0,10.21,4.27,10.21,9.54v6.55h-5.33V76.7c0-2.27-2.27-4.22-4.88-4.22-3.16,0-5.94,1.94-5.94,4.22v27c0,2.27,2.88,3.94,5.94,3.94,2.5,0,4.88-1.66,4.88-3.94V92.95h-5.66V87.68h11v16c0,5.21-4.88,9.15-10.21,9.15C298.66,112.86,293.22,108.93,293.22,103.71Z"/><path class="cls-4" d="M355.3,112.48h-5.38V93.12H341.1v19.36h-5.38V67.15h5.38V87.79h8.82V67.15h5.38Z"/><path class="cls-4" d="M247,112.48H232.21V67.15h5.33v40H247Z"/><polygon class="cls-5" points="237.75 89.81 231.99 112.5 231.99 67.15 237.75 67.15 237.75 89.81"/><path class="cls-4" d="M388.19,112.48h-5.33v-40h-7.21V67.15h19.64v5.33h-7.1Z"/><polygon class="cls-5" points="382.81 92.77 388.2 72.68 388.2 112.86 382.81 112.86 382.81 92.77"/></g></g></svg>