<svg xmlns="http://www.w3.org/2000/svg" viewBox="0 0 38 38"><defs><style>.cls-1{isolation:isolate;}.cls-2{fill:#6475cc;mix-blend-mode:multiply;}.cls-3{fill:#f2f2f2;}</style></defs><title>icon-research</title><g class="cls-1"><g id="Layer_2" data-name="Layer 2"><g id="Layer_1-2" data-name="Layer 1"><circle class="cls-2" cx="19" cy="19" r="19"/><path class="cls-3" d="M10.32,20.66H9.69l-1-1.44H8.21v1.44H7.69V16.81H9.16A1.1,1.1,0,0,1,10.3,18a1.08,1.08,0,0,1-1,1.18ZM8.21,17.3v1.43h.92A.63.63,0,0,0,9.77,18c0-.35-.17-.72-.62-.72Z"/><path class="cls-3" d="M13.37,19.55H11.26a.81.81,0,0,0,.84.71.84.84,0,0,0,.75-.4l.44.17a1.35,1.35,0,1,1-1.2-2,1.26,1.26,0,0,1,1.29,1.35C13.37,19.41,13.37,19.49,13.37,19.55Zm-.5-.39a.77.77,0,0,0-.79-.7.79.79,0,0,0-.83.7Z"/><path class="cls-3" d="M13.92,18.66a.86.86,0,0,1,.9-.66.81.81,0,0,1,.9.74h-.48a.38.38,0,0,0-.41-.3.38.38,0,0,0-.39.23.29.29,0,0,0,0,.21.45.45,0,0,0,.31.2l.39.1a.75.75,0,0,1,.67.76c0,.48-.47.78-1,.78a.91.91,0,0,1-1-.84h.46a.4.4,0,0,0,.21.3.68.68,0,0,0,.41.09c.23,0,.39-.15.39-.34s-.16-.28-.35-.33l-.36-.08C14.14,19.38,13.87,19.14,13.92,18.66Z"/><path class="cls-3" d="M18.92,19.55H16.81a.81.81,0,0,0,.84.71.84.84,0,0,0,.75-.4l.44.17a1.35,1.35,0,1,1-1.2-2,1.26,1.26,0,0,1,1.29,1.35C18.93,19.41,18.93,19.49,18.92,19.55Zm-.5-.39a.77.77,0,0,0-.79-.7.79.79,0,0,0-.83.7Z"/><path class="cls-3" d="M21.64,20.25a1.06,1.06,0,0,1-.92.46,1.36,1.36,0,0,1,0-2.72,1.05,1.05,0,0,1,.92.45v-.39h.5v2.6h-.5Zm-.87-1.76a.82.82,0,0,0-.85.85.86.86,0,1,0,.85-.85Z"/><path class="cls-3" d="M23.5,20.66H23v-2.6h.51v.59c.13-.46.38-.64.72-.64a1,1,0,0,1,.45.1l-.08.47a.91.91,0,0,0-.38-.09c-.5,0-.71.54-.71,1.23Z"/><path class="cls-3" d="M26.33,18a1.35,1.35,0,0,1,1,.42l-.38.32a.87.87,0,0,0-.62-.25.84.84,0,0,0-.87.85.87.87,0,0,0,1.49.62l.39.32a1.36,1.36,0,0,1-1,.42A1.34,1.34,0,0,1,25,19.35,1.33,1.33,0,0,1,26.33,18Z"/><path class="cls-3" d="M28.49,20.66H28v-4h.51v1.81a1,1,0,0,1,.86-.45,1,1,0,0,1,1.05,1.16v1.51h-.51V19.18a.62.62,0,0,0-.61-.69.73.73,0,0,0-.79.76Z"/></g></g></g></svg>