<?xml version="1.0" encoding="utf-8"?>
<!-- Generator: Adobe Illustrator 22.0.0, SVG Export Plug-In . SVG Version: 6.00 Build 0)  -->
<svg version="1.1" id="Layer_1" xmlns="http://www.w3.org/2000/svg" xmlns:xlink="http://www.w3.org/1999/xlink" x="0px" y="0px"
	 viewBox="0 0 50 50" style="enable-background:new 0 0 50 50;" xml:space="preserve">
<style type="text/css">
	.st0{fill:#F2F2F2;stroke:#E74B4C;stroke-width:0.71;stroke-miterlimit:10;}
	.st1{fill:none;stroke:#E74B4C;stroke-width:0.71;stroke-miterlimit:10;}
	.st2{fill:#261924;}
	.st3{fill:#F2F2F2;}
	.st4{fill:#E74B4C;}
</style>
<title>icon-web</title>
<g>
	<path class="st0" d="M7.2,6.8h36.9c1.1,0,2,0.9,2,2v30.7c0,1.1-0.9,2-2,2H7.2c-1.1,0-2-0.9-2-2V8.8C5.2,7.7,6.1,6.8,7.2,6.8z"/>
	<line class="st1" x1="5.2" y1="10.5" x2="46.1" y2="10.5"/>
	<rect x="7.9" y="13.1" class="st2" width="34.1" height="12.1"/>
	<path class="st3" d="M39.2,23.2H26.8c-0.4,0-0.7-0.3-0.7-0.7c0-0.1,0-0.3,0.1-0.4l3.9-5.3c0.2-0.3,0.7-0.4,1-0.1
		c0,0,0.1,0.1,0.1,0.1l1.3,1.7l2-3.3c0.2-0.4,0.7-0.5,1.1-0.3c0.1,0.1,0.2,0.1,0.3,0.3l4,6.8c0.2,0.4,0.1,0.8-0.2,1
		C39.5,23.1,39.3,23.2,39.2,23.2z"/>
	<circle class="st3" cx="39.6" cy="15.3" r="0.9"/>
	<rect x="10.2" y="21.7" class="st4" width="11.9" height="17"/>
	<path class="st3" d="M18.9,28h-5.9c-0.2,0-0.3-0.2-0.3-0.3c0-0.1,0-0.1,0.1-0.2l1.9-2.5c0.1-0.1,0.3-0.2,0.4-0.1c0,0,0,0,0.1,0.1
		l0.6,0.8l0.9-1.5c0.1-0.2,0.3-0.2,0.5-0.1c0.1,0,0.1,0.1,0.1,0.1l1.9,3.2c0.1,0.2,0.1,0.4-0.1,0.5C19,28,19,28,18.9,28z"/>
	<circle class="st3" cx="19.1" cy="24.3" r="0.4"/>
	<rect x="10.2" y="14.4" class="st4" width="7" height="1"/>
	<rect x="10.2" y="16.1" class="st3" width="12" height="0.5"/>
	<rect x="10.2" y="17.3" class="st3" width="9" height="0.5"/>
	<rect x="24" y="27.5" class="st4" width="6" height="0.5"/>
	<rect x="24" y="28.6" class="st2" width="8" height="0.5"/>
	<rect x="24" y="29.8" class="st2" width="6" height="0.5"/>
	<rect x="24" y="31" class="st2" width="7" height="0.5"/>
	<rect x="33" y="31" class="st2" width="7" height="0.5"/>
	<rect x="24" y="32.1" class="st2" width="3" height="0.5"/>
	<rect x="12.5" y="31.2" class="st3" width="6" height="0.5"/>
	<rect x="12.5" y="32.4" class="st2" width="8" height="0.5"/>
	<rect x="12.5" y="33.5" class="st2" width="6" height="0.5"/>
	<rect x="12.5" y="34.7" class="st2" width="7" height="0.5"/>
	<rect x="12.5" y="35.8" class="st2" width="3" height="0.5"/>
	<rect x="30.5" y="37.2" class="st2" width="3" height="1.5"/>
	<rect x="24" y="33.3" class="st2" width="6" height="0.5"/>
	<rect x="33" y="27.5" class="st4" width="6" height="0.5"/>
	<rect x="33" y="28.6" class="st2" width="8" height="0.5"/>
	<rect x="33" y="29.8" class="st2" width="6" height="0.5"/>
	<rect x="33" y="32.1" class="st2" width="7" height="0.5"/>
	<rect x="33" y="33.3" class="st2" width="3" height="0.5"/>
	<rect x="31" y="37.7" class="st3" width="2" height="0.5"/>
	<circle class="st2" cx="7.9" cy="8.6" r="0.7"/>
	<circle class="st2" cx="10.1" cy="8.6" r="0.8"/>
	<circle class="st2" cx="12.4" cy="8.6" r="0.8"/>
</g>
</svg>
