<svg xmlns="http://www.w3.org/2000/svg" viewBox="0 0 600 600">
  <defs>
    <style>
      .cls-1{
        isolation:isolate;
      }
      .cls-2{
        fill:none;
        stroke:var(--grey);
        }
        .cls-2,.cls-3,.cls-5{
          stroke-miterlimit:10;
          stroke-width:23.78px;
        }
        .cls-3{
          fill:var(--foreground);
          stroke:var(--foreground);
        }
        .cls-4{
          mix-blend-mode:multiply;
        }
        .cls-5{
          fill:var(--foreground);
          stroke:var(--foreground);
        }
    </style>
  </defs>
  <title>svg-magnet-icon</title>
  <g class="cls-1">
    <g id="Layer_1" data-name="Layer 1">
      <g id="Artwork_3" data-name="Artwork 3">
        <path class="cls-2" d="M174.63,513.1A260.88,260.88,0,0,1,66.25,401.44"/>
        <path class="cls-2" d="M374.11,534.36A260.81,260.81,0,0,1,218.39,532"/>
        <path class="cls-2" d="M225.9,31.7C354.48-6.37,493.16,59.37,543.55,186.43c50.12,126.38-4.92,268.45-123.31,329.41"/>
        <path class="cls-2" d="M69.5,158.45A260.81,260.81,0,0,1,181.68,49.24"/>
        <path class="cls-2" d="M48.7,357.24A260.87,260.87,0,0,1,51,201.43"/>
        <path class="cls-2" d="M265.9,492.12a211.47,211.47,0,0,1-106.43-50.4"/>
        <path class="cls-2" d="M424.17,454.94a211.53,211.53,0,0,1-110.81,39.54"/>
        <path class="cls-2" d="M176.06,109.7c86.7-62.46,208.35-51.05,281.7,30.06s72.51,202.91,2,282.91"/>
        <path class="cls-2" d="M90.33,248.05a211.54,211.54,0,0,1,50.44-106.43"/>
        <path class="cls-2" d="M127.55,406.46A211.4,211.4,0,0,1,88,295.56"/>
        <path class="cls-2" d="M294.24,445.67a162.37,162.37,0,0,1-76.49-22.26"/>
        <path class="cls-2" d="M411.29,402.23a162.56,162.56,0,0,1-69.74,38.25"/>
        <path class="cls-2" d="M189.81,162.35A163.25,163.25,0,0,1,441.32,364.72"/>
        <path class="cls-2" d="M137.14,276.49a162.39,162.39,0,0,1,22.33-76.55"/>
        <path class="cls-2" d="M180.65,393.65a162.31,162.31,0,0,1-38.33-69.88"/>
        <path class="cls-3" d="M299.94,20v98.67c92,0,162.63,70.61,162.63,163.34,0,91.77-70.62,162.39-162.63,162.39v99.38c145,0,262-117,262-261.77A261.59,261.59,0,0,0,299.94,20ZM562,282a261.59,261.59,0,0,0-262-262v98.67c92,0,162.63,70.61,162.63,163.34"/>
        <g class="cls-4">
          <path class="cls-5" d="M263.33,56.22v98.67c92,0,162.63,70.61,162.63,163.34,0,91.77-70.61,162.39-162.63,162.39V580c145,0,262-117,262-261.77A261.59,261.59,0,0,0,263.33,56.22Zm262,262a261.59,261.59,0,0,0-262-262v98.67c92,0,162.63,70.61,162.63,163.34"/>
        </g>
      </g>
    </g>
  </g>
</svg>
