<svg id="Layer_1" data-name="Layer 1" xmlns="http://www.w3.org/2000/svg" viewBox="0 0 50 50"><defs><style>.cls-1,.cls-3{fill:#f2f2f2;}.cls-1{stroke:#e74b4c;stroke-miterlimit:10;stroke-width:0.71px;}.cls-2{fill:#261924;}.cls-4{fill:#e74b4c;}</style></defs><title>icon-web</title><rect class="cls-1" x="5.21" y="6.81" width="40.88" height="34.71" rx="2" ry="2"/><line class="cls-1" x1="5.21" y1="10.46" x2="46.08" y2="10.46"/><rect class="cls-2" x="7.93" y="13.13" width="34.07" height="12.05"/><path class="cls-3" d="M39.2,23.17H26.78a.67.67,0,0,1-.54-1.07l3.94-5.3a.68.68,0,0,1,1.08,0l1.28,1.73,2-3.27a.77.77,0,0,1,1.31,0l4,6.75A.76.76,0,0,1,39.2,23.17Z"/><circle class="cls-3" cx="39.61" cy="15.33" r="0.89"/><rect class="cls-4" x="10.21" y="21.71" width="11.88" height="17"/><path class="cls-3" d="M18.92,28H13.07a.32.32,0,0,1-.25-.5L14.67,25a.32.32,0,0,1,.51,0l.6.81.92-1.54a.36.36,0,0,1,.62,0l1.9,3.18A.36.36,0,0,1,18.92,28Z"/><circle class="cls-3" cx="19.12" cy="24.29" r="0.42"/><rect class="cls-4" x="10.21" y="14.38" width="7" height="1"/><rect class="cls-3" x="10.21" y="16.06" width="12" height="0.5"/><rect class="cls-3" x="10.21" y="17.25" width="9" height="0.5"/><rect class="cls-4" x="24" y="27.49" width="6" height="0.5"/><rect class="cls-2" x="24" y="28.64" width="8" height="0.5"/><rect class="cls-2" x="24" y="29.8" width="6" height="0.5"/><rect class="cls-2" x="24" y="30.95" width="7" height="0.5"/><rect class="cls-2" x="33.01" y="30.95" width="7" height="0.5"/><rect class="cls-2" x="24" y="32.11" width="3" height="0.5"/><rect class="cls-3" x="12.53" y="31.2" width="6" height="0.5"/><rect class="cls-2" x="12.53" y="32.36" width="8" height="0.5"/><rect class="cls-2" x="12.53" y="33.52" width="6" height="0.5"/><rect class="cls-2" x="12.53" y="34.67" width="7" height="0.5"/><rect class="cls-2" x="12.53" y="35.83" width="3" height="0.5"/><rect class="cls-2" x="30.53" y="37.21" width="3" height="1.5"/><rect class="cls-2" x="24" y="33.27" width="6" height="0.5"/><rect class="cls-4" x="33.01" y="27.49" width="6" height="0.5"/><rect class="cls-2" x="33.01" y="28.64" width="8" height="0.5"/><rect class="cls-2" x="33.01" y="29.8" width="6" height="0.5"/><rect class="cls-2" x="33.01" y="32.11" width="7" height="0.5"/><rect class="cls-2" x="33.01" y="33.27" width="3" height="0.5"/><rect class="cls-3" x="31" y="37.71" width="2" height="0.5"/><circle class="cls-2" cx="7.89" cy="8.63" r="0.75"/><circle class="cls-2" cx="10.14" cy="8.63" r="0.75"/><circle class="cls-2" cx="12.39" cy="8.63" r="0.75"/></svg>