<svg width="117" height="36" viewBox="0 0 117 36" fill="none" xmlns="http://www.w3.org/2000/svg">
    <rect x="0.75" y="0.75" width="115.5" height="34.5" rx="17.25" stroke="#707072" stroke-width="1.5" />
    <path
        d="M26.08 13.936C25.472 13.936 24.944 14.0587 24.496 14.304C24.0587 14.5493 23.7013 14.88 23.424 15.296C23.1467 15.7013 22.9387 16.1653 22.8 16.688C22.672 17.2107 22.608 17.744 22.608 18.288C22.608 18.832 22.672 19.3653 22.8 19.888C22.9387 20.4107 23.1467 20.88 23.424 21.296C23.7013 21.7013 24.0587 22.0267 24.496 22.272C24.944 22.5173 25.472 22.64 26.08 22.64C26.688 22.64 27.2107 22.5173 27.648 22.272C28.096 22.0267 28.4587 21.7013 28.736 21.296C29.0133 20.88 29.216 20.4107 29.344 19.888C29.4827 19.3653 29.552 18.832 29.552 18.288C29.552 17.744 29.4827 17.2107 29.344 16.688C29.216 16.1653 29.0133 15.7013 28.736 15.296C28.4587 14.88 28.096 14.5493 27.648 14.304C27.2107 14.0587 26.688 13.936 26.08 13.936ZM26.08 12.304C26.9333 12.304 27.696 12.464 28.368 12.784C29.0507 13.104 29.6267 13.536 30.096 14.08C30.5653 14.624 30.9227 15.2587 31.168 15.984C31.424 16.7093 31.552 17.4773 31.552 18.288C31.552 19.1093 31.424 19.8827 31.168 20.608C30.9227 21.3333 30.5653 21.968 30.096 22.512C29.6267 23.056 29.0507 23.488 28.368 23.808C27.696 24.1173 26.9333 24.272 26.08 24.272C25.2267 24.272 24.4587 24.1173 23.776 23.808C23.104 23.488 22.5333 23.056 22.064 22.512C21.5947 21.968 21.232 21.3333 20.976 20.608C20.7307 19.8827 20.608 19.1093 20.608 18.288C20.608 17.4773 20.7307 16.7093 20.976 15.984C21.232 15.2587 21.5947 14.624 22.064 14.08C22.5333 13.536 23.104 13.104 23.776 12.784C24.4587 12.464 25.2267 12.304 26.08 12.304ZM33.1643 15.728H34.8923V16.848H34.9243C35.1803 16.368 35.5376 16.0267 35.9963 15.824C36.4549 15.6107 36.9509 15.504 37.4843 15.504C38.1349 15.504 38.7003 15.6213 39.1803 15.856C39.6709 16.08 40.0763 16.3947 40.3963 16.8C40.7163 17.1947 40.9563 17.6587 41.1163 18.192C41.2763 18.7253 41.3563 19.296 41.3563 19.904C41.3563 20.4587 41.2816 20.9973 41.1323 21.52C40.9936 22.0427 40.7749 22.5067 40.4763 22.912C40.1883 23.3067 39.8203 23.6267 39.3723 23.872C38.9243 24.1067 38.3963 24.224 37.7883 24.224C37.5216 24.224 37.2549 24.1973 36.9883 24.144C36.7216 24.1013 36.4656 24.0267 36.2203 23.92C35.9749 23.8133 35.7456 23.68 35.5323 23.52C35.3296 23.3493 35.1589 23.152 35.0203 22.928H34.9883V27.056H33.1643V15.728ZM39.5323 19.872C39.5323 19.4987 39.4843 19.136 39.3883 18.784C39.2923 18.432 39.1483 18.1227 38.9563 17.856C38.7643 17.5787 38.5243 17.36 38.2363 17.2C37.9483 17.0293 37.6176 16.944 37.2443 16.944C36.4763 16.944 35.8949 17.2107 35.5003 17.744C35.1163 18.2773 34.9243 18.9867 34.9243 19.872C34.9243 20.288 34.9723 20.6773 35.0683 21.04C35.1749 21.392 35.3296 21.696 35.5323 21.952C35.7349 22.208 35.9749 22.4107 36.2523 22.56C36.5403 22.7093 36.8709 22.784 37.2443 22.784C37.6603 22.784 38.0123 22.6987 38.3003 22.528C38.5883 22.3573 38.8229 22.1387 39.0043 21.872C39.1963 21.5947 39.3296 21.2853 39.4043 20.944C39.4896 20.592 39.5323 20.2347 39.5323 19.872ZM42.0655 15.728H43.4415V13.248H45.2655V15.728H46.9135V17.088H45.2655V21.504C45.2655 21.696 45.2708 21.8613 45.2815 22C45.3028 22.1387 45.3402 22.256 45.3935 22.352C45.4575 22.448 45.5482 22.5227 45.6655 22.576C45.7828 22.6187 45.9428 22.64 46.1455 22.64C46.2735 22.64 46.4015 22.64 46.5295 22.64C46.6575 22.6293 46.7855 22.608 46.9135 22.576V23.984C46.7108 24.0053 46.5135 24.0267 46.3215 24.048C46.1295 24.0693 45.9322 24.08 45.7295 24.08C45.2495 24.08 44.8602 24.0373 44.5615 23.952C44.2735 23.856 44.0442 23.7227 43.8735 23.552C43.7135 23.3707 43.6015 23.1467 43.5375 22.88C43.4842 22.6133 43.4522 22.3093 43.4415 21.968V17.088H42.0655V15.728ZM48.2736 12.576H50.0976V14.304H48.2736V12.576ZM48.2736 15.728H50.0976V24H48.2736V15.728ZM55.877 24.224C55.2157 24.224 54.6237 24.1173 54.101 23.904C53.589 23.68 53.1517 23.376 52.789 22.992C52.437 22.608 52.165 22.1493 51.973 21.616C51.7917 21.0827 51.701 20.496 51.701 19.856C51.701 19.2267 51.7917 18.6453 51.973 18.112C52.165 17.5787 52.437 17.12 52.789 16.736C53.1517 16.352 53.589 16.0533 54.101 15.84C54.6237 15.616 55.2157 15.504 55.877 15.504C56.5383 15.504 57.125 15.616 57.637 15.84C58.1597 16.0533 58.597 16.352 58.949 16.736C59.3117 17.12 59.5837 17.5787 59.765 18.112C59.957 18.6453 60.053 19.2267 60.053 19.856C60.053 20.496 59.957 21.0827 59.765 21.616C59.5837 22.1493 59.3117 22.608 58.949 22.992C58.597 23.376 58.1597 23.68 57.637 23.904C57.125 24.1173 56.5383 24.224 55.877 24.224ZM55.877 22.784C56.2823 22.784 56.6343 22.6987 56.933 22.528C57.2317 22.3573 57.477 22.1333 57.669 21.856C57.861 21.5787 57.9997 21.2693 58.085 20.928C58.181 20.576 58.229 20.2187 58.229 19.856C58.229 19.504 58.181 19.152 58.085 18.8C57.9997 18.448 57.861 18.1387 57.669 17.872C57.477 17.5947 57.2317 17.3707 56.933 17.2C56.6343 17.0293 56.2823 16.944 55.877 16.944C55.4717 16.944 55.1197 17.0293 54.821 17.2C54.5223 17.3707 54.277 17.5947 54.085 17.872C53.893 18.1387 53.749 18.448 53.653 18.8C53.5677 19.152 53.525 19.504 53.525 19.856C53.525 20.2187 53.5677 20.576 53.653 20.928C53.749 21.2693 53.893 21.5787 54.085 21.856C54.277 22.1333 54.5223 22.3573 54.821 22.528C55.1197 22.6987 55.4717 22.784 55.877 22.784ZM61.5694 15.728H63.2974V16.944L63.3294 16.976C63.6067 16.5173 63.9694 16.16 64.4174 15.904C64.8654 15.6373 65.3614 15.504 65.9054 15.504C66.812 15.504 67.5267 15.7387 68.0494 16.208C68.572 16.6773 68.8334 17.3813 68.8334 18.32V24H67.0094V18.8C66.988 18.1493 66.8494 17.68 66.5934 17.392C66.3374 17.0933 65.9374 16.944 65.3934 16.944C65.084 16.944 64.8067 17.0027 64.5614 17.12C64.316 17.2267 64.108 17.3813 63.9374 17.584C63.7667 17.776 63.6334 18.0053 63.5374 18.272C63.4414 18.5387 63.3934 18.8213 63.3934 19.12V24H61.5694V15.728ZM72.1329 21.344C72.1862 21.8773 72.3889 22.2507 72.7409 22.464C73.0929 22.6773 73.5142 22.784 74.0049 22.784C74.1755 22.784 74.3675 22.7733 74.5809 22.752C74.8049 22.72 75.0129 22.6667 75.2049 22.592C75.3969 22.5173 75.5515 22.4107 75.6689 22.272C75.7969 22.1227 75.8555 21.9307 75.8449 21.696C75.8342 21.4613 75.7489 21.2693 75.5889 21.12C75.4289 20.9707 75.2209 20.8533 74.9649 20.768C74.7195 20.672 74.4369 20.592 74.1169 20.528C73.7969 20.464 73.4715 20.3947 73.1409 20.32C72.7995 20.2453 72.4689 20.1547 72.1489 20.048C71.8395 19.9413 71.5569 19.7973 71.3009 19.616C71.0555 19.4347 70.8582 19.2053 70.7089 18.928C70.5595 18.64 70.4849 18.288 70.4849 17.872C70.4849 17.424 70.5915 17.0507 70.8049 16.752C71.0289 16.4427 71.3062 16.1973 71.6369 16.016C71.9782 15.824 72.3515 15.6907 72.7569 15.616C73.1729 15.5413 73.5675 15.504 73.9409 15.504C74.3675 15.504 74.7729 15.552 75.1569 15.648C75.5515 15.7333 75.9035 15.8773 76.2129 16.08C76.5329 16.2827 76.7942 16.5493 76.9969 16.88C77.2102 17.2 77.3435 17.5893 77.3969 18.048H75.4929C75.4075 17.6107 75.2049 17.3173 74.8849 17.168C74.5755 17.0187 74.2182 16.944 73.8129 16.944C73.6849 16.944 73.5302 16.9547 73.3489 16.976C73.1782 16.9973 73.0129 17.04 72.8529 17.104C72.7035 17.1573 72.5755 17.2427 72.4689 17.36C72.3622 17.4667 72.3089 17.6107 72.3089 17.792C72.3089 18.016 72.3835 18.1973 72.5329 18.336C72.6929 18.4747 72.8955 18.592 73.1409 18.688C73.3969 18.7733 73.6849 18.848 74.0049 18.912C74.3249 18.976 74.6555 19.0453 74.9969 19.12C75.3275 19.1947 75.6529 19.2853 75.9729 19.392C76.2929 19.4987 76.5755 19.6427 76.8209 19.824C77.0769 20.0053 77.2795 20.2347 77.4289 20.512C77.5889 20.7893 77.6689 21.1307 77.6689 21.536C77.6689 22.0267 77.5569 22.4427 77.3329 22.784C77.1089 23.1253 76.8155 23.4027 76.4529 23.616C76.1009 23.8293 75.7062 23.984 75.2689 24.08C74.8315 24.176 74.3995 24.224 73.9729 24.224C73.4502 24.224 72.9649 24.1653 72.5169 24.048C72.0795 23.9307 71.6955 23.7547 71.3649 23.52C71.0449 23.2747 70.7889 22.976 70.5969 22.624C70.4155 22.2613 70.3195 21.8347 70.3089 21.344H72.1329Z"
        fill="white" />
    <path d="M98.5 15.25L93.0004 20.75L87.5 15.25" stroke="white" stroke-width="1.5" />
</svg>