<svg id="Layer_1" data-name="Layer 1" xmlns="http://www.w3.org/2000/svg" viewBox="0 0 300 117.69"><defs><style>.cls-1{fill:#0b0c15;}</style></defs><title>cm-logo-1-wordmark-dark</title><polygon class="cls-1" points="72.72 115.16 0.9 115.16 0.9 2.94 108.8 2.94 108.8 27.43 97.43 27.43 97.43 14.31 12.37 14.31 12.37 103.79 72.72 103.79 72.72 115.16"/><path class="cls-1" d="M119.44,69.58l-1.61,1.68a20,20,0,0,1-14.54,6.18,20.23,20.23,0,1,1,14-34.77l1.74,1.68-5.15,5.15-1.68-1.61a12.82,12.82,0,0,0-8.94-3.61c-7.14,0-12.41,5.8-12.41,12.94s5.27,12.94,12.41,12.94a12.81,12.81,0,0,0,9.32-4l1.68-1.74Z"/><rect class="cls-1" x="86.08" y="82.27" width="8.43" height="32.9"/><rect class="cls-1" x="98.55" y="91.03" width="8.43" height="24.1"/><rect class="cls-1" x="110.7" y="82.24" width="8.43" height="32.9"/><path class="cls-1" d="M179.84,115.19a13,13,0,0,1-5.08-1,11.82,11.82,0,0,1-3.87-2.6,11.62,11.62,0,0,1-2.47-3.83,12.32,12.32,0,0,1-.87-4.59,13.1,13.1,0,0,1,.84-4.7A11.43,11.43,0,0,1,174.74,92a13,13,0,0,1,5.14-1,12.71,12.71,0,0,1,5.1,1,11.61,11.61,0,0,1,3.83,2.63,11,11,0,0,1,2.4,3.83A12.69,12.69,0,0,1,192,103c0,.38,0,.75,0,1.11a4.8,4.8,0,0,1-.12.89h-18a6.86,6.86,0,0,0,.67,2.45,6.3,6.3,0,0,0,1.38,1.83,5.91,5.91,0,0,0,1.91,1.15,6.28,6.28,0,0,0,2.23.4,6.83,6.83,0,0,0,3.36-.86,4.56,4.56,0,0,0,2.16-2.3l5.12,1.43a10.35,10.35,0,0,1-4.12,4.38A12.67,12.67,0,0,1,179.84,115.19Zm6-14.07A6.22,6.22,0,0,0,184,96.91a6.07,6.07,0,0,0-8.26,0,6.13,6.13,0,0,0-1.32,1.83,6.46,6.46,0,0,0-.6,2.36Z"/><path class="cls-1" d="M206.3,115.19a10.35,10.35,0,0,1-4.43-.94,10.51,10.51,0,0,1-3.5-2.58,12.07,12.07,0,0,1-2.29-3.85,13.42,13.42,0,0,1-.82-4.74,13.87,13.87,0,0,1,.78-4.72,12,12,0,0,1,2.16-3.83,9.88,9.88,0,0,1,3.29-2.59,9.46,9.46,0,0,1,4.19-.93,8.75,8.75,0,0,1,4.6,1.25,9,9,0,0,1,3.23,3.25V82.24h6v25.65a2,2,0,0,0,.36,1.33,1.7,1.7,0,0,0,1.24.45v5.07a16,16,0,0,1-2.85.31,4.23,4.23,0,0,1-2.56-.75,3.1,3.1,0,0,1-1.13-2l-.14-1.6a8.43,8.43,0,0,1-3.47,3.36A9.85,9.85,0,0,1,206.3,115.19Zm1.56-5.08a5.37,5.37,0,0,0,1.73-.29,6.06,6.06,0,0,0,1.65-.82,7.43,7.43,0,0,0,1.38-1.25,4.82,4.82,0,0,0,.94-1.56v-5.56a7.32,7.32,0,0,0-2.47-3.25,5.9,5.9,0,0,0-3.59-1.29,5.44,5.44,0,0,0-2.47.57,6.06,6.06,0,0,0-1.94,1.58,7.61,7.61,0,0,0-1.24,2.3,8,8,0,0,0-.45,2.67,7.31,7.31,0,0,0,.49,2.72,7,7,0,0,0,1.36,2.18,6.42,6.42,0,0,0,2.05,1.47A6.21,6.21,0,0,0,207.86,110.11Z"/><path class="cls-1" d="M225.54,88.16V82.24h6v5.92Zm0,26.58V91.41h6v23.33Z"/><path class="cls-1" d="M245.11,115.19a8.86,8.86,0,0,1-3.16-.56,7.53,7.53,0,0,1-2.54-1.56,7.21,7.21,0,0,1-1.67-2.34,7,7,0,0,1-.6-2.93,6.45,6.45,0,0,1,.73-3,7,7,0,0,1,2-2.39,10.1,10.1,0,0,1,3.14-1.53,13.73,13.73,0,0,1,4-.56,17.13,17.13,0,0,1,3.05.27,12.55,12.55,0,0,1,2.65.76V100a4.66,4.66,0,0,0-1.32-3.56,5.44,5.44,0,0,0-3.89-1.25,10.26,10.26,0,0,0-3.66.67,17,17,0,0,0-3.65,2L238.43,94a17.2,17.2,0,0,1,9.7-3c3.36,0,6,.82,7.82,2.47s2.78,4,2.78,7.15v7.26a2,2,0,0,0,.36,1.33,1.72,1.72,0,0,0,1.25.45v5.07a15.46,15.46,0,0,1-1.58.25c-.49,0-.92.06-1.27.06a4.12,4.12,0,0,1-2.59-.77,3.22,3.22,0,0,1-1.11-2l-.13-1.29a10.25,10.25,0,0,1-3.79,3.12A10.88,10.88,0,0,1,245.11,115.19Zm1.69-4.37a7.7,7.7,0,0,0,2.87-.53,5.31,5.31,0,0,0,2.12-1.42,2.16,2.16,0,0,0,1-1.7V104.5a14.29,14.29,0,0,0-2.32-.64,11.94,11.94,0,0,0-2.4-.25,6.36,6.36,0,0,0-3.79,1,3.14,3.14,0,0,0-1.47,2.65,3.19,3.19,0,0,0,1.16,2.51A4.18,4.18,0,0,0,246.8,110.82Z"/><polygon class="cls-1" points="162.4 81.4 162.4 115.04 156.48 115.04 156.48 93.18 147.43 109.31 144.05 109.31 134.95 93.16 134.95 115.04 129.03 115.04 129.03 81.4 134.78 81.4 145.72 101.02 156.69 81.4 162.4 81.4"/><path class="cls-1" d="M122.29,41.56h7.6V66.9q0,2.85,2.46,2.85a4.92,4.92,0,0,0,1.21-.19,7.18,7.18,0,0,0,1.26-.48l1,6.12a14.69,14.69,0,0,1-3.28,1,17.26,17.26,0,0,1-3.41.38,7,7,0,0,1-5.06-1.71A6.56,6.56,0,0,1,122.29,70Z"/><path class="cls-1" d="M138.43,48.44V41.56H146v6.88Zm0,27.76V51.29H146V76.2Z"/><path class="cls-1" d="M175.2,76.2h-7.59v-14a5.56,5.56,0,0,0-.93-3.58,3,3,0,0,0-2.44-1.12,4.42,4.42,0,0,0-1.64.34,6.21,6.21,0,0,0-1.56.92,7.86,7.86,0,0,0-1.36,1.4,6.25,6.25,0,0,0-1,1.76V76.2h-7.59V51.29H158v4.17a9.15,9.15,0,0,1,3.9-3.44,13.24,13.24,0,0,1,5.78-1.21,7.74,7.74,0,0,1,3.92.88,6.29,6.29,0,0,1,2.3,2.28A8.85,8.85,0,0,1,174.94,57a21.28,21.28,0,0,1,.26,3.23Z"/><path class="cls-1" d="M180.13,48.44V41.56h7.59v6.88Zm0,27.76V51.29h7.59V76.2Z"/><path class="cls-1" d="M215.09,71.12l-1.62,1.68a12.92,12.92,0,0,1-9.39,4,13.06,13.06,0,1,1,9.06-22.44l1.74,1.69-4.44,4.44-1.69-1.62A6.67,6.67,0,0,0,204.08,57a6.76,6.76,0,0,0,0,13.51A6.68,6.68,0,0,0,209,68.42l1.69-1.76Z"/><path class="cls-1" d="M225.51,76.67a9.67,9.67,0,0,1-3.44-.59,8,8,0,0,1-2.73-1.66,7.85,7.85,0,0,1-1.8-2.52,7.47,7.47,0,0,1-.66-3.15,7.27,7.27,0,0,1,.78-3.37,7.75,7.75,0,0,1,2.21-2.61,10.74,10.74,0,0,1,3.36-1.71,14.32,14.32,0,0,1,4.32-.61,16.78,16.78,0,0,1,3,.26,9.76,9.76,0,0,1,2.56.78V60.35q0-4.32-5-4.32a11,11,0,0,0-3.89.69,18.52,18.52,0,0,0-3.89,2.07L218.16,54a20.09,20.09,0,0,1,5.12-2.42,19.25,19.25,0,0,1,5.65-.81q5.64,0,8.73,2.66c2.05,1.77,3.08,4.37,3.08,7.78v6.41a2.28,2.28,0,0,0,.43,1.59,2.32,2.32,0,0,0,1.52.54V76.2a15.11,15.11,0,0,1-2,.31c-.62,0-1.16.07-1.64.07a5.44,5.44,0,0,1-3.17-.86,3.55,3.55,0,0,1-1.38-2.32l-.14-1.14a11.3,11.3,0,0,1-4,3.27A10.78,10.78,0,0,1,225.51,76.67Zm2.23-5.45a7.06,7.06,0,0,0,2.4-.43,5.5,5.5,0,0,0,1.92-1.14,2.35,2.35,0,0,0,1.09-1.8V65.48a11.36,11.36,0,0,0-2.16-.6,12.11,12.11,0,0,0-2.16-.21,5.87,5.87,0,0,0-3.44,1A2.89,2.89,0,0,0,224,68.09a2.84,2.84,0,0,0,1,2.25A4,4,0,0,0,227.74,71.22Z"/><path class="cls-1" d="M245.39,41.56H253V66.9q0,2.85,2.46,2.85a4.92,4.92,0,0,0,1.21-.19,7.18,7.18,0,0,0,1.26-.48l1,6.12a14.69,14.69,0,0,1-3.28,1,17.26,17.26,0,0,1-3.41.38,7,7,0,0,1-5.06-1.71A6.56,6.56,0,0,1,245.39,70Z"/><path class="cls-1" d="M261.48,41.56h7.59V66.9c0,1.9.82,2.85,2.47,2.85a5,5,0,0,0,1.21-.19,7.07,7.07,0,0,0,1.25-.48l1,6.12a14.77,14.77,0,0,1-3.27,1,17.43,17.43,0,0,1-3.42.38,7,7,0,0,1-5.05-1.71A6.53,6.53,0,0,1,261.48,70Z"/><path class="cls-1" d="M276.09,80a13.3,13.3,0,0,0,1.92.47,9.25,9.25,0,0,0,1.55.14,2.45,2.45,0,0,0,2-1,8.57,8.57,0,0,0,1.31-3.39l-9.45-24.91h7.79l5.83,18.41,5-18.41h7.07l-9.53,28.94a10.12,10.12,0,0,1-3.54,5,9.54,9.54,0,0,1-5.76,1.92,13.29,13.29,0,0,1-2.09-.17,11.48,11.48,0,0,1-2.09-.54Z"/></svg>