<svg xmlns="http://www.w3.org/2000/svg" viewBox="0 0 300 85"><title>tgf-1-brand-mark-large-dark</title><g id="Content"><path d="M141.79,10c2.93-.24,2.93-.48,5.85-.73.94-.08,1.89-.21,2.94-.33,0,0,0,0,0,0a5.49,5.49,0,0,1-.22.75c-.86,2.06-1.79,4.09-2.58,6.17-1.07,2.78-1.74,4-2.68,6.81a2.42,2.42,0,0,0,.68,2.73c.84.73,1.44.6,1.85-.43.16-.39.34-.77.5-1.15,1.32-3.2,1.77-4.83,3.09-8,.86-2.11,2.22-4.17,3.09-6.27.09-.23.27-.53.47-.58.73-.21,1.61-.35,2.43-.51l0,0a1.47,1.47,0,0,1-.17.55c-.95,2.13-1.94,4.24-2.86,6.37s-1.73,4-2.48,6a2.88,2.88,0,0,0,.92,3.54c1,.8,1.37.69,1.66-.46,0-.05,0-.11.05-.16a26.68,26.68,0,0,1,5.67-9.1,5,5,0,0,1,1.21-1c.36-.24.38-.08.27.22a43.68,43.68,0,0,0-2.86,6.37c-.65,1.8-1.07,3.43.39,3.74a5.23,5.23,0,0,0,4.59-.89A9.9,9.9,0,0,0,165,22.05c.49-.67.33.54.72,1.25a3.29,3.29,0,0,0,3.41,1.29,10.37,10.37,0,0,0,5.2-3.74,6.2,6.2,0,0,0,.9-1.63,1.19,1.19,0,0,0-2.1-.28c-.79.79-3.18,2.76-4.18,2.4-1.56-.56.51-2.66.82-2.7a11.41,11.41,0,0,0,4.44-1.71,5.7,5.7,0,0,0,2.68-3.53,2.61,2.61,0,0,0-1.84-3.32c-.92-.28-3.7-.48-7,4.56-1.15,1.62-2.22,2.91-3.37,4.53a15.57,15.57,0,0,1-2.43,2.45c-.09.05-.51.17-.51-.11s3.15-7.8,3.67-9.3a1.76,1.76,0,0,0-.49-2c-.64-.58-1.32-.35-2-.08a10.74,10.74,0,0,0-3.93,3.17,18.39,18.39,0,0,0-1.27,1.64c-.28.42-.54.52-.27.07,1.28-2.13,2.46-4.33,3.73-6.47.37-.55.57-.48.82-.44a3.42,3.42,0,0,0,3.76-1.76c.17-.3.38-.74.27-1s-.6-.36-.93-.36c-1,0-1.93.11-2.9.12a1.09,1.09,0,0,1-.77-.32c-.61-.88-3.23-1.61-3.23-1.12a6.17,6.17,0,0,1-.36,1.8.56.56,0,0,0-.12,0c-2.08.24-3.16.33-5.24.46-3.74.25-4.56.41-8.3.65A3.27,3.27,0,0,0,141,9C140.75,9.81,141,10.1,141.79,10Zm32,3h0c.32,1.35-1.49,3.15-3.52,3.51l0,0C170.21,15.74,172.54,13.41,173.75,13.07Zm45.39,33.05c0-1.37-.88-2-3.95-2.93-2.81-.83-3.91-1.29-4.82-2C209,40,208.5,38.24,208.5,36c0-5.09,3.37-8.5,8.5-8.5a17.48,17.48,0,0,1,8,2L222.5,35a7.61,7.61,0,0,0-4.5-2,2.5,2.5,0,0,0-2.77,2.25,1.67,1.67,0,0,0,.6,1.26c.73.61,1,.72,3.95,1.59,4.41,1.29,6.22,3.14,6.22,6.9a8.88,8.88,0,0,1-2.57,6.77c-2.43,2.23-5,2.73-7.93,2.73A11.15,11.15,0,0,1,210,53l-1.5-4,1.5-3A9,9,0,0,0,216,48.58C217.88,48.58,219.14,47.6,219.14,46.12ZM141,41c0-8.09,4.5-14,13-14,6,0,9.64,2.67,12,7.53l-6.27,2.59c-1.14-2.74-2.88-4-5.43-4-3.76,0-6.33,3.35-6.33,7.91a9,9,0,0,0,2,6.18A5.75,5.75,0,0,0,154.5,49a5.26,5.26,0,0,0,4.31-1.86A5.45,5.45,0,0,0,160,44.5h-5.5v-5h13c-.08,3.72-.52,5.74-1.43,7.75-2.09,4.64-6.23,7.18-11.66,7.18C146.4,54.43,141,49,141,41Zm35-13.5h-7v26h20.5L191,49h9l1.5,4.5h7l-9-26H192l-7.46,20.44,0,.06H176ZM195.69,36l2.81,8H193ZM226.5,58.5H233v25h-6.5l-12-15v15H208v-25h6.5l12,15.5Zm8.5,0h17V64h-5V83.5h-6.5V64H235Zm19,0h6.5v25H254Zm-13-6.73a12.69,12.69,0,0,1-8,2.73,10.83,10.83,0,0,1-7-2.81,7.51,7.51,0,0,0,2.12-5.44,7.68,7.68,0,0,0,5.41,2.33c1.94,0,3.19-1,3.19-2.46s-.87-2-3.95-2.93c-2.81-.83-3.91-1.29-4.82-2C226.62,40,226,38.24,226,36c0-5.09,3.38-8.5,8.5-8.5a17.42,17.42,0,0,1,8,2L240,35a7.56,7.56,0,0,0-4.5-2,2.43,2.43,0,0,0-2.69,2.25,1.7,1.7,0,0,0,.6,1.26c.73.61,1,.72,4,1.59,4.41,1.29,6.14,3.14,6.14,6.9C243.5,47.89,242.72,50.3,241,51.77Zm22,6.73h14.5V64h-8v4.5H277V74h-7.5v4H277v5.5H263Zm29,15a7.41,7.41,0,0,0,3.33-1.6,7,7,0,0,0,2.17-5.4,8.53,8.53,0,0,0-2-5.74c-1.48-1.54-3.15-2.26-6-2.26H279v25h7V74l6,9.5h8Zm-2.34-4.35A4.2,4.2,0,0,1,287,70h-1.5V63.5H287a4.42,4.42,0,0,1,2.66.74,3.27,3.27,0,0,1,1.25,2.45A3.21,3.21,0,0,1,289.66,69.15ZM142,58.5h14.5V64H148v4.5h7.5V74H148v9.5h-6Zm50-1A14.73,14.73,0,0,0,182.67,61,13.28,13.28,0,0,0,178,71a14,14,0,0,0,28,0,12.92,12.92,0,0,0-3.8-9A13.56,13.56,0,0,0,192,57.5Zm0,21A7.25,7.25,0,0,1,192,64a7.1,7.1,0,0,1,7,7.19A7.18,7.18,0,0,1,192,78.5Zm-17.24-6.6a7.47,7.47,0,0,0,2.3-5.59,8.17,8.17,0,0,0-2.15-5.55c-1.47-1.54-3.58-2.26-6.41-2.26h-10v25H165l.09-9.44L171,83.5h8.5l-7.95-10.09A6.78,6.78,0,0,0,174.76,71.9Zm-5.67-2.75a4,4,0,0,1-2.59.85H165V63.5h1.5a4.18,4.18,0,0,1,2.59.74,3.27,3.27,0,0,1,1.25,2.45A3.21,3.21,0,0,1,169.09,69.15ZM133.5,0,2,.13a1.79,1.79,0,0,0-.7.15A2,2,0,0,0,0,2V83a2.18,2.18,0,0,0,2,2H133.5c1,0,1.5-1,1.5-2V2C135,1,134.48,0,133.5,0Zm-83,46.5h-4V38h4ZM4,81V3.5H50.5v31H45a2.18,2.18,0,0,0-2,2V48a1.84,1.84,0,0,0,2,2h5.5V81Zm127.5,0H54V3.5h77.5ZM118.36,6.5h9.14a1,1,0,0,1,1,1v14c0,.75-1.24.71-1.5,0a33.82,33.82,0,0,0-9-14C117.57,7.08,117.75,6.5,118.36,6.5ZM17,77c.43.42.11,1.5-.5,1.5h-9a1,1,0,0,1-1-1v-14c0-.75,1.24-1.21,1.5-.5A33.82,33.82,0,0,0,17,77Z"/></g></svg>