<?xml version="1.0" encoding="utf-8"?>
<!-- Generator: Adobe Illustrator 20.1.0, SVG Export Plug-In . SVG Version: 6.00 Build 0)  -->
<svg version="1.1" id="Layer_1" xmlns="http://www.w3.org/2000/svg" xmlns:xlink="http://www.w3.org/1999/xlink" x="0px" y="0px"
	 viewBox="0 0 800 600" style="enable-background:new 0 0 800 600;" xml:space="preserve">
<style type="text/css">
	.st0{fill:#362409;}
	.st1{fill:#F2F2F2;}
	.st2{fill:#ACD49F;}
	.st3{clip-path:url(#SVGID_2_);fill:#58754E;}
	.st4{clip-path:url(#SVGID_4_);fill:#58754E;}
	.st5{clip-path:url(#SVGID_6_);fill:#58754E;}
</style>
<g>
	<path class="st0" d="M656.8,278.8H148.5c-6.1,0-11-4.9-11-11v-41.2c0-4.7,3.1-9,7.7-10.5l254.2-80c2.1-0.6,4.5-0.6,6.6,0l254.2,80
		c4.6,1.5,7.7,5.7,7.7,10.5v41.2C667.7,274,662.9,278.8,656.8,278.8z M159.4,256.9h486.4v-22.2l-243.2-76.5l-243.2,76.5L159.4,256.9
		L159.4,256.9z"/>
	<g>
		<polygon class="st0" points="656.8,260 656.8,461.1 402.6,536.8 148.6,461.1 148.6,260 		"/>
		<path class="st0" d="M402.6,547.8c-1,0-2.1-0.1-3.1-0.5l-254.2-75.7c-4.6-1.4-7.8-5.6-7.8-10.5V260c0-6.1,4.9-11,11-11h508.3
			c6.1,0,11,4.9,11,11v201.1c0,4.9-3.2,9.1-7.8,10.5l-254.2,75.7C404.7,547.7,403.8,547.8,402.6,547.8z M159.4,453l243.2,72.5
			L645.8,453V271H159.4V453z"/>
	</g>
	<g>
		<path class="st1" d="M267.5,408.1c6.2-6.5,14.8-10.3,24.4-10.3c16.3,0,28.9,10.1,32.8,26h-10.1c-3.6-10.7-12.3-15.9-22.7-15.9
			c-6.7,0-13,2.9-17.4,7.6c-4.5,4.7-7.4,11-7.4,18.2c0,7,2.9,13.5,7.4,17.9c4.5,4.7,10.7,7.6,17.4,7.6c10.7,0,19.9-6.2,23.3-16.8
			h10.1c-4,15.9-16.8,26.9-33.4,26.9c-9.6,0-18.2-4-24.4-10.3c-6.2-6.5-10.1-15.4-10.1-25.3C257.4,423.6,261.3,414.6,267.5,408.1z"
			/>
		<path class="st1" d="M346.6,407.9c6.5-6.5,15.4-10.7,25.5-10.7s19.1,4.2,25.5,10.7c6.5,6.5,10.3,15.4,10.3,25.5
			c0,10.1-4.2,19.1-10.3,25.5c-6.5,6.7-15.4,10.7-25.5,10.7c-9.8,0-19.1-4-25.5-10.7c-6.5-6.5-10.3-15.4-10.3-25.5
			C336,423.2,340.1,414.2,346.6,407.9z M390.3,415.1c-4.7-4.7-11.2-7.6-18.2-7.6c-7,0-13.5,2.9-17.9,7.6c-4.7,4.7-7.6,11.2-7.6,18.2
			c0,7,2.9,13.7,7.6,18.2c4.7,4.7,11.2,7.6,17.9,7.6c7,0,13.5-2.9,18.2-7.6c4.5-4.7,7.6-11,7.6-18.2
			C397.6,426.1,394.8,419.6,390.3,415.1z"/>
		<path class="st1" d="M447.2,398c23,0,34.8,17.7,34.8,35.4c0,17.7-11.5,35.4-34.8,35.4h-25.3v-70.6L447.2,398L447.2,398z
			 M447.2,458.6c16.3,0,24.7-12.6,24.7-24.9c0-12.6-8.5-25.3-24.7-25.3H432v50.2H447.2z"/>
		<path class="st1" d="M505,458.6h32.8v10.1h-43.2V398h43v10.1h-32.8v19.9h32v10.3h-32v20.2H505z"/>
	</g>
	<g>
		<g>
			<path class="st2" d="M176.6,366.9c-4.2,0-8.1-0.9-11.8-2.9c-3.6-1.7-6.5-4.2-9.2-7c-2.5-2.9-4.5-6.2-5.9-10.1
				c-1.4-4-2.2-7.8-2.2-11.8c0-4.2,0.6-8.5,2-12.3c1.4-4,3.4-7.4,5.9-10.3c2.5-2.9,5.6-5.4,9-7c3.6-1.7,7.4-2.5,11.8-2.5
				c5.4,0,9.8,1.4,13.7,4c3.9,2.6,7.4,5.9,10.1,10.1v-13h7.4v62.3c0,4.2-0.9,8.1-2.5,11.5c-1.6,3.4-4,6.2-6.5,8.1
				c-2.9,2.2-5.9,4-9.8,5.1c-3.6,1.1-7.6,1.7-11.8,1.7c-7,0-13-1.4-17.1-4c-4.5-2.5-7.8-5.9-10.7-10.1l5.1-4c2.5,4,5.6,7,9.8,8.7
				c4,2,8.5,2.9,13,2.9c3.1,0,5.9-0.2,8.7-1.1s5.1-2,7-3.6c2-1.7,3.6-3.6,4.7-6.2c1.1-2.6,1.7-5.4,1.7-8.7v-12.3
				c-2.5,4-5.6,7-9.8,9.6C185.6,365.8,181.1,366.9,176.6,366.9z M178.9,360.2c2.2,0,4.7-0.6,7-1.4c2.2-0.9,4.5-2,6.2-3.6
				c2-1.4,3.4-3.1,4.7-5.1s2-3.6,2.5-5.6v-19.1c-0.9-2.2-2-4.2-3.6-6.2c-1.7-2-3.4-3.6-5.1-4.7c-2-1.4-4-2.5-6.2-3.1
				c-2.2-0.9-4.5-1.1-6.7-1.1c-3.4,0-6.5,0.9-9.2,2.2c-2.9,1.4-5.1,3.4-7,5.9c-2,2.2-3.4,5.1-4.2,8.1c-1.1,3.1-1.4,6.2-1.4,9.2
				c0,3.4,0.6,6.5,1.7,9.6s2.9,5.6,4.7,7.8c2,2.2,4.5,4,7.4,5.4C172.6,359.6,175.8,360.2,178.9,360.2z"/>
		</g>
		<g>
			<path class="st2" d="M247.3,310.8c-5.1,0.2-9.6,1.7-13.5,4.2c-4,2.9-6.5,6.5-8.1,11v36.1h-7.6v-58.1h7v14.1
				c2-4.2,4.7-7.6,7.8-10.1c3.4-2.9,6.7-4.2,10.7-4.2c0.6,0,1.4,0,2,0c0.6,0,1.1,0,1.4,0L247.3,310.8z"/>
			<path class="st2" d="M277.3,363.5c-4.2,0-8.1-0.9-11.8-2.5c-3.6-1.7-6.5-3.6-9.2-6.5c-2.5-2.9-4.5-5.9-5.9-9.6s-2.2-7.6-2.2-11.5
				c0-4.2,0.9-7.8,2.2-11.5c1.4-3.6,3.4-6.7,5.9-9.6c2.5-2.9,5.6-5.1,9.2-6.5c3.6-1.7,7.4-2.5,11.5-2.5c4.2,0,8.1,0.9,11.5,2.5
				c3.6,1.7,6.5,4,9.2,6.5c2.5,2.9,4.5,5.9,5.9,9.6c1.4,3.6,2.2,7.6,2.2,11.5s-0.9,7.8-2.2,11.5c-1.4,3.6-3.4,6.7-5.9,9.6
				c-2.5,2.9-5.6,5.1-9.2,6.5C285.1,362.7,281.3,363.5,277.3,363.5z M256,333.5c0,3.4,0.6,6.2,1.7,9c1.1,2.9,2.5,5.4,4.5,7.4
				c2,2.2,4.2,3.6,6.7,5.1c2.5,1.1,5.4,1.7,8.1,1.7c2.9,0,5.6-0.6,8.1-2c2.5-1.1,4.7-2.9,6.7-5.1c2-2.2,3.4-4.5,4.5-7.4
				s1.7-5.9,1.7-9.2c0-3.1-0.6-6.2-1.7-9c-1.1-2.9-2.5-5.4-4.5-7.6c-2-2.2-4.2-4-6.7-5.1c-2.5-1.1-5.4-2-8.1-2c-2.9,0-5.6,0.6-8.1,2
				c-2.5,1.1-4.7,2.9-6.7,5.1c-2,2.2-3.4,4.7-4.5,7.6C256.5,327,256,330.1,256,333.5z"/>
			<path class="st2" d="M386.9,304.1h7.4l-24.9,58.1h-6.5l-12.3-29.8l-12.3,29.8h-6.5l-24.4-58.1h7.4l21.3,50.2l11-26.7l-9.8-23.5
				h6.5l7.6,19.1l7.6-19.1h6.5l-9.8,23.5l11,26.7L386.9,304.1z"/>
		</g>
	</g>
	<g>
		<path class="st1" d="M422.1,380.9c0.2,0,0.9,0,1.1,0.2c0.2,0,0.9,0,1.1,0c0.9,0,1.7,0,2.5-0.2c0.9-0.2,1.4-0.2,2-0.6
			c0.2-0.2,0.9-0.6,1.1-0.9c0.2-0.6,0.9-1.4,1.7-2.5c0.6-1.1,1.4-3.1,2.5-5.1c0.9-2.2,2.2-5.4,3.6-9l-25.5-58.7h8.1l21.9,51.6
			l20.2-51.6h7.4l-30.6,76c-1.1,2.9-2.5,4.7-4.5,6.2c-2,1.4-4.5,2-8.1,2c-1.4,0-2.9,0-4-0.2v-7h-0.5V380.9z"/>
		<path class="st1" d="M508.4,364c-4.2,0-8.1-0.9-11.8-2.5c-3.6-1.7-6.7-4-9.2-6.7c-2.5-2.9-4.5-5.9-5.9-9.8
			c-1.4-3.6-2.2-7.6-2.2-11.5c0-4.2,0.9-8.1,2.2-11.8c1.4-3.6,3.4-7,6.2-9.8c2.5-2.9,5.6-5.1,9.2-6.7c3.6-1.7,7.6-2.5,11.8-2.5
			s8.1,0.9,11.8,2.5c3.6,1.7,6.7,4,9.2,6.7c2.5,2.9,4.5,5.9,6.2,9.8c1.4,3.6,2.2,7.6,2.2,11.8c0,4-0.9,7.8-2.2,11.5
			c-1.4,3.6-3.4,7-6.2,9.8c-2.5,2.9-5.6,5.1-9.2,6.7C516.6,363.3,512.6,364,508.4,364z M487.1,333.8c0,3.4,0.6,6.5,1.7,9.2
			c1.1,2.9,2.5,5.4,4.5,7.6s4.2,4,6.7,5.1c2.5,1.1,5.4,1.7,8.5,1.7c2.9,0,5.6-0.6,8.5-2c2.5-1.1,4.7-2.9,6.7-5.1
			c2-2.2,3.4-4.7,4.5-7.6c1.1-2.9,1.7-5.9,1.7-9.2c0-3.4-0.6-6.2-1.7-9.2c-1.1-2.9-2.9-5.4-4.5-7.6c-2-2.2-4.2-4-6.7-5.1
			c-2.5-1.1-5.4-2-8.1-2c-2.9,0-5.6,0.6-8.5,2c-2.5,1.1-4.7,3.1-6.7,5.1c-2,2.2-3.4,4.7-4.5,7.6
			C487.7,327.3,487.1,330.4,487.1,333.8z"/>
		<path class="st1" d="M574.1,364c-6.2,0-11-2.2-14.1-6.5c-3.1-4.2-4.7-10.7-4.7-19.1V304h7.6v33.1c0,13.2,4.5,19.9,13.7,19.9
			c2.2,0,4.5-0.2,6.7-1.1c2.2-0.9,4.2-2,6.2-3.4c2-1.4,3.4-3.1,5.1-5.1c1.4-2,2.5-4.2,3.6-6.7V304h7.6v48.8c0,2.2,0.9,3.1,2.9,3.1
			v6.7c-1.4,0.2-2.5,0.2-3.1,0.2c-1.7,0-3.1-0.6-4.5-1.7c-1.1-1.1-2-2.2-2-4v-8.1c-2.5,4.5-6.2,8.1-10.3,10.7
			C583.9,362.7,579.2,364,574.1,364z"/>
		<path class="st1" d="M657.7,310.8c-5.1,0.2-9.8,1.7-13.5,4.2c-4,2.9-6.5,6.5-8.1,11.2v36.5h-7.6v-58.7h7.4v14.1
			c2-4.2,4.7-7.6,8.1-10.3c3.4-2.9,7-4.2,10.7-4.2c0.6,0,1.4,0,2,0s1.1,0,1.4,0v7.4h-0.4V310.8z"/>
	</g>
	<g>
		<g>
			<g>
				<defs>
					<rect id="SVGID_1_" x="103.6" y="52.2" width="578.5" height="196.6"/>
				</defs>
				<clipPath id="SVGID_2_">
					<use xlink:href="#SVGID_1_"  style="overflow:visible;"/>
				</clipPath>
				<path class="st3" d="M291.6,233.3c0,0,30.9,5.4,34.8,0c0,0-19.1-5.6-26.4-8.1s-18.6-7.6-24.2-17.1c2.5,0.6,23.3,0,24.2-5.1
					c-14.3-5.6-47.1-36.8-37.6-34.8c9.2,1.7,15.7-0.6,14.6-2c-1.1-1.7-14.3-13.7-17.4-17.9c-3.1-4.2-0.9-2.5,10.1-6.2
					c-11-3.1-19.1-21.6-22.7-33.6c-3.1,7.8-12.3,24.4-26.4,34.8c5.9,4.7,10.3,2.5,12.6,2.2c2.2-0.2-5.6,20.8-21.6,26.7
					c8.7,5.9,14.8,1.1,14.8,1.1s-4.5,24.2-36.1,37c5.1,6.2,21.1-0.6,24.2-1.1c-9.6,17.1-16.3,24.9-31.1,28.9
					c3.6,2.5,18.8,1.7,24.7,0c-14.8,14.1-18.8,16.6-26,17.1c8.5,8.5,17.4,1.7,18.6,1.4c-1.4,6.5-24.9,13.5-24.9,13.5
					c4.7,3.6,13,2.5,23.3,1.1c10.3-1.4,52.5-9.2,52.5-9.2s53.6,11.5,68.4,10.7c-13.7-10.3-32.8-29.2-33.6-31.1
					c10.7,5.6,32.8,7,34.5,6.7C302.2,242.9,291.6,233.3,291.6,233.3z"/>
			</g>
		</g>
		<g>
			<g>
				<defs>
					<rect id="SVGID_3_" x="103.6" y="52.2" width="578.5" height="196.6"/>
				</defs>
				<clipPath id="SVGID_4_">
					<use xlink:href="#SVGID_3_"  style="overflow:visible;"/>
				</clipPath>
				<path class="st4" d="M498.3,242.1c0,0-24.9,10.3-30,2.2c0,0,21.1-13.7,30.9-17.7c9.8-4,13-8.5,20.2-22.7c-3.4,1.1-30.9,0-32-7.8
					c19.1-8.5,69.3-54.9,56.9-52.2c-12.3,2.9-33.9,1.4-26.4-4c2.2-1.7,19.1-20.8,23-27.2c4.2-6.5,1.1-4-13.5-9.6
					c14.6-4.7,25.3-32.8,30-51.1c4.2,12.1,16.3,37.3,35,52.7c-7.8,7-13.7,3.6-16.8,3.4c-3.1-0.2,7.6,31.6,28.7,40.6
					c-9.6,7.6-6.7,9.2-26.9,2.2c3.4,5.9,49.3,53.3,55.3,55.8c-6.7,9.6-28-1.1-32-1.7c12.6,26,21.6,37.9,41.2,44.1
					c-4.7,4-24.9,2.9-32.8,0c19.7,21.3,24.9,25.3,34.5,26c-11.2,13-23,2.9-24.7,2c2,9.8,33.1,20.4,33.1,20.4
					c-6.5,5.6-17.1,4-30.9,1.7c-13.7-2.2-69.3-14.1-69.3-14.1s-70.6,17.4-90.3,16.3c18.2-15.9,43.5-44.6,44.6-47.7
					c-14.1,8.7-43.5,10.7-45.7,10.1C484.4,256.4,498.3,242.1,498.3,242.1z"/>
			</g>
		</g>
		<g>
			<g>
				<defs>
					<rect id="SVGID_5_" x="183.4" y="52.2" width="457.5" height="196.6"/>
				</defs>
				<clipPath id="SVGID_6_">
					<use xlink:href="#SVGID_5_"  style="overflow:visible;"/>
				</clipPath>
				<path class="st5" d="M442.7,240.3c0,0,30.3,6.7,34.3,0c0,0-18.8-7-25.8-10.1c-7.4-3.4-18.2-9.2-23.8-21.3c2.5,0.9,23,0,23.8-6.5
					c-14.1-7-46-45.7-37-43.5c9,2.2,15.4-0.6,14.3-2.5c-1.1-2-14.1-17.1-17.1-22.4c-3.1-5.4-0.9-3.4,9.8-7.8
					c-10.7-4-18.8-26.9-22.4-42.1c-3.1,9.8-12.1,30.5-25.8,43.2c5.9,5.9,10.1,3.1,12.3,2.9c2.2-0.2-5.6,26-21.3,33.4
					c8.5,7.6,14.6,1.4,14.6,1.4s-4.5,30-35.6,46.3c5.1,7.8,20.8-0.9,23.8-1.4c-9.2,21.6-15.9,31.1-30.5,36.1
					c3.6,3.4,18.6,2.2,24.4,0c-14.6,17.4-18.6,20.8-25.5,21.6c8.5,10.3,17.1,2.2,18.2,1.7c-1.4,8.1-24.7,16.8-24.7,16.8
					c4.7,4.7,12.6,3.4,23,1.4c10.1-2,51.3-11.5,51.3-11.5s52.5,14.3,67,13.5c-13.5-13.2-32.3-36.5-33.1-39
					c10.3,7.4,32.3,8.7,33.9,8.1C453.2,252.4,442.7,240.3,442.7,240.3z"/>
			</g>
		</g>
	</g>
</g>
</svg>
