<svg id="Layer_1" data-name="Layer 1" xmlns="http://www.w3.org/2000/svg" xmlns:xlink="http://www.w3.org/1999/xlink" viewBox="0 0 800 600"><defs><style>.cls-1{fill:#58754e;}.cls-2{fill:url(#linear-gradient);}.cls-3{fill:url(#linear-gradient-2);}.cls-4{fill:url(#linear-gradient-3);}.cls-5,.cls-8{fill:none;stroke:#f2f2f2;stroke-linecap:round;stroke-linejoin:round;}.cls-5,.cls-8,.cls-9{stroke-width:5.58px;}.cls-5{opacity:0.87;}.cls-6,.cls-9{fill:#f2f2f2;}.cls-7{fill:#3b2f2f;}.cls-9{stroke:#d1cbbe;stroke-miterlimit:10;}</style><linearGradient id="linear-gradient" x1="311.92" y1="447.67" x2="334.72" y2="447.67" gradientUnits="userSpaceOnUse"><stop offset="0" stop-color="#3b2f2f"/><stop offset="1"/></linearGradient><linearGradient id="linear-gradient-2" x1="479.85" y1="447.67" x2="502.64" y2="447.67" xlink:href="#linear-gradient"/><linearGradient id="linear-gradient-3" x1="468.1" y1="146.85" x2="292.44" y2="451.1" xlink:href="#linear-gradient"/></defs><title>grow-your-code-v2</title><path class="cls-1" d="M370.89,442.23s39.21,7.94,44.21,0c0,0-24.25-8.27-33.51-12.24s-23.53-11.25-30.66-25.47c3.21,1,29.59,0,30.66-7.61-18.18-8.27-59.53-54.92-47.77-52.28s20-.66,18.54-3-18.18-20.52-22.1-26.8-1.07-4,12.83-9.26c-13.9-4.63-24.24-32.43-28.88-50.29-3.92,11.91-15.69,36.73-33.51,51.95,7.49,6.95,13.19,3.64,16,3.31s-7.13,31.32-27.45,40c11.05,9,18.89,1.71,18.89,1.71s-5.7,36.07-46,55.59c6.42,9.26,26.74-1,30.66-1.66-12.12,25.81-20.68,37.39-39.57,43.35,4.64,4,23.89,2.65,31.37,0-18.9,20.84-23.89,24.81-33.15,25.81,10.7,12.57,22.1,2.65,23.53,2-1.78,9.6-31.73,20.19-31.73,20.19,6.06,5.63,16.4,4,29.59,1.65s66.31-13.9,66.31-13.9,67.73,17.21,86.63,16c-17.47-15.71-41.71-43.84-42.78-46.82,13.55,8.6,41.71,10.59,43.85,9.93A99.88,99.88,0,0,1,370.89,442.23Z"/><path class="cls-1" d="M470.2,452.39s-25.44,10.48-30.76,2.23c0,0,21.51-14,31.41-18.15S483.9,428,491.5,413.21c-3.42,1-31.58,0-32.72-7.9,19.41-8.59,70.84-56.13,58.29-53.38s-34.75,1.5-27.09-4c2.28-1.64,19.41-21.31,23.59-27.84s1.14-4.13-13.7-9.62c14.84-4.81,25.87-33.68,30.82-52.24,4.18,12.37,16.74,38.15,35.77,54-8,7.22-14.08,3.78-17.12,3.44s7.61,32.54,29.3,41.53c-9.68,7.66-7,9.48-27.51,2.37,3.43,6,50.51,54.35,56.43,57.14-6.85,9.62-28.54-1-32.72-1.72,12.94,26.81,22.07,38.83,42.24,45-4.95,4.13-25.49,2.75-33.48,0,20.17,21.65,25.5,25.78,35.39,26.81-11.41,13.06-23.59,2.75-25.11,2.06,1.9,10,33.86,21,33.86,21-6.47,5.84-17.5,4.13-31.58,1.72s-70.77-14.43-70.77-14.43-72.29,17.87-92.46,16.67c18.64-16.32,44.52-45.54,45.66-48.63-14.46,8.93-44.52,11-46.8,10.31A106.94,106.94,0,0,0,470.2,452.39Z"/><path class="cls-1" d="M503.14,450.13s50.8,9.16,57.27,0c0,0-31.41-9.55-43.42-14.14s-30.48-13-39.72-29.41c4.15,1.14,38.33,0,39.72-8.78-23.55-9.55-77.13-63.41-61.89-60.36s25.86-.76,24-3.44-23.56-23.68-28.64-30.94-1.39-4.59,16.62-10.7c-18-5.35-31.41-37.44-37.41-58.06-5.08,13.75-20.32,42.4-43.41,60,9.7,8,17.09,4.2,20.78,3.82s-9.24,36.16-35.56,46.15c14.32,10.38,24.48,2,24.48,2s-7.39,41.64-59.58,64.17c8.32,10.7,34.64-1.15,39.72-1.91-15.7,29.79-26.79,43.17-51.27,50,6,4.58,30.95,3.06,40.64,0-24.48,24.07-30.95,28.65-43,29.8,13.86,14.51,28.64,3.05,30.49,2.29-2.31,11.08-41.11,23.3-41.11,23.3,7.85,6.5,21.25,4.58,38.33,1.91s85.91-16,85.91-16,87.76,19.87,112.23,18.53c-22.63-18.14-54-50.61-55.42-54,17.55,9.93,54,12.22,56.81,11.46C520.69,466.56,503.14,450.13,503.14,450.13Z"/><rect class="cls-2" x="311.92" y="430.57" width="22.8" height="34.19"/><rect class="cls-3" x="479.85" y="430.57" width="22.8" height="34.19"/><path class="cls-1" d="M365.93,211.8s19,3.25,21.39,0c0,0-11.73-3.38-16.22-5s-11.39-4.6-14.84-10.42c1.55.4,14.32,0,14.84-3.11-8.8-3.38-28.81-22.46-23.12-21.38s9.66-.27,9-1.22-8.8-8.39-10.7-11-.52-1.62,6.21-3.79c-6.73-1.9-11.73-13.26-14-20.57-1.9,4.87-7.59,15-16.22,21.24,3.62,2.84,6.38,1.49,7.76,1.35s-3.45,12.81-13.28,16.35c5.35,3.68,9.14.7,9.14.7s-2.76,14.75-22.26,22.73c3.11,3.79,12.94-.41,14.84-.68-5.87,10.55-10,15.29-19.15,17.72,2.24,1.62,11.56,1.08,15.18,0-9.14,8.52-11.56,10.15-16,10.55,5.18,5.14,10.7,1.08,11.39.81-.86,3.93-15.36,8.25-15.36,8.25,2.93,2.3,7.94,1.62,14.32.68s32.09-5.68,32.09-5.68,32.78,7,41.93,6.56c-8.45-6.43-20.19-17.93-20.7-19.14,6.56,3.52,20.19,4.33,21.22,4.06A49.88,49.88,0,0,1,365.93,211.8Z"/><path class="cls-1" d="M492.67,196.8s-15.25,6.29-18.44,1.34c0,0,12.9-8.41,18.83-10.88s7.83-5.09,12.39-13.95c-2.05.62-18.93,0-19.62-4.74,11.64-5.15,42.47-33.65,34.95-32s-20.84.9-16.24-2.41c1.37-1,11.64-12.78,14.14-16.69s.68-2.47-8.21-5.77c8.9-2.89,15.51-20.19,18.48-31.32,2.51,7.42,10,22.87,21.44,32.35-4.79,4.33-8.44,2.27-10.26,2.06s4.56,19.51,17.57,24.9c-5.8,4.59-4.17,5.69-16.49,1.42,2.06,3.6,30.28,32.59,33.83,34.26-4.11,5.77-17.11-.62-19.62-1,7.76,16.07,13.23,23.28,25.32,27-3,2.47-15.28,1.65-20.08,0,12.09,13,15.29,15.45,21.22,16.07-6.84,7.83-14.14,1.65-15.06,1.24,1.14,6,20.3,12.57,20.3,12.57-3.88,3.5-10.49,2.47-18.93,1s-42.43-8.65-42.43-8.65-43.34,10.71-55.43,10c11.18-9.79,26.69-27.3,27.37-29.16C489,209.78,471,211,469.62,210.6A64.12,64.12,0,0,0,492.67,196.8Z"/><path class="cls-1" d="M458.51,195.87s18.6,4.06,21,0c0,0-11.5-4.23-15.9-6.26s-11.16-5.75-14.54-13c1.52.51,14,0,14.54-3.89-8.62-4.23-28.24-28.07-22.66-26.72s9.47-.34,8.79-1.52-8.62-10.49-10.48-13.7-.51-2,6.09-4.74c-6.6-2.37-11.5-16.57-13.7-25.71-1.86,6.09-7.44,18.77-15.89,26.55,3.55,3.55,6.26,1.86,7.61,1.69s-3.38,16-13,20.43c5.24,4.59,9,.87,9,.87a41.56,41.56,0,0,1-21.81,28.41c3,4.74,12.68-.51,14.54-.85-5.75,13.19-9.81,19.11-18.77,22.15,2.2,2,11.33,1.35,14.88,0-9,10.65-11.33,12.68-15.73,13.19,5.07,6.43,10.49,1.35,11.16,1-.85,4.9-15.05,10.31-15.05,10.31,2.87,2.88,7.78,2,14,.85s31.45-7.1,31.45-7.1,32.13,8.79,41.09,8.2c-8.29-8-19.78-22.41-20.29-23.93,6.43,4.4,19.79,5.41,20.8,5.07A47.25,47.25,0,0,1,458.51,195.87Z"/><path class="cls-4" d="M232.7,144.74l338,66c49.53,8.8,38.66,51.73,38.66,51.73L589.6,401.17c-4.4,29.72-28.07,38.52-37.35,38.52H295.81c-14.2,0-44.69-4.42-50-22L188,186.56C178.05,144.74,209.89,140.28,232.7,144.74Z"/><path class="cls-5" d="M243.46,158.68l316,61.74c46.31,8.23,36.14,48.36,36.14,48.36L577.15,391.41C573,419.19,557.53,427,542.23,427H302.47s-39.91,2.49-46.71-20.14L201.63,197.57C192.37,158.47,204.62,151.49,243.46,158.68Z"/><path class="cls-6" d="M556.27,390.36c-.44-.88-.32-1.67-1.18-2.32a4,4,0,0,0-2.11-.78,18.51,18.51,0,0,1-5.37-.82c-1.6-.59-4.36-1.39-5.43-2.82s-.1-2.83.86-4c.5-.59,1.16-1.06,1.6-1.55.23-.26.34-.69.64-1s1.19-.42,1.47-.73.94-1.83,1.37-2.44a7,7,0,0,0,1.45-2.47,11,11,0,0,0,.26-1.29c.07-.5-.68-.68.08-1-.18-.46.1-1.22,0-1.82-.11-1.16-.11-2.39-.29-3.57-.36-2.37-1-5.88-3.27-7.1-2.64-1.43-6.06-1.53-9-1.45-2.4.06-4.45,1.3-6.34,2.81a12,12,0,0,0-3,4.86c-.85,2.43-.35,5.6-.15,8.09.1,1.21.33,2.43.44,3.64a43.94,43.94,0,0,0,.32,4.76c.45,2.28,1.84,3.36-.18,5.3-1.8,1.73-3.56,3.44-5.8,1.55-1.8-1.52-2.33-3.57-2.94-5.7-1.6-5.61-.69-11.8.11-17.54.83-5.93,1.53-11.77,1.84-17.75.15-2.9,1.11-5.6,1.42-8.46.25-2.31-1.47-3.08-3.49-3.88-2.45-1-5.15-.83-6,2.25-.2.74.24,1.56.07,2.3-.12.53-.5.83-.64,1.35-.34,1.25-.08,2.93-.22,4.3s-.44,2.81-.5,4.26a27.73,27.73,0,0,1-.68,3.87c-.26,1.49-.46,3-.77,4.46a15.78,15.78,0,0,1-.65,3.13c-.64,1.28-1.94.93-3.13,1.2s-1.93.6-3,.91c-2.37.67-4.16,2-6.53,2.8-1.06.34-2.08.59-3.12.94-1.25.43-2.55,1.36-3.77,1.64-.87.2-1.62-.21-2.51-.14-1.54.11-2.69.66-3.91-.69-1.54-1.72-2.64-3.59-5-4.33a3.37,3.37,0,0,0-3.4.37c-.48.38-.7.95-1.17,1.33s-1.07.46-1.44,1A4.78,4.78,0,0,0,473,367c.35,1.23.65,2.62,1.12,3.85.55,1.45,1.89,1.53,2.85,2.66s.4,2.44,0,3.75c-.81,2.61-1.81,5.64-4.77,6.15-2.59.45-4.46-.8-6-2.88-1.84-2.56-1.44-5.39.19-8,.74-1.18,2.45-2.64,2.55-4.12s-1.59-2.26-3-1.83c-1.2.38-2.22,1.47-3.23,2s-1.24.21-2.29-.16c-2.37-.83-5.64.78-7.41,2.56-1.59,1.6-3.18,3.58-4.9,5.15-1.89,1.72-3.9,3.64-5.88,5.16a11.6,11.6,0,0,1-6.92,2.79,6.75,6.75,0,0,1-4.14-1c-.21-.1-.22-.29-.45-.38-.53-.19-1.18-.06-1.78-.3-2.39-1-3.74-3.84-4.42-6.2a21.77,21.77,0,0,1-.23-10,19.75,19.75,0,0,1,1.28-4.13,22.73,22.73,0,0,0,.48-2.51c.65-2.31,1.83-4.56,2.5-6.88a38.73,38.73,0,0,1,2.13-5.65A55.22,55.22,0,0,1,434,341.7c1.23-2,3.78-5.53,5.75-2.28.56.92.62,1.34,1.93,1.63a4.81,4.81,0,0,0,3.7-1.17c1.53-1.48-1.76-4.61-3-5.77-1.85-1.7-4.21-1.38-6.24-.35-1.78.9-4,1.84-5.4,3.41-1.77,2-3.85,3.9-5.29,6.15a52.44,52.44,0,0,0-6.07,13.93c-.71,2.6-1.86,5.33-2.75,7.94a15.23,15.23,0,0,0-.71,3c-.16,1.16-.66,2.21-.81,3.38A18.3,18.3,0,0,0,419,384.8c.81,1,1,1.64,2.28,2.17a4.08,4.08,0,0,1,2.26,1.46c.28.41.32.86.68,1.21,0,0,1.46,1,1.41,1,.32,0,.7-.37.8-.35s.56.36.86.46c2.16.71,4.47.47,6.74.52a17.33,17.33,0,0,0,6.55-1,12,12,0,0,0,4.72-3.4,26.27,26.27,0,0,1,2.05-2c.16-.14.07-.51.25-.67.34-.31,1-.41,1.32-.67,2.44-1.75,3.65-4.69,5.74-6.76,1.07-1.06,2.56-1.24,2.85.61.18,1.16-.05,2.57.07,3.78a6.46,6.46,0,0,0,.66,3c.12.21.35.38.48.59a13.34,13.34,0,0,1,.82,2.15c.85,1.8,3.11,2.73,4.81,3.31a10.23,10.23,0,0,0,3.78.59,23.81,23.81,0,0,0,3.72.18c1.14-.21,2-1,3.26-1.23a2.69,2.69,0,0,0,2-.95,34.33,34.33,0,0,0,5.15-5.07A13,13,0,0,0,484.4,378c.18-1.2-.11-2.67.9-3.59.84-.76,2-.8,2.95-1.2s2-1.53,3-.2-.09,2.72-.67,3.8c-2.35,4.4.9,9.82,3.95,13a16.24,16.24,0,0,0,2.59,2.2,10.16,10.16,0,0,0,2.44,1c1.64.64,2.89.36,4.8-.22.65-.2,1.52-.16,2-.71.27-.3.41-1,.73-1.43a17.74,17.74,0,0,1,1.51-1.73c2.1-2,4,1.46,5.58,2.64s3.44,2.52,5.6,2.53a25,25,0,0,0,5.42-.53,14.8,14.8,0,0,0,3-.78,10.21,10.21,0,0,0,1-.35c.1-.06.23-.42.38-.52.79-.5,1.21-.43,1.9-1.09a11.65,11.65,0,0,1,2-1.79c1.23,2,3.2,2.21,5.23,3.23a15.2,15.2,0,0,0,2.47,1.31c.77.2,1.5,0,2.3.3a10.54,10.54,0,0,0,2,.71c1,.11,2.05,0,3.1.08.67.07,1.31,0,2,0a8.4,8.4,0,0,0,2.44.23c1.07-.22,1.53-1.1,2.35-1.73a5.42,5.42,0,0,1,.2-1.13c.05-.15.25-.14.29-.24.11-.29.23-1,.4-1.46C556.07,390,556,390.91,556.27,390.36Zm-49-19.06c-.54.72-.83,2.37-1.28,3.28a28.3,28.3,0,0,0-1.56,4.11,36.38,36.38,0,0,1-2.73,6.09c-1.46,2.68-3,.46-4.17-1.18-.89-1.22-1.38-1.8-.63-3.2.14-.26.58-.33.71-.56s-.16-.37,0-.66.45-.52.52-.72c.16-.47-.09-.77,0-1.14s.54-.32.62-.55a9.57,9.57,0,0,0,.17-1.08,18.43,18.43,0,0,1,3.18-6.71c.43-.65.12-.6.83-1.1a11,11,0,0,1,2.29-.93c3.38-1.32,3.55,2,2,4.35C507.24,371.4,507.79,370.56,507.31,371.31Zm33.81,1.21c-3,2.45-3.69-.94-3.83-3.53-.12-2.21-.94-7.1,1.22-8.66a4.21,4.21,0,0,1,3.59-.07,9.73,9.73,0,0,1,1.75,3.53c.43,1.49-.48,2.52-.81,3.89C542.6,369.42,542.85,371.36,541.11,372.52Z"/><path class="cls-7" d="M428.94,381.79c0,.33.17.3.36,0A2,2,0,0,1,428.94,381.79Z"/><path class="cls-6" d="M403.32,378.92c-.45-.64-3,.83-3.78,1.25-2.57,1.37-5.27,2.42-7.48,4.45-.75.69-1.38,1.31-2.18,1.92a2.08,2.08,0,0,1-1.66.67,2.16,2.16,0,0,1-1.53-.57c-.66-.61-.44-.75-.52-1.59a10.37,10.37,0,0,1,0-3.7,17.26,17.26,0,0,1,1-3.17c1-2.41,2.57-4.51,3.77-6.85,1-2,.07-4.44-2.5-4.49-.65,0-1.41.26-2.07.31-.23,0-.46-.13-.69-.11a11.42,11.42,0,0,0-4.16,1.64c-1.23.75-2.29,2-3.63,2.53a4.87,4.87,0,0,1-2.14.16c-1-.07-1.79.22-2.8.24s-1.5-.23-1.6-1c-.15-1.17.61-1.1,1.42-1.3-1.66-5-8.66-6.29-11.49-1.72-1.58,2.55-1.89,6.33.8,8.35,1.31,1,2.72,1.43,2.19,3.37-.47,1.7-2,2-3.19,3-2.42,2-4.06,3.17-7.37,2-1.76-.62-2.27-1.06-2.4-3a36.36,36.36,0,0,1-.07-4.82c0-.7.43-1.4.41-2.09,0-1-.65-2-.75-3-.12-1.22.43-2.05.57-3.18s-.39-1.57-.4-2.56c0-1.38,1.51-2.68.47-4-.4-.5-1.31-.41-1.57-.73s-3,.31-3.45,1.43c-.51,1.3-1.53,1.93-2.13,3.2a13.93,13.93,0,0,0-1.13,5,19.44,19.44,0,0,1,0,2.3,19.5,19.5,0,0,0-.21,2.2,14.48,14.48,0,0,0,.18,3.17c.18,2.6.35,6.91-3,7.57a4.74,4.74,0,0,1-4.79-2.6c-1.2-2.27-.72-4.69-.45-7.1.15-1.37.65-2.91.68-4.25,0-1-.32-2.07-.23-3.12a7.72,7.72,0,0,1,1.15-3.26c.65-.92,1.86-1.27.69-2.46-1.82-1.87-4.21,0-5.45,1.48a23.63,23.63,0,0,1-5.25,4.69c-1.74,1.18-3,1.49-4-.54s-2.56-3.79-4.95-4a6.65,6.65,0,0,0-3.43.74c-.83.44-1.37,1.46-2.24,1.74-1,.33-2.64-.24-3.69-.33a10.44,10.44,0,0,0-2.5,0,8.39,8.39,0,0,0-4.86,3.6,34.12,34.12,0,0,0-2.49,3.56c-.34.62-.87,1.29-1.16,1.91a13.26,13.26,0,0,0-.5,2.73,9.8,9.8,0,0,0-.35,1.19c0,.2.34.24.3.59-.11.91-.66,1.73-.73,2.64-.23,3.16,2.31,5.28,4.47,7.07a11.39,11.39,0,0,0,6.47,2.35c2.24.15,4.81,1.17,6.91-.07a30.26,30.26,0,0,0,5.09-4.39c2.3-2.16,2.61-4.88,3.42-7.8.53-1.95.29-3.67,2.3-4.45.88-.35,2-.86,2.79.07s-.21,3.22-.23,4.41c-.1,4.85.21,9.77,5.32,11.82a13.27,13.27,0,0,0,7.4,1.11,15,15,0,0,0,3-1.12c1-.46,2.34-1.73,3.49-1.75s1.8.9,2.76,1.25c1.16.42,2.48.61,3.61.91,2.45.65,5.26-.36,7.27-1.77a19.78,19.78,0,0,0,5-4.75,14.4,14.4,0,0,1,3-3,11.85,11.85,0,0,0,1.7-1.41c.51-.6.63-1.29,1.09-1.9.82-1.08,2.25-1,3.5-1.06a26.42,26.42,0,0,1,2.65-.3c.95.11,1.09.53,1.2,1.22a7.11,7.11,0,0,1-.15,1,15.86,15.86,0,0,0-.57,2.45c-.2,1.35-1,2.7-1,4.06a13.25,13.25,0,0,0,.39,1.83c.07.7-.14,1.32,0,2,.45,2.7,3,3.93,5.39,4.38a17.7,17.7,0,0,0,3.71.06A13,13,0,0,0,390,393.9a14.8,14.8,0,0,0,5.52-4.33c1.16-1.5,2.4-3,3.53-4.39.92-1.16,2.28-2,3.22-3.18.35-.43.42-.67.77-1.16.76-1,1-.93.28-1.92C403.16,378.69,403.48,379.13,403.32,378.92Zm-87.83,1.94c-.55,2-.69,3.85-2.94,4.54-1.38.42-4.51,1-5.81.27-.74-.41-1.33-1-2.08-1.44a3.65,3.65,0,0,1-1.6-1.46,5.72,5.72,0,0,1-.4-5.46,22.51,22.51,0,0,1,2.47-4.81c1.35-1.86,3.19-1.28,4,.76s1.31,2.78,3.54,3.62,3.53,1.38,2.85,4Z"/><path class="cls-6" d="M301,331.19c-.58,1.16-1.71,1.81-2.41,2.78a7.17,7.17,0,0,0-.83,1.92,8.6,8.6,0,0,0,0,2.62,9,9,0,0,1-1.33,3.3,36.89,36.89,0,0,0-1.51,4.13c-1.9,5.48-2.48,11.18-3.86,16.75-.6,2.44-.68,4.86-1.59,7.19-1.08,2.77-1.37,5.76-2.41,8.53a27.43,27.43,0,0,1-1.87,3.53c-.75,1.36-1.26,2.79-2,4.14-1.25,2.15-2.06,5.11-4,6.78A7.3,7.3,0,0,1,277,394a12,12,0,0,1-1.93.39c-.24,0-.49-.22-.71-.18s-.86.4-1.11.4a2.79,2.79,0,0,1-2.12-1.25c-.76-1.22.17-2.56.56-3.68.89-2.58,1.79-5.24,2.72-7.88s2.1-5.06,2.79-7.76,1.72-5.51,2.36-8.31c.29-1.27.84-2.68-.39-3.58s-2.65-.76-3.78-1.6c-2.11-1.59-3.84-4.15-5.48-6.22-.87-1.1-1.61-2.29-2.56-3.33-1.15-1.25-2.39-2.28-3.41-3.63s-2.15-2.56-.92-4.33c.56-.81.94-.67,1.79-.89a13.28,13.28,0,0,1,3-.86,5.43,5.43,0,0,1,3.36,1.35c1.07,1,2.12,2.09,3.2,3.08s2.56,1.87,3.48,3.2a36.42,36.42,0,0,0,4.62,5.17c1.27-3.23,1.93-6.6,3-9.9a23.71,23.71,0,0,0,1.48-6.17,12,12,0,0,1,.34-3.16c1-3,2.85-5.49,6.16-6.06a32.32,32.32,0,0,1,4-.8c1.38,0,4.61,1.12,3.51,3.12C300.74,331.64,301.35,330.48,301,331.19Z"/><path d="M615.18,356.67c-.11,0-.12-.08-.11-.16s.05-.2.17-.21.1.1.1.17S615.31,356.66,615.18,356.67Z"/><path class="cls-6" d="M303.31,292.53v-45c0-8.78,8.78-15.89,18.85-15.89,9.24,0,17,7.11,17,15.89v10.9h-6.1v-10.9c0-5.17-5.17-9.79-10.9-9.79-6.65,0-12.66,4.62-12.66,9.79v45c0,5.45,6.19,9.33,12.66,9.33,5.54,0,10.9-3.88,10.9-9.33V272.76h-9.42v-5.08h15.52v24.85c0,8.68-8.13,15.24-17,15.24C312.37,307.78,303.41,301.22,303.31,292.53Z"/><path class="cls-6" d="M364,307.13h-6.1l-.09-75.48h16.08a16.17,16.17,0,0,1,16.17,16.08V259c0,4.16-2.68,8.31-6.65,11.27,4.62,3,7.3,7.67,7.3,12.2v24.67h-6.19V282.46c0-5-4.8-9.33-10.16-9.33H364Zm0-69.39V268h10.26a9.28,9.28,0,0,0,9.52-9V247.72c0-5.64-3.14-10-7.11-10Z"/><path class="cls-6" d="M445.8,292.44c0,8.68-8.68,15.24-18.57,15.24-9.7,0-18.48-6.56-18.57-15.24V246.89c0-8.69,8.87-15.24,18.57-15.24,9.89,0,18.57,6.56,18.57,15.24Zm-6.1,0V246.89c0-5.45-5.91-9.33-12.47-9.33s-12.47,3.88-12.47,9.33v45.55c0,5.45,6,9.33,12.47,9.33S439.7,297.89,439.7,292.44Z"/><path class="cls-6" d="M480.08,307.13h-6.74l-11.18-75.48h6.28l8.78,55.62,9.7-55.62h5.82l9.7,55.62,8.78-55.62h6.28l-11.18,75.48h-6.74l-9.79-55.71Z"/><polyline class="cls-8" points="282.29 251.03 256.62 270.29 282.29 289.54"/><polyline class="cls-8" points="536.4 289.54 562.07 270.29 536.4 251.03"/><path class="cls-9" d="M273.27,463.79H541a5.74,5.74,0,0,1,5.74,5.74v22.18a0,0,0,0,1,0,0H267.53a0,0,0,0,1,0,0V469.53A5.74,5.74,0,0,1,273.27,463.79Z"/><path class="cls-9" d="M239.06,491.71H575.17a6.41,6.41,0,0,1,6.41,6.41v21.5a0,0,0,0,1,0,0H232.64a0,0,0,0,1,0,0v-21.5A6.41,6.41,0,0,1,239.06,491.71Z"/></svg>