<?xml version="1.0" encoding="utf-8"?>
<!-- Generator: Adobe Illustrator 20.1.0, SVG Export Plug-In . SVG Version: 6.00 Build 0)  -->
<svg version="1.1" id="Layer_1" xmlns="http://www.w3.org/2000/svg" xmlns:xlink="http://www.w3.org/1999/xlink" x="0px" y="0px"
	 viewBox="0 0 197.7 197.7" style="enable-background:new 0 0 197.7 197.7;" xml:space="preserve">
<style type="text/css">
	.st0{clip-path:url(#SVGID_2_);fill:#323E3F;}
	.st1{clip-path:url(#SVGID_4_);fill:#C9DEDB;}
	.st2{clip-path:url(#SVGID_6_);fill:#C9DEDB;}
	.st3{fill:none;}
	.st4{clip-path:url(#SVGID_8_);fill:#FFFFFF;stroke:#90D8CD;stroke-width:8;stroke-miterlimit:10;}
	.st5{clip-path:url(#SVGID_10_);fill:#90D8CD;stroke:#152121;stroke-width:3;stroke-linejoin:round;stroke-miterlimit:10;}
	.st6{clip-path:url(#SVGID_12_);fill:none;stroke:#90D8CD;stroke-width:8;stroke-miterlimit:10;}
	.st7{fill:#90D8CD;stroke:#FFFFFF;stroke-width:1.9008;stroke-linejoin:round;stroke-miterlimit:10;}
	.st8{fill:#90D8CD;stroke:#FFFFFF;stroke-width:4;stroke-linejoin:round;stroke-miterlimit:10;}
	.st9{fill:#90D8CD;stroke:#152121;stroke-width:3;stroke-linejoin:round;stroke-miterlimit:10;}
</style>
<g>
	<g>
		<g>
			<g>
				<defs>
					<path id="SVGID_1_" d="M1090,427.4c0,37.5-20.7,70.3-51.3,87.3c-14.4,8.1-31,12.7-48.7,12.7s-34.3-4.6-48.7-12.6
						C910.7,497.7,890,465,890,427.4c0-55.2,44.8-100,100-100C1045.2,327.4,1090,372.2,1090,427.4z"/>
				</defs>
				<clipPath id="SVGID_2_">
					<use xlink:href="#SVGID_1_"  style="overflow:visible;"/>
				</clipPath>
				<path class="st0" d="M1090,427.4c0,37.5-20.7,70.3-51.3,87.3c-14.4,8.1-31,12.7-48.7,12.7s-34.3-4.6-48.7-12.6
					C910.7,497.7,890,465,890,427.4c0-55.2,44.8-100,100-100C1045.2,327.4,1090,372.2,1090,427.4z"/>
			</g>
		</g>
		<g>
			<g>
				<defs>
					<path id="SVGID_3_" d="M1090,427.4c0,37.5-20.7,70.3-51.3,87.3c-14.4,8.1-31,12.7-48.7,12.7s-34.3-4.6-48.7-12.6
						C910.7,497.7,890,465,890,427.4c0-55.2,44.8-100,100-100C1045.2,327.4,1090,372.2,1090,427.4z"/>
				</defs>
				<clipPath id="SVGID_4_">
					<use xlink:href="#SVGID_3_"  style="overflow:visible;"/>
				</clipPath>
				<ellipse class="st1" cx="990" cy="382.2" rx="33.7" ry="33"/>
			</g>
		</g>
		<g>
			<g>
				<defs>
					<path id="SVGID_5_" d="M1090,427.4c0,37.5-20.7,70.3-51.3,87.3c-14.4,8.1-31,12.7-48.7,12.7s-34.3-4.6-48.7-12.6
						C910.7,497.7,890,465,890,427.4c0-55.2,44.8-100,100-100C1045.2,327.4,1090,372.2,1090,427.4z"/>
				</defs>
				<clipPath id="SVGID_6_">
					<use xlink:href="#SVGID_5_"  style="overflow:visible;"/>
				</clipPath>
				<path class="st2" d="M1038.7,485.3v29.4c-14.4,8.1-31,12.7-48.7,12.7s-34.3-4.6-48.7-12.6v-29.4c0-26.9,21.8-48.7,48.7-48.7
					c13.5,0,25.6,5.5,34.4,14.3C1033.2,459.7,1038.7,471.9,1038.7,485.3z"/>
			</g>
		</g>
	</g>
</g>
<rect x="33.5" y="33.4" class="st3" width="162" height="162"/>
<g>
	<g>
		<g>
			<g>
				<defs>
					<path id="SVGID_7_" d="M181.8,98.8c0,31.1-17.2,58.3-42.5,72.4c-11.9,6.7-25.7,10.5-40.4,10.5s-28.4-3.8-40.4-10.5
						C33.1,157.1,15.9,130,15.9,98.8C15.9,53,53,15.9,98.8,15.9S181.8,53.1,181.8,98.8z"/>
				</defs>
				<clipPath id="SVGID_8_">
					<use xlink:href="#SVGID_7_"  style="overflow:visible;"/>
				</clipPath>
				<path class="st4" d="M181.8,98.8c0,31.1-17.2,58.3-42.5,72.4c-11.9,6.7-25.7,10.5-40.4,10.5s-28.4-3.8-40.4-10.5
					C33.1,157.1,15.9,130,15.9,98.8C15.9,53,53,15.9,98.8,15.9S181.8,53.1,181.8,98.8z"/>
			</g>
		</g>
		<g>
			<g>
				<defs>
					<path id="SVGID_9_" d="M181.8,98.8c0,31.1-17.2,58.3-42.5,72.4c-11.9,6.7-25.7,10.5-40.4,10.5s-28.4-3.8-40.4-10.5
						C33.1,157.1,15.9,130,15.9,98.8C15.9,53,53,15.9,98.8,15.9S181.8,53.1,181.8,98.8z"/>
				</defs>
				<clipPath id="SVGID_10_">
					<use xlink:href="#SVGID_9_"  style="overflow:visible;"/>
				</clipPath>
				<path class="st5" d="M89.7,135.8v53.4c-9.5,5.4-20.4,8.5-32.1,8.5s-22.6-3.1-32.1-8.5v-53.4c0-18.1,14.4-32.8,32.1-32.8
					c8.9,0,16.9,3.6,22.8,9.6C86.1,118.5,89.7,126.7,89.7,135.8z"/>
			</g>
		</g>
	</g>
</g>
<g>
	<g>
		<g>
			<g>
				<defs>
					<path id="SVGID_11_" d="M181.8,98.8c0,31.1-17.2,58.3-42.5,72.4c-11.9,6.7-25.7,10.5-40.4,10.5s-28.4-3.8-40.4-10.5
						C33.1,157.1,15.9,130,15.9,98.8C15.9,53,53,15.9,98.8,15.9S181.8,53.1,181.8,98.8z"/>
				</defs>
				<clipPath id="SVGID_12_">
					<use xlink:href="#SVGID_11_"  style="overflow:visible;"/>
				</clipPath>
				<path class="st6" d="M181.8,98.8c0,31.1-17.2,58.3-42.5,72.4c-11.9,6.7-25.7,10.5-40.4,10.5s-28.4-3.8-40.4-10.5
					C33.1,157.1,15.9,130,15.9,98.8C15.9,53,53,15.9,98.8,15.9S181.8,53.1,181.8,98.8z"/>
			</g>
		</g>
		<g>
			<g>
				<defs>
					<path id="SVGID_13_" d="M181.8,98.8c0,31.1-17.2,58.3-42.5,72.4c-11.9,6.7-25.7,10.5-40.4,10.5s-28.4-3.8-40.4-10.5
						C33.1,157.1,15.9,130,15.9,98.8C15.9,53,53,15.9,98.8,15.9S181.8,53.1,181.8,98.8z"/>
				</defs>
				<clipPath id="SVGID_14_">
					<use xlink:href="#SVGID_13_"  style="overflow:visible;"/>
				</clipPath>
			</g>
		</g>
	</g>
</g>
<path class="st7" d="M60.2,89.6c-18.7,0-34-15-34-33.4s15.2-33.4,34-33.4s34,15,34,33.4S79,89.6,60.2,89.6z"/>
<path class="st8" d="M60.2,89.6c-18.7,0-34-15-34-33.4s15.2-33.4,34-33.4s34,15,34,33.4S79,89.6,60.2,89.6z"/>
<ellipse class="st9" cx="60.2" cy="56.2" rx="31.8" ry="31.2"/>
<path class="st8" d="M116.4,59.2c-1.1,0-2.2-0.5-2.9-1.4c-1-1.2-1.2-2.9-0.4-4.2l6.2-11.9c-1.4-2.8-2.1-5.8-2.1-8.9
	c0-11,8.9-19.9,19.9-19.9h25.1c11,0,19.9,8.9,19.9,19.9s-8.9,19.9-19.9,19.9h-24L117.5,59C117.2,59.1,116.8,59.2,116.4,59.2z"/>
<path class="st9" d="M162.8,15.9h-26.2c-9.2,0-16.7,7.5-16.7,16.7c0,3.4,1,6.6,2.8,9.2l0,0l-7.5,14.3l22.1-6.8h25.6
	c9.2,0,16.7-7.5,16.7-16.7C179.5,23.4,172,15.9,162.8,15.9z"/>
</svg>
