<svg id="Layer_1" data-name="Layer 1" xmlns="http://www.w3.org/2000/svg" viewBox="0 0 50 50"><defs><style>.cls-1,.cls-2,.cls-3{fill:#fff;}.cls-2,.cls-3{stroke:#fff;stroke-miterlimit:10;}.cls-2{stroke-width:0.15px;}.cls-3{stroke-width:1.5px;}.cls-4{fill:#e74b4c;}.cls-5{fill:#261924;}</style></defs><title>icon-web</title><path class="cls-1" d="M48.48,43.23l-47-.08a.72.72,0,0,1-.74-.7L.83,7.51a.72.72,0,0,1,.7-.74l47,.08a.72.72,0,0,1,.74.7l-.05,34.94a.72.72,0,0,1-.7.74"/><path class="cls-2" d="M2.26,9.39a.63.63,0,0,0-.58.55.63.63,0,0,0,.55.58A.63.63,0,0,0,2.81,10,.58.58,0,0,0,2.26,9.39Zm1.68,0a.63.63,0,0,0-.58.55c-.08.34.21.51.55.58A.63.63,0,0,0,4.49,10,.73.73,0,0,0,3.94,9.37Zm42,0a.63.63,0,0,0-.58.55.57.57,0,0,0,1.13,0C46.55,9.66,46.32,9.4,45.93,9.42Zm1.19-.06,0,1,1,0,0-1Zm-44.85,0a.63.63,0,0,0-.58.55.63.63,0,0,0,.55.58A.63.63,0,0,0,2.81,10,.58.58,0,0,0,2.26,9.39Zm1.68,0a.63.63,0,0,0-.58.55c-.08.34.21.51.55.58A.63.63,0,0,0,4.49,10,.73.73,0,0,0,3.94,9.37Zm42,0a.63.63,0,0,0-.58.55.57.57,0,0,0,1.13,0C46.55,9.66,46.32,9.4,45.93,9.42Zm1.19-.06,0,1,1,0,0-1Zm-1.19.06a.63.63,0,0,0-.58.55.57.57,0,0,0,1.13,0C46.55,9.66,46.32,9.4,45.93,9.42Zm-42,0a.63.63,0,0,0-.58.55c-.08.34.21.51.55.58A.63.63,0,0,0,4.49,10,.73.73,0,0,0,3.94,9.37Zm-1.68,0a.63.63,0,0,0-.58.55.63.63,0,0,0,.55.58A.63.63,0,0,0,2.81,10,.58.58,0,0,0,2.26,9.39Zm44.85,0,0,1,1,0,0-1Zm1.37-2.51-47-.08a.72.72,0,0,0-.7.74L.78,42.45a.72.72,0,0,0,.74.7l47,.08a.72.72,0,0,0,.7-.74l.05-34.94A1.05,1.05,0,0,0,48.49,6.85ZM1.07,7.53a.48.48,0,0,1,.38-.41l47,.08a.48.48,0,0,1,.41.38l0,1-37.26,0c-.25,0-.38-.23-.6-.49s-.26-.41-.51-.43L5.9,7.6c-.25,0-.41.26-.53.45s-.28.47-.53.45l-3.69,0ZM1.11,9,4.81,9c.4,0,.62-.4.89-.62.11-.19.17-.28.32-.32l4.58.05a.83.83,0,0,1,.32.32c.23.26.4.62.79.6L49,9.06V11l-47.76,0ZM48.78,42.51a.48.48,0,0,1-.38.41l-47-.08A.48.48,0,0,1,1,42.47l.07-31.34,47.76,0Z"/><circle class="cls-3" cx="4.02" cy="13.12" r="0.77"/><rect class="cls-3" x="34.38" y="12.82" width="3.08" height="0.66"/><rect class="cls-3" x="38.76" y="12.74" width="3.52" height="0.66"/><rect class="cls-3" x="43.36" y="12.78" width="3.3" height="0.66"/><path class="cls-3" d="M42,27.95c0,.15-.17.28-.26.23H8.17c-.15,0-.28-.17-.23-.26V16.38c0-.15.17-.28.26-.23l33.41,0c.15,0,.28.17.23.26Z"/><path class="cls-3" d="M30.32,26.71c.79,0,7.59-.06,8,.07,1,0,1.43,0,1.21-.94s-1.85-6.1-2.15-6c-.49,0-1.88,2.72-2.13,2.7a23.25,23.25,0,0,1-2.38-1.17c-.4,0-2.07,3.24-2.58,4.73C30.07,26.69,30.16,26.75,30.32,26.71Z"/><circle class="cls-3" cx="39.45" cy="18.34" r="0.77"/><path class="cls-3" d="M20.14,33.43a.38.38,0,0,1-.25,0l-9.12,0a.34.34,0,0,1-.25,0l0-9.46c0-.15.17-.28.26-.23l9.12,0c.15,0,.28.17.23.26Z"/><path class="cls-3" d="M11.66,31.55c.55-.06,5.37,0,5.62,0,.79,0,1,0,.89-.62a33.64,33.64,0,0,0-1.55-4.26c-.19-.11-1.47,1.81-1.53,1.9a10.05,10.05,0,0,1-1.66-.87,15.84,15.84,0,0,0-1.88,3.36C11.47,31.44,11.57,31.49,11.66,31.55Z"/><circle class="cls-3" cx="18.06" cy="25.54" r="0.55"/><rect class="cls-3" x="10.49" y="33.37" width="9.67" height="2.86"/><rect class="cls-3" x="11" y="33.92" width="6.48" height="0.44"/><rect class="cls-3" x="10.98" y="34.81" width="8.68" height="0.22"/><rect class="cls-3" x="10.96" y="35.43" width="8.24" height="0.22"/><rect class="cls-3" x="10.56" y="17.38" width="8.57" height="1.1"/><rect class="cls-3" x="10.58" y="19.23" width="16.15" height="0.55"/><rect class="cls-3" x="10.48" y="21.48" width="15.16" height="0.55"/><rect class="cls-3" x="10.52" y="20.33" width="15.49" height="0.55"/><path class="cls-3" d="M27.48,40c-.06.09-.11.19-.21.13l-4.88,0c-.09-.06-.19-.11-.13-.21V38.67c.06-.09.11-.19.21-.13l4.88,0c.09.06.19.11.13.21Z"/><rect class="cls-3" x="23.41" y="39.05" width="3.19" height="0.55"/><rect class="cls-3" x="22.27" y="30.22" width="3.96" height="0.99"/><rect class="cls-3" x="22.32" y="31.88" width="7.47" height="0.44"/><rect class="cls-3" x="22.28" y="33.79" width="7.03" height="0.44"/><rect class="cls-3" x="22.25" y="34.81" width="7.47" height="0.44"/><rect class="cls-3" x="22.32" y="35.69" width="6.04" height="0.44"/><rect class="cls-3" x="22.35" y="32.82" width="7.14" height="0.44"/><rect class="cls-3" x="33.01" y="30.22" width="3.96" height="0.99"/><rect class="cls-3" x="32.96" y="31.88" width="7.47" height="0.44"/><rect class="cls-3" x="33.03" y="33.79" width="7.03" height="0.44"/><rect class="cls-3" x="33" y="34.82" width="7.47" height="0.44"/><rect class="cls-3" x="32.96" y="35.69" width="6.04" height="0.44"/><rect class="cls-3" x="32.99" y="32.82" width="7.14" height="0.44"/><path class="cls-4" d="M2.26,9.39a.63.63,0,0,0-.58.55.63.63,0,0,0,.55.58A.63.63,0,0,0,2.81,10,.58.58,0,0,0,2.26,9.39Zm1.68,0a.63.63,0,0,0-.58.55c-.08.34.21.51.55.58A.63.63,0,0,0,4.49,10,.73.73,0,0,0,3.94,9.37Zm42,0a.63.63,0,0,0-.58.55.57.57,0,0,0,1.13,0C46.55,9.66,46.32,9.4,45.93,9.42Zm1.19-.06,0,1,1,0,0-1Zm-44.85,0a.63.63,0,0,0-.58.55.63.63,0,0,0,.55.58A.63.63,0,0,0,2.81,10,.58.58,0,0,0,2.26,9.39Zm1.68,0a.63.63,0,0,0-.58.55c-.08.34.21.51.55.58A.63.63,0,0,0,4.49,10,.73.73,0,0,0,3.94,9.37Zm42,0a.63.63,0,0,0-.58.55.57.57,0,0,0,1.13,0C46.55,9.66,46.32,9.4,45.93,9.42Zm1.19-.06,0,1,1,0,0-1Zm-1.19.06a.63.63,0,0,0-.58.55.57.57,0,0,0,1.13,0C46.55,9.66,46.32,9.4,45.93,9.42Zm-42,0a.63.63,0,0,0-.58.55c-.08.34.21.51.55.58A.63.63,0,0,0,4.49,10,.73.73,0,0,0,3.94,9.37Zm-1.68,0a.63.63,0,0,0-.58.55.63.63,0,0,0,.55.58A.63.63,0,0,0,2.81,10,.58.58,0,0,0,2.26,9.39Zm44.85,0,0,1,1,0,0-1Zm1.37-2.51-47-.08a.72.72,0,0,0-.7.74L.78,42.45a.72.72,0,0,0,.74.7l47,.08a.72.72,0,0,0,.7-.74l.05-34.94A1.05,1.05,0,0,0,48.49,6.85ZM1.07,7.53a.48.48,0,0,1,.38-.41l47,.08a.48.48,0,0,1,.41.38l0,1-37.26,0c-.25,0-.38-.23-.6-.49s-.26-.41-.51-.43L5.9,7.6c-.25,0-.41.26-.53.45s-.28.47-.53.45l-3.69,0ZM1.11,9,4.81,9c.4,0,.62-.4.89-.62.11-.19.17-.28.32-.32l4.58.05a.83.83,0,0,1,.32.32c.23.26.4.62.79.6L49,9.06V11l-47.76,0ZM48.78,42.51a.48.48,0,0,1-.38.41l-47-.08A.48.48,0,0,1,1,42.47l.07-31.34,47.76,0Z"/><circle class="cls-5" cx="4.02" cy="13.12" r="0.77"/><rect class="cls-5" x="34.38" y="12.82" width="3.08" height="0.66"/><rect class="cls-5" x="38.76" y="12.74" width="3.52" height="0.66"/><rect class="cls-5" x="43.36" y="12.78" width="3.3" height="0.66"/><path class="cls-5" d="M42,27.95c0,.15-.17.28-.26.23H8.17c-.15,0-.28-.17-.23-.26V16.38c0-.15.17-.28.26-.23l33.41,0c.15,0,.28.17.23.26Z"/><path class="cls-4" d="M30.32,26.71c.79,0,7.59-.06,8,.07,1,0,1.43,0,1.21-.94s-1.85-6.1-2.15-6c-.49,0-1.88,2.72-2.13,2.7a23.25,23.25,0,0,1-2.38-1.17c-.4,0-2.07,3.24-2.58,4.73C30.07,26.69,30.16,26.75,30.32,26.71Z"/><circle class="cls-4" cx="39.45" cy="18.34" r="0.77"/><path class="cls-4" d="M20.14,33.43a.38.38,0,0,1-.25,0l-9.12,0a.34.34,0,0,1-.25,0l0-9.46c0-.15.17-.28.26-.23l9.12,0c.15,0,.28.17.23.26Z"/><path class="cls-4" d="M11.66,31.55c.55-.06,5.37,0,5.62,0,.79,0,1,0,.89-.62a33.64,33.64,0,0,0-1.55-4.26c-.19-.11-1.47,1.81-1.53,1.9a10.05,10.05,0,0,1-1.66-.87,15.84,15.84,0,0,0-1.88,3.36C11.47,31.44,11.57,31.49,11.66,31.55Z"/><circle class="cls-4" cx="18.06" cy="25.54" r="0.55"/><rect class="cls-4" x="10.49" y="33.37" width="9.67" height="2.86"/><rect class="cls-4" x="11" y="33.92" width="6.48" height="0.44"/><rect class="cls-4" x="10.98" y="34.81" width="8.68" height="0.22"/><rect class="cls-4" x="10.96" y="35.43" width="8.24" height="0.22"/><rect class="cls-4" x="10.56" y="17.38" width="8.57" height="1.1"/><rect class="cls-4" x="10.58" y="19.23" width="16.15" height="0.55"/><rect class="cls-4" x="10.48" y="21.48" width="15.16" height="0.55"/><rect class="cls-4" x="10.52" y="20.33" width="15.49" height="0.55"/><path class="cls-5" d="M27.48,40c-.06.09-.11.19-.21.13l-4.88,0c-.09-.06-.19-.11-.13-.21V38.67c.06-.09.11-.19.21-.13l4.88,0c.09.06.19.11.13.21Z"/><rect class="cls-4" x="23.41" y="39.05" width="3.19" height="0.55"/><rect class="cls-5" x="22.27" y="30.22" width="3.96" height="0.99"/><rect class="cls-4" x="22.32" y="31.88" width="7.47" height="0.44"/><rect class="cls-4" x="22.28" y="33.79" width="7.03" height="0.44"/><rect class="cls-4" x="22.25" y="34.81" width="7.47" height="0.44"/><rect class="cls-4" x="22.32" y="35.69" width="6.04" height="0.44"/><rect class="cls-4" x="22.35" y="32.82" width="7.14" height="0.44"/><rect class="cls-5" x="33.01" y="30.22" width="3.96" height="0.99"/><rect class="cls-4" x="32.96" y="31.88" width="7.47" height="0.44"/><rect class="cls-4" x="33.03" y="33.79" width="7.03" height="0.44"/><rect class="cls-4" x="33" y="34.82" width="7.47" height="0.44"/><rect class="cls-4" x="32.96" y="35.69" width="6.04" height="0.44"/><rect class="cls-4" x="32.99" y="32.82" width="7.14" height="0.44"/></svg>