<svg xmlns="http://www.w3.org/2000/svg" viewBox="0 0 39.37 39.88"><defs><style>.cls-1{fill:#eb2441;}</style></defs><title>Avatar</title><g id="Layer_2" data-name="Layer 2"><g id="Layer_1-2" data-name="Layer 1"><path class="cls-1" d="M39.15,19.84l-2.4-1h0a2.51,2.51,0,0,1-1.14-1.69,15.68,15.68,0,0,0-1.52-4.54l-.4-.71c-.17-.31-.35-.59-.53-.87,0,0-.05-.08-.08-.11-.21-.32-.45-.63-.68-.93a12.26,12.26,0,0,0-1.55-1.68,14.51,14.51,0,0,0-1.76-1.46,13,13,0,0,0-1.84-1.14,16.59,16.59,0,0,0-3.39-1.33l-.12,0-.14,0-.12,0a4.23,4.23,0,0,1-2.09-1.8L20,.24a.47.47,0,0,0-.82,0L17.87,2.5a4.12,4.12,0,0,1-2.48,1.92.85.85,0,0,0-.24.09l-.61.2-.21.08L13.66,5,13,5.32A16.11,16.11,0,0,0,3.64,17.26a2.6,2.6,0,0,1-1.1,1.68l0,0-2.28.9c-.29.14-.29.35,0,.49l2.41,1a1.68,1.68,0,0,1,1,1.25,14.56,14.56,0,0,0,1.56,4.69,9.86,9.86,0,0,0,.55,1,16.7,16.7,0,0,0,2,2.77c.26.28.53.56.81.82s.55.51.85.76l1,.74c.39.26.79.53,1.19.76s.84.46,1.27.66.87.39,1.31.56a14.36,14.36,0,0,0,1.83.57l.62.14c.2,0,.4.08.6.11a1.62,1.62,0,0,1,1.21,1l1,2.52c.14.3.36.3.5,0l1-2.52a1.62,1.62,0,0,1,1.24-1c.41-.06.85-.14,1.34-.26A16.2,16.2,0,0,0,33.15,29a16.37,16.37,0,0,0,2.54-6.39,1.38,1.38,0,0,1,.15-.46,1.53,1.53,0,0,1,.79-.81l2.52-1C39.44,20.2,39.44,20,39.15,19.84Zm-5,2.09c0,.14,0,.29-.06.43a9.43,9.43,0,0,1-.31,1.53A14.5,14.5,0,0,1,23.44,34.27a10.75,10.75,0,0,1-1.52.3,2.12,2.12,0,0,1-.45.07,11.43,11.43,0,0,1-1.85.13,10.87,10.87,0,0,1-1.81-.13,3.77,3.77,0,0,1-.47-.06,6.36,6.36,0,0,1-.63-.11c-.3-.06-.59-.12-.88-.2A14.53,14.53,0,0,1,5.45,23.86a9.42,9.42,0,0,1-.31-1.53,3.17,3.17,0,0,1-.06-.43A10.74,10.74,0,0,1,5,20.1a10.69,10.69,0,0,1,.11-1.79,3.17,3.17,0,0,1,.06-.43,9.42,9.42,0,0,1,.31-1.53A14.53,14.53,0,0,1,15.83,5.94l.24-.07a4.34,4.34,0,0,0,2.73-2l.41-.73a.47.47,0,0,1,.82,0l.42.73a4.34,4.34,0,0,0,2.26,1.85.11.11,0,0,1,.08,0,1.93,1.93,0,0,0,.34.11c.09,0,.2,0,.29.08A14.48,14.48,0,0,1,33.8,16.3a9.4,9.4,0,0,1,.31,1.51c0,.14,0,.3.06.45a12.64,12.64,0,0,1,.12,1.84A12.33,12.33,0,0,1,34.17,21.93ZM23.93,24.61c.16.4,0,.63-.45.63h-7.6c-.42,0-.59-.23-.45-.63L19.3,15c.21-.45.54-.45.75,0Z"/></g></g></svg>