<svg xmlns="http://www.w3.org/2000/svg" viewBox="0 0 240 36"><defs><style>.cls-1{isolation:isolate;}.cls-2{fill:none;stroke:#331141;}.cls-2,.cls-3,.cls-5{stroke-miterlimit:10;}.cls-3{fill:#eb2441;stroke:#eb2441;}.cls-4{mix-blend-mode:multiply;}.cls-5{fill:#3778ff;stroke:#3778ff;}</style></defs><title>bm-share-sm-logo-full</title><g class="cls-1"><g id="Layer_1" data-name="Layer 1"><path class="cls-2" d="M33.72,27.35a11,11,0,0,1-4.56-4.7"/><path class="cls-2" d="M42.11,28.24a11,11,0,0,1-6.55-.1"/><path class="cls-2" d="M35.87,7.1A11,11,0,0,1,44,27.46"/><path class="cls-2" d="M29.3,12.43A11,11,0,0,1,34,7.84"/><path class="cls-2" d="M28.42,20.79a11,11,0,0,1,.1-6.55"/><path class="cls-2" d="M37.56,26.46a8.9,8.9,0,0,1-4.48-2.12"/><path class="cls-2" d="M44.21,24.9a8.9,8.9,0,0,1-4.66,1.66"/><path class="cls-2" d="M33.78,10.38A8.94,8.94,0,0,1,45.71,23.54"/><path class="cls-2" d="M30.17,16.2a8.9,8.9,0,0,1,2.12-4.48"/><path class="cls-2" d="M31.74,22.86a8.9,8.9,0,0,1-1.67-4.66"/><path class="cls-2" d="M38.75,24.51a6.83,6.83,0,0,1-3.22-.94"/><path class="cls-2" d="M43.67,22.68a6.83,6.83,0,0,1-2.93,1.61"/><path class="cls-2" d="M34.36,12.59a6.87,6.87,0,0,1,10.58,8.51"/><path class="cls-2" d="M32.14,17.39a6.83,6.83,0,0,1,.94-3.22"/><path class="cls-2" d="M34,22.32a6.83,6.83,0,0,1-1.61-2.94"/><path class="cls-3" d="M39,6.61v4.15a6.73,6.73,0,0,1,6.84,6.87A6.72,6.72,0,0,1,39,24.46v4.18a11,11,0,1,0,0-22Zm11,11a11,11,0,0,0-11-11v4.15a6.73,6.73,0,0,1,6.84,6.87"/><g class="cls-4"><path class="cls-5" d="M38.16,7.84V12A6.73,6.73,0,0,1,45,18.86a6.72,6.72,0,0,1-6.84,6.83v4.18a11,11,0,1,0,0-22Zm11,11a11,11,0,0,0-11-11V12A6.73,6.73,0,0,1,45,18.86"/></g><path class="cls-3" d="M6.85,24.17l4.58-2.89a5,5,0,0,0,4.73,2.8c1.69,0,3-.6,3-1.87,0-3.82-11.5-1.17-11.5-9.06,0-4.64,4-7,7.8-7a10.81,10.81,0,0,1,7.71,3.31l-4,3.43a5,5,0,0,0-3.79-2,1.87,1.87,0,0,0-2.11,1.87c0,3.52,11.47.78,11.47,9.34,0,4.28-4.13,7.26-8.76,7.26A10.48,10.48,0,0,1,6.85,24.17Z"/><path class="cls-3" d="M92.58,6.43V29H87V13L80.86,29h-3L71.73,13V29h-5.6V6.43h8l5.22,13.46L84.63,6.43Z"/><path class="cls-3" d="M112.48,25h-9.43l-1.45,4H95.56l9.06-22.59h6.29L120,29h-6.05Zm-1.66-4.58-3-8.34-3,8.34Z"/><path class="cls-3" d="M141.07,15.89v8.55a10.72,10.72,0,0,1-9.34,4.88c-6.69,0-11.2-5.12-11.2-11.44A11.47,11.47,0,0,1,131.76,6.13a13.11,13.11,0,0,1,8.55,3.4l-3.88,3.85a6.75,6.75,0,0,0-4.52-1.84,6.11,6.11,0,0,0-6,6.26c0,3.31,2.29,6.08,5.69,6.08a6.43,6.43,0,0,0,4.34-1.51V20.59h-4.07v-4.7Z"/><path class="cls-3" d="M167.42,6.44V29h-5.87L151.22,14.78V29h-5.6V6.44h5.84l10.36,14.18V6.44Z"/><path class="cls-3" d="M177.79,11.31v4h7v4.88h-7v4h8.31V29H172.19V6.44H186.1v4.88Z"/><path class="cls-3" d="M205,11.31h-5.54V29H193.9V11.31h-5.57V6.44H205Z"/><path class="cls-3" d="M208.24,6.44h5.6V29h-5.6Z"/><path class="cls-3" d="M217.67,17.73A11.58,11.58,0,0,1,229.26,6.13a12.2,12.2,0,0,1,5.12,1.08v6a7.44,7.44,0,0,0-5.12-1.66,6.11,6.11,0,0,0-6.2,6.17,6.21,6.21,0,0,0,6.2,6.29,7.52,7.52,0,0,0,5.12-1.78v6a12.2,12.2,0,0,1-5.12,1.08A11.58,11.58,0,0,1,217.67,17.73Z"/><g class="cls-4"><path class="cls-5" d="M5.62,24.17l4.58-2.89a5,5,0,0,0,4.73,2.8c1.69,0,3-.6,3-1.87,0-3.82-11.5-1.17-11.5-9.06,0-4.64,4-7,7.8-7a10.81,10.81,0,0,1,7.71,3.31l-4,3.43a5,5,0,0,0-3.79-2A1.87,1.87,0,0,0,12,12.73c0,3.52,11.47.78,11.47,9.34,0,4.28-4.13,7.26-8.76,7.26A10.48,10.48,0,0,1,5.62,24.17Z"/><path class="cls-5" d="M91.35,6.43V29h-5.6V13L79.63,29h-3L70.49,13V29h-5.6V6.43h8L78.1,19.89,83.39,6.43Z"/><path class="cls-5" d="M111.25,25h-9.43l-1.45,4H94.33l9.06-22.59h6.29L118.75,29H112.7Zm-1.66-4.58-3-8.34-3,8.34Z"/><path class="cls-5" d="M139.83,15.89v8.55a10.72,10.72,0,0,1-9.34,4.88c-6.69,0-11.2-5.12-11.2-11.44A11.47,11.47,0,0,1,130.53,6.13a13.11,13.11,0,0,1,8.55,3.4l-3.88,3.85a6.75,6.75,0,0,0-4.52-1.84,6.11,6.11,0,0,0-6,6.26c0,3.31,2.29,6.08,5.69,6.08a6.43,6.43,0,0,0,4.34-1.51V20.59h-4.07v-4.7Z"/><path class="cls-5" d="M166.19,6.44V29h-5.87L150,14.78V29h-5.6V6.44h5.84l10.36,14.18V6.44Z"/><path class="cls-5" d="M176.55,11.31v4h7v4.88h-7v4h8.31V29H171V6.44h13.91v4.88Z"/><path class="cls-5" d="M203.78,11.31h-5.54V29h-5.57V11.31H187.1V6.44h16.68Z"/><path class="cls-5" d="M207,6.44h5.6V29H207Z"/><path class="cls-5" d="M216.44,17.73A11.58,11.58,0,0,1,228,6.13a12.2,12.2,0,0,1,5.12,1.08v6A7.44,7.44,0,0,0,228,11.55a6.11,6.11,0,0,0-6.2,6.17A6.21,6.21,0,0,0,228,24a7.52,7.52,0,0,0,5.12-1.78v6A12.2,12.2,0,0,1,228,29.32,11.58,11.58,0,0,1,216.44,17.73Z"/></g></g></g></svg>