<svg xmlns="http://www.w3.org/2000/svg" viewBox="0 0 50 50"><defs><style>.cls-1{isolation:isolate;}.cls-2{fill:#e74b4c;}.cls-2,.cls-5{stroke:#261924;stroke-miterlimit:10;}.cls-3{fill:#3d293b;mix-blend-mode:color-burn;}.cls-4{fill:#261924;}.cls-5,.cls-6{fill:none;stroke-linecap:round;}.cls-6{stroke:#e74b4c;stroke-linejoin:round;}</style></defs><title>icon-smile</title><g class="cls-1"><g id="Layer_1" data-name="Layer 1"><circle class="cls-2" cx="33.08" cy="29.42" r="12.42"/><path class="cls-3" d="M27.7,40.74c8.54-.3,15.09-5.3,15.09-19l1.8,2.18.74,2.71.28,2.08s-.22,2.8-.28,3-1.15,3.11-1.15,3.11L42.91,36.8,40.63,39l-1.75,1.08-2.52,1.27L34.42,42H30.91Z"/><circle class="cls-4" cx="26.16" cy="27.75" r="1.29"/><circle class="cls-4" cx="38.39" cy="27.82" r="1.29"/><path class="cls-5" d="M35,33.5c0,2.67-5,3.13-5,0"/><path class="cls-6" d="M16.73,20.42H6.31a2,2,0,0,1-2-2V10.33a2,2,0,0,1,2-2H17.15a2,2,0,0,1,2,2v7.73l1.63,3.7Z"/></g></g></svg>