<svg id="Layer_1" data-name="Layer 1" xmlns="http://www.w3.org/2000/svg" viewBox="0 0 50 50"><defs><style>.cls-1,.cls-10,.cls-11,.cls-5,.cls-8{fill:#f2f2f2;}.cls-1,.cls-10,.cls-11,.cls-12,.cls-7,.cls-9{stroke:#e74b4c;}.cls-1,.cls-10,.cls-12,.cls-7,.cls-9{stroke-miterlimit:10;}.cls-1,.cls-7{stroke-width:0.75px;}.cls-2,.cls-6,.cls-7,.cls-9{fill:#261924;}.cls-3,.cls-4{fill:#e74b4c;}.cls-4,.cls-5,.cls-6{opacity:0.55;}.cls-10,.cls-12,.cls-9{stroke-width:0.66px;}.cls-11{stroke-linecap:round;stroke-linejoin:round;stroke-width:0.72px;}.cls-12{fill:none;}</style></defs><title>icon-branding_3</title><rect class="cls-1" x="3.88" y="8.9" width="20.12" height="34.71" rx="2" ry="2"/><line class="cls-1" x1="3.88" y1="12.56" x2="24" y2="12.56"/><rect class="cls-2" x="6.61" y="15.23" width="14.15" height="12.05"/><rect class="cls-3" x="8.88" y="23.81" width="11.88" height="17"/><rect class="cls-4" x="8.88" y="16.47" width="7" height="1"/><rect class="cls-5" x="8.88" y="18.16" width="12" height="0.5"/><rect class="cls-5" x="8.88" y="19.35" width="9" height="0.5"/><rect class="cls-5" x="11.21" y="33.3" width="6" height="0.5"/><rect class="cls-6" x="11.21" y="34.46" width="8" height="0.5"/><rect class="cls-6" x="11.21" y="35.61" width="6" height="0.5"/><rect class="cls-6" x="11.21" y="36.77" width="7" height="0.5"/><rect class="cls-6" x="11.21" y="37.93" width="3" height="0.5"/><circle class="cls-2" cx="6.57" cy="10.73" r="0.75"/><circle class="cls-2" cx="8.82" cy="10.73" r="0.75"/><circle class="cls-2" cx="11.07" cy="10.73" r="0.75"/><rect class="cls-1" x="17.79" y="5.31" width="28.71" height="41.94"/><rect class="cls-6" x="21.77" y="17.2" width="20.98" height="0.5"/><rect class="cls-6" x="21.77" y="18.35" width="15.74" height="0.5"/><rect class="cls-6" x="21.77" y="19.51" width="18.36" height="0.5"/><rect class="cls-6" x="21.77" y="20.66" width="7.87" height="0.5"/><rect class="cls-6" x="21.77" y="23.02" width="20.98" height="0.5"/><rect class="cls-6" x="21.77" y="24.17" width="15.74" height="0.5"/><rect class="cls-6" x="21.77" y="25.33" width="18.36" height="0.5"/><rect class="cls-6" x="21.77" y="26.48" width="7.87" height="0.5"/><rect class="cls-6" x="21.77" y="28.84" width="20.98" height="0.5"/><rect class="cls-6" x="21.77" y="29.99" width="15.74" height="0.5"/><rect class="cls-6" x="21.77" y="31.15" width="18.36" height="0.5"/><rect class="cls-6" x="21.77" y="32.3" width="7.87" height="0.5"/><rect class="cls-6" x="21.77" y="34.66" width="20.98" height="0.5"/><rect class="cls-6" x="21.77" y="35.81" width="15.74" height="0.5"/><rect class="cls-6" x="21.77" y="36.97" width="18.36" height="0.5"/><rect class="cls-6" x="21.77" y="38.13" width="7.87" height="0.5"/><rect class="cls-4" x="21.77" y="14.87" width="18.36" height="1"/><rect class="cls-7" x="15.47" y="41.82" width="11.81" height="7.29"/><path class="cls-8" d="M14,27.57a2.75,2.75,0,0,0-1.33.34A2.77,2.77,0,0,0,14,30.21a2.76,2.76,0,0,0,1.33-2.31A2.75,2.75,0,0,0,14,27.57ZM12.44,28a2.77,2.77,0,0,0-1.23,2.25,2.77,2.77,0,0,0,2.56.05A3,3,0,0,1,12.44,28ZM14,25.48a2.78,2.78,0,0,0-1.33,2.19,3,3,0,0,1,2.65,0A2.77,2.77,0,0,0,14,25.48Zm0,0a2.78,2.78,0,0,0-1.33,2.19,3,3,0,0,1,2.65,0A2.77,2.77,0,0,0,14,25.48Zm0,2.09a2.75,2.75,0,0,0-1.33.34A2.77,2.77,0,0,0,14,30.21a2.76,2.76,0,0,0,1.33-2.31A2.75,2.75,0,0,0,14,27.57ZM12.44,28a2.77,2.77,0,0,0-1.23,2.25,2.77,2.77,0,0,0,2.56.05A3,3,0,0,1,12.44,28Z"/><path class="cls-8" d="M15.52,28a3,3,0,0,1-1.33,2.3,2.77,2.77,0,0,0,2.56-.05A2.77,2.77,0,0,0,15.52,28Z"/><path class="cls-3" d="M21.38,44.69A2.75,2.75,0,0,0,20,45a2.77,2.77,0,0,0,1.33,2.31A2.76,2.76,0,0,0,22.71,45,2.75,2.75,0,0,0,21.38,44.69Zm-1.54.46A2.77,2.77,0,0,0,18.6,47.4a2.77,2.77,0,0,0,2.56.05A3,3,0,0,1,19.84,45.16Zm1.54-2.56A2.78,2.78,0,0,0,20,44.79a3,3,0,0,1,2.65,0A2.77,2.77,0,0,0,21.38,42.6Zm0,0A2.78,2.78,0,0,0,20,44.79a3,3,0,0,1,2.65,0A2.77,2.77,0,0,0,21.38,42.6Zm0,2.09A2.75,2.75,0,0,0,20,45a2.77,2.77,0,0,0,1.33,2.31A2.76,2.76,0,0,0,22.71,45,2.75,2.75,0,0,0,21.38,44.69Zm-1.54.46A2.77,2.77,0,0,0,18.6,47.4a2.77,2.77,0,0,0,2.56.05A3,3,0,0,1,19.84,45.16Z"/><path class="cls-3" d="M22.91,45.16a3,3,0,0,1-1.33,2.3,2.77,2.77,0,0,0,2.56-.05A2.77,2.77,0,0,0,22.91,45.16Z"/><path class="cls-2" d="M24.54,9a2.75,2.75,0,0,0-1.33.34,2.77,2.77,0,0,0,1.33,2.31,2.76,2.76,0,0,0,1.33-2.31A2.75,2.75,0,0,0,24.54,9ZM23,9.45a2.77,2.77,0,0,0-1.23,2.25,2.77,2.77,0,0,0,2.56.05A3,3,0,0,1,23,9.45Zm1.54-2.56a2.78,2.78,0,0,0-1.33,2.19,3,3,0,0,1,2.65,0A2.77,2.77,0,0,0,24.54,6.89Zm0,0a2.78,2.78,0,0,0-1.33,2.19,3,3,0,0,1,2.65,0A2.77,2.77,0,0,0,24.54,6.89Zm0,2.09a2.75,2.75,0,0,0-1.33.34,2.77,2.77,0,0,0,1.33,2.31,2.76,2.76,0,0,0,1.33-2.31A2.75,2.75,0,0,0,24.54,9ZM23,9.45a2.77,2.77,0,0,0-1.23,2.25,2.77,2.77,0,0,0,2.56.05A3,3,0,0,1,23,9.45Z"/><path class="cls-2" d="M26.08,9.45a3,3,0,0,1-1.33,2.3,2.77,2.77,0,0,0,2.56-.05A2.77,2.77,0,0,0,26.08,9.45Z"/><path class="cls-9" d="M47.94,34.24V46.68c0,1.93-11.19,1.85-11.19,0V34.24a1.36,1.36,0,0,1,0-.3L40.06,19.6a10.15,10.15,0,0,0,.25-2.26V10.87a1.36,1.36,0,0,1,1.36-1.36H43a1.36,1.36,0,0,1,1.36,1.36v6.47a10.15,10.15,0,0,0,.25,2.26l3.27,14.34A1.36,1.36,0,0,1,47.94,34.24Z"/><path class="cls-10" d="M47.94,34.24v9.47H36.75V34.24H47.94Z"/><path class="cls-11" d="M41,10.87h2.7V8.42a1,1,0,0,0-1-.87H42a1,1,0,0,0-1,.87Z"/><line class="cls-12" x1="40.31" y1="10.87" x2="44.38" y2="10.87"/><path class="cls-2" d="M42.34,38.41a3.23,3.23,0,0,0-1.56.4,3.25,3.25,0,0,0,1.56,2.71,3.24,3.24,0,0,0,1.56-2.71A3.23,3.23,0,0,0,42.34,38.41ZM40.54,39a3.25,3.25,0,0,0-1.45,2.64,3.25,3.25,0,0,0,3,.06A3.5,3.5,0,0,1,40.54,39Zm1.81-3a3.26,3.26,0,0,0-1.56,2.57,3.5,3.5,0,0,1,3.11,0A3.25,3.25,0,0,0,42.34,36Zm0,0a3.26,3.26,0,0,0-1.56,2.57,3.5,3.5,0,0,1,3.11,0A3.25,3.25,0,0,0,42.34,36Zm0,2.45a3.23,3.23,0,0,0-1.56.4,3.25,3.25,0,0,0,1.56,2.71,3.24,3.24,0,0,0,1.56-2.71A3.23,3.23,0,0,0,42.34,38.41ZM40.54,39a3.25,3.25,0,0,0-1.45,2.64,3.25,3.25,0,0,0,3,.06A3.5,3.5,0,0,1,40.54,39Z"/><path class="cls-2" d="M44.15,39a3.5,3.5,0,0,1-1.56,2.7,3.25,3.25,0,0,0,3-.06A3.25,3.25,0,0,0,44.15,39Z"/></svg>