<svg id="Layer_1" data-name="Layer 1" xmlns="http://www.w3.org/2000/svg" viewBox="0 0 50 50"><defs><style>.cls-1,.cls-5{fill:#e74b4c;}.cls-1,.cls-3{stroke:#261924;stroke-miterlimit:10;}.cls-2{fill:#261924;}.cls-3,.cls-4{fill:none;stroke-linecap:round;}.cls-3{stroke-width:1.22px;}.cls-4{stroke:#e74b4c;stroke-linejoin:round;}</style></defs><title>icon-smiley</title><circle class="cls-1" cx="34.08" cy="29.42" r="12.42"/><circle class="cls-2" cx="26.07" cy="24.17" r="1.29"/><circle class="cls-2" cx="37.8" cy="24.24" r="1.29"/><path class="cls-3" d="M35.75,29.92c0,3.27-7.39,3.13-7.39,0"/><path class="cls-4" d="M17.73,20.42H7.31a2,2,0,0,1-2-2V10.33a2,2,0,0,1,2-2H18.15a2,2,0,0,1,2,2v7.73l1.63,3.7Z"/><rect class="cls-5" x="7.88" y="10.44" width="9.5" height="1"/><rect class="cls-5" x="7.88" y="12.44" width="9.5" height="1"/><rect class="cls-5" x="7.88" y="14.44" width="9.5" height="1"/><rect class="cls-5" x="7.88" y="16.44" width="9.5" height="1"/></svg>