<?xml version="1.0" encoding="utf-8"?>
<!-- Generator: Adobe Illustrator 22.0.1, SVG Export Plug-In . SVG Version: 6.00 Build 0)  -->
<svg version="1.1" id="Layer_1" xmlns="http://www.w3.org/2000/svg" xmlns:xlink="http://www.w3.org/1999/xlink" x="0px" y="0px"
	 viewBox="0 0 50 50" style="enable-background:new 0 0 50 50;" xml:space="preserve">
<style type="text/css">
	.st0{fill:none;stroke:#331141;stroke-width:1.5;stroke-miterlimit:10;}
	.st1{fill:#E74B4C;}
</style>
<title>icon-branding_3</title>
<circle class="st0" cx="25" cy="25" r="21.6"/>
<g>
	<path class="st1" d="M25.3,22.3c0.9-0.7,1.7-1.2,1.7-2.1s-0.7-1.7-2.3-1.7c-1.5,0-2.7,0.7-3.7,1.9l-2.4-2.7c1.6-1.9,4-2.9,6.5-2.9
		c3.9,0,6.2,1.9,6.2,4.7c0,2.5-1.6,3.7-3,4.7c-1,0.8-2,1.4-2,2.5c0,0.5,0.2,1,0.5,1.3l-3.3,1c-0.6-0.7-1-1.6-1-2.6
		C22.7,24.2,24.1,23.2,25.3,22.3z M25.1,30.4c1.3,0,2.4,1.1,2.4,2.4s-1.1,2.4-2.4,2.4s-2.4-1.1-2.4-2.4
		C22.7,31.5,23.8,30.4,25.1,30.4z"/>
</g>
</svg>
