<svg id="Layer_1" data-name="Layer 1" xmlns="http://www.w3.org/2000/svg" viewBox="0 0 628.67 367.13"><defs><style>.cls-1{fill:#2c3947;}.cls-2{fill:#f5bb71;}.cls-2,.cls-25,.cls-26,.cls-29,.cls-30,.cls-33,.cls-37{stroke:#8c4b31;}.cls-2,.cls-25,.cls-26,.cls-27,.cls-28,.cls-29,.cls-30,.cls-31,.cls-32,.cls-33,.cls-34,.cls-35,.cls-36,.cls-37,.cls-38{stroke-linejoin:round;stroke-width:0.25px;}.cls-3,.cls-37{fill:#88421e;}.cls-4{fill:#8c4b31;}.cls-5{fill:#602912;}.cls-6{fill:#4d2511;}.cls-7{fill:#753517;}.cls-34,.cls-38,.cls-8{fill:#e88e4f;}.cls-9{fill:#d67f43;}.cls-10,.cls-32{fill:#cf7539;}.cls-11{fill:#a15538;}.cls-12,.cls-29{fill:#cc6328;}.cls-13{fill:#c75d28;}.cls-14{fill:#8a5121;}.cls-15{fill:#8b471f;}.cls-16{fill:#612d12;}.cls-17{fill:#713d28;}.cls-18{fill:#783718;}.cls-19,.cls-25,.cls-35{fill:#b05326;}.cls-20{fill:#a85325;}.cls-21{fill:#f3742c;}.cls-22{fill:#b9623f;}.cls-23,.cls-30{fill:#e77224;}.cls-24{fill:#c75a28;}.cls-26{fill:#b15f31;}.cls-27{fill:#ffdd9e;}.cls-27,.cls-28,.cls-31,.cls-32,.cls-34,.cls-35,.cls-36{stroke:#d67f43;}.cls-28,.cls-33{fill:#e87a2c;}.cls-31{fill:#f68c43;}.cls-36{fill:#faac60;}.cls-38{stroke:#b07158;}.cls-39{fill:#d1ac8a;}</style></defs><title>icon-red-dark</title><path class="cls-1" d="M2321,1916.85l91.44-100.78h19.77l-70.52,76.66,76.61,102.92h-19.61l-68-90.7-29.33,26.76v63.93H2305V1738.59h16.31v128.86l-1.15,49.4H2321Z" transform="translate(-1985.45 -1660.68)"/><path class="cls-1" d="M2614.13,1931.39q0,31.89-23.07,49.73T2528.45,1999q-42.84,0-65.9-11.07v-27.09a173,173,0,0,0,32.29,9.91,169.31,169.31,0,0,0,34.6,3.64q28,0,42.18-10.66t14.17-29.66q0-12.55-5-20.57t-16.8-14.79q-11.78-6.77-35.83-15.36-33.61-12.06-48-28.58t-14.42-43.12q0-27.92,20.92-44.44t55.36-16.52q35.91,0,66.07,13.22l-8.73,24.45q-29.82-12.55-58-12.56-22.24,0-34.76,9.58t-12.52,26.6q0,12.56,4.61,20.57t15.57,14.7q11,6.69,33.53,14.79,37.89,13.55,52.15,29.08T2614.13,1931.39Z" transform="translate(-1985.45 -1660.68)"/><polygon class="cls-2" points="114.19 74.53 102.91 38.25 115.18 53.33 114.19 74.53"/><polygon class="cls-3" points="0.14 199.65 35.4 153.13 12.67 230.18 0.14 199.65"/><path class="cls-4" d="M2020.54,1814.43l-22.44,76-12.36-30.14,34.8-45.91m0.63-1.24-35.71,47.12,12.69,30.93,23-78h0Z" transform="translate(-1985.45 -1660.68)"/><path class="cls-5" d="M1994.34,1949.74c-0.23-1,2.41-38,3.88-57.88l31.12,91.92Z" transform="translate(-1985.45 -1660.68)"/><path class="cls-4" d="M1998.3,1892.48l30.75,90.84-34.57-33.61c-0.17-2.05,2.36-37.49,3.81-57.23m-0.16-1.25s-4.23,57.18-3.89,58.6l35.37,34.4-31.48-93h0Z" transform="translate(-1985.45 -1660.68)"/><polygon class="cls-6" points="0.31 200.72 12.54 230.53 6.43 236.82 0.31 200.72"/><path class="cls-4" d="M1986.08,1862.48l11.77,28.69-5.89,6.06-5.89-34.75m-0.62-2.18,6.34,37.46,6.34-6.53-12.69-30.93h0Z" transform="translate(-1985.45 -1660.68)"/><polygon class="cls-6" points="6.47 237.08 12.54 230.88 8.82 286.94 6.47 237.08"/><path class="cls-4" d="M1997.85,1891.89l-3.55,53.52-2.24-47.55,5.79-6m0.29-.66-6.34,6.53,2.45,52.07,3.89-58.6h0Z" transform="translate(-1985.45 -1660.68)"/><polygon class="cls-6" points="70.97 354.99 44.65 323.92 123.07 361.73 70.97 354.99"/><path class="cls-4" d="M2030.58,1985l77.19,37.22-51.23-6.62-26-30.6m-1-.74,26.78,31.57,52.86,6.83-79.65-38.4h0Z" transform="translate(-1985.45 -1660.68)"/><polygon class="cls-6" points="124.32 361.89 238.68 317 166.08 367 124.32 361.89"/><path class="cls-4" d="M2223.17,1978.19l-71.67,49.36-41.22-5.05,112.88-44.31m1.93-1-115.83,45.47,42.29,5.18,73.54-50.65h0Z" transform="translate(-1985.45 -1660.68)"/><polygon class="cls-7" points="229.46 214.92 272.15 235.74 239.72 315.97 229.46 214.92"/><path class="cls-4" d="M2215.06,1875.8l42.38,20.67-32.19,79.65-10.19-100.32m-0.29-.42,10.34,101.78,32.66-80.81-43-21h0Z" transform="translate(-1985.45 -1660.68)"/><polygon class="cls-8" points="211.37 184.28 227.44 148.32 271.91 235.18 211.37 184.28"/><path class="cls-9" d="M2212.9,1809.29l44.07,86.07-60-50.44,15.92-35.63m0-.58L2196.67,1845l61.09,51.36-44.88-87.64h0Z" transform="translate(-1985.45 -1660.68)"/><polygon class="cls-10" points="229.37 214.59 211.71 184.89 271.45 235.12 229.37 214.59"/><path class="cls-11" d="M2197.65,1846.14l58.4,49.1-41.1-20-17.3-29.05m-1-1.15,18.09,30.39,43,21L2196.67,1845h0Z" transform="translate(-1985.45 -1660.68)"/><polygon class="cls-12" points="108.03 273.7 158.56 232.09 205.29 304.95 108.03 273.7"/><path class="cls-4" d="M2144,1893l46.46,72.44-96.71-31.07L2144,1893m0.06-.37-50.82,41.85,97.81,31.42-47-73.27h0Z" transform="translate(-1985.45 -1660.68)"/><polygon class="cls-13" points="158.79 231.98 229.14 214.88 205.53 304.87 158.79 231.98"/><path class="cls-14" d="M2214.42,1875.72l-23.48,89.51-46.49-72.49,70-17m0.35-.34-70.72,17.2,47,73.27,23.73-90.47h0Z" transform="translate(-1985.45 -1660.68)"/><polygon class="cls-12" points="211.19 184.51 229.12 214.62 159.04 231.67 211.19 184.51"/><path class="cls-14" d="M2196.61,1845.38l17.76,29.84-69.43,16.88,51.67-46.72m0.06-.39L2144,1892.58l70.72-17.2L2196.67,1845h0Z" transform="translate(-1985.45 -1660.68)"/><polygon class="cls-15" points="205.73 305.09 229.26 215.41 239.5 316.3 205.73 305.09"/><path class="cls-4" d="M2214.66,1876.79l10.16,100-33.48-11.11,23.32-88.9m0.11-1.4L2191,1965.85l34.07,11.31-10.34-101.78h0Z" transform="translate(-1985.45 -1660.68)"/><polygon class="cls-16" points="205.6 305.31 239.28 316.49 124.77 361.44 205.6 305.31"/><path class="cls-17" d="M2191.07,1966.13l33.29,11.05-113.19,44.43,79.9-55.49m0-.28-81.76,56.78,115.83-45.47L2191,1965.85h0Z" transform="translate(-1985.45 -1660.68)"/><polygon class="cls-7" points="85.99 302.95 205.19 305.29 123.85 361.77 85.99 302.95"/><path class="cls-4" d="M2071.68,1963.75l118.58,2.33-80.91,56.19-37.67-58.52m-0.46-.26,38.06,59.13,81.76-56.78-119.82-2.36h0Z" transform="translate(-1985.45 -1660.68)"/><polygon class="cls-16" points="44.45 323.55 85.71 302.98 123.47 361.64 44.45 323.55"/><path class="cls-17" d="M2071.12,1963.82l37.46,58.2-78.39-37.79,40.93-20.4m0.09-.32-41.59,20.73,79.65,38.4-38.06-59.13h0Z" transform="translate(-1985.45 -1660.68)"/><polygon class="cls-7" points="12.97 231.02 85.54 302.78 44.24 323.37 12.97 231.02"/><path class="cls-17" d="M1998.72,1892.15l72.07,71.27-41,20.45-31.05-91.72m-0.58-.92,31.48,93,41.59-20.73-73.07-72.26h0Z" transform="translate(-1985.45 -1660.68)"/><polygon class="cls-16" points="13 230.69 97.59 233.44 85.67 302.56 13 230.69"/><path class="cls-4" d="M1998.77,1891.5l84.13,2.73L2071,1963l-72.27-71.47m-0.63-.27,73.07,72.26,12-69.5-85.05-2.76h0Z" transform="translate(-1985.45 -1660.68)"/><polygon class="cls-15" points="86 302.7 108.19 273.04 204.75 305.03 86 302.7"/><path class="cls-4" d="M2093.69,1933.87l95.7,31.7-117.68-2.31,22-29.39m-0.09-.29-22.38,29.92,119.82,2.36-97.44-32.28h0Z" transform="translate(-1985.45 -1660.68)"/><polygon class="cls-18" points="97.76 233.91 108 272.87 85.97 302.32 97.76 233.91"/><path class="cls-17" d="M2083.24,1895.17l10.08,38.35-21.69,29,11.61-67.34m-0.05-1.18-12,69.5,22.38-29.92-10.4-39.58h0Z" transform="translate(-1985.45 -1660.68)"/><polygon class="cls-19" points="97.9 233.43 125.9 232.04 108.17 272.52 97.9 233.43"/><path class="cls-4" d="M2111.16,1892.85l-17.51,40-10.14-38.59,27.64-1.38m0.39-.27-28.36,1.41,10.4,39.58,18-41h0Z" transform="translate(-1985.45 -1660.68)"/><polygon class="cls-20" points="132.42 200 125.99 231.78 98.06 233.18 132.42 200"/><path class="cls-4" d="M2117.67,1861l-6.33,31.3-27.5,1.37,33.82-32.67m0.4-.74L2083.19,1894l28.36-1.41,6.52-32.28h0Z" transform="translate(-1985.45 -1660.68)"/><polygon class="cls-21" points="127.48 166.48 133.79 163.09 132.54 198.33 127.48 166.48"/><path class="cls-22" d="M2119.11,1824l-1.2,33.73-4.84-30.49,6-3.24m0.27-.43-6.58,3.53,5.28,33.22,1.3-36.75h0Z" transform="translate(-1985.45 -1660.68)"/><polygon class="cls-21" points="126.21 141.86 129.43 114.31 133.71 161.96 126.21 141.86"/><path class="cls-4" d="M2114.87,1776.21l4.09,45.51-7.15-19.17,3.07-26.35m0-2.44-3.35,28.82,7.83,21-4.47-49.79h0Z" transform="translate(-1985.45 -1660.68)"/><polygon class="cls-23" points="127.28 166.85 132.49 199.58 98.11 232.78 127.28 166.85"/><path class="cls-22" d="M2112.68,1828l5.12,32.25-33.87,32.71,28.74-65m0.11-.88-29.6,66.91,34.88-33.69-5.28-33.22h0Z" transform="translate(-1985.45 -1660.68)"/><polygon class="cls-19" points="126.26 142.71 133.77 162.82 127.46 166.21 126.26 142.71"/><path class="cls-4" d="M2111.88,1804.19l7.18,19.24-6,3.24-1.14-22.49m-0.33-1.61,1.25,24.5,6.58-3.53-7.83-21h0Z" transform="translate(-1985.45 -1660.68)"/><polygon class="cls-12" points="125.98 142.16 127.21 166.34 14.05 229.65 125.98 142.16"/><path class="cls-22" d="M2111.32,1803.08l1.22,23.86-111.68,62.48,110.46-86.34m0.23-.49-113.41,88.65,114.66-64.15-1.25-24.5h0Z" transform="translate(-1985.45 -1660.68)"/><polygon class="cls-24" points="13.14 230.44 127.08 166.7 97.66 233.19 13.14 230.44"/><path class="cls-14" d="M2112.26,1827.67L2083,1893.74l-84-2.73,113.22-63.34m0.53-.58-114.66,64.15,85.05,2.76,29.6-66.91h0Z" transform="translate(-1985.45 -1660.68)"/><polygon class="cls-25" points="35.71 152.51 126.09 141.91 12.69 230.56 35.71 152.51"/><polygon class="cls-26" points="65.43 113.09 126.09 141.91 35.71 152.51 65.43 113.09"/><polygon class="cls-27" points="115.18 53.33 129.45 113.09 114.19 74.53 115.18 53.33"/><polygon class="cls-27" points="99.68 8.56 102.91 38.25 115.18 53.33 99.68 8.56"/><polygon class="cls-28" points="89.86 53.33 99.68 8.56 102.91 38.25 89.86 53.33"/><polygon class="cls-29" points="126.09 141.91 94.45 106.81 65.43 113.09 126.09 141.91"/><polygon class="cls-30" points="129.45 113.09 94.45 106.81 126.09 141.91 129.45 113.09"/><polygon class="cls-31" points="89.86 53.33 97.74 68.88 94.45 106.81 89.86 53.33"/><polygon class="cls-32" points="102.91 38.25 97.74 68.88 89.86 53.33 102.91 38.25"/><polygon class="cls-33" points="97.74 68.88 114.19 74.53 129.45 113.09 97.74 68.88"/><polygon class="cls-31" points="102.91 38.25 97.74 68.88 114.19 74.53 102.91 38.25"/><polygon class="cls-34" points="178.99 51.41 167.55 22.92 193.94 34.12 178.99 51.41"/><polygon class="cls-26" points="178.99 51.41 188.01 69.23 181.22 132.82 178.99 51.41"/><polygon class="cls-35" points="193.94 34.12 188.01 69.23 178.99 51.41 193.94 34.12"/><polygon class="cls-30" points="193.94 34.12 188.01 69.23 219.66 81.51 193.94 34.12"/><polygon class="cls-36" points="89.86 53.33 35.71 152.51 65.43 113.09 89.86 53.33"/><polygon class="cls-30" points="158.59 231.9 208.16 180.13 211.22 184.31 158.59 231.9"/><polygon class="cls-27" points="227.43 148.03 208.16 180.13 211.22 184.31 227.43 148.03"/><polygon class="cls-37" points="219.66 81.51 181.22 132.82 188.01 69.23 219.66 81.51"/><polygon class="cls-27" points="193.94 34.12 159.2 0.13 167.55 22.92 193.94 34.12"/><polygon class="cls-38" points="65.43 113.09 89.86 53.33 94.45 106.81 65.43 113.09"/><polygon class="cls-38" points="97.74 68.88 129.45 113.09 94.45 106.81 97.74 68.88"/><polygon class="cls-39" points="227.54 147.98 230.94 135.53 271.04 232.92 227.54 147.98"/><path class="cls-9" d="M2216.42,1796.6l38.8,94.25-42.07-82.17,3.27-12.08m0-.78-3.49,12.89,44.88,87.64-41.39-100.53h0Z" transform="translate(-1985.45 -1660.68)"/></svg>