<svg id="Layer_1" data-name="Layer 1" xmlns="http://www.w3.org/2000/svg" viewBox="0 0 1420.26 382.66"><defs><style>.cls-1{fill:#b1afac;}.cls-1,.cls-24,.cls-25,.cls-28,.cls-29,.cls-32,.cls-36{stroke:#4b4948;}.cls-1,.cls-24,.cls-25,.cls-26,.cls-27,.cls-28,.cls-29,.cls-30,.cls-31,.cls-32,.cls-33,.cls-34,.cls-35,.cls-36,.cls-37{stroke-linejoin:round;stroke-width:0.25px;}.cls-2,.cls-36{fill:#47403b;}.cls-3{fill:#4b4948;}.cls-4{fill:#262221;}.cls-5{fill:#1a1715;}.cls-6{fill:#38332f;}.cls-33,.cls-37,.cls-7{fill:#a29e9a;}.cls-8{fill:#908c89;}.cls-31,.cls-9{fill:#8a8581;}.cls-10{fill:#5d5a59;}.cls-11,.cls-28{fill:#867a71;}.cls-12{fill:#82756c;}.cls-13{fill:#676767;}.cls-14{fill:#49433d;}.cls-15{fill:#262320;}.cls-16{fill:#343130;}.cls-17{fill:#3a3531;}.cls-18,.cls-24,.cls-34{fill:#6c615a;}.cls-19{fill:#645b54;}.cls-20{fill:#baaba2;}.cls-21{fill:#5a5351;}.cls-22,.cls-29{fill:#a29389;}.cls-23{fill:#81756d;}.cls-25{fill:#6b6766;}.cls-26{fill:#bababa;}.cls-26,.cls-27,.cls-30,.cls-31,.cls-33,.cls-34,.cls-35{stroke:#908c89;}.cls-27,.cls-32{fill:#a29a93;}.cls-30{fill:#bab2ae;}.cls-35{fill:#b9b6b3;}.cls-37{stroke:#6c6665;}.cls-38{fill:#aeacab;}.cls-39{fill:#eae3dc;}</style></defs><title>logo-grey-light</title><polygon class="cls-1" points="114.19 74.53 102.91 38.25 115.18 53.33 114.19 74.53"/><polygon class="cls-2" points="0.14 199.65 35.4 153.13 12.67 230.18 0.14 199.65"/><path class="cls-3" d="M77.52,237.42l-22.44,76L42.72,283.33l34.8-45.91m0.63-1.24L42.43,283.29l12.69,30.93,23-78h0Z" transform="translate(-42.43 -83.66)"/><path class="cls-4" d="M51.32,372.73c-0.23-1,2.41-38,3.88-57.88l31.12,91.92Z" transform="translate(-42.43 -83.66)"/><path class="cls-3" d="M55.28,315.47L86,406.31,51.47,372.7c-0.17-2.05,2.36-37.49,3.81-57.23m-0.16-1.25s-4.23,57.18-3.89,58.6l35.37,34.4-31.48-93h0Z" transform="translate(-42.43 -83.66)"/><polygon class="cls-5" points="0.31 200.72 12.54 230.53 6.43 236.82 0.31 200.72"/><path class="cls-3" d="M43.06,285.47l11.77,28.69-5.89,6.06-5.89-34.75m-0.62-2.18,6.34,37.46,6.34-6.53L42.43,283.29h0Z" transform="translate(-42.43 -83.66)"/><polygon class="cls-5" points="6.47 237.08 12.54 230.88 8.82 286.94 6.47 237.08"/><path class="cls-3" d="M54.83,314.88L51.27,368.4,49,320.85l5.79-6m0.29-.66-6.34,6.53,2.45,52.07,3.89-58.6h0Z" transform="translate(-42.43 -83.66)"/><polygon class="cls-5" points="70.97 354.99 44.65 323.92 123.07 361.73 70.97 354.99"/><path class="cls-3" d="M87.56,407.95l77.19,37.22-51.23-6.62-26-30.6m-1-.74,26.78,31.57,52.86,6.83L86.6,407.21h0Z" transform="translate(-42.43 -83.66)"/><polygon class="cls-5" points="124.32 361.89 238.68 316.99 166.08 367 124.32 361.89"/><path class="cls-3" d="M280.15,401.17l-71.67,49.36-41.22-5.05,112.88-44.31m1.93-1L166.25,445.61l42.29,5.18,73.54-50.65h0Z" transform="translate(-42.43 -83.66)"/><polygon class="cls-6" points="229.46 214.92 272.15 235.73 239.72 315.96 229.46 214.92"/><path class="cls-3" d="M272,298.79l42.38,20.67-32.19,79.65L272,298.79m-0.29-.42,10.34,101.78,32.66-80.81-43-21h0Z" transform="translate(-42.43 -83.66)"/><polygon class="cls-7" points="211.37 184.28 227.44 148.32 271.91 235.18 211.37 184.28"/><path class="cls-8" d="M269.88,232.28L314,318.35l-60-50.44,15.92-35.63m0-.58L253.65,268l61.09,51.36L269.86,231.7h0Z" transform="translate(-42.43 -83.66)"/><polygon class="cls-9" points="229.37 214.59 211.71 184.89 271.45 235.12 229.37 214.59"/><path class="cls-10" d="M254.63,269.12l58.4,49.1-41.1-20-17.29-29.05m-1-1.15,18.09,30.39,43,21L253.65,268h0Z" transform="translate(-42.43 -83.66)"/><polygon class="cls-11" points="108.03 273.7 158.56 232.09 205.29 304.95 108.03 273.7"/><path class="cls-3" d="M201,315.94l46.46,72.44-96.71-31.07L201,315.94m0.06-.37L150.2,357.42,248,388.84l-47-73.27h0Z" transform="translate(-42.43 -83.66)"/><polygon class="cls-12" points="158.79 231.98 229.14 214.88 205.53 304.87 158.79 231.98"/><path class="cls-13" d="M271.39,298.71l-23.48,89.51-46.49-72.49,70-17m0.35-.34L201,315.57l47,73.27,23.73-90.47h0Z" transform="translate(-42.43 -83.66)"/><polygon class="cls-11" points="211.19 184.51 229.12 214.62 159.04 231.67 211.19 184.51"/><path class="cls-13" d="M253.59,268.37l17.76,29.84-69.43,16.88,51.67-46.72m0.06-.39L201,315.57l70.72-17.2L253.65,268h0Z" transform="translate(-42.43 -83.66)"/><polygon class="cls-14" points="205.73 305.09 229.26 215.41 239.5 316.3 205.73 305.09"/><path class="cls-3" d="M271.63,299.77l10.16,100-33.48-11.11,23.32-88.9m0.11-1.4L248,388.84l34.07,11.31L271.74,298.37h0Z" transform="translate(-42.43 -83.66)"/><polygon class="cls-15" points="205.6 305.31 239.28 316.49 124.77 361.44 205.6 305.31"/><path class="cls-16" d="M248.05,389.11l33.29,11.05L168.15,444.6l79.9-55.49m0-.28-81.76,56.78,115.83-45.47L248,388.84h0Z" transform="translate(-42.43 -83.66)"/><polygon class="cls-6" points="85.99 302.95 205.19 305.29 123.85 361.77 85.99 302.95"/><path class="cls-3" d="M128.65,386.74l118.58,2.33-80.92,56.19-37.67-58.52m-0.46-.26,38.06,59.13L248,388.84l-119.82-2.36h0Z" transform="translate(-42.43 -83.66)"/><polygon class="cls-15" points="44.45 323.55 85.71 302.98 123.47 361.64 44.45 323.55"/><path class="cls-16" d="M128.1,386.8L165.56,445,87.17,407.21l40.93-20.4m0.09-.32L86.6,407.21l79.65,38.4-38.06-59.13h0Z" transform="translate(-42.43 -83.66)"/><polygon class="cls-6" points="12.98 231.02 85.54 302.78 44.24 323.37 12.98 231.02"/><path class="cls-16" d="M55.7,315.14l72.07,71.27-41,20.45L55.7,315.14m-0.58-.92,31.48,93,41.59-20.73L55.12,314.22h0Z" transform="translate(-42.43 -83.66)"/><polygon class="cls-15" points="13 230.69 97.59 233.44 85.67 302.56 13 230.69"/><path class="cls-3" d="M55.75,314.49l84.13,2.73L128,386,55.75,314.49m-0.63-.27,73.07,72.26,12-69.5-85.05-2.76h0Z" transform="translate(-42.43 -83.66)"/><polygon class="cls-14" points="86 302.7 108.19 273.04 204.76 305.03 86 302.7"/><path class="cls-3" d="M150.66,356.85l95.7,31.7-117.68-2.31,22-29.38m-0.09-.29-22.38,29.92L248,388.84l-97.44-32.28h0Z" transform="translate(-42.43 -83.66)"/><polygon class="cls-17" points="97.76 233.91 108 272.87 85.97 302.32 97.76 233.91"/><path class="cls-16" d="M140.22,318.16l10.08,38.35-21.69,29,11.61-67.34M140.17,317l-12,69.5,22.38-29.92L140.17,317h0Z" transform="translate(-42.43 -83.66)"/><polygon class="cls-18" points="97.9 233.44 125.9 232.04 108.17 272.52 97.9 233.44"/><path class="cls-3" d="M168.14,315.84l-17.51,40-10.14-38.59,27.64-1.38m0.39-.27L140.17,317l10.4,39.58,18-41h0Z" transform="translate(-42.43 -83.66)"/><polygon class="cls-19" points="132.42 200 125.99 231.78 98.07 233.18 132.42 200"/><path class="cls-3" d="M174.65,284l-6.33,31.3-27.5,1.37L174.65,284m0.4-.74L140.17,317l28.36-1.41,6.52-32.28h0Z" transform="translate(-42.43 -83.66)"/><polygon class="cls-20" points="127.48 166.48 133.79 163.09 132.54 198.33 127.48 166.48"/><path class="cls-21" d="M176.09,247l-1.19,33.73-4.84-30.49,6-3.24m0.27-.43-6.58,3.53,5.28,33.22,1.3-36.75h0Z" transform="translate(-42.43 -83.66)"/><polygon class="cls-20" points="126.21 141.86 129.43 114.31 133.71 161.96 126.21 141.86"/><path class="cls-3" d="M171.85,199.19l4.09,45.51-7.15-19.17,3.07-26.35m0-2.44-3.35,28.82,7.83,21-4.47-49.79h0Z" transform="translate(-42.43 -83.66)"/><polygon class="cls-22" points="127.29 166.85 132.49 199.58 98.11 232.78 127.29 166.85"/><path class="cls-21" d="M169.66,250.95l5.12,32.25-33.87,32.71,28.74-65m0.11-.88L140.17,317l34.88-33.69-5.28-33.22h0Z" transform="translate(-42.43 -83.66)"/><polygon class="cls-18" points="126.26 142.71 133.77 162.82 127.46 166.21 126.26 142.71"/><path class="cls-3" d="M168.86,227.18L176,246.42l-6,3.24-1.15-22.49m-0.33-1.61,1.25,24.5,6.58-3.53-7.83-21h0Z" transform="translate(-42.43 -83.66)"/><polygon class="cls-11" points="125.98 142.16 127.21 166.34 14.05 229.65 125.98 142.16"/><path class="cls-21" d="M168.3,226.07l1.22,23.86L57.84,312.41,168.3,226.07m0.23-.49L55.12,314.22l114.66-64.15-1.25-24.5h0Z" transform="translate(-42.43 -83.66)"/><polygon class="cls-23" points="13.14 230.44 127.08 166.7 97.66 233.19 13.14 230.44"/><path class="cls-13" d="M169.24,250.66L140,316.72,56,314l113.21-63.34m0.53-.58L55.12,314.22,140.17,317l29.6-66.91h0Z" transform="translate(-42.43 -83.66)"/><polygon class="cls-24" points="35.71 152.51 126.09 141.91 12.69 230.56 35.71 152.51"/><polygon class="cls-25" points="65.43 113.09 126.09 141.91 35.71 152.51 65.43 113.09"/><polygon class="cls-26" points="115.18 53.33 129.45 113.09 114.19 74.53 115.18 53.33"/><polygon class="cls-26" points="99.68 8.56 102.91 38.25 115.18 53.33 99.68 8.56"/><polygon class="cls-27" points="89.86 53.33 99.68 8.56 102.91 38.25 89.86 53.33"/><polygon class="cls-28" points="126.09 141.91 94.45 106.81 65.43 113.09 126.09 141.91"/><polygon class="cls-29" points="129.45 113.09 94.45 106.81 126.09 141.91 129.45 113.09"/><polygon class="cls-30" points="89.86 53.33 97.74 68.88 94.45 106.81 89.86 53.33"/><polygon class="cls-31" points="102.91 38.25 97.74 68.88 89.86 53.33 102.91 38.25"/><polygon class="cls-32" points="97.74 68.88 114.19 74.53 129.45 113.09 97.74 68.88"/><polygon class="cls-30" points="102.91 38.25 97.74 68.88 114.19 74.53 102.91 38.25"/><polygon class="cls-33" points="178.99 51.41 167.55 22.92 193.94 34.12 178.99 51.41"/><polygon class="cls-25" points="178.99 51.41 188.01 69.23 181.22 132.82 178.99 51.41"/><polygon class="cls-34" points="193.94 34.12 188.01 69.23 178.99 51.41 193.94 34.12"/><polygon class="cls-29" points="193.94 34.12 188.01 69.23 219.66 81.51 193.94 34.12"/><polygon class="cls-35" points="89.86 53.33 35.71 152.51 65.43 113.09 89.86 53.33"/><polygon class="cls-29" points="158.59 231.9 208.16 180.13 211.22 184.31 158.59 231.9"/><polygon class="cls-26" points="227.43 148.03 208.16 180.13 211.22 184.31 227.43 148.03"/><polygon class="cls-36" points="219.66 81.51 181.22 132.82 188.01 69.23 219.66 81.51"/><polygon class="cls-26" points="193.94 34.12 159.2 0.13 167.55 22.92 193.94 34.12"/><polygon class="cls-37" points="65.43 113.09 89.86 53.33 94.45 106.81 65.43 113.09"/><polygon class="cls-37" points="97.74 68.88 129.45 113.09 94.45 106.81 97.74 68.88"/><polygon class="cls-38" points="227.54 147.98 230.94 135.53 271.04 232.92 227.54 147.98"/><path class="cls-8" d="M273.4,219.59l38.8,94.25-42.07-82.17,3.27-12.08m0-.78-3.49,12.89,44.88,87.64L273.35,218.81h0Z" transform="translate(-42.43 -83.66)"/><path class="cls-39" d="M375,336l74.45-82.05h16.1l-57.41,62.41,62.38,83.8h-16l-55.4-73.85-23.88,21.79v52.06H362V190.85h13.28V295.76L374.37,336H375Z" transform="translate(-42.43 -83.66)"/><path class="cls-39" d="M553.86,402.83q-31.79,0-49.57-19.64t-17.77-55q0-35,17.17-56T550,251.11q25.76,0,40.65,18t14.89,49v10.76h-105q0.27,30.13,14,46t39.37,15.87A121.75,121.75,0,0,0,575.79,389q9.46-1.75,23.94-7.53v12.11a106.45,106.45,0,0,1-22.8,7.33A126.32,126.32,0,0,1,553.86,402.83ZM550,262.94q-21.06,0-33.8,13.92T501.27,317h90.15q0-25.42-11-39.75T550,262.94Z" transform="translate(-42.43 -83.66)"/><path class="cls-39" d="M616,253.93h13.68L660.57,336q14.08,37.8,17.84,51h0.8q5.63-17.35,18.38-51.79l30.85-81.24h13.68L676.8,423.82q-7.92,20.71-13.28,28A35.6,35.6,0,0,1,651,462.69q-7.18,3.63-17.37,3.63a59.69,59.69,0,0,1-17-2.83V451.93a62.73,62.73,0,0,0,16.77,2.15,22.52,22.52,0,0,0,12.07-3.23,30.14,30.14,0,0,0,9.46-10q4.22-6.79,9.79-21.52t7.18-19.17Z" transform="translate(-42.43 -83.66)"/><path class="cls-39" d="M882.64,347.82q0,26-18.78,40.49t-51,14.53q-34.88,0-53.66-9V371.76a140.67,140.67,0,0,0,26.29,8.07,137.92,137.92,0,0,0,28.17,3q22.8,0,34.34-8.68T859.57,350q0-10.22-4.09-16.75t-13.68-12q-9.59-5.51-29.18-12.51-27.36-9.82-39.1-23.27T761.78,250.3q0-22.73,17-36.18t45.07-13.45q29.24,0,53.79,10.76l-7.11,19.91q-24.28-10.22-47.22-10.22-18.11,0-28.3,7.8t-10.2,21.66q0,10.22,3.76,16.75t12.68,12q8.92,5.45,27.3,12,30.85,11,42.46,23.67T882.64,347.82Z" transform="translate(-42.43 -83.66)"/><path class="cls-39" d="M980.17,402.83a63.47,63.47,0,0,1-26.22-5.31A49.33,49.33,0,0,1,934,381.18h-1.61A198.25,198.25,0,0,1,934,405.66v60.66H911.76V252.72h18.11L933,272.9H934q8.58-12.11,20-17.49T980.17,250q29.24,0,45.14,20t15.9,56.23q0,36.32-16.16,56.43T980.17,402.83ZM977,269q-22.54,0-32.6,12.51T934,321.32v5q0,31.07,10.33,44.46t33.13,13.38q19,0,29.85-15.47t10.8-42.64q0-27.57-10.8-42.3T977,269Z" transform="translate(-42.43 -83.66)"/><path class="cls-39" d="M1170.52,400.14l-4.43-21H1165q-11,13.86-21.93,18.76t-27.3,4.91q-21.87,0-34.27-11.3t-12.41-32.15q0-44.66,71.23-46.81l25-.81v-9.15q0-17.35-7.45-25.62T1134,268.73q-18.38,0-41.58,11.3l-6.84-17.08a104.53,104.53,0,0,1,23.81-9.28,102.91,102.91,0,0,1,26-3.36q26.29,0,39,11.7T1187,299.53V400.14h-16.5Zm-50.3-15.74q20.79,0,32.66-11.43t11.87-32V327.64l-22.27.94q-26.56.94-38.3,8.27t-11.74,22.8q0,12.1,7.31,18.43T1120.22,384.41Z" transform="translate(-42.43 -83.66)"/><path class="cls-39" d="M1300,250a86.91,86.91,0,0,1,17.57,1.61l-3.08,20.71a75.66,75.66,0,0,0-16.1-2q-17.84,0-30.52,14.53t-12.68,36.18v79.09H1232.9V252.72h18.38l2.55,27.3h1.07q8.18-14.39,19.72-22.19A44.31,44.31,0,0,1,1300,250Z" transform="translate(-42.43 -83.66)"/><path class="cls-39" d="M1367,324.68a262.17,262.17,0,0,1,17.57-21.52l47.49-50.44h26.43L1399,315.54l63.72,84.61h-27l-51.91-69.68L1367,345v55.15h-22V190.85h22v111q0,7.4-1.07,22.87H1367Z" transform="translate(-42.43 -83.66)"/></svg>