<svg id="Layer_1" data-name="Layer 1" xmlns="http://www.w3.org/2000/svg" viewBox="0 0 1420.26 382.8"><defs><style>.cls-1{fill:#f5bb71;}.cls-1,.cls-24,.cls-25,.cls-28,.cls-29,.cls-32,.cls-36{stroke:#8c4b31;}.cls-1,.cls-24,.cls-25,.cls-26,.cls-27,.cls-28,.cls-29,.cls-30,.cls-31,.cls-32,.cls-33,.cls-34,.cls-35,.cls-36,.cls-37{stroke-linejoin:round;stroke-width:0.25px;}.cls-2,.cls-36{fill:#88421e;}.cls-3{fill:#8c4b31;}.cls-4{fill:#602912;}.cls-5{fill:#4d2511;}.cls-6{fill:#753517;}.cls-33,.cls-37,.cls-7{fill:#e88e4f;}.cls-8{fill:#d67f43;}.cls-31,.cls-9{fill:#cf7539;}.cls-10{fill:#a15538;}.cls-11,.cls-28{fill:#cc6328;}.cls-12{fill:#c75d28;}.cls-13{fill:#8a5121;}.cls-14{fill:#8b471f;}.cls-15{fill:#612d12;}.cls-16{fill:#713d28;}.cls-17{fill:#783718;}.cls-18,.cls-24,.cls-34{fill:#b05326;}.cls-19{fill:#a85325;}.cls-20{fill:#f3742c;}.cls-21{fill:#b9623f;}.cls-22,.cls-29{fill:#e77224;}.cls-23{fill:#c75a28;}.cls-25{fill:#b15f31;}.cls-26{fill:#ffdd9e;}.cls-26,.cls-27,.cls-30,.cls-31,.cls-33,.cls-34,.cls-35{stroke:#d67f43;}.cls-27,.cls-32{fill:#e87a2c;}.cls-30{fill:#f68c43;}.cls-35{fill:#faac60;}.cls-37{stroke:#b07158;}.cls-38{fill:#d1ac8a;}.cls-39{fill:#eae3dc;}</style></defs><title>logo-red-light</title><polygon class="cls-1" points="114.19 74.53 102.91 38.25 115.18 53.33 114.19 74.53"/><polygon class="cls-2" points="0.14 199.65 35.4 153.13 12.67 230.18 0.14 199.65"/><path class="cls-3" d="M77.52,979.76l-22.44,76-12.36-30.14,34.8-45.91m0.63-1.24-35.71,47.12,12.69,30.93,23-78h0Z" transform="translate(-42.43 -826.01)"/><path class="cls-4" d="M51.32,1115.08c-0.23-1,2.41-38,3.88-57.88l31.12,91.92Z" transform="translate(-42.43 -826.01)"/><path class="cls-3" d="M55.28,1057.82L86,1148.66,51.47,1115c-0.17-2.05,2.36-37.49,3.81-57.23m-0.16-1.25s-4.23,57.18-3.89,58.6l35.37,34.4-31.48-93h0Z" transform="translate(-42.43 -826.01)"/><polygon class="cls-5" points="0.31 200.72 12.54 230.53 6.43 236.82 0.31 200.72"/><path class="cls-3" d="M43.06,1027.82l11.77,28.69-5.89,6.06-5.89-34.75m-0.62-2.18,6.34,37.46,6.34-6.53-12.69-30.93h0Z" transform="translate(-42.43 -826.01)"/><polygon class="cls-5" points="6.47 237.08 12.54 230.88 8.82 286.94 6.47 237.08"/><path class="cls-3" d="M54.83,1057.23l-3.55,53.52L49,1063.2l5.79-6m0.29-.66-6.34,6.53,2.45,52.07,3.89-58.6h0Z" transform="translate(-42.43 -826.01)"/><polygon class="cls-5" points="70.97 354.99 44.65 323.92 123.07 361.73 70.97 354.99"/><path class="cls-3" d="M87.56,1150.3l77.19,37.22-51.23-6.62-26-30.6m-1-.74,26.78,31.57,52.86,6.83-79.65-38.4h0Z" transform="translate(-42.43 -826.01)"/><polygon class="cls-5" points="124.32 361.89 238.68 316.99 166.08 367 124.32 361.89"/><path class="cls-3" d="M280.15,1143.52l-71.67,49.36-41.22-5.05,112.88-44.31m1.93-1L166.25,1188l42.29,5.18,73.54-50.65h0Z" transform="translate(-42.43 -826.01)"/><polygon class="cls-6" points="229.46 214.92 272.15 235.73 239.72 315.96 229.46 214.92"/><path class="cls-3" d="M272,1041.14l42.38,20.67-32.19,79.65L272,1041.14m-0.29-.42,10.34,101.78,32.66-80.81-43-21h0Z" transform="translate(-42.43 -826.01)"/><polygon class="cls-7" points="211.37 184.28 227.44 148.32 271.91 235.18 211.37 184.28"/><path class="cls-8" d="M269.88,974.63L314,1060.7l-60-50.44,15.92-35.63m0-.58-16.21,36.28,61.09,51.36L269.86,974h0Z" transform="translate(-42.43 -826.01)"/><polygon class="cls-9" points="229.37 214.59 211.71 184.89 271.45 235.12 229.37 214.59"/><path class="cls-10" d="M254.63,1011.47l58.4,49.1-41.1-20-17.29-29.05m-1-1.15,18.09,30.39,43,21-61.09-51.36h0Z" transform="translate(-42.43 -826.01)"/><polygon class="cls-11" points="108.03 273.7 158.56 232.09 205.29 304.95 108.03 273.7"/><path class="cls-3" d="M201,1058.29l46.46,72.44-96.71-31.07L201,1058.29m0.06-.37-50.82,41.85L248,1131.19l-47-73.27h0Z" transform="translate(-42.43 -826.01)"/><polygon class="cls-12" points="158.79 231.98 229.14 214.88 205.53 304.87 158.79 231.98"/><path class="cls-13" d="M271.39,1041.06l-23.48,89.51-46.49-72.49,70-17m0.35-.34L201,1057.92l47,73.27,23.73-90.47h0Z" transform="translate(-42.43 -826.01)"/><polygon class="cls-11" points="211.19 184.51 229.12 214.62 159.04 231.67 211.19 184.51"/><path class="cls-13" d="M253.59,1010.72l17.76,29.84-69.43,16.88,51.67-46.72m0.06-.39L201,1057.92l70.72-17.2-18.09-30.39h0Z" transform="translate(-42.43 -826.01)"/><polygon class="cls-14" points="205.73 305.09 229.26 215.41 239.5 316.3 205.73 305.09"/><path class="cls-3" d="M271.63,1042.12l10.16,100L248.32,1131l23.32-88.9m0.11-1.4L248,1131.19l34.07,11.31-10.34-101.78h0Z" transform="translate(-42.43 -826.01)"/><polygon class="cls-15" points="205.6 305.31 239.28 316.49 124.77 361.44 205.6 305.31"/><path class="cls-16" d="M248.05,1131.46l33.29,11.05-113.19,44.43,79.9-55.49m0-.28L166.25,1188l115.83-45.47L248,1131.19h0Z" transform="translate(-42.43 -826.01)"/><polygon class="cls-6" points="85.99 302.95 205.19 305.29 123.85 361.77 85.99 302.95"/><path class="cls-3" d="M128.65,1129.09l118.58,2.33-80.92,56.19-37.67-58.52m-0.46-.26L166.25,1188,248,1131.19l-119.82-2.36h0Z" transform="translate(-42.43 -826.01)"/><polygon class="cls-15" points="44.45 323.55 85.71 302.98 123.47 361.64 44.45 323.55"/><path class="cls-16" d="M128.1,1129.15l37.46,58.2-78.39-37.79,40.93-20.4m0.09-.32L86.6,1149.56l79.65,38.4-38.06-59.13h0Z" transform="translate(-42.43 -826.01)"/><polygon class="cls-6" points="12.98 231.02 85.54 302.78 44.24 323.37 12.98 231.02"/><path class="cls-16" d="M55.7,1057.49l72.07,71.27-41,20.45L55.7,1057.49m-0.58-.92,31.48,93,41.59-20.73-73.07-72.26h0Z" transform="translate(-42.43 -826.01)"/><polygon class="cls-15" points="13 230.69 97.59 233.44 85.67 302.56 13 230.69"/><path class="cls-3" d="M55.75,1056.84l84.13,2.73L128,1128.31l-72.27-71.47m-0.63-.27,73.07,72.26,12-69.5-85.05-2.76h0Z" transform="translate(-42.43 -826.01)"/><polygon class="cls-14" points="86 302.7 108.19 273.04 204.76 305.03 86 302.7"/><path class="cls-3" d="M150.66,1099.2l95.7,31.7-117.68-2.31,22-29.39m-0.09-.29-22.38,29.92L248,1131.19l-97.44-32.28h0Z" transform="translate(-42.43 -826.01)"/><polygon class="cls-17" points="97.76 233.91 108 272.87 85.97 302.32 97.76 233.91"/><path class="cls-16" d="M140.22,1060.51l10.08,38.35-21.69,29,11.61-67.34m-0.05-1.18-12,69.5,22.38-29.92-10.4-39.58h0Z" transform="translate(-42.43 -826.01)"/><polygon class="cls-18" points="97.9 233.44 125.9 232.04 108.17 272.52 97.9 233.44"/><path class="cls-3" d="M168.14,1058.19l-17.51,40-10.14-38.59,27.64-1.38m0.39-.27-28.36,1.41,10.4,39.58,18-41h0Z" transform="translate(-42.43 -826.01)"/><polygon class="cls-19" points="132.42 200 125.99 231.78 98.07 233.18 132.42 200"/><path class="cls-3" d="M174.65,1026.38l-6.33,31.3-27.5,1.37,33.82-32.67m0.4-.74-34.88,33.69,28.36-1.41,6.52-32.28h0Z" transform="translate(-42.43 -826.01)"/><polygon class="cls-20" points="127.48 166.48 133.79 163.09 132.54 198.33 127.48 166.48"/><path class="cls-21" d="M176.09,989.32L174.89,1023l-4.84-30.49,6-3.24m0.27-.43-6.58,3.53,5.28,33.22,1.3-36.75h0Z" transform="translate(-42.43 -826.01)"/><polygon class="cls-20" points="126.21 141.86 129.43 114.31 133.71 161.96 126.21 141.86"/><path class="cls-3" d="M171.85,941.54l4.09,45.51-7.15-19.17,3.07-26.35m0-2.44-3.35,28.82,7.83,21-4.47-49.79h0Z" transform="translate(-42.43 -826.01)"/><polygon class="cls-22" points="127.29 166.85 132.49 199.58 98.11 232.78 127.29 166.85"/><path class="cls-21" d="M169.66,993.3l5.12,32.25-33.87,32.71,28.74-65m0.11-.88-29.6,66.91,34.88-33.69-5.28-33.22h0Z" transform="translate(-42.43 -826.01)"/><polygon class="cls-18" points="126.26 142.71 133.77 162.82 127.46 166.21 126.26 142.71"/><path class="cls-3" d="M168.86,969.53L176,988.77,170,992l-1.15-22.49m-0.33-1.61,1.25,24.5,6.58-3.53-7.83-21h0Z" transform="translate(-42.43 -826.01)"/><polygon class="cls-11" points="125.98 142.16 127.21 166.34 14.05 229.65 125.98 142.16"/><path class="cls-21" d="M168.3,968.41l1.22,23.86L57.84,1054.76,168.3,968.41m0.23-.49L55.12,1056.57l114.66-64.15-1.25-24.5h0Z" transform="translate(-42.43 -826.01)"/><polygon class="cls-23" points="13.14 230.44 127.08 166.7 97.66 233.19 13.14 230.44"/><path class="cls-13" d="M169.24,993L140,1059.07l-84-2.73L169.24,993m0.53-.58L55.12,1056.57l85.05,2.76,29.6-66.91h0Z" transform="translate(-42.43 -826.01)"/><polygon class="cls-24" points="35.71 152.51 126.09 141.91 12.69 230.56 35.71 152.51"/><polygon class="cls-25" points="65.43 113.09 126.09 141.91 35.71 152.51 65.43 113.09"/><polygon class="cls-26" points="115.18 53.33 129.45 113.09 114.19 74.53 115.18 53.33"/><polygon class="cls-26" points="99.68 8.56 102.91 38.25 115.18 53.33 99.68 8.56"/><polygon class="cls-27" points="89.86 53.33 99.68 8.56 102.91 38.25 89.86 53.33"/><polygon class="cls-28" points="126.09 141.91 94.45 106.81 65.43 113.09 126.09 141.91"/><polygon class="cls-29" points="129.45 113.09 94.45 106.81 126.09 141.91 129.45 113.09"/><polygon class="cls-30" points="89.86 53.33 97.74 68.88 94.45 106.81 89.86 53.33"/><polygon class="cls-31" points="102.91 38.25 97.74 68.88 89.86 53.33 102.91 38.25"/><polygon class="cls-32" points="97.74 68.88 114.19 74.53 129.45 113.09 97.74 68.88"/><polygon class="cls-30" points="102.91 38.25 97.74 68.88 114.19 74.53 102.91 38.25"/><polygon class="cls-33" points="178.99 51.41 167.55 22.92 193.94 34.12 178.99 51.41"/><polygon class="cls-25" points="178.99 51.41 188.01 69.23 181.22 132.82 178.99 51.41"/><polygon class="cls-34" points="193.94 34.12 188.01 69.23 178.99 51.41 193.94 34.12"/><polygon class="cls-29" points="193.94 34.12 188.01 69.23 219.66 81.51 193.94 34.12"/><polygon class="cls-35" points="89.86 53.33 35.71 152.51 65.43 113.09 89.86 53.33"/><polygon class="cls-29" points="158.59 231.9 208.16 180.13 211.22 184.31 158.59 231.9"/><polygon class="cls-26" points="227.43 148.03 208.16 180.13 211.22 184.31 227.43 148.03"/><polygon class="cls-36" points="219.66 81.51 181.22 132.82 188.01 69.23 219.66 81.51"/><polygon class="cls-26" points="193.94 34.12 159.2 0.13 167.55 22.92 193.94 34.12"/><polygon class="cls-37" points="65.43 113.09 89.86 53.33 94.45 106.81 65.43 113.09"/><polygon class="cls-37" points="97.74 68.88 129.45 113.09 94.45 106.81 97.74 68.88"/><polygon class="cls-38" points="227.54 147.98 230.94 135.53 271.04 232.92 227.54 147.98"/><path class="cls-8" d="M273.4,961.94l38.8,94.25L270.13,974l3.27-12.08m0-.78L269.86,974l44.88,87.64L273.35,961.16h0Z" transform="translate(-42.43 -826.01)"/><path class="cls-39" d="M375,1078.47l74.45-82.05h16.1l-57.41,62.41,62.38,83.8h-16l-55.4-73.85-23.88,21.79v52.06H362V933.34h13.28v104.92l-0.94,40.22H375Z" transform="translate(-42.43 -826.01)"/><path class="cls-39" d="M553.86,1145.32q-31.79,0-49.57-19.64t-17.77-55q0-35,17.17-56T550,993.6q25.76,0,40.65,18t14.89,49v10.76h-105q0.27,30.13,14,46t39.37,15.87a121.75,121.75,0,0,0,21.93-1.75q9.46-1.75,23.94-7.53V1136a106.45,106.45,0,0,1-22.8,7.33A126.32,126.32,0,0,1,553.86,1145.32ZM550,1005.43q-21.06,0-33.8,13.92t-14.89,40.15h90.15q0-25.42-11-39.75T550,1005.43Z" transform="translate(-42.43 -826.01)"/><path class="cls-39" d="M616,996.42h13.68l30.85,82.05q14.08,37.8,17.84,51h0.8q5.63-17.35,18.38-51.79l30.85-81.24h13.68L676.8,1166.31q-7.92,20.71-13.28,28A35.6,35.6,0,0,1,651,1205.18q-7.18,3.63-17.37,3.63a59.69,59.69,0,0,1-17-2.83v-11.57a62.73,62.73,0,0,0,16.77,2.15,22.52,22.52,0,0,0,12.07-3.23,30.14,30.14,0,0,0,9.46-10q4.22-6.79,9.79-21.52t7.18-19.17Z" transform="translate(-42.43 -826.01)"/><path class="cls-39" d="M882.64,1090.31q0,26-18.78,40.49t-51,14.53q-34.88,0-53.66-9v-22.06a140.66,140.66,0,0,0,26.29,8.07,137.92,137.92,0,0,0,28.17,3q22.8,0,34.34-8.68t11.54-24.14q0-10.22-4.09-16.75t-13.68-12q-9.59-5.51-29.18-12.51-27.36-9.82-39.1-23.27t-11.74-35.11q0-22.73,17-36.18t45.07-13.45q29.24,0,53.79,10.76l-7.11,19.91q-24.28-10.22-47.22-10.22-18.11,0-28.3,7.8t-10.2,21.66q0,10.22,3.76,16.75t12.68,12q8.92,5.45,27.3,12,30.85,11,42.46,23.67T882.64,1090.31Z" transform="translate(-42.43 -826.01)"/><path class="cls-39" d="M980.17,1145.32a63.47,63.47,0,0,1-26.22-5.31A49.33,49.33,0,0,1,934,1123.67h-1.61a198.25,198.25,0,0,1,1.61,24.48v60.66H911.76V995.21h18.11l3.08,20.18H934q8.58-12.11,20-17.49t26.16-5.38q29.24,0,45.14,20t15.9,56.23q0,36.32-16.16,56.43T980.17,1145.32ZM977,1011.49q-22.54,0-32.6,12.51T934,1063.81v5q0,31.07,10.33,44.46t33.13,13.38q19,0,29.85-15.47t10.8-42.64q0-27.57-10.8-42.3T977,1011.49Z" transform="translate(-42.43 -826.01)"/><path class="cls-39" d="M1170.52,1142.63l-4.43-21H1165q-11,13.86-21.93,18.76t-27.3,4.91q-21.87,0-34.27-11.3t-12.41-32.15q0-44.66,71.23-46.81l25-.81v-9.15q0-17.35-7.45-25.62t-23.81-8.27q-18.38,0-41.58,11.3l-6.84-17.08a104.53,104.53,0,0,1,23.81-9.28,102.91,102.91,0,0,1,26-3.36q26.29,0,39,11.7T1187,1042v100.61h-16.5Zm-50.3-15.74q20.79,0,32.66-11.43t11.87-32v-13.32l-22.27.94q-26.56.94-38.3,8.27t-11.74,22.8q0,12.1,7.31,18.43T1120.22,1126.9Z" transform="translate(-42.43 -826.01)"/><path class="cls-39" d="M1300,992.52a86.91,86.91,0,0,1,17.57,1.61l-3.08,20.71a75.66,75.66,0,0,0-16.1-2q-17.84,0-30.52,14.53t-12.68,36.18v79.09H1232.9V995.21h18.38l2.55,27.3h1.07q8.18-14.39,19.72-22.19A44.31,44.31,0,0,1,1300,992.52Z" transform="translate(-42.43 -826.01)"/><path class="cls-39" d="M1367,1067.17a262.17,262.17,0,0,1,17.57-21.52l47.49-50.44h26.43L1399,1058l63.72,84.61h-27L1383.81,1073,1367,1087.48v55.15h-22V933.34h22v111q0,7.4-1.07,22.87H1367Z" transform="translate(-42.43 -826.01)"/></svg>