<svg id="Layer_1" data-name="Layer 1" xmlns="http://www.w3.org/2000/svg" viewBox="0 0 272.31 367.13"><defs><style>.cls-1,.cls-2{fill:#f7f7f7;}.cls-1{stroke:gray;stroke-linejoin:round;stroke-width:0.25px;}.cls-3{fill:gray;}</style></defs><title>spark-white</title><polygon class="cls-1" points="114.19 74.53 102.91 38.25 115.18 53.33 114.19 74.53"/><polygon class="cls-2" points="0.14 199.65 35.4 153.13 12.67 230.18 0.14 199.65"/><path class="cls-3" d="M4025.64,1873.13l-22.44,76L3990.84,1919l34.8-45.91m0.63-1.24L3990.55,1919l12.69,30.93,23-78h0Z" transform="translate(-3990.55 -1719.38)"/><path class="cls-2" d="M3999.44,2008.44c-0.23-1,2.41-38,3.88-57.88l31.12,91.92Z" transform="translate(-3990.55 -1719.38)"/><path class="cls-3" d="M4003.4,1951.18l30.75,90.84-34.57-33.61c-0.17-2.05,2.36-37.49,3.81-57.23m-0.16-1.25s-4.23,57.18-3.89,58.6l35.37,34.4-31.48-93h0Z" transform="translate(-3990.55 -1719.38)"/><polygon class="cls-2" points="0.31 200.72 12.54 230.53 6.43 236.82 0.31 200.72"/><path class="cls-3" d="M3991.18,1921.18l11.77,28.69-5.89,6.06-5.89-34.75m-0.62-2.18,6.34,37.46,6.34-6.53L3990.55,1919h0Z" transform="translate(-3990.55 -1719.38)"/><polygon class="cls-2" points="6.47 237.08 12.54 230.88 8.82 286.94 6.47 237.08"/><path class="cls-3" d="M4002.95,1950.6l-3.55,53.52-2.24-47.55,5.79-6m0.29-.66-6.34,6.53,2.45,52.07,3.89-58.6h0Z" transform="translate(-3990.55 -1719.38)"/><polygon class="cls-2" points="70.97 354.99 44.65 323.92 123.07 361.73 70.97 354.99"/><path class="cls-3" d="M4035.68,2043.67l77.19,37.22-51.23-6.62-26-30.6m-1-.74,26.78,31.57,52.86,6.83-79.65-38.4h0Z" transform="translate(-3990.55 -1719.38)"/><polygon class="cls-2" points="124.32 361.89 238.68 316.99 166.08 367 124.32 361.89"/><path class="cls-3" d="M4228.27,2036.89l-71.67,49.36-41.22-5.05,112.88-44.31m1.93-1-115.83,45.47,42.29,5.18,73.54-50.65h0Z" transform="translate(-3990.55 -1719.38)"/><polygon class="cls-2" points="229.46 214.92 272.15 235.73 239.72 315.96 229.46 214.92"/><path class="cls-3" d="M4220.16,1934.51l42.38,20.67-32.19,79.65-10.19-100.32m-0.29-.42,10.34,101.78,32.66-80.81-43-21h0Z" transform="translate(-3990.55 -1719.38)"/><polygon class="cls-2" points="211.37 184.28 227.44 148.32 271.91 235.18 211.37 184.28"/><path class="cls-3" d="M4218,1868l44.07,86.07-60-50.44L4218,1868m0-.58-16.21,36.28,61.09,51.36L4218,1867.41h0Z" transform="translate(-3990.55 -1719.38)"/><polygon class="cls-2" points="229.37 214.59 211.71 184.89 271.45 235.12 229.37 214.59"/><path class="cls-3" d="M4202.75,1904.84l58.4,49.1-41.1-20-17.29-29.05m-1-1.15,18.09,30.39,43,21-61.09-51.36h0Z" transform="translate(-3990.55 -1719.38)"/><polygon class="cls-2" points="108.03 273.7 158.56 232.09 205.29 304.95 108.03 273.7"/><path class="cls-3" d="M4149.09,1951.66l46.46,72.44L4098.84,1993l50.25-41.38m0.06-.37-50.82,41.85,97.81,31.42-47-73.27h0Z" transform="translate(-3990.55 -1719.38)"/><polygon class="cls-2" points="158.79 231.98 229.14 214.88 205.53 304.87 158.79 231.98"/><path class="cls-3" d="M4219.52,1934.43L4196,2023.94l-46.49-72.49,70-17m0.35-.34-70.72,17.2,47,73.27,23.73-90.47h0Z" transform="translate(-3990.55 -1719.38)"/><polygon class="cls-2" points="211.19 184.51 229.12 214.62 159.04 231.67 211.19 184.51"/><path class="cls-3" d="M4201.71,1904.08l17.76,29.84L4150,1950.81l51.67-46.72m0.06-.39-52.63,47.59,70.72-17.2-18.09-30.39h0Z" transform="translate(-3990.55 -1719.38)"/><polygon class="cls-2" points="205.73 305.09 229.26 215.41 239.5 316.3 205.73 305.09"/><path class="cls-3" d="M4219.75,1935.49l10.16,100-33.48-11.11,23.32-88.9m0.11-1.4-23.73,90.47,34.07,11.31-10.34-101.78h0Z" transform="translate(-3990.55 -1719.38)"/><polygon class="cls-2" points="205.6 305.31 239.28 316.49 124.77 361.44 205.6 305.31"/><path class="cls-3" d="M4196.17,2024.83l33.29,11.05-113.19,44.43,79.9-55.49m0-.28-81.76,56.78,115.83-45.47-34.07-11.31h0Z" transform="translate(-3990.55 -1719.38)"/><polygon class="cls-2" points="85.99 302.95 205.19 305.29 123.85 361.77 85.99 302.95"/><path class="cls-3" d="M4076.77,2022.46l118.58,2.33L4114.44,2081l-37.67-58.52m-0.46-.26,38.06,59.13,81.76-56.78-119.82-2.36h0Z" transform="translate(-3990.55 -1719.38)"/><polygon class="cls-2" points="44.45 323.55 85.71 302.98 123.47 361.64 44.45 323.55"/><path class="cls-3" d="M4076.22,2022.52l37.46,58.2-78.39-37.79,40.93-20.4m0.09-.32-41.59,20.73,79.65,38.4-38.06-59.13h0Z" transform="translate(-3990.55 -1719.38)"/><polygon class="cls-2" points="12.97 231.02 85.54 302.78 44.24 323.37 12.97 231.02"/><path class="cls-3" d="M4003.82,1950.86l72.07,71.27-41,20.45-31.05-91.72m-0.58-.92,31.48,93,41.59-20.73-73.07-72.26h0Z" transform="translate(-3990.55 -1719.38)"/><polygon class="cls-2" points="13 230.69 97.59 233.44 85.67 302.56 13 230.69"/><path class="cls-3" d="M4003.87,1950.21l84.13,2.73-11.85,68.74-72.27-71.47m-0.63-.27,73.07,72.26,12-69.5-85.05-2.76h0Z" transform="translate(-3990.55 -1719.38)"/><polygon class="cls-2" points="86 302.7 108.19 273.04 204.76 305.03 86 302.7"/><path class="cls-3" d="M4098.78,1992.57l95.7,31.7L4076.8,2022l22-29.39m-0.09-.29-22.38,29.92,119.82,2.36-97.44-32.28h0Z" transform="translate(-3990.55 -1719.38)"/><polygon class="cls-2" points="97.77 233.91 108 272.87 85.97 302.32 97.77 233.91"/><path class="cls-3" d="M4088.34,1953.87l10.08,38.35-21.69,29,11.61-67.34m-0.05-1.18-12,69.5,22.38-29.92-10.4-39.58h0Z" transform="translate(-3990.55 -1719.38)"/><polygon class="cls-2" points="97.9 233.44 125.9 232.04 108.17 272.52 97.9 233.44"/><path class="cls-3" d="M4116.26,1951.55l-17.51,40-10.14-38.59,27.64-1.38m0.39-.27-28.36,1.41,10.4,39.58,18-41h0Z" transform="translate(-3990.55 -1719.38)"/><polygon class="cls-2" points="132.42 200 125.99 231.78 98.07 233.18 132.42 200"/><path class="cls-3" d="M4122.77,1919.75l-6.33,31.3-27.5,1.37,33.82-32.67m0.4-.74-34.88,33.69,28.36-1.41,6.52-32.28h0Z" transform="translate(-3990.55 -1719.38)"/><polygon class="cls-2" points="127.48 166.48 133.79 163.09 132.54 198.33 127.48 166.48"/><path class="cls-3" d="M4124.21,1882.68l-1.19,33.73-4.84-30.49,6-3.24m0.27-.43-6.58,3.53,5.28,33.22,1.3-36.75h0Z" transform="translate(-3990.55 -1719.38)"/><polygon class="cls-2" points="126.21 141.86 129.43 114.31 133.71 161.96 126.21 141.86"/><path class="cls-3" d="M4120,1834.91l4.09,45.51-7.15-19.17,3.07-26.35m0-2.44-3.35,28.82,7.83,21-4.47-49.79h0Z" transform="translate(-3990.55 -1719.38)"/><polygon class="cls-2" points="127.29 166.85 132.49 199.58 98.11 232.78 127.29 166.85"/><path class="cls-3" d="M4117.78,1886.67l5.12,32.25L4089,1951.63l28.74-65m0.11-.88-29.6,66.91,34.88-33.69-5.28-33.22h0Z" transform="translate(-3990.55 -1719.38)"/><polygon class="cls-2" points="126.26 142.71 133.77 162.82 127.46 166.21 126.26 142.71"/><path class="cls-3" d="M4117,1862.89l7.18,19.24-6,3.24-1.14-22.49m-0.33-1.61,1.25,24.5,6.58-3.53-7.83-21h0Z" transform="translate(-3990.55 -1719.38)"/><polygon class="cls-2" points="125.98 142.16 127.21 166.34 14.05 229.65 125.98 142.16"/><path class="cls-3" d="M4116.42,1861.78l1.21,23.86L4006,1948.13l110.46-86.34m0.23-.49-113.41,88.65,114.66-64.15-1.25-24.5h0Z" transform="translate(-3990.55 -1719.38)"/><polygon class="cls-2" points="13.14 230.44 127.08 166.7 97.66 233.19 13.14 230.44"/><path class="cls-3" d="M4117.36,1886.37l-29.23,66.07-84-2.73,113.22-63.34m0.53-.58-114.66,64.15,85.05,2.76,29.6-66.91h0Z" transform="translate(-3990.55 -1719.38)"/><polygon class="cls-1" points="35.71 152.51 126.09 141.91 12.69 230.56 35.71 152.51"/><polygon class="cls-1" points="65.43 113.09 126.09 141.91 35.71 152.51 65.43 113.09"/><polygon class="cls-1" points="115.18 53.33 129.45 113.09 114.19 74.53 115.18 53.33"/><polygon class="cls-1" points="99.68 8.56 102.91 38.25 115.18 53.33 99.68 8.56"/><polygon class="cls-1" points="89.86 53.33 99.68 8.56 102.91 38.25 89.86 53.33"/><polygon class="cls-1" points="126.09 141.91 94.45 106.81 65.43 113.09 126.09 141.91"/><polygon class="cls-1" points="129.45 113.09 94.45 106.81 126.09 141.91 129.45 113.09"/><polygon class="cls-1" points="89.86 53.33 97.74 68.88 94.45 106.81 89.86 53.33"/><polygon class="cls-1" points="102.91 38.25 97.74 68.88 89.86 53.33 102.91 38.25"/><polygon class="cls-1" points="97.74 68.88 114.19 74.53 129.45 113.09 97.74 68.88"/><polygon class="cls-1" points="102.91 38.25 97.74 68.88 114.19 74.53 102.91 38.25"/><polygon class="cls-1" points="178.99 51.41 167.55 22.92 193.94 34.12 178.99 51.41"/><polygon class="cls-1" points="178.99 51.41 188.01 69.23 181.22 132.82 178.99 51.41"/><polygon class="cls-1" points="193.94 34.12 188.01 69.23 178.99 51.41 193.94 34.12"/><polygon class="cls-1" points="193.94 34.12 188.01 69.23 219.66 81.51 193.94 34.12"/><polygon class="cls-1" points="89.86 53.33 35.71 152.51 65.43 113.09 89.86 53.33"/><polygon class="cls-1" points="158.59 231.9 208.16 180.13 211.22 184.31 158.59 231.9"/><polygon class="cls-1" points="227.43 148.03 208.16 180.13 211.22 184.31 227.43 148.03"/><polygon class="cls-1" points="219.66 81.51 181.22 132.82 188.01 69.23 219.66 81.51"/><polygon class="cls-1" points="193.94 34.12 159.2 0.13 167.55 22.92 193.94 34.12"/><polygon class="cls-1" points="65.43 113.09 89.86 53.33 94.45 106.81 65.43 113.09"/><polygon class="cls-1" points="97.74 68.88 129.45 113.09 94.45 106.81 97.74 68.88"/><polygon class="cls-2" points="227.54 147.98 230.94 135.53 271.04 232.92 227.54 147.98"/><path class="cls-3" d="M4221.52,1855.3l38.8,94.25-42.07-82.17,3.27-12.08m0-.78-3.49,12.89,44.88,87.64-41.39-100.53h0Z" transform="translate(-3990.55 -1719.38)"/></svg>