<svg id="Layer_1" data-name="Layer 1" xmlns="http://www.w3.org/2000/svg" viewBox="0 0 272.31 367.13"><defs><style>.cls-1,.cls-2{fill:#19191a;}.cls-1{stroke:#999;stroke-linejoin:round;stroke-width:0.25px;}.cls-3{fill:#999;}</style></defs><title>spark-black</title><polygon class="cls-1" points="114.19 74.53 102.91 38.25 115.18 53.33 114.19 74.53"/><polygon class="cls-2" points="0.14 199.65 35.4 153.13 12.67 230.18 0.14 199.65"/><path class="cls-3" d="M4524.21,1869.63l-22.44,76-12.36-30.14,34.8-45.91m0.63-1.24-35.71,47.12,12.69,30.93,23-78h0Z" transform="translate(-4489.12 -1715.88)"/><path class="cls-2" d="M4498,2004.95c-0.23-1,2.41-38,3.88-57.88L4533,2039Z" transform="translate(-4489.12 -1715.88)"/><path class="cls-3" d="M4502,1947.69l30.75,90.84-34.57-33.61c-0.17-2.05,2.36-37.49,3.81-57.23m-0.16-1.25s-4.23,57.18-3.89,58.6l35.37,34.4-31.48-93h0Z" transform="translate(-4489.12 -1715.88)"/><polygon class="cls-2" points="0.31 200.72 12.54 230.53 6.43 236.82 0.31 200.72"/><path class="cls-3" d="M4489.75,1917.69l11.77,28.69-5.89,6.06-5.89-34.75m-0.62-2.18,6.34,37.46,6.34-6.53-12.69-30.93h0Z" transform="translate(-4489.12 -1715.88)"/><polygon class="cls-2" points="6.47 237.08 12.54 230.88 8.82 286.94 6.47 237.08"/><path class="cls-3" d="M4501.52,1947.1l-3.55,53.52-2.24-47.55,5.79-6m0.29-.66-6.34,6.53,2.45,52.07,3.89-58.6h0Z" transform="translate(-4489.12 -1715.88)"/><polygon class="cls-2" points="70.97 354.99 44.65 323.92 123.07 361.73 70.97 354.99"/><path class="cls-3" d="M4534.25,2040.17l77.19,37.22-51.23-6.62-26-30.6m-1-.74,26.78,31.57,52.86,6.83-79.65-38.4h0Z" transform="translate(-4489.12 -1715.88)"/><polygon class="cls-2" points="124.32 361.88 238.68 316.99 166.08 367 124.32 361.88"/><path class="cls-3" d="M4726.84,2033.39l-71.67,49.36L4614,2077.7l112.88-44.31m1.93-1-115.83,45.47,42.29,5.18,73.54-50.65h0Z" transform="translate(-4489.12 -1715.88)"/><polygon class="cls-2" points="229.46 214.92 272.15 235.74 239.72 315.96 229.46 214.92"/><path class="cls-3" d="M4718.73,1931l42.38,20.67-32.19,79.65L4718.73,1931m-0.29-.42,10.34,101.78,32.66-80.81-43-21h0Z" transform="translate(-4489.12 -1715.88)"/><polygon class="cls-2" points="211.37 184.28 227.44 148.32 271.91 235.18 211.37 184.28"/><path class="cls-3" d="M4716.57,1864.5l44.07,86.07-60-50.44,15.92-35.63m0-.58-16.21,36.28,61.09,51.36-44.88-87.64h0Z" transform="translate(-4489.12 -1715.88)"/><polygon class="cls-2" points="229.37 214.59 211.71 184.89 271.45 235.12 229.37 214.59"/><path class="cls-3" d="M4701.32,1901.34l58.4,49.1-41.1-20-17.29-29.05m-1-1.15,18.09,30.39,43,21-61.09-51.36h0Z" transform="translate(-4489.12 -1715.88)"/><polygon class="cls-2" points="108.03 273.7 158.56 232.09 205.29 304.95 108.03 273.7"/><path class="cls-3" d="M4647.66,1948.16l46.46,72.44-96.71-31.07,50.25-41.38m0.06-.37-50.82,41.85,97.81,31.42-47-73.27h0Z" transform="translate(-4489.12 -1715.88)"/><polygon class="cls-2" points="158.79 231.98 229.14 214.88 205.53 304.86 158.79 231.98"/><path class="cls-3" d="M4718.09,1930.93l-23.48,89.51-46.49-72.49,70-17m0.35-.34-70.72,17.2,47,73.27,23.73-90.47h0Z" transform="translate(-4489.12 -1715.88)"/><polygon class="cls-2" points="211.19 184.51 229.12 214.62 159.04 231.66 211.19 184.51"/><path class="cls-3" d="M4700.29,1900.59l17.76,29.84-69.43,16.88,51.67-46.72m0.06-.39-52.63,47.59,70.72-17.2-18.09-30.39h0Z" transform="translate(-4489.12 -1715.88)"/><polygon class="cls-2" points="205.73 305.09 229.26 215.41 239.5 316.3 205.73 305.09"/><path class="cls-3" d="M4718.33,1932l10.16,100L4695,2020.89l23.32-88.9m0.11-1.4-23.73,90.47,34.07,11.31-10.34-101.78h0Z" transform="translate(-4489.12 -1715.88)"/><polygon class="cls-2" points="205.6 305.31 239.28 316.49 124.77 361.44 205.6 305.31"/><path class="cls-3" d="M4694.75,2021.33l33.29,11.05-113.19,44.43,79.9-55.49m0-.28-81.76,56.78,115.83-45.47-34.07-11.31h0Z" transform="translate(-4489.12 -1715.88)"/><polygon class="cls-2" points="85.99 302.95 205.19 305.29 123.85 361.77 85.99 302.95"/><path class="cls-3" d="M4575.35,2019l118.58,2.33L4613,2077.48,4575.35,2019m-0.46-.26,38.06,59.13,81.76-56.78-119.82-2.36h0Z" transform="translate(-4489.12 -1715.88)"/><polygon class="cls-2" points="44.45 323.55 85.71 302.98 123.47 361.64 44.45 323.55"/><path class="cls-3" d="M4574.79,2019l37.46,58.2-78.39-37.79,40.93-20.4m0.09-.32-41.59,20.73,79.65,38.4-38.06-59.13h0Z" transform="translate(-4489.12 -1715.88)"/><polygon class="cls-2" points="12.98 231.02 85.54 302.78 44.24 323.37 12.98 231.02"/><path class="cls-3" d="M4502.39,1947.36l72.07,71.27-41,20.45-31.05-91.72m-0.58-.92,31.48,93,41.59-20.73-73.07-72.26h0Z" transform="translate(-4489.12 -1715.88)"/><polygon class="cls-2" points="13 230.69 97.59 233.44 85.67 302.56 13 230.69"/><path class="cls-3" d="M4502.44,1946.71l84.13,2.73-11.85,68.74-72.27-71.47m-0.63-.27,73.07,72.26,12-69.5-85.05-2.76h0Z" transform="translate(-4489.12 -1715.88)"/><polygon class="cls-2" points="86 302.7 108.19 273.04 204.75 305.03 86 302.7"/><path class="cls-3" d="M4597.36,1989.07l95.7,31.7-117.68-2.31,22-29.39m-0.09-.29-22.38,29.92,119.82,2.36-97.44-32.28h0Z" transform="translate(-4489.12 -1715.88)"/><polygon class="cls-2" points="97.76 233.91 108 272.87 85.97 302.32 97.76 233.91"/><path class="cls-3" d="M4586.91,1950.38l10.08,38.35-21.69,29,11.61-67.34m-0.05-1.18-12,69.5,22.38-29.92-10.4-39.58h0Z" transform="translate(-4489.12 -1715.88)"/><polygon class="cls-2" points="97.9 233.44 125.9 232.04 108.17 272.52 97.9 233.44"/><path class="cls-3" d="M4614.83,1948.06l-17.51,40-10.14-38.59,27.64-1.38m0.39-.27-28.36,1.41,10.4,39.58,18-41h0Z" transform="translate(-4489.12 -1715.88)"/><polygon class="cls-2" points="132.42 200 125.99 231.78 98.06 233.18 132.42 200"/><path class="cls-3" d="M4621.34,1916.25l-6.33,31.3-27.5,1.37,33.82-32.67m0.4-.74-34.88,33.69,28.36-1.41,6.52-32.28h0Z" transform="translate(-4489.12 -1715.88)"/><polygon class="cls-2" points="127.48 166.48 133.79 163.09 132.54 198.33 127.48 166.48"/><path class="cls-3" d="M4622.78,1879.19l-1.19,33.73-4.84-30.49,6-3.24m0.27-.43-6.58,3.53,5.28,33.22,1.3-36.75h0Z" transform="translate(-4489.12 -1715.88)"/><polygon class="cls-2" points="126.21 141.86 129.43 114.31 133.71 161.96 126.21 141.86"/><path class="cls-3" d="M4618.54,1831.41l4.09,45.51-7.15-19.17,3.07-26.35m0-2.44-3.35,28.82,7.83,21-4.47-49.79h0Z" transform="translate(-4489.12 -1715.88)"/><polygon class="cls-2" points="127.29 166.85 132.49 199.58 98.11 232.78 127.29 166.85"/><path class="cls-3" d="M4616.35,1883.17l5.12,32.25-33.87,32.71,28.74-65m0.11-.88-29.6,66.91,34.88-33.69-5.28-33.22h0Z" transform="translate(-4489.12 -1715.88)"/><polygon class="cls-2" points="126.26 142.71 133.77 162.82 127.46 166.21 126.26 142.71"/><path class="cls-3" d="M4615.55,1859.4l7.18,19.24-6,3.24-1.14-22.49m-0.33-1.61,1.25,24.5,6.58-3.53-7.83-21h0Z" transform="translate(-4489.12 -1715.88)"/><polygon class="cls-2" points="125.98 142.16 127.21 166.34 14.05 229.65 125.98 142.16"/><path class="cls-3" d="M4615,1858.28l1.21,23.86-111.68,62.48L4615,1858.28m0.23-.49-113.41,88.65,114.66-64.15-1.25-24.5h0Z" transform="translate(-4489.12 -1715.88)"/><polygon class="cls-2" points="13.14 230.44 127.08 166.7 97.66 233.19 13.14 230.44"/><path class="cls-3" d="M4615.93,1882.88l-29.23,66.07-84-2.73,113.22-63.34m0.53-.58-114.66,64.15,85.05,2.76,29.6-66.91h0Z" transform="translate(-4489.12 -1715.88)"/><polygon class="cls-1" points="35.71 152.51 126.09 141.91 12.69 230.56 35.71 152.51"/><polygon class="cls-1" points="65.43 113.09 126.09 141.91 35.71 152.51 65.43 113.09"/><polygon class="cls-1" points="115.18 53.33 129.45 113.09 114.19 74.53 115.18 53.33"/><polygon class="cls-1" points="99.68 8.56 102.91 38.25 115.18 53.33 99.68 8.56"/><polygon class="cls-1" points="89.86 53.33 99.68 8.56 102.91 38.25 89.86 53.33"/><polygon class="cls-1" points="126.09 141.91 94.45 106.81 65.43 113.09 126.09 141.91"/><polygon class="cls-1" points="129.45 113.09 94.45 106.81 126.09 141.91 129.45 113.09"/><polygon class="cls-1" points="89.86 53.33 97.74 68.88 94.45 106.81 89.86 53.33"/><polygon class="cls-1" points="102.91 38.25 97.74 68.88 89.86 53.33 102.91 38.25"/><polygon class="cls-1" points="97.74 68.88 114.19 74.53 129.45 113.09 97.74 68.88"/><polygon class="cls-1" points="102.91 38.25 97.74 68.88 114.19 74.53 102.91 38.25"/><polygon class="cls-1" points="178.99 51.41 167.55 22.92 193.94 34.12 178.99 51.41"/><polygon class="cls-1" points="178.99 51.41 188.01 69.23 181.22 132.82 178.99 51.41"/><polygon class="cls-1" points="193.94 34.12 188.01 69.23 178.99 51.41 193.94 34.12"/><polygon class="cls-1" points="193.94 34.12 188.01 69.23 219.66 81.51 193.94 34.12"/><polygon class="cls-1" points="89.86 53.33 35.71 152.51 65.43 113.09 89.86 53.33"/><polygon class="cls-1" points="158.59 231.9 208.16 180.13 211.22 184.31 158.59 231.9"/><polygon class="cls-1" points="227.43 148.03 208.16 180.13 211.22 184.31 227.43 148.03"/><polygon class="cls-1" points="219.66 81.51 181.22 132.82 188.01 69.23 219.66 81.51"/><polygon class="cls-1" points="193.94 34.12 159.2 0.13 167.55 22.92 193.94 34.12"/><polygon class="cls-1" points="65.43 113.09 89.86 53.33 94.45 106.81 65.43 113.09"/><polygon class="cls-1" points="97.74 68.88 129.45 113.09 94.45 106.81 97.74 68.88"/><polygon class="cls-2" points="227.54 147.98 230.94 135.53 271.04 232.92 227.54 147.98"/><path class="cls-3" d="M4720.09,1851.81l38.8,94.25-42.07-82.17,3.27-12.08m0-.78-3.49,12.89,44.88,87.64L4720,1851h0Z" transform="translate(-4489.12 -1715.88)"/></svg>