<svg id="Layer_1" data-name="Layer 1" xmlns="http://www.w3.org/2000/svg" viewBox="0 0 272.31 367.13"><defs><style>.cls-1{fill:#f5bb71;}.cls-1,.cls-24,.cls-25,.cls-28,.cls-29,.cls-32,.cls-36{stroke:#8c4b31;}.cls-1,.cls-24,.cls-25,.cls-26,.cls-27,.cls-28,.cls-29,.cls-30,.cls-31,.cls-32,.cls-33,.cls-34,.cls-35,.cls-36,.cls-37{stroke-linejoin:round;stroke-width:0.25px;}.cls-2,.cls-36{fill:#88421e;}.cls-3{fill:#8c4b31;}.cls-4{fill:#602912;}.cls-5{fill:#4d2511;}.cls-6{fill:#753517;}.cls-33,.cls-37,.cls-7{fill:#e88e4f;}.cls-8{fill:#d67f43;}.cls-31,.cls-9{fill:#cf7539;}.cls-10{fill:#a15538;}.cls-11,.cls-28{fill:#cc6328;}.cls-12{fill:#c75d28;}.cls-13{fill:#8a5121;}.cls-14{fill:#8b471f;}.cls-15{fill:#612d12;}.cls-16{fill:#713d28;}.cls-17{fill:#783718;}.cls-18,.cls-24,.cls-34{fill:#b05326;}.cls-19{fill:#a85325;}.cls-20{fill:#f3742c;}.cls-21{fill:#b9623f;}.cls-22,.cls-29{fill:#e77224;}.cls-23{fill:#c75a28;}.cls-25{fill:#b15f31;}.cls-26{fill:#ffdd9e;}.cls-26,.cls-27,.cls-30,.cls-31,.cls-33,.cls-34,.cls-35{stroke:#d67f43;}.cls-27,.cls-32{fill:#e87a2c;}.cls-30{fill:#f68c43;}.cls-35{fill:#faac60;}.cls-37{stroke:#b07158;}.cls-38{fill:#d1ac8a;}</style></defs><title>spark-red</title><polygon class="cls-1" points="114.19 74.53 102.91 38.25 115.18 53.33 114.19 74.53"/><polygon class="cls-2" points="0.14 199.65 35.4 153.13 12.67 230.18 0.14 199.65"/><path class="cls-3" d="M4025.64,277.66l-22.44,76-12.36-30.14,34.8-45.91m0.63-1.24-35.71,47.12,12.69,30.93,23-78h0Z" transform="translate(-3990.55 -123.9)"/><path class="cls-4" d="M3999.44,413c-0.23-1,2.41-38,3.88-57.88L4034.44,447Z" transform="translate(-3990.55 -123.9)"/><path class="cls-3" d="M4003.4,355.71l30.75,90.84-34.57-33.61c-0.17-2.05,2.36-37.49,3.81-57.23m-0.16-1.25s-4.23,57.18-3.89,58.6l35.37,34.4-31.48-93h0Z" transform="translate(-3990.55 -123.9)"/><polygon class="cls-5" points="0.31 200.72 12.54 230.53 6.43 236.82 0.31 200.72"/><path class="cls-3" d="M3991.18,325.71l11.77,28.69-5.89,6.06-5.89-34.75m-0.62-2.18L3996.9,361l6.34-6.53-12.69-30.93h0Z" transform="translate(-3990.55 -123.9)"/><polygon class="cls-5" points="6.47 237.08 12.54 230.88 8.82 286.94 6.47 237.08"/><path class="cls-3" d="M4002.95,355.12l-3.55,53.52-2.24-47.55,5.79-6m0.29-.66L3996.9,361l2.45,52.07,3.89-58.6h0Z" transform="translate(-3990.55 -123.9)"/><polygon class="cls-5" points="70.97 354.99 44.65 323.92 123.07 361.73 70.97 354.99"/><path class="cls-3" d="M4035.68,448.19l77.19,37.22-51.23-6.62-26-30.6m-1-.74L4061.51,479l52.86,6.83-79.65-38.4h0Z" transform="translate(-3990.55 -123.9)"/><polygon class="cls-5" points="124.32 361.88 238.68 316.99 166.08 367 124.32 361.88"/><path class="cls-3" d="M4228.27,441.41l-71.67,49.36-41.22-5.05,112.88-44.31m1.93-1-115.83,45.47,42.29,5.18,73.54-50.65h0Z" transform="translate(-3990.55 -123.9)"/><polygon class="cls-6" points="229.46 214.92 272.15 235.74 239.72 315.96 229.46 214.92"/><path class="cls-3" d="M4220.16,339l42.38,20.67-32.19,79.65L4220.16,339m-0.29-.42,10.34,101.78,32.66-80.81-43-21h0Z" transform="translate(-3990.55 -123.9)"/><polygon class="cls-7" points="211.37 184.28 227.44 148.32 271.91 235.18 211.37 184.28"/><path class="cls-8" d="M4218,272.52l44.07,86.07-60-50.44L4218,272.52m0-.58-16.21,36.28,61.09,51.36L4218,271.94h0Z" transform="translate(-3990.55 -123.9)"/><polygon class="cls-9" points="229.37 214.59 211.71 184.89 271.45 235.12 229.37 214.59"/><path class="cls-10" d="M4202.75,309.36l58.4,49.1-41.1-20-17.29-29.05m-1-1.15,18.09,30.39,43,21-61.09-51.36h0Z" transform="translate(-3990.55 -123.9)"/><polygon class="cls-11" points="108.03 273.7 158.56 232.09 205.29 304.95 108.03 273.7"/><path class="cls-3" d="M4149.09,356.18l46.46,72.44-96.71-31.07,50.25-41.38m0.06-.37-50.82,41.85,97.81,31.42-47-73.27h0Z" transform="translate(-3990.55 -123.9)"/><polygon class="cls-12" points="158.79 231.98 229.14 214.88 205.53 304.86 158.79 231.98"/><path class="cls-13" d="M4219.52,339L4196,428.46,4149.54,356l70-17m0.35-.34-70.72,17.2,47,73.27,23.73-90.47h0Z" transform="translate(-3990.55 -123.9)"/><polygon class="cls-11" points="211.19 184.51 229.12 214.62 159.04 231.66 211.19 184.51"/><path class="cls-13" d="M4201.71,308.61l17.76,29.84L4150,355.33l51.67-46.72m0.06-.39-52.63,47.59,70.72-17.2-18.09-30.39h0Z" transform="translate(-3990.55 -123.9)"/><polygon class="cls-14" points="205.73 305.09 229.26 215.41 239.5 316.3 205.73 305.09"/><path class="cls-3" d="M4219.75,340l10.16,100-33.48-11.11,23.32-88.9m0.11-1.4-23.73,90.47,34.07,11.31-10.34-101.78h0Z" transform="translate(-3990.55 -123.9)"/><polygon class="cls-15" points="205.6 305.31 239.28 316.49 124.77 361.44 205.6 305.31"/><path class="cls-16" d="M4196.17,429.35l33.29,11.05-113.19,44.43,79.9-55.49m0-.28-81.76,56.78,115.83-45.47-34.07-11.31h0Z" transform="translate(-3990.55 -123.9)"/><polygon class="cls-6" points="85.99 302.95 205.19 305.29 123.85 361.77 85.99 302.95"/><path class="cls-3" d="M4076.77,427l118.58,2.33-80.91,56.19L4076.77,427m-0.46-.26,38.06,59.13,81.76-56.78-119.82-2.36h0Z" transform="translate(-3990.55 -123.9)"/><polygon class="cls-15" points="44.45 323.55 85.71 302.98 123.47 361.64 44.45 323.55"/><path class="cls-16" d="M4076.22,427l37.46,58.2-78.39-37.79,40.93-20.4m0.09-.32-41.59,20.73,79.65,38.4-38.06-59.13h0Z" transform="translate(-3990.55 -123.9)"/><polygon class="cls-6" points="12.98 231.02 85.54 302.78 44.24 323.37 12.98 231.02"/><path class="cls-16" d="M4003.82,355.38l72.07,71.27-41,20.45-31.05-91.72m-0.58-.92,31.48,93,41.59-20.73-73.07-72.26h0Z" transform="translate(-3990.55 -123.9)"/><polygon class="cls-15" points="13 230.69 97.59 233.44 85.67 302.56 13 230.69"/><path class="cls-3" d="M4003.87,354.73l84.13,2.73-11.85,68.74-72.27-71.48m-0.63-.27,73.07,72.26,12-69.5-85.05-2.76h0Z" transform="translate(-3990.55 -123.9)"/><polygon class="cls-14" points="86 302.7 108.19 273.04 204.76 305.03 86 302.7"/><path class="cls-3" d="M4098.78,397.09l95.7,31.7-117.68-2.31,22-29.39m-0.09-.29-22.38,29.92,119.82,2.36-97.44-32.28h0Z" transform="translate(-3990.55 -123.9)"/><polygon class="cls-17" points="97.76 233.91 108 272.87 85.97 302.32 97.76 233.91"/><path class="cls-16" d="M4088.34,358.4l10.08,38.35-21.69,29,11.61-67.34m-0.05-1.18-12,69.5,22.38-29.92-10.4-39.58h0Z" transform="translate(-3990.55 -123.9)"/><polygon class="cls-18" points="97.9 233.44 125.9 232.04 108.17 272.52 97.9 233.44"/><path class="cls-3" d="M4116.26,356.08l-17.51,40-10.14-38.59,27.64-1.38m0.39-.27-28.36,1.41,10.4,39.58,18-41h0Z" transform="translate(-3990.55 -123.9)"/><polygon class="cls-19" points="132.42 200 125.99 231.78 98.07 233.18 132.42 200"/><path class="cls-3" d="M4122.77,324.27l-6.33,31.3-27.5,1.37,33.82-32.67m0.4-.74-34.88,33.69,28.36-1.41,6.52-32.28h0Z" transform="translate(-3990.55 -123.9)"/><polygon class="cls-20" points="127.48 166.48 133.79 163.09 132.54 198.33 127.48 166.48"/><path class="cls-21" d="M4124.21,287.21l-1.2,33.73-4.84-30.49,6-3.24m0.27-.43-6.58,3.53,5.28,33.22,1.3-36.75h0Z" transform="translate(-3990.55 -123.9)"/><polygon class="cls-20" points="126.21 141.86 129.43 114.31 133.71 161.96 126.21 141.86"/><path class="cls-3" d="M4120,239.44l4.09,45.51-7.15-19.17,3.07-26.35m0-2.44-3.35,28.82,7.83,21L4120,237h0Z" transform="translate(-3990.55 -123.9)"/><polygon class="cls-22" points="127.28 166.85 132.49 199.58 98.11 232.78 127.28 166.85"/><path class="cls-21" d="M4117.78,291.19l5.12,32.25L4089,356.15l28.74-65m0.11-.88-29.6,66.91,34.88-33.69-5.28-33.22h0Z" transform="translate(-3990.55 -123.9)"/><polygon class="cls-18" points="126.26 142.71 133.77 162.82 127.46 166.21 126.26 142.71"/><path class="cls-3" d="M4117,267.42l7.18,19.24-6,3.24L4117,267.42m-0.33-1.61,1.25,24.5,6.58-3.53-7.83-21h0Z" transform="translate(-3990.55 -123.9)"/><polygon class="cls-11" points="125.98 142.16 127.21 166.34 14.05 229.65 125.98 142.16"/><path class="cls-21" d="M4116.42,266.31l1.22,23.86L4006,352.65l110.46-86.34m0.23-.49-113.41,88.65,114.66-64.15-1.25-24.5h0Z" transform="translate(-3990.55 -123.9)"/><polygon class="cls-23" points="13.14 230.44 127.08 166.7 97.66 233.19 13.14 230.44"/><path class="cls-13" d="M4117.36,290.9L4088.13,357l-84-2.73,113.21-63.34m0.53-.58-114.66,64.15,85.05,2.76,29.6-66.91h0Z" transform="translate(-3990.55 -123.9)"/><polygon class="cls-24" points="35.71 152.51 126.09 141.91 12.69 230.56 35.71 152.51"/><polygon class="cls-25" points="65.43 113.09 126.09 141.91 35.71 152.51 65.43 113.09"/><polygon class="cls-26" points="115.18 53.33 129.45 113.09 114.19 74.53 115.18 53.33"/><polygon class="cls-26" points="99.68 8.56 102.91 38.25 115.18 53.33 99.68 8.56"/><polygon class="cls-27" points="89.86 53.33 99.68 8.56 102.91 38.25 89.86 53.33"/><polygon class="cls-28" points="126.09 141.91 94.45 106.81 65.43 113.09 126.09 141.91"/><polygon class="cls-29" points="129.45 113.09 94.45 106.81 126.09 141.91 129.45 113.09"/><polygon class="cls-30" points="89.86 53.33 97.74 68.88 94.45 106.81 89.86 53.33"/><polygon class="cls-31" points="102.91 38.25 97.74 68.88 89.86 53.33 102.91 38.25"/><polygon class="cls-32" points="97.74 68.88 114.19 74.53 129.45 113.09 97.74 68.88"/><polygon class="cls-30" points="102.91 38.25 97.74 68.88 114.19 74.53 102.91 38.25"/><polygon class="cls-33" points="178.99 51.41 167.55 22.92 193.94 34.12 178.99 51.41"/><polygon class="cls-25" points="178.99 51.41 188.01 69.23 181.22 132.82 178.99 51.41"/><polygon class="cls-34" points="193.94 34.12 188.01 69.23 178.99 51.41 193.94 34.12"/><polygon class="cls-29" points="193.94 34.12 188.01 69.23 219.66 81.51 193.94 34.12"/><polygon class="cls-35" points="89.86 53.33 35.71 152.51 65.43 113.09 89.86 53.33"/><polygon class="cls-29" points="158.59 231.9 208.16 180.13 211.22 184.31 158.59 231.9"/><polygon class="cls-26" points="227.43 148.03 208.16 180.13 211.22 184.31 227.43 148.03"/><polygon class="cls-36" points="219.66 81.51 181.22 132.82 188.01 69.23 219.66 81.51"/><polygon class="cls-26" points="193.94 34.12 159.2 0.13 167.55 22.92 193.94 34.12"/><polygon class="cls-37" points="65.43 113.09 89.86 53.33 94.45 106.81 65.43 113.09"/><polygon class="cls-37" points="97.74 68.88 129.45 113.09 94.45 106.81 97.74 68.88"/><polygon class="cls-38" points="227.54 147.98 230.94 135.53 271.04 232.92 227.54 147.98"/><path class="cls-8" d="M4221.52,259.83l38.8,94.25-42.07-82.17,3.27-12.08m0-.78L4218,271.94l44.88,87.64-41.39-100.53h0Z" transform="translate(-3990.55 -123.9)"/></svg>