<svg width="213" height="128" viewBox="0 0 213 128" fill="none" xmlns="http://www.w3.org/2000/svg">
<path d="M51.6372 103.971H0.456055V24H77.349V41.4523H69.2464V32.1026H8.62994V95.8689H51.6372V103.971ZM84.9314 71.4898L83.784 72.687C82.4465 74.0862 80.838 75.1983 79.0565 75.9555C77.2751 76.7127 75.358 77.099 73.4224 77.091C71.0597 77.0987 68.7314 76.5255 66.6423 75.422C64.5531 74.3185 62.7672 72.7184 61.4417 70.7626C60.1162 68.8068 59.2917 66.5552 59.0407 64.2059C58.7898 61.8566 59.1201 59.4816 60.0025 57.2899C60.885 55.0982 62.2926 53.157 64.1015 51.6371C65.9104 50.1172 68.0651 49.0652 70.3761 48.5736C72.687 48.082 75.0834 48.1659 77.3543 48.8179C79.6252 49.4699 81.7011 50.6701 83.3992 52.3128L84.6392 53.5101L80.9834 57.1801L79.7719 56.0684C78.0648 54.4133 75.7788 53.4902 73.401 53.4958C68.3128 53.4602 64.5929 57.5934 64.5929 62.6816C64.5929 67.7698 68.3484 71.9031 73.4366 71.9031C74.6796 71.9059 75.9099 71.6545 77.0521 71.1643C78.1943 70.6741 79.2242 69.9554 80.0784 69.0526L81.2756 67.8126L84.9314 71.4898ZM61.158 80.533H67.1655V103.979H61.158V80.533ZM70.0445 86.7757H76.052V103.95H70.0445V86.7757ZM78.703 80.5117H84.7105V103.957H78.703V80.5117ZM136.64 95.3059C136.672 94.1669 136.47 93.0334 136.046 91.9758C135.622 90.9181 134.986 89.9587 134.176 89.157C133.366 88.3553 132.401 87.7284 131.339 87.3151C130.277 86.9018 129.141 86.7109 128.003 86.7543C126.85 86.7212 125.702 86.9196 124.628 87.3378C123.553 87.7561 122.573 88.3857 121.746 89.1893C120.919 89.993 120.261 90.9544 119.812 92.0166C119.363 93.0788 119.132 94.2204 119.132 95.3736C119.132 96.5268 119.363 97.6683 119.812 98.7306C120.261 99.7928 120.919 100.754 121.746 101.558C122.573 102.362 123.553 102.991 124.628 103.409C125.702 103.828 126.85 104.026 128.003 103.993C129.573 104.079 131.135 103.716 132.506 102.948C133.878 102.179 135.003 101.037 135.749 99.6529L132.1 98.6339C131.452 100.166 129.67 100.893 128.167 100.886C127.038 100.895 125.949 100.468 125.127 99.6937C124.306 98.9197 123.814 97.8585 123.756 96.7312H136.583C136.661 96.2603 136.681 95.7815 136.64 95.3059ZM123.684 93.9519C124.012 88.3934 132.065 88.5359 132.236 93.9519H123.684ZM156.244 98.8263V80.5117H151.969V89.9683C151.404 88.9895 150.59 88.1775 149.61 87.6143C148.63 87.0512 147.519 86.757 146.389 86.7614C141.921 86.7116 138.92 90.8733 138.963 95.3629C138.92 100.081 142.263 104.043 146.802 103.993C147.965 104.024 149.116 103.744 150.134 103.182C151.153 102.619 152.003 101.794 152.596 100.793C152.717 101.363 152.46 102.525 153.501 103.359C154.036 103.728 154.675 103.915 155.325 103.893C156.007 103.88 156.687 103.806 157.356 103.672V100.059C157.197 100.067 157.039 100.04 156.892 99.9793C156.745 99.9185 156.613 99.8256 156.507 99.7075C156.4 99.5894 156.321 99.449 156.276 99.2965C156.231 99.1441 156.22 98.9834 156.244 98.8263ZM151.969 97.6148C151.624 98.4161 151.06 99.1036 150.341 99.5979C149.622 100.092 148.778 100.373 147.907 100.408C147.279 100.397 146.66 100.259 146.086 100.004C145.512 99.7487 144.995 99.381 144.566 98.9225C144.137 98.4641 143.804 97.9242 143.587 97.3348C143.37 96.7454 143.273 96.1185 143.303 95.4912C143.303 92.9043 145.049 90.3959 147.65 90.4172C148.607 90.4777 149.525 90.816 150.292 91.3907C151.059 91.9654 151.642 92.7515 151.969 93.6526V97.6148ZM160.52 84.7875V80.5117H164.796V84.7304L160.52 84.7875ZM160.52 103.729V87.0465H164.796V103.672L160.52 103.729ZM184.172 98.8405V93.6098C184.172 88.9991 181.229 86.7543 176.619 86.7543C174.152 86.7565 171.743 87.5014 169.706 88.8922L170.96 91.643C172.443 90.458 174.272 89.7898 176.17 89.7402C178.265 89.5835 180.018 91.023 179.882 93.168V94.1301C178.586 93.6378 177.207 93.396 175.82 93.4174C172.179 93.4174 168.78 95.3059 168.787 98.7479C168.751 101.598 171.131 104.036 174.488 104.014C175.667 104.021 176.831 103.754 177.888 103.233C178.946 102.712 179.868 101.953 180.581 101.014C180.688 101.484 180.474 102.525 181.464 103.359C182 103.744 182.651 103.937 183.31 103.907C183.993 103.903 184.673 103.829 185.341 103.686V100.073C185.174 100.09 185.005 100.066 184.848 100.004C184.692 99.943 184.552 99.8455 184.44 99.7198C184.328 99.5941 184.248 99.4438 184.205 99.2811C184.162 99.1184 184.158 98.948 184.194 98.7835L184.172 98.8405ZM179.939 98.3346C179.875 99.4748 177.987 100.957 175.664 100.936C174.949 100.977 174.248 100.732 173.714 100.257C173.179 99.7811 172.855 99.1129 172.813 98.3987C172.813 96.6029 174.844 95.705 176.562 95.7976C177.711 95.8158 178.848 96.0303 179.925 96.4318L179.939 98.3346ZM115.546 79.9131V103.886H111.327V88.3079L104.878 99.8026H102.469L95.9843 88.2936V103.886H91.7655V79.9131H95.8632L103.659 93.8949L111.498 79.9131H115.546ZM86.9624 51.5218H92.3855V69.6084C92.3855 70.9624 92.9699 71.6394 94.1386 71.6394C94.7517 71.602 95.3507 71.4395 95.8988 71.1619L96.6114 75.5232C95.0992 76.151 93.4811 76.4848 91.8439 76.5067C91.2023 76.5785 90.5527 76.5081 89.9413 76.3006C89.33 76.093 88.7718 75.7534 88.3065 75.3058C87.8412 74.8582 87.4802 74.3136 87.2492 73.7107C87.0181 73.1078 86.9226 72.4615 86.9695 71.8176L86.9624 51.5218ZM98.4642 56.4247V51.5218H103.859V56.4247H98.4642ZM98.4642 76.2074V58.4557H103.859V76.2074H98.4642ZM124.668 76.2074H119.259V66.2305C119.394 64.6129 118.546 62.8242 116.857 62.8812C115.168 62.9382 113.458 64.4988 112.895 66.031V76.2074H107.486V58.4557H112.41V61.4274C113.836 59.1042 116.608 58.0638 119.309 58.1137C122.352 57.9854 124.646 59.824 124.668 64.8266V76.2074ZM128.181 56.4247V51.5218H133.59V56.4247H128.181ZM128.181 76.2074V58.4557H133.59V76.2074H128.181ZM153.123 72.5872L151.969 73.7844C151.106 74.6894 150.067 75.4089 148.916 75.8991C147.766 76.3892 146.528 76.6396 145.277 76.635C143.752 76.6381 142.249 76.2665 140.902 75.5527C139.554 74.8389 138.402 73.8048 137.548 72.5414C136.693 71.278 136.163 69.824 136.002 68.3074C135.842 66.7907 136.056 65.2579 136.627 63.8437C137.198 62.4294 138.108 61.1772 139.277 60.1972C140.445 59.2171 141.837 58.5392 143.329 58.2231C144.821 57.907 146.368 57.9625 147.833 58.3845C149.299 58.8066 150.638 59.5823 151.733 60.6435L152.959 61.8479L149.795 65.0119L148.591 63.8575C147.698 62.9953 146.504 62.5169 145.263 62.5249C144.018 62.5728 142.84 63.1009 141.977 63.9984C141.113 64.8959 140.631 66.0931 140.631 67.3387C140.631 68.5843 141.113 69.7814 141.977 70.6789C142.84 71.5765 144.018 72.1046 145.263 72.1525C145.918 72.159 146.568 72.0301 147.171 71.7738C147.775 71.5175 148.319 71.1394 148.769 70.6631L149.973 69.4089L153.123 72.5872ZM171.402 70.093V65.525C171.402 60.4012 168.067 58.0852 162.986 58.0852C160.255 58.0698 157.582 58.8714 155.311 60.387L156.857 63.8005C158.447 62.5676 160.39 61.8781 162.402 61.8336C166.741 61.8336 165.836 65.3112 165.965 65.7246C163.718 64.8405 161.239 64.7326 158.924 65.4181C156.358 66.1949 154.363 68.1831 154.399 70.8983C154.399 73.9412 156.9 76.5993 160.549 76.5423C161.77 76.5345 162.973 76.2472 164.067 75.7024C165.16 75.1577 166.114 74.37 166.855 73.3996C166.927 73.5136 166.677 76.6278 170.198 76.4782C171.07 76.4865 171.94 76.3956 172.792 76.2074V71.6109C172.591 71.6344 172.387 71.6105 172.198 71.5409C172.008 71.4713 171.837 71.3581 171.699 71.2104C171.561 71.0627 171.46 70.8846 171.403 70.6905C171.347 70.4964 171.336 70.2917 171.374 70.093H171.402ZM165.993 70.2569C165.886 71.5539 163.927 72.6513 162.138 72.6585C160.784 72.7369 159.43 71.8461 159.473 70.4279C159.473 68.7889 161.411 67.948 162.915 67.9907C163.967 67.9995 165.009 68.1949 165.993 68.568V70.2569ZM174.716 51.5218H180.139V69.6084C180.139 70.9624 180.723 71.6394 181.892 71.6394C182.505 71.602 183.104 71.4395 183.652 71.1619L184.365 75.5232C182.853 76.151 181.235 76.4848 179.597 76.5067C178.955 76.5783 178.306 76.5079 177.694 76.3004C177.082 76.0929 176.524 75.7534 176.058 75.3059C175.592 74.8584 175.23 74.314 174.998 73.7112C174.767 73.1083 174.67 72.4618 174.716 71.8176V51.5218ZM186.182 51.5218H191.591V69.6084C191.591 70.9624 192.175 71.6394 193.351 71.6394C193.963 71.6064 194.56 71.4436 195.104 71.1619L195.817 75.5232C194.305 76.1537 192.687 76.4876 191.049 76.5067C190.408 76.5787 189.759 76.5084 189.148 76.3008C188.537 76.0932 187.979 75.7534 187.514 75.3056C187.049 74.8579 186.689 74.3132 186.459 73.7103C186.228 73.1074 186.134 72.4611 186.182 71.8176V51.5218ZM196.594 78.9154C197.392 79.1803 198.225 79.3268 199.066 79.3501C200.969 79.3501 201.411 76.2929 201.425 76.2216L194.691 58.47H200.242L204.397 71.5895L207.96 58.47H212.998L206.207 79.0935C205.767 80.5112 204.888 81.7525 203.697 82.6387C202.506 83.525 201.064 84.0103 199.58 84.0249C198.565 84.0287 197.557 83.8575 196.601 83.519L196.594 78.9154Z" fill="black"/>
</svg>
