<svg width="477" height="128" viewBox="0 0 477 128" fill="none" xmlns="http://www.w3.org/2000/svg">
<path d="M0.322942 64.4438C0.312431 62.2278 0.741613 60.0317 1.5857 57.9824C2.42979 55.933 3.67205 54.071 5.24073 52.5039C6.80941 50.9368 8.67342 49.6956 10.7251 48.8521C12.7768 48.0086 14.9754 47.5794 17.1941 47.5894C21.3363 47.681 25.3175 49.2099 28.4542 51.9135C28.9041 52.3213 28.9041 52.7028 28.4542 53.1522L27.0627 54.5419C26.9925 54.6379 26.9006 54.716 26.7945 54.7698C26.6884 54.8236 26.5711 54.8517 26.4521 54.8517C26.3331 54.8517 26.2157 54.8236 26.1096 54.7698C26.0035 54.716 25.9116 54.6379 25.8414 54.5419C23.4262 52.4879 20.3661 51.3453 17.1941 51.313C15.4491 51.2835 13.7157 51.6012 12.095 52.2477C10.4743 52.8942 8.99861 53.8566 7.75413 55.0786C6.50965 56.3007 5.52124 57.758 4.84654 59.3656C4.17184 60.9732 3.82436 62.6988 3.82436 64.4419C3.82436 66.185 4.17184 67.9107 4.84654 69.5182C5.52124 71.1258 6.50965 72.5831 7.75413 73.8052C8.99861 75.0272 10.4743 75.9896 12.095 76.6361C13.7157 77.2826 15.4491 77.6003 17.1941 77.5708C20.3743 77.5429 23.4403 76.3833 25.8414 74.3004C25.919 74.2133 26.0147 74.1443 26.122 74.0984C26.2292 74.0525 26.3453 74.0308 26.4619 74.0347C26.5785 74.0387 26.6927 74.0683 26.7966 74.1214C26.9005 74.1745 26.9913 74.2498 27.0627 74.3419L28.4542 75.7316C28.9041 76.181 28.9041 76.5662 28.4542 76.9741C25.3166 79.6753 21.3355 81.2014 17.1941 81.2906C14.9759 81.3011 12.7777 80.8725 10.7263 80.0297C8.67485 79.1868 6.81098 77.9463 5.2423 76.3799C3.67362 74.8135 2.43122 72.9522 1.58686 70.9035C0.742505 68.8548 0.312928 66.6593 0.322942 64.4438ZM0.322942 64.4438C0.312431 62.2278 0.741613 60.0317 1.5857 57.9824C2.42979 55.933 3.67205 54.071 5.24073 52.5039C6.80941 50.9368 8.67342 49.6956 10.7251 48.8521C12.7768 48.0086 14.9754 47.5794 17.1941 47.5894C21.3363 47.681 25.3175 49.2099 28.4542 51.9135C28.9041 52.3213 28.9041 52.7028 28.4542 53.1522L27.0627 54.5419C26.9925 54.6379 26.9006 54.716 26.7945 54.7698C26.6884 54.8236 26.5711 54.8517 26.4521 54.8517C26.3331 54.8517 26.2157 54.8236 26.1096 54.7698C26.0035 54.716 25.9116 54.6379 25.8414 54.5419C23.4262 52.4879 20.3661 51.3453 17.1941 51.313C15.4491 51.2835 13.7157 51.6012 12.095 52.2477C10.4743 52.8942 8.99861 53.8566 7.75413 55.0786C6.50965 56.3007 5.52124 57.758 4.84654 59.3656C4.17184 60.9732 3.82436 62.6988 3.82436 64.4419C3.82436 66.185 4.17184 67.9107 4.84654 69.5182C5.52124 71.1258 6.50965 72.5831 7.75413 73.8052C8.99861 75.0272 10.4743 75.9896 12.095 76.6361C13.7157 77.2826 15.4491 77.6003 17.1941 77.5708C20.3743 77.5429 23.4403 76.3833 25.8414 74.3004C25.919 74.2133 26.0147 74.1443 26.122 74.0984C26.2292 74.0525 26.3453 74.0308 26.4619 74.0347C26.5785 74.0387 26.6927 74.0683 26.7966 74.1214C26.9005 74.1745 26.9913 74.2498 27.0627 74.3419L28.4542 75.7316C28.9041 76.181 28.9041 76.5662 28.4542 76.9741C25.3166 79.6753 21.3355 81.2014 17.1941 81.2906C14.9759 81.3011 12.7777 80.8725 10.7263 80.0297C8.67485 79.1868 6.81098 77.9463 5.2423 76.3799C3.67362 74.8135 2.43122 72.9522 1.58686 70.9035C0.742505 68.8548 0.312928 66.6593 0.322942 64.4438ZM32.7343 64.4438C32.7314 61.1075 33.7193 57.8454 35.5733 55.0701C37.4272 52.2949 40.0637 50.1313 43.1492 48.8532C46.2347 47.5751 49.6305 47.2399 52.9068 47.89C56.1831 48.5402 59.1926 50.1464 61.5546 52.5055C63.9166 54.8646 65.5248 57.8705 66.1757 61.1428C66.8267 64.4151 66.4911 67.8067 65.2114 70.8884C63.9317 73.9702 61.7655 76.6035 58.9869 78.4551C56.2082 80.3068 52.9421 81.2936 49.6017 81.2906C47.386 81.2931 45.1915 80.859 43.1439 80.0133C41.0964 79.1675 39.2359 77.9267 37.6691 76.3618C36.1024 74.797 34.86 72.9388 34.0132 70.8937C33.1665 68.8487 32.7319 66.6568 32.7343 64.4438ZM62.7712 64.4438C62.7742 61.8444 62.0053 59.3024 60.5618 57.1395C59.1183 54.9766 57.065 53.2897 54.6616 52.2924C52.2582 51.2951 49.6126 51.032 47.0595 51.5364C44.5064 52.0409 42.1604 53.2903 40.3182 55.1265C38.4761 56.9627 37.2205 59.3033 36.7103 61.8523C36.2 64.4013 36.4581 67.0441 37.4518 69.4466C38.4456 71.8491 40.1303 73.9033 42.293 75.3494C44.4557 76.7955 46.9991 77.5685 49.6017 77.5708C51.332 77.5818 53.0473 77.25 54.6484 76.5945C56.2494 75.939 57.7044 74.9729 58.9292 73.7521C60.1539 72.5313 61.1241 71.08 61.7836 69.4823C62.4431 67.8845 62.7788 66.172 62.7712 64.4438ZM73.5813 79.9877V48.8999C73.5651 48.781 73.5766 48.66 73.6149 48.5463C73.6532 48.4326 73.7174 48.3292 73.8023 48.2444C73.8872 48.1596 73.9907 48.0955 74.1045 48.0572C74.2184 48.0189 74.3395 48.0075 74.4586 48.0237H77.0486C77.2709 48.0083 77.4922 48.0641 77.6806 48.1829C77.8689 48.3018 78.0145 48.4775 78.096 48.6846L89.1027 73.1259C89.4014 73.8094 89.9345 73.8094 90.237 73.1259L101.202 48.6846C101.289 48.4761 101.44 48.3002 101.633 48.1816C101.825 48.063 102.05 48.0078 102.276 48.0237H104.843C104.962 48.0075 105.083 48.0189 105.197 48.0572C105.311 48.0955 105.415 48.1596 105.5 48.2444C105.584 48.3292 105.649 48.4326 105.687 48.5463C105.725 48.66 105.737 48.781 105.721 48.8999V79.9877C105.737 80.1066 105.725 80.2276 105.687 80.3413C105.649 80.455 105.584 80.5583 105.5 80.6432C105.415 80.728 105.311 80.7921 105.197 80.8304C105.083 80.8686 104.962 80.8801 104.843 80.8639H102.866C102.747 80.8778 102.627 80.8647 102.514 80.8256C102.401 80.7865 102.299 80.7224 102.215 80.6381C102.13 80.5538 102.066 80.4515 102.027 80.3388C101.988 80.2262 101.975 80.1061 101.989 79.9877V57.5593C101.989 56.702 101.346 56.5094 100.983 57.344L90.7739 80.203C90.6914 80.4094 90.5457 80.5845 90.3576 80.7032C90.1695 80.8218 89.9486 80.8781 89.7265 80.8639H89.5564C89.3314 80.8784 89.1075 80.8225 88.9157 80.7041C88.7239 80.5857 88.5739 80.4105 88.4864 80.203L78.319 57.3856C77.975 56.5548 77.3133 56.7474 77.3133 57.6235V79.9877C77.3295 80.1066 77.3181 80.2276 77.2797 80.3413C77.2414 80.455 77.1772 80.5583 77.0923 80.6432C77.0074 80.728 76.9039 80.7921 76.7901 80.8304C76.6762 80.8686 76.5551 80.8801 76.4361 80.8639H74.4661C74.3465 80.8814 74.2245 80.8709 74.1097 80.8332C73.9948 80.7955 73.8904 80.7316 73.8045 80.6466C73.7187 80.5616 73.6538 80.4578 73.6151 80.3435C73.5764 80.2291 73.5648 80.1073 73.5813 79.9877ZM115.09 79.9877V48.8999C115.074 48.781 115.085 48.66 115.124 48.5463C115.162 48.4326 115.226 48.3292 115.311 48.2444C115.396 48.1596 115.499 48.0955 115.613 48.0572C115.727 48.0189 115.848 48.0075 115.967 48.0237H127.847C133.863 48.0237 137.932 52.4913 137.932 58.0087C137.932 63.5261 133.863 67.9068 127.847 67.9068H119.692C119.573 67.8929 119.453 67.9059 119.34 67.945C119.227 67.9841 119.125 68.0483 119.04 68.1326C118.956 68.2169 118.892 68.3192 118.853 68.4318C118.814 68.5445 118.8 68.6645 118.814 68.7829V79.9877C118.831 80.1066 118.819 80.2276 118.781 80.3413C118.743 80.455 118.678 80.5583 118.593 80.6432C118.508 80.728 118.405 80.7921 118.291 80.8304C118.177 80.8686 118.056 80.8801 117.937 80.8639H115.967C115.848 80.8801 115.727 80.8686 115.613 80.8304C115.499 80.7921 115.396 80.728 115.311 80.6432C115.226 80.5583 115.162 80.455 115.124 80.3413C115.085 80.2276 115.074 80.1066 115.09 79.9877ZM127.507 64.5835C131.617 64.5835 134.207 62.125 134.207 58.0616C134.207 54.1265 131.617 51.3697 127.507 51.3697H119.692C119.573 51.3557 119.453 51.3688 119.34 51.4079C119.227 51.447 119.125 51.5111 119.04 51.5954C118.956 51.6797 118.892 51.7821 118.853 51.8947C118.814 52.0073 118.8 52.1274 118.814 52.2458V63.7074C118.8 63.8258 118.814 63.9458 118.853 64.0585C118.892 64.1711 118.956 64.2734 119.04 64.3578C119.125 64.4421 119.227 64.5062 119.34 64.5453C119.453 64.5844 119.573 64.5975 119.692 64.5835H127.507ZM171.712 76.7475C171.371 76.3699 171.413 75.9356 171.821 75.5315L173.213 74.1418C173.285 74.0428 173.38 73.9637 173.491 73.9119C173.602 73.8601 173.724 73.8373 173.846 73.8456C173.969 73.8539 174.087 73.8931 174.189 73.9594C174.292 74.0257 174.376 74.1171 174.434 74.2248C176.381 76.4907 178.865 77.9447 182.03 77.9447C185.842 77.9447 188.734 75.743 188.734 72.3442C188.734 68.5677 185.263 67.0835 181.584 65.5465C177.066 63.6583 172.786 61.7701 172.786 56.2224C172.786 50.9354 176.767 47.6045 181.905 47.6045C183.579 47.5875 185.239 47.9212 186.775 48.584C188.312 49.2469 189.693 50.2241 190.829 51.4528C190.925 51.5229 191.003 51.6146 191.057 51.7206C191.111 51.8266 191.139 51.9438 191.139 52.0626C191.139 52.1815 191.111 52.2987 191.057 52.4047C191.003 52.5107 190.925 52.6024 190.829 52.6725L189.74 53.8055C189.362 54.2549 188.904 54.2133 188.477 53.7639C186.186 51.5811 184.318 50.9618 181.989 50.9618C178.964 50.9618 176.336 52.7141 176.336 55.9656C176.336 59.6854 179.871 61.0336 183.66 62.5744C187.819 64.2852 192.285 66.2943 192.285 72.1931C192.285 78.1599 187.728 81.3019 182.287 81.3019C180.308 81.2907 178.351 80.8806 176.533 80.096C174.716 79.3115 173.076 78.1687 171.712 76.7362V76.7475ZM196.78 76.7475C196.44 76.3699 196.482 75.9356 196.89 75.5315L198.281 74.1418C198.353 74.0428 198.449 73.9637 198.56 73.9119C198.671 73.8601 198.793 73.8373 198.915 73.8456C199.037 73.8539 199.155 73.8931 199.258 73.9594C199.361 74.0257 199.445 74.1171 199.503 74.2248C201.45 76.4907 203.934 77.9447 207.099 77.9447C210.91 77.9447 213.803 75.743 213.803 72.3442C213.803 68.5677 210.332 67.0835 206.653 65.5465C202.115 63.6583 197.854 61.7701 197.854 56.2224C197.854 50.9354 201.836 47.6045 206.974 47.6045C208.648 47.5875 210.307 47.9212 211.844 48.584C213.381 49.2469 214.762 50.2241 215.897 51.4528C215.993 51.5229 216.072 51.6146 216.126 51.7206C216.179 51.8266 216.208 51.9438 216.208 52.0626C216.208 52.1815 216.179 52.2987 216.126 52.4047C216.072 52.5107 215.993 52.6024 215.897 52.6725L214.808 53.8055C214.43 54.2549 213.973 54.2133 213.546 53.7639C211.254 51.5811 209.386 50.9618 207.057 50.9618C204.032 50.9618 201.386 52.7141 201.386 55.9656C201.386 59.6854 204.921 61.0336 208.71 62.5744C212.869 64.2852 217.334 66.2943 217.334 72.1931C217.334 78.1599 212.797 81.3019 207.337 81.3019C205.361 81.2882 203.407 80.8768 201.593 80.0924C199.779 79.3079 198.143 78.1665 196.78 76.7362V76.7475ZM234.716 64.4551C234.713 61.119 235.701 57.857 237.554 55.0819C239.408 52.3067 242.045 50.1431 245.13 48.8649C248.215 47.5867 251.611 47.2513 254.887 47.9011C258.163 48.5509 261.173 50.1568 263.535 52.5155C265.897 54.8742 267.505 57.8798 268.157 61.1518C268.808 64.4239 268.473 67.8154 267.194 70.8972C265.915 73.9789 263.749 76.6125 260.971 78.4646C258.193 80.3168 254.927 81.3042 251.587 81.3019C249.37 81.3049 247.174 80.8708 245.125 80.0246C243.077 79.1784 241.215 77.9366 239.648 76.3705C238.081 74.8044 236.838 72.9447 235.992 70.8981C235.145 68.8515 234.712 66.6581 234.716 64.4438V64.4551ZM264.753 64.4551C264.756 61.8555 263.987 59.3135 262.543 57.1504C261.099 54.9874 259.046 53.3006 256.642 52.3034C254.239 51.3061 251.593 51.0433 249.04 51.548C246.486 52.0528 244.14 53.3025 242.298 55.1391C240.456 56.9757 239.201 59.3167 238.691 61.8659C238.181 64.4152 238.44 67.0581 239.434 69.4606C240.429 71.863 242.114 73.9169 244.277 75.3625C246.44 76.8082 248.984 77.5806 251.587 77.5821C253.318 77.5926 255.034 77.2601 256.635 76.6037C258.236 75.9473 259.691 74.9801 260.916 73.7581C262.14 72.5362 263.11 71.0837 263.769 69.4849C264.427 67.8861 264.762 66.1726 264.753 64.4438V64.4551ZM275.563 79.9991V48.8999C275.547 48.781 275.558 48.66 275.596 48.5463C275.635 48.4326 275.699 48.3292 275.784 48.2444C275.869 48.1596 275.972 48.0955 276.086 48.0572C276.2 48.0189 276.321 48.0075 276.44 48.0237H292.752C292.871 48.0076 292.992 48.0192 293.106 48.0574C293.22 48.0957 293.324 48.1597 293.409 48.2444C293.494 48.3292 293.558 48.4324 293.597 48.546C293.636 48.6597 293.648 48.7808 293.633 48.8999V50.6521C293.648 50.7712 293.636 50.8923 293.597 51.006C293.558 51.1196 293.494 51.2228 293.409 51.3076C293.324 51.3923 293.22 51.4563 293.106 51.4946C292.992 51.5328 292.871 51.5444 292.752 51.5283H280.164C280.046 51.5143 279.926 51.5274 279.813 51.5665C279.7 51.6056 279.598 51.6697 279.513 51.754C279.429 51.8384 279.365 51.9407 279.325 52.0533C279.286 52.166 279.273 52.286 279.287 52.4044V61.8116C279.273 61.9302 279.286 62.0503 279.326 62.1631C279.365 62.2759 279.429 62.3784 279.513 62.463C279.598 62.5476 279.7 62.612 279.813 62.6516C279.925 62.6912 280.046 62.7048 280.164 62.6915H290.91C291.029 62.6754 291.151 62.6869 291.265 62.7252C291.379 62.7635 291.482 62.8275 291.567 62.9122C291.653 62.997 291.717 63.1002 291.756 63.2138C291.795 63.3275 291.807 63.4486 291.791 63.5676V65.3388C291.807 65.4579 291.795 65.579 291.756 65.6926C291.717 65.8063 291.653 65.9095 291.567 65.9942C291.482 66.079 291.379 66.143 291.265 66.1812C291.151 66.2195 291.029 66.2311 290.91 66.215H280.164C280.046 66.201 279.926 66.2141 279.813 66.2532C279.7 66.2923 279.598 66.3564 279.513 66.4407C279.429 66.525 279.365 66.6273 279.325 66.74C279.286 66.8526 279.273 66.9727 279.287 67.0911V80.0066C279.303 80.1255 279.292 80.2465 279.254 80.3602C279.215 80.4739 279.151 80.5772 279.066 80.6621C278.981 80.7469 278.878 80.811 278.764 80.8492C278.65 80.8875 278.529 80.899 278.41 80.8827H276.44C276.319 80.8997 276.196 80.8881 276.081 80.8488C275.965 80.8095 275.86 80.7436 275.775 80.6566C275.69 80.5695 275.626 80.4636 275.589 80.3474C275.552 80.2312 275.543 80.108 275.563 79.9877V79.9991ZM312.75 79.9991V48.8999C312.733 48.781 312.745 48.66 312.783 48.5463C312.822 48.4326 312.886 48.3292 312.971 48.2444C313.056 48.1596 313.159 48.0955 313.273 48.0572C313.387 48.0189 313.508 48.0075 313.627 48.0237H322.701C333.084 48.0237 339.145 54.5004 339.145 64.4438C339.145 74.3872 333.096 80.8639 322.701 80.8639H313.627C313.508 80.8801 313.387 80.8686 313.273 80.8304C313.159 80.7921 313.056 80.728 312.971 80.6432C312.886 80.5583 312.822 80.455 312.783 80.3413C312.745 80.2276 312.733 80.1066 312.75 79.9877V79.9991ZM322.66 77.3555C331.114 77.3555 335.417 72.6274 335.417 64.44C335.417 56.2526 331.114 51.5245 322.66 51.5245H317.306C317.186 51.5092 317.065 51.5214 316.951 51.5601C316.837 51.5989 316.733 51.6632 316.648 51.7481C316.562 51.833 316.498 51.9363 316.458 52.05C316.419 52.1638 316.406 52.285 316.421 52.4044V76.4794C316.407 76.5979 316.42 76.7181 316.46 76.8309C316.499 76.9437 316.563 77.0462 316.647 77.1308C316.731 77.2153 316.834 77.2798 316.947 77.3194C317.059 77.359 317.18 77.3726 317.298 77.3593L322.66 77.3555ZM346.424 79.9991V48.8999C346.408 48.781 346.419 48.66 346.458 48.5463C346.496 48.4326 346.56 48.3292 346.645 48.2444C346.73 48.1596 346.833 48.0955 346.947 48.0572C347.061 48.0189 347.182 48.0075 347.301 48.0237H363.613C363.732 48.0075 363.853 48.0189 363.967 48.0572C364.081 48.0955 364.184 48.1596 364.269 48.2444C364.354 48.3292 364.418 48.4326 364.456 48.5463C364.495 48.66 364.506 48.781 364.49 48.8999V50.6521C364.506 50.771 364.495 50.892 364.456 51.0057C364.418 51.1194 364.354 51.2228 364.269 51.3076C364.184 51.3924 364.081 51.4565 363.967 51.4948C363.853 51.5331 363.732 51.5445 363.613 51.5283H351.026C350.907 51.5143 350.787 51.5274 350.674 51.5665C350.561 51.6056 350.459 51.6697 350.374 51.754C350.29 51.8384 350.226 51.9407 350.187 52.0533C350.147 52.166 350.134 52.286 350.148 52.4044V61.8456C350.134 61.964 350.147 62.084 350.187 62.1967C350.226 62.3093 350.29 62.4116 350.374 62.496C350.459 62.5803 350.561 62.6444 350.674 62.6835C350.787 62.7226 350.907 62.7357 351.026 62.7217H361.771C361.89 62.7055 362.012 62.7169 362.125 62.7552C362.239 62.7935 362.343 62.8576 362.428 62.9424C362.513 63.0272 362.577 63.1306 362.615 63.2443C362.653 63.358 362.665 63.479 362.649 63.5979V65.3501C362.665 65.469 362.653 65.59 362.615 65.7037C362.577 65.8174 362.513 65.9208 362.428 66.0056C362.343 66.0904 362.239 66.1545 362.125 66.1928C362.012 66.2311 361.89 66.2425 361.771 66.2263H351.026C350.907 66.213 350.787 66.2266 350.674 66.2662C350.561 66.3058 350.459 66.3702 350.374 66.4548C350.29 66.5394 350.226 66.6419 350.187 66.7547C350.148 66.8675 350.135 66.9876 350.148 67.1062V76.4794C350.135 76.5979 350.148 76.7181 350.187 76.8309C350.226 76.9437 350.29 77.0462 350.374 77.1308C350.459 77.2153 350.561 77.2798 350.674 77.3194C350.787 77.359 350.907 77.3726 351.026 77.3593H363.613C363.732 77.3431 363.853 77.3545 363.967 77.3928C364.081 77.4311 364.184 77.4952 364.269 77.58C364.354 77.6648 364.418 77.7681 364.456 77.8818C364.495 77.9955 364.506 78.1166 364.49 78.2354V79.9877C364.506 80.1066 364.495 80.2276 364.456 80.3413C364.418 80.455 364.354 80.5583 364.269 80.6432C364.184 80.728 364.081 80.7921 363.967 80.8304C363.853 80.8686 363.732 80.8801 363.613 80.8639H347.301C347.182 80.8801 347.061 80.8686 346.947 80.8304C346.833 80.7921 346.73 80.728 346.645 80.6432C346.56 80.5583 346.496 80.455 346.458 80.3413C346.419 80.2276 346.408 80.1066 346.424 79.9877V79.9991ZM369.22 76.7475C368.88 76.3699 368.921 75.9356 369.33 75.5315L370.721 74.1418C370.793 74.0437 370.889 73.9654 370.999 73.9141C371.11 73.8628 371.231 73.8403 371.353 73.8486C371.474 73.8569 371.592 73.8957 371.694 73.9615C371.797 74.0273 371.881 74.1179 371.939 74.2248C373.89 76.4907 376.37 77.9447 379.539 77.9447C383.35 77.9447 386.243 75.743 386.243 72.3442C386.243 68.5677 382.771 67.0835 379.089 65.5465C374.574 63.6583 370.29 61.7701 370.29 56.2224C370.29 50.9354 374.275 47.6045 379.41 47.6045C381.084 47.5858 382.743 47.9176 384.281 48.5784C385.818 49.2393 387.2 50.2146 388.337 51.4414C388.433 51.5115 388.512 51.6033 388.565 51.7093C388.619 51.8153 388.647 51.9325 388.647 52.0513C388.647 52.1702 388.619 52.2874 388.565 52.3933C388.512 52.4993 388.433 52.5911 388.337 52.6612L387.248 53.7942C386.87 54.2436 386.413 54.202 385.985 53.7526C383.694 51.5698 381.826 50.9505 379.497 50.9505C376.472 50.9505 373.825 52.7028 373.825 55.9543C373.825 59.6741 377.361 61.0223 381.149 62.5631C385.309 64.2738 389.774 66.2829 389.774 72.1818C389.774 78.1486 385.214 81.2906 379.777 81.2906C377.801 81.2783 375.848 80.8687 374.035 80.0862C372.221 79.3038 370.583 78.1644 369.22 76.7362V76.7475ZM396.709 79.9991V48.8999C396.692 48.781 396.704 48.66 396.742 48.5463C396.78 48.4326 396.845 48.3292 396.93 48.2444C397.014 48.1596 397.118 48.0955 397.232 48.0572C397.346 48.0189 397.467 48.0075 397.586 48.0237H399.556C399.675 48.0075 399.796 48.0189 399.91 48.0572C400.024 48.0955 400.127 48.1596 400.212 48.2444C400.297 48.3292 400.361 48.4326 400.399 48.5463C400.438 48.66 400.449 48.781 400.433 48.8999V79.9877C400.449 80.1066 400.438 80.2276 400.399 80.3413C400.361 80.455 400.297 80.5583 400.212 80.6432C400.127 80.728 400.024 80.7921 399.91 80.8304C399.796 80.8686 399.675 80.8801 399.556 80.8639H397.586C397.467 80.8801 397.346 80.8686 397.232 80.8304C397.118 80.7921 397.014 80.728 396.93 80.6432C396.845 80.5583 396.78 80.455 396.742 80.3413C396.704 80.2276 396.692 80.1066 396.709 79.9877V79.9991ZM435.654 71.3132C434.488 73.2421 432.837 74.8334 430.867 75.9296C428.896 77.0258 426.672 77.589 424.416 77.5632C422.184 77.5522 419.991 76.973 418.044 75.8802C416.098 74.7874 414.463 73.2172 413.293 71.3177C412.123 69.4183 411.457 67.2524 411.358 65.0246C411.26 62.7967 411.731 60.5805 412.728 58.5852C413.725 56.5899 415.215 54.8813 417.057 53.6209C418.899 52.3606 421.032 51.5899 423.255 51.3818C425.478 51.1736 427.717 51.5349 429.762 52.4314C431.806 53.328 433.588 54.7302 434.939 56.5057C435.317 56.9815 435.669 57.091 436.183 56.8342L437.862 55.8146C437.975 55.7703 438.076 55.6994 438.157 55.6077C438.237 55.5161 438.294 55.4064 438.322 55.2881C438.351 55.1698 438.35 55.0464 438.321 54.9283C438.291 54.8102 438.234 54.7009 438.153 54.6099C436.469 52.2602 434.208 50.3822 431.589 49.1561C428.969 47.93 426.077 47.3969 423.192 47.6081C420.306 47.8192 417.523 48.7675 415.11 50.3619C412.697 51.9562 410.735 54.1432 409.412 56.713C408.089 59.2828 407.449 62.1491 407.554 65.0369C407.659 67.9247 408.505 70.7371 410.012 73.2042C411.518 75.6713 413.634 77.7104 416.156 79.1258C418.679 80.5411 421.523 81.2853 424.416 81.2868C427.706 81.3342 430.934 80.3941 433.682 78.5883C436.431 76.7825 438.573 74.1941 439.832 71.1583C439.998 70.7807 439.862 70.3728 439.076 70.3728H436.705C436.213 70.3766 436.119 70.5352 435.65 71.317L435.654 71.3132ZM447.878 79.9991V48.8999C447.862 48.781 447.873 48.66 447.911 48.5463C447.95 48.4326 448.014 48.3292 448.099 48.2444C448.184 48.1596 448.287 48.0955 448.401 48.0572C448.515 48.0189 448.636 48.0075 448.755 48.0237H449.719C449.928 48.0118 450.136 48.0501 450.326 48.1356C450.516 48.2211 450.683 48.3511 450.812 48.5147L471.725 73.1259C472.262 73.7226 472.818 73.5035 472.818 72.718V48.8999C472.804 48.7814 472.817 48.6614 472.856 48.5488C472.895 48.4361 472.96 48.3338 473.044 48.2495C473.128 48.1652 473.231 48.1011 473.344 48.062C473.456 48.0229 473.577 48.0098 473.695 48.0237H475.449C475.569 48.0075 475.69 48.0189 475.804 48.0572C475.917 48.0955 476.021 48.1596 476.106 48.2444C476.191 48.3292 476.255 48.4326 476.293 48.5463C476.332 48.66 476.343 48.781 476.327 48.8999V79.9877C476.343 80.1066 476.332 80.2276 476.293 80.3413C476.255 80.455 476.191 80.5583 476.106 80.6432C476.021 80.728 475.917 80.7921 475.804 80.8304C475.69 80.8686 475.569 80.8801 475.449 80.8639H474.47C474.262 80.8746 474.054 80.8356 473.864 80.7503C473.674 80.6649 473.508 80.5355 473.377 80.3729L452.461 55.7617C451.946 55.165 451.368 55.384 451.368 56.1696V79.9877C451.384 80.1066 451.373 80.2276 451.334 80.3413C451.296 80.455 451.232 80.5583 451.147 80.6432C451.062 80.728 450.958 80.7921 450.845 80.8304C450.731 80.8686 450.61 80.8801 450.491 80.8639H448.759C448.639 80.8814 448.517 80.8709 448.402 80.8332C448.288 80.7955 448.183 80.7316 448.097 80.6466C448.011 80.5616 447.947 80.4578 447.908 80.3435C447.869 80.2291 447.858 80.1073 447.874 79.9877L447.878 79.9991Z" fill="black"/>
<path d="M440.546 66.196H428.901C428.7 66.196 428.508 66.1164 428.366 65.9748C428.224 65.8332 428.144 65.641 428.144 65.4407V63.4505C428.144 63.2502 428.224 63.0581 428.366 62.9165C428.508 62.7748 428.7 62.6952 428.901 62.6952H440.546C440.747 62.6952 440.939 62.7748 441.081 62.9165C441.223 63.0581 441.303 63.2502 441.303 63.4505V65.4369C441.303 65.5364 441.284 65.6351 441.246 65.7271C441.208 65.8192 441.153 65.9029 441.082 65.9735C441.012 66.044 440.929 66.1 440.837 66.1382C440.745 66.1764 440.646 66.196 440.546 66.196ZM143.69 76.434H161.919C162.932 76.434 163.382 75.8713 162.989 74.9234L153.706 51.819C153.199 50.754 152.413 50.754 151.906 51.819L142.624 74.9159C142.283 75.8713 142.68 76.434 143.69 76.434ZM145.097 29.8777C146.288 29.6193 147.414 29.1193 148.405 28.4086C149.395 27.698 150.229 26.7918 150.855 25.7463L151.139 25.2629L152.008 23.7788C152.519 23.0575 153.302 23.0575 153.804 23.7788L154.678 25.2629L154.992 25.7992C155.607 26.828 156.429 27.7191 157.405 28.4169C158.38 29.1147 159.49 29.6043 160.663 29.8551C168.569 31.6476 175.609 36.1177 180.59 42.5062C180.764 42.7337 180.985 42.9209 181.238 43.0552C181.491 43.1894 181.77 43.2676 182.057 43.2842C182.435 43.3031 182.93 43.3333 183.433 43.3748C183.66 43.392 183.888 43.3447 184.09 43.2385C184.292 43.1323 184.46 42.9714 184.574 42.7742C184.689 42.5771 184.745 42.3517 184.737 42.124C184.729 41.8962 184.657 41.6753 184.529 41.4866C179.127 33.9218 171.188 28.5422 162.153 26.3241C160.992 26.051 159.898 25.5475 158.936 24.8436C157.974 24.1397 157.164 23.2497 156.553 22.2266L153.797 17.5438C153.294 16.8187 152.511 16.8187 152.001 17.5438L149.248 22.2342C148.652 23.2472 147.857 24.13 146.912 24.83C145.967 25.5301 144.89 26.033 143.747 26.309C134.709 28.5047 126.759 33.8643 121.34 41.4148C121.191 41.6269 121.103 41.876 121.086 42.1346C121.069 42.3933 121.124 42.6516 121.244 42.8813C121.364 43.111 121.546 43.3032 121.768 43.4369C121.99 43.5706 122.245 43.6406 122.505 43.6392H122.762C123.254 43.6401 123.74 43.5294 124.184 43.3155C124.627 43.1016 125.016 42.7901 125.322 42.4043C130.282 36.0898 137.263 31.6678 145.097 29.8777ZM182.151 85.6675C181.638 85.659 181.13 85.7617 180.66 85.9684C180.191 86.175 179.772 86.4808 179.433 86.8646C176.307 90.4993 172.467 93.4538 168.151 95.5449C163.835 97.6361 159.134 98.8193 154.341 99.021C153.823 99.0399 153.309 99.0513 152.799 99.0475C147.236 99.0324 141.757 97.6941 136.815 95.1434C131.873 92.5927 127.61 88.903 124.38 84.3797C124.212 84.1484 123.997 83.9545 123.75 83.8105C123.502 83.6665 123.228 83.5754 122.943 83.5431C122.659 83.5108 122.371 83.5379 122.097 83.6228C121.824 83.7077 121.571 83.8484 121.355 84.036L121.325 84.0587C121.025 84.3249 120.833 84.6909 120.784 85.0883C120.734 85.4857 120.831 85.8875 121.056 86.2188C124.022 90.4634 127.808 94.0726 132.191 96.8341C136.574 99.5957 141.466 101.454 146.579 102.299C147.396 102.44 148.162 102.789 148.804 103.313C149.447 103.836 149.943 104.516 150.246 105.286L152.322 110.475C152.655 111.177 153.173 111.177 153.506 110.475L155.589 105.294C155.894 104.521 156.393 103.841 157.038 103.317C157.683 102.793 158.453 102.444 159.272 102.303C168.815 100.714 177.421 95.6263 183.406 88.0353C183.579 87.8217 183.688 87.5635 183.72 87.2907C183.752 87.0179 183.706 86.7416 183.587 86.4939C183.469 86.2461 183.282 86.037 183.049 85.8907C182.817 85.7445 182.547 85.6671 182.272 85.6675H182.147H182.151Z" fill="black"/>
</svg>
