<svg width="247" height="128" viewBox="0 0 247 128" fill="none" xmlns="http://www.w3.org/2000/svg">
<path fill-rule="evenodd" clip-rule="evenodd" d="M184.021 82.5363C184.021 86.1748 184.125 89.766 184.439 93.0004H172.951C172.645 90.3372 172.533 87.6912 172.533 85.1247C166.323 92.8536 158.936 95.0756 148.688 95.0756C133.489 95.0756 125.352 86.9428 125.352 77.5347C125.352 63.9098 136.42 59.1058 155.635 58.6602C160.89 58.5386 166.792 58.5206 171.672 58.5206L171.671 57.1894C171.671 48.0682 165.894 44.3177 155.883 44.3177C148.451 44.3177 142.973 47.4314 142.409 52.8118H129.434C130.807 39.3965 144.729 36.0033 156.97 36.0033C171.635 36.0033 184.021 41.2857 184.021 56.989V82.5363ZM156.483 67.0427C145.285 67.4143 138.328 69.4599 138.328 76.9267C138.328 81.7615 142.134 87.002 151.798 87.002C164.755 87.002 171.671 79.8519 171.671 68.1247L171.672 66.8347C167.129 66.8347 161.528 66.8755 156.483 67.0427Z" fill="#111111"/>
<path fill-rule="evenodd" clip-rule="evenodd" d="M13.0495 68.7039C13.716 80.0516 21.4454 86.7632 32.0731 86.7632C39.4365 86.7632 45.9865 83.726 48.1797 77.118H60.9161C58.4392 90.5252 44.3678 95.0761 32.2556 95.0761C10.2333 95.0761 0.473145 82.7968 0.473145 66.2383C0.473145 48.0094 10.5683 36.0042 32.4567 36.0042C49.879 36.0042 62.6442 45.235 62.6442 65.3827V68.7039H13.0495ZM49.6696 60.3899C49.1903 48.6946 40.8522 44.3182 31.9407 44.3182C22.3316 44.3182 14.6595 49.241 13.3158 60.3899H49.6696Z" fill="#111111"/>
<path fill-rule="evenodd" clip-rule="evenodd" d="M62.6269 14H74.9737L74.9725 45.405C81.0239 38.1049 89.3612 35.9853 97.5678 35.9853C111.327 35.9853 126.61 45.3854 126.61 65.6815C126.61 82.6775 114.455 95.0572 97.3383 95.0572C88.379 95.0572 79.9452 91.8032 74.7442 85.3564C74.7442 87.9316 74.6019 90.5268 74.3238 92.9824H62.2069C62.4175 89.0128 62.6269 84.0704 62.6269 80.0719V14ZM94.3047 86.5072C105.782 86.5072 113.635 78.1439 113.635 65.5227C113.635 52.9034 105.782 44.539 94.3047 44.539C82.8923 44.539 74.9737 52.9034 74.9737 65.5227C74.9737 78.1439 82.8923 86.5072 94.3047 86.5072Z" fill="#111111"/>
<path fill-rule="evenodd" clip-rule="evenodd" d="M246.903 38.0828L208.72 114H194.894L205.871 92.9194L177.136 38.0828H191.584L212.729 80.9274L233.814 38.0828H246.903Z" fill="#111111"/>
</svg>
