<svg width="284" height="128" viewBox="0 0 284 128" fill="none" xmlns="http://www.w3.org/2000/svg">
<path d="M134.419 26.4118C137.177 26.1859 137.177 25.96 139.925 25.7247C140.81 25.6494 141.704 25.5271 142.692 25.4141C142.64 25.654 142.571 25.8899 142.485 26.12C141.676 28.0588 140.8 29.9694 140.057 31.9271C139.05 34.5435 138.419 35.6918 137.534 38.3365C137.36 38.778 137.328 39.2631 137.443 39.7237C137.557 40.1844 137.813 40.5977 138.174 40.9059C138.965 41.5929 139.53 41.4706 139.916 40.5012C140.066 40.1341 140.236 39.7765 140.386 39.4188C141.629 36.4071 142.052 34.8729 143.294 31.8894C144.104 29.9035 145.384 27.9647 146.203 25.9882C146.287 25.7718 146.457 25.4894 146.645 25.4424C147.332 25.2447 148.16 25.1129 148.932 24.9624C148.913 25.1438 148.859 25.3197 148.772 25.48C147.878 27.4847 146.946 29.4706 146.08 31.4753C145.214 33.48 144.452 35.24 143.746 37.1224C143.482 37.6921 143.424 38.3357 143.582 38.9433C143.74 39.551 144.104 40.085 144.612 40.4541C145.553 41.2071 145.901 41.1035 146.174 40.0212C146.174 39.9741 146.174 39.9176 146.221 39.8706C147.402 36.684 149.218 33.7703 151.558 31.3059C151.886 30.9342 152.27 30.6165 152.697 30.3647C153.036 30.1388 153.054 30.2894 152.951 30.5718C151.895 32.4952 150.995 34.5 150.259 36.5671C149.647 38.2612 149.252 39.7953 150.626 40.0871C151.362 40.2922 152.135 40.3232 152.885 40.1779C153.635 40.0325 154.34 39.7146 154.946 39.2494C155.438 38.7992 155.879 38.2975 156.264 37.7529C156.725 37.1224 156.574 38.2612 156.941 38.9294C157.297 39.4256 157.792 39.8057 158.363 40.0217C158.934 40.2377 159.556 40.2801 160.151 40.1435C162.113 39.516 163.826 38.2839 165.045 36.6235C165.403 36.1577 165.689 35.6405 165.892 35.0894C165.823 34.8951 165.702 34.7235 165.542 34.5936C165.382 34.4637 165.189 34.3806 164.984 34.3533C164.78 34.3261 164.572 34.3558 164.383 34.4391C164.195 34.5225 164.033 34.6564 163.916 34.8259C163.172 35.5694 160.923 37.4235 159.981 37.0847C158.513 36.5576 160.462 34.5812 160.753 34.5435C162.244 34.3067 163.668 33.7583 164.932 32.9341C165.553 32.5768 166.096 32.0988 166.529 31.5281C166.963 30.9575 167.277 30.3059 167.454 29.6118C167.556 29.293 167.591 28.9569 167.558 28.6241C167.525 28.2912 167.424 27.9686 167.262 27.6761C167.1 27.3835 166.88 27.1271 166.615 26.9227C166.35 26.7182 166.047 26.57 165.723 26.4871C164.857 26.2235 162.24 26.0353 159.134 30.7788C158.052 32.3035 157.045 33.5176 155.963 35.0424C155.288 35.8933 154.521 36.6667 153.676 37.3482C153.591 37.3953 153.196 37.5082 153.196 37.2447C153.196 36.9812 156.16 29.9035 156.65 28.4918C156.78 28.1693 156.806 27.814 156.723 27.4761C156.64 27.1382 156.453 26.835 156.189 26.6094C155.586 26.0635 154.946 26.28 154.306 26.5341C152.854 27.2206 151.586 28.2433 150.607 29.5176C150.18 30.0093 149.781 30.5246 149.412 31.0612C149.149 31.4565 148.904 31.5506 149.158 31.1271C150.363 29.1224 151.473 27.0518 152.669 25.0376C153.017 24.52 153.205 24.5859 153.44 24.6235C154.13 24.7738 154.85 24.693 155.49 24.3937C156.129 24.0944 156.653 23.5931 156.979 22.9671C157.139 22.6847 157.337 22.2706 157.233 22.0259C157.13 21.7812 156.669 21.6871 156.358 21.6871C155.417 21.6871 154.541 21.7906 153.629 21.8C153.357 21.7996 153.096 21.6913 152.904 21.4988C152.33 20.6706 149.864 19.9835 149.864 20.4447C149.836 21.0231 149.722 21.5942 149.525 22.1388C149.487 22.1348 149.45 22.1348 149.412 22.1388C147.454 22.3647 146.438 22.4494 144.48 22.5718C140.96 22.8071 140.189 22.9576 136.669 23.1835C135.987 23.1794 135.323 23.4018 134.781 23.8157C134.24 24.2296 133.851 24.8117 133.676 25.4706C133.44 26.2329 133.676 26.5059 134.419 26.4118ZM164.537 29.2353C164.838 30.5059 163.134 32.2 161.224 32.5388C161.167 31.8141 163.36 29.6212 164.499 29.3012L164.537 29.2353ZM207.257 60.3412C207.257 59.0518 206.429 58.4588 203.539 57.5835C200.894 56.8024 199.859 56.3694 199.003 55.7012C197.676 54.6471 197.205 52.9906 197.205 50.8824C197.205 46.0918 200.377 42.8824 205.205 42.8824C207.829 42.9004 210.411 43.5458 212.734 44.7647L210.381 49.9412C209.217 48.8617 207.728 48.1995 206.146 48.0588C205.835 48.0237 205.521 48.0508 205.221 48.1387C204.921 48.2265 204.641 48.3733 204.398 48.5705C204.156 48.7677 203.955 49.0112 203.807 49.287C203.659 49.5627 203.568 49.8651 203.539 50.1765C203.542 50.4032 203.594 50.6265 203.692 50.8312C203.789 51.0359 203.93 51.2171 204.104 51.3624C204.791 51.9365 205.045 52.04 207.821 52.8588C211.972 54.0729 213.676 55.8141 213.676 59.3529C213.743 60.5253 213.562 61.6987 213.145 62.7966C212.728 63.8945 212.085 64.8922 211.257 65.7247C208.97 67.8235 206.551 68.2941 203.793 68.2941C201.975 68.28 200.191 67.7936 198.617 66.8824L197.205 63.1176L198.617 60.2941C200.129 61.7821 202.144 62.6486 204.264 62.7224C206.033 62.7224 207.219 61.8 207.219 60.4071L207.257 60.3412ZM133.676 55.5882C133.676 47.9741 137.911 42.4118 145.911 42.4118C151.558 42.4118 154.984 44.9247 157.205 49.4988L151.304 51.9365C150.231 49.3576 148.593 48.1718 146.193 48.1718C142.654 48.1718 140.236 51.3247 140.236 55.6165C140.117 57.722 140.788 59.796 142.118 61.4329C142.662 62.0087 143.326 62.4579 144.063 62.749C144.799 63.0401 145.591 63.166 146.381 63.1176C147.147 63.1599 147.912 63.0238 148.616 62.72C149.32 62.4162 149.944 61.953 150.438 61.3671C151.029 60.655 151.416 59.7964 151.558 58.8824H146.381V54.1765H158.617C158.541 57.6776 158.127 59.5788 157.271 61.4706C155.304 65.8376 151.407 68.2282 146.297 68.2282C138.758 68.2282 133.676 63.1176 133.676 55.5882ZM166.617 42.8824H160.029V67.3529H179.323L180.734 63.1176H189.205L190.617 67.3529H197.205L188.734 42.8824H181.676L174.654 62.12V62.1765H166.617V42.8824ZM185.149 50.8824L187.793 58.4118H182.617L185.149 50.8824ZM214.146 72.0588H220.264V95.5882H214.146L202.852 81.4706V95.5882H196.734V72.0588H202.852L214.146 86.6471V72.0588ZM222.146 72.0588H238.146V77.2353H233.44V95.5882H227.323V77.2353H222.146V72.0588ZM240.029 72.0588H246.146V95.5882H240.029V72.0588ZM227.793 65.7247C225.651 67.4165 222.994 68.3233 220.264 68.2941C217.822 68.2305 215.484 67.292 213.676 65.6494C214.333 64.9724 214.848 64.1706 215.191 63.2912C215.534 62.4119 215.697 61.4728 215.671 60.5294C216.334 61.212 217.124 61.7571 217.998 62.1334C218.872 62.5098 219.811 62.7099 220.763 62.7224C222.589 62.7224 223.765 61.7812 223.765 60.4071C223.765 59.0329 222.946 58.5247 220.047 57.6494C217.403 56.8682 216.367 56.4353 215.511 55.7671C214.259 54.6471 213.676 52.9906 213.676 50.8824C213.676 46.0918 216.857 42.8824 221.676 42.8824C224.3 42.8982 226.882 43.5437 229.205 44.7647L226.852 49.9412C225.69 48.8586 224.199 48.196 222.617 48.0588C222.31 48.0251 222 48.0537 221.705 48.1429C221.41 48.2321 221.136 48.3801 220.899 48.5779C220.663 48.7757 220.469 49.0193 220.329 49.294C220.189 49.5687 220.106 49.8689 220.085 50.1765C220.09 50.4028 220.143 50.6256 220.24 50.83C220.337 51.0345 220.477 51.2159 220.65 51.3624C221.337 51.9365 221.591 52.04 224.414 52.8588C228.565 54.0729 230.193 55.8141 230.193 59.3529C230.146 62.0729 229.412 64.3412 227.793 65.7247ZM248.499 72.0588H262.146V77.2353H254.617V81.4706H261.676V86.6471H254.617V90.4118H261.676V95.5882H248.499V72.0588ZM275.793 86.1765C276.948 85.9472 278.027 85.4291 278.927 84.6706C279.612 84.0195 280.149 83.2287 280.502 82.3517C280.854 81.4748 281.014 80.5323 280.97 79.5882C281.027 77.6174 280.357 75.6944 279.087 74.1859C277.694 72.7365 276.123 72.0588 273.44 72.0588H263.558V95.5882H270.146V86.6471L275.793 95.5882H283.323L275.793 86.1765ZM273.591 82.0824C272.872 82.6268 271.989 82.909 271.087 82.8824H269.676V76.7647H271.087C271.975 76.7236 272.852 76.9676 273.591 77.4612C273.943 77.737 274.23 78.0862 274.433 78.4844C274.637 78.8826 274.751 79.3203 274.767 79.7671C274.756 80.2162 274.644 80.657 274.441 81.0576C274.237 81.4581 273.947 81.8082 273.591 82.0824ZM134.617 72.0588H148.264V77.2353H140.264V81.4706H147.323V86.6471H140.264V95.5882H134.617V72.0588ZM181.676 71.1176C178.455 71.1622 175.35 72.3269 172.894 74.4118C171.53 75.5737 170.431 77.0155 169.673 78.6394C168.914 80.2633 168.514 82.0313 168.499 83.8235C168.499 87.3181 169.887 90.6696 172.358 93.1407C174.83 95.6118 178.181 97 181.676 97C185.17 97 188.522 95.6118 190.993 93.1407C193.464 90.6696 194.852 87.3181 194.852 83.8235C194.815 80.6407 193.53 77.5996 191.276 75.3529C190.067 74.0069 188.586 72.9333 186.931 72.2031C185.276 71.4729 183.485 71.1029 181.676 71.1176ZM181.676 90.8824C179.866 90.8824 178.13 90.1635 176.851 88.8838C175.571 87.6041 174.852 85.8685 174.852 84.0588C174.852 82.2491 175.571 80.5135 176.851 79.2339C178.13 77.9542 179.866 77.2353 181.676 77.2353C183.446 77.2601 185.135 77.9867 186.37 79.2555C187.605 80.5244 188.286 82.2317 188.264 84.0024C188.297 85.7867 187.622 87.5116 186.388 88.8006C185.154 90.0895 183.46 90.8379 181.676 90.8824ZM165.45 84.6706C166.157 83.9929 166.715 83.1748 167.088 82.2687C167.461 81.3627 167.64 80.3888 167.614 79.4094C167.621 77.4757 166.898 75.6107 165.591 74.1859C164.207 72.7365 162.221 72.0588 159.558 72.0588H150.146V95.5882H156.264L156.349 86.7035L161.911 95.5882H169.911L162.429 86.0918C163.544 85.8946 164.587 85.404 165.45 84.6706ZM160.113 82.0824C159.419 82.6262 158.557 82.9093 157.676 82.8824H156.264V76.7647H157.676C158.543 76.7215 159.4 76.9664 160.113 77.4612C160.465 77.737 160.753 78.0862 160.956 78.4844C161.159 78.8826 161.273 79.3203 161.29 79.7671C161.278 80.2162 161.166 80.657 160.963 81.0576C160.759 81.4581 160.469 81.8082 160.113 82.0824ZM126.617 17L2.85208 17.1224C2.62521 17.1246 2.40112 17.1726 2.19326 17.2635C1.85599 17.3883 1.56151 17.6071 1.34468 17.894C1.12785 18.1808 0.997733 18.5238 0.969727 18.8824L0.969727 95.1176C1.00847 95.604 1.21923 96.0606 1.5642 96.4055C1.90916 96.7505 2.36576 96.9613 2.85208 97H126.617C127.558 97 128.029 96.0588 128.029 95.1176V18.8824C128.029 17.9412 127.539 17 126.617 17ZM48.4991 60.7647H44.7344V52.7647H48.4991V60.7647ZM4.73443 93.2353V20.2941H48.4991V49.4706H43.3227C42.8363 49.5093 42.3797 49.7201 42.0348 50.0651C41.6898 50.41 41.4791 50.8666 41.4403 51.3529V62.1765C41.4172 62.4295 41.45 62.6844 41.5364 62.9233C41.6228 63.1622 41.7607 63.3792 41.9403 63.5588C42.12 63.7384 42.3369 63.8764 42.5758 63.9628C42.8147 64.0492 43.0697 64.082 43.3227 64.0588H48.4991V93.2353H4.73443ZM124.734 93.2353H51.7933V20.2941H124.734V93.2353ZM112.367 23.1176H120.97C121.219 23.1176 121.459 23.2168 121.635 23.3933C121.812 23.5698 121.911 23.8092 121.911 24.0588V37.2353C121.911 37.9412 120.744 37.9035 120.499 37.2353C118.817 32.2061 115.906 27.6768 112.029 24.0588C111.624 23.6635 111.793 23.1176 112.367 23.1176ZM16.9697 89.4706C17.3744 89.8659 17.0733 90.8824 16.4991 90.8824H8.02855C7.77893 90.8824 7.53954 90.7832 7.36304 90.6067C7.18653 90.4302 7.08737 90.1908 7.08737 89.9412V76.7647C7.08737 76.0588 8.25443 75.6259 8.49914 76.2941C10.181 81.3233 13.0927 85.8526 16.9697 89.4706Z" fill="black"/>
</svg>
