<svg width="379" height="128" viewBox="0 0 379 128" fill="none" xmlns="http://www.w3.org/2000/svg">
<path d="M155.723 59.9886L144.673 59.4245C144.461 59.4245 144.258 59.3417 144.107 59.1939C143.956 59.0462 143.87 58.8453 143.866 58.6347L145.328 29.8023C145.316 29.6185 145.245 29.4433 145.126 29.3023C145.006 29.1612 144.845 29.0618 144.665 29.0184C144.485 28.9751 144.296 28.99 144.125 29.0611C143.954 29.1322 143.81 29.2558 143.715 29.4137L123.19 66.9209C123.134 67.0392 123.109 67.1698 123.118 67.3003C123.127 67.4308 123.17 67.5568 123.242 67.6662C123.314 67.7756 123.413 67.8648 123.53 67.9253C123.646 67.9857 123.776 68.0154 123.908 68.0115L134.958 68.5631C135.064 68.5631 135.169 68.5838 135.267 68.6241C135.365 68.6645 135.453 68.7235 135.528 68.798C135.603 68.8726 135.663 68.961 135.703 69.0583C135.744 69.1557 135.764 69.26 135.764 69.3654L134.303 98.1977C134.317 98.3806 134.39 98.5542 134.51 98.6933C134.63 98.8325 134.792 98.93 134.971 98.9719C135.151 99.0138 135.339 98.9978 135.509 98.9262C135.679 98.8546 135.821 98.7312 135.916 98.5738L156.428 61.0792C156.484 60.9618 156.509 60.8324 156.5 60.7029C156.492 60.5735 156.45 60.4484 156.38 60.3393C156.309 60.2302 156.212 60.1408 156.097 60.0795C155.982 60.0181 155.853 59.9868 155.723 59.9886Z" fill="black"/>
<path d="M40.0297 92.3936L22.8685 68.1619L14.3761 77.5387V92.3936H0.969727V33.2872H14.3761V60.866L38.9839 33.2872H54.6079L32.2051 57.8324L56.0443 92.3936H40.0297Z" fill="black"/>
<path d="M61.6766 70.8445H84.3062V61.0164H61.6766V52.4043H81.6476L76.3304 42.5637H49.4294V76.5985L58.3124 89.4602H87.494V79.6321H61.6766V70.8445Z" fill="black"/>
<path d="M115.214 42.5763L104.113 62.5584L92.8238 42.5763H80.6018L98.0528 74.5928V89.4603H110.313V74.1039L127.461 42.5763H115.214Z" fill="black"/>
<path d="M360.271 61.8313L377.836 42.5763H363.61L345.731 62.7339V42.5763H333.471V89.4603H345.731V77.7643L351.766 71.183L364.266 89.4603H378.97L360.271 61.8313Z" fill="black"/>
<path d="M170.679 48.3553C170.679 44.5945 174.144 42.5136 179.499 42.5136C184.06 42.5136 190.839 44.4943 197.215 48.4556L201.788 38.4269C195.424 34.2903 187.996 32.0663 180.394 32.0211C167.138 32.0211 158.268 38.8155 158.268 49.3958C158.268 71.0827 189.97 63.8496 189.97 76.6361C189.97 80.9359 186.19 83.5183 179.89 83.5183C173.59 83.5183 165.009 78.88 158.936 73.1887L153.165 83.6938C160.578 90.0335 169.955 93.6489 179.726 93.9355C192.729 93.9355 202.343 87.3041 202.343 76.0344C202.418 54.0716 170.679 60.8284 170.679 48.3553Z" fill="black"/>
<path d="M246.985 59.3993C246.985 48.6436 239.941 42.5637 227.455 42.5637H206.161L206.677 89.4602H218.735V77.3506H227.455C239.941 77.3506 246.985 70.7568 246.985 59.3993ZM226.825 67.2467H218.698V52.6676H226.825C232.117 52.6676 235.128 55.0619 235.128 59.8381C235.128 64.6142 232.154 67.2467 226.862 67.2467H226.825Z" fill="black"/>
<path d="M321.539 74.129C327.007 71.3586 330.031 66.1562 330.031 59.0108C330.031 48.5183 322.761 42.5889 310.35 42.5889H289.018V75.5957L294.89 89.4603H301.266V76.4481H310.653L317.52 89.4603H331.317L321.539 74.129ZM310.35 66.6075H301.278V52.4044H310.35C315.39 52.4044 318.351 54.7611 318.351 59.3869C318.351 64.0126 315.403 66.6075 310.35 66.6075Z" fill="black"/>
<path d="M285.112 75.5956L271.139 42.5637H258.539L238.14 89.4602H250.74L254.016 81.2493H274.755L277.943 89.4602H290.997L285.112 75.5956ZM271.706 60.6529L262.886 76.7865C262.71 77.0999 262.168 76.9745 262.193 76.6235L262.823 64.2256C262.82 64.1335 262.782 64.046 262.716 63.9809C262.651 63.9157 262.563 63.8777 262.47 63.8746L257.72 63.6364C257.663 63.6396 257.607 63.6281 257.556 63.603C257.505 63.578 257.462 63.5402 257.43 63.4935C257.398 63.4467 257.379 63.3926 257.375 63.3364C257.371 63.2801 257.381 63.2237 257.405 63.1726L266.225 47.039C266.267 46.9739 266.329 46.9234 266.401 46.8944C266.474 46.8655 266.553 46.8596 266.629 46.8774C266.705 46.8953 266.774 46.936 266.825 46.9941C266.877 47.0522 266.909 47.1248 266.918 47.202L266.288 59.5999C266.286 59.6454 266.294 59.6908 266.31 59.7333C266.327 59.7758 266.351 59.8146 266.383 59.8474C266.415 59.8801 266.453 59.9062 266.495 59.924C266.537 59.9418 266.582 59.9509 266.628 59.9509L271.391 60.1891C271.448 60.1859 271.504 60.1974 271.555 60.2225C271.606 60.2475 271.649 60.2853 271.681 60.332C271.713 60.3788 271.732 60.4329 271.736 60.4892C271.74 60.5454 271.73 60.6018 271.706 60.6529Z" fill="black"/>
</svg>
