<svg width="339" height="128" viewBox="0 0 339 128" fill="none" xmlns="http://www.w3.org/2000/svg">
<g clip-path="url(#clip0_95_2)">
<path d="M141.256 42.4V85.5999H133.756V51.7H133.656L120.256 85.5999H115.256L101.556 51.7H101.456V85.5999H94.5559V42.4H105.356L117.756 74.4H117.956L131.056 42.4H141.256ZM147.456 45.7C147.456 44.5 147.856 43.5 148.756 42.7C149.656 41.9 150.656 41.5 151.856 41.5C153.156 41.5 154.256 41.9 155.056 42.7C155.856 43.5 156.356 44.5 156.356 45.7C156.356 46.9 155.956 47.9 155.056 48.7C154.156 49.5 153.156 49.9 151.856 49.9C150.556 49.9 149.556 49.5 148.756 48.7C147.956 47.8 147.456 46.8 147.456 45.7ZM155.556 54.6V85.5999H148.256V54.6H155.556ZM177.656 80.2999C178.756 80.2999 179.956 80.0999 181.256 79.5C182.556 79 183.756 78.2999 184.856 77.5V84.2999C183.656 85 182.356 85.5 180.856 85.7999C179.356 86.0999 177.756 86.2999 175.956 86.2999C171.356 86.2999 167.656 84.9 164.856 82C161.956 79.0999 160.556 75.4 160.556 71C160.556 66 162.056 61.9 164.956 58.7C167.856 55.5 171.956 53.9 177.356 53.9C178.756 53.9 180.156 54.1 181.456 54.4C182.856 54.7 183.956 55.2 184.756 55.6V62.5999C183.656 61.7999 182.456 61.1 181.356 60.7C180.156 60.3 178.956 60 177.756 60C174.856 60 172.556 60.9 170.756 62.7999C168.956 64.6999 168.156 67.2 168.156 70.4C168.156 73.5 169.056 76 170.756 77.7C172.456 79.4 174.756 80.2999 177.656 80.2999ZM205.556 54.1C206.156 54.1 206.656 54.1 207.156 54.2C207.656 54.3 208.056 54.4 208.356 54.5V61.9C207.956 61.6 207.456 61.2999 206.656 61.0999C205.856 60.8999 205.056 60.7 203.956 60.7C202.156 60.7 200.656 61.5 199.456 63C198.256 64.5 197.556 66.7999 197.556 70V85.5999H190.256V54.6H197.556V59.5H197.656C198.356 57.7999 199.356 56.5 200.656 55.5C202.056 54.6 203.656 54.1 205.556 54.1ZM208.756 70.5999C208.756 65.4999 210.256 61.4 213.056 58.4C215.956 55.4 219.956 53.9 225.056 53.9C229.856 53.9 233.656 55.3 236.356 58.2C239.056 61.1 240.456 65 240.456 69.9C240.456 74.9 238.956 78.9 236.156 81.9C233.256 84.9 229.356 86.4 224.356 86.4C219.556 86.4 215.756 85 212.956 82.2C210.156 79.2999 208.756 75.3999 208.756 70.5999ZM216.356 70.2999C216.356 73.5 217.056 76 218.556 77.7C220.056 79.4 222.156 80.2999 224.856 80.2999C227.456 80.2999 229.556 79.5 230.956 77.7C232.356 76 233.056 73.5 233.056 70.0999C233.056 66.7999 232.356 64.2999 230.956 62.5C229.556 60.7999 227.456 59.9 224.956 59.9C222.256 59.9 220.256 60.7999 218.756 62.5999C217.056 64.4999 216.356 67 216.356 70.2999ZM251.356 62.7999C251.356 63.7999 251.656 64.6999 252.356 65.2999C253.056 65.9 254.456 66.6 256.756 67.5C259.656 68.7 261.756 70 262.856 71.4C264.056 72.9 264.656 74.6 264.656 76.7C264.656 79.6 263.556 81.9 261.256 83.7C259.056 85.5 255.956 86.2999 252.156 86.2999C250.856 86.2999 249.456 86.0999 247.856 85.7999C246.256 85.5 244.956 85.0999 243.856 84.5999V77.4C245.156 78.3 246.656 79.0999 248.156 79.5999C249.656 80.0999 251.056 80.4 252.356 80.4C253.956 80.4 255.256 80.2 255.956 79.7C256.756 79.2 257.156 78.5 257.156 77.4C257.156 76.4 256.756 75.5999 255.956 74.7999C255.156 74.0999 253.556 73.3 251.356 72.4C248.656 71.3 246.756 69.9999 245.656 68.5999C244.556 67.1999 243.956 65.4 243.956 63.2C243.956 60.4 245.056 58.0999 247.256 56.2999C249.456 54.4999 252.356 53.6 255.856 53.6C256.956 53.6 258.156 53.7 259.456 54C260.756 54.3 261.956 54.6 262.856 54.9V62C261.856 61.4 260.756 60.7999 259.456 60.2999C258.156 59.7999 256.856 59.6 255.656 59.6C254.256 59.6 253.156 59.9 252.456 60.4C251.756 61.1 251.356 61.7999 251.356 62.7999ZM267.756 70.5999C267.756 65.4999 269.256 61.4 272.056 58.4C274.956 55.4 278.956 53.9 284.056 53.9C288.856 53.9 292.656 55.3 295.356 58.2C298.056 61.1 299.456 65 299.456 69.9C299.456 74.9 297.956 78.9 295.156 81.9C292.256 84.9 288.356 86.4 283.356 86.4C278.556 86.4 274.756 85 271.956 82.2C269.256 79.2999 267.756 75.3999 267.756 70.5999ZM275.356 70.2999C275.356 73.5 276.056 76 277.556 77.7C279.056 79.4 281.156 80.2999 283.856 80.2999C286.456 80.2999 288.556 79.5 289.956 77.7C291.356 76 292.056 73.5 292.056 70.0999C292.056 66.7999 291.356 64.2999 289.956 62.5C288.556 60.7999 286.456 59.9 283.956 59.9C281.256 59.9 279.256 60.7999 277.756 62.5999C276.156 64.4999 275.356 67 275.356 70.2999ZM323.756 60.5999H312.856V85.5999H305.456V60.5999H300.256V54.6H305.456V50.3C305.456 47.1 306.556 44.4 308.656 42.3C310.756 40.2 313.456 39.2 316.756 39.2C317.656 39.2 318.456 39.3 319.156 39.3C319.856 39.3 320.456 39.5 320.956 39.7V46C320.756 45.9 320.256 45.7 319.656 45.5C319.056 45.3 318.356 45.2 317.556 45.2C316.056 45.2 314.856 45.7 314.056 46.6C313.256 47.5 312.856 49 312.856 50.8V54.5H323.756V47.5L331.056 45.3V54.5H338.456V60.5H331.056V75C331.056 76.9 331.456 78.2 332.056 79C332.756 79.7999 333.856 80.2 335.356 80.2C335.756 80.2 336.256 80.1 336.856 79.9C337.456 79.7 337.956 79.5 338.356 79.2V85.2C337.856 85.5 337.156 85.7 336.056 85.9C334.956 86.1 333.956 86.2 332.856 86.2C329.756 86.2 327.456 85.3999 325.956 83.7999C324.456 82.2 323.656 79.7 323.656 76.4L323.756 60.5999Z" fill="#1A1A1A"/>
<path d="M35.056 28H0.855957V62.2H35.056V28Z" fill="#1A1A1A"/>
<path d="M72.856 28H38.656V62.2H72.856V28Z" fill="#1A1A1A"/>
<path d="M35.056 65.8H0.855957V100H35.056V65.8Z" fill="#1A1A1A"/>
<path d="M72.856 65.8H38.656V100H72.856V65.8Z" fill="#1A1A1A"/>
</g>
<defs>
<clipPath id="clip0_95_2">
<rect width="337.6" height="72" fill="white" transform="translate(0.855957 28)"/>
</clipPath>
</defs>
</svg>
