<svg width="321" height="128" viewBox="0 0 321 128" fill="none" xmlns="http://www.w3.org/2000/svg">
<path d="M39.5233 34H24.3091V94H39.5233V34Z" fill="black"/>
<path d="M190.111 34H174.897V94H190.111V34Z" fill="black"/>
<path d="M297.674 34H282.46V94H297.674V34Z" fill="black"/>
<path d="M18.0087 34V94H2.79443V49.2983C2.79443 45.2409 4.39736 41.3497 7.25058 38.4808C10.1038 35.6118 13.9736 34 18.0087 34Z" fill="black"/>
<path d="M2.79451 91.0792C2.79451 91.9791 0.989258 92.8944 0.989258 92.8944V94.0052H2.79451V91.0792Z" fill="black"/>
<path d="M61.0329 49.2983V94H45.8237V34C47.8215 34 49.7996 34.3957 51.6452 35.1646C53.4908 35.9335 55.1676 37.0604 56.58 38.4811C57.9924 39.9017 59.1126 41.5882 59.8766 43.4443C60.6406 45.3003 61.0335 47.2895 61.0329 49.2983Z" fill="black"/>
<path d="M61.0332 91.0792C61.0332 91.9791 62.8385 92.8944 62.8385 92.8944V94.0052H61.0332V91.0792Z" fill="black"/>
<path d="M125.572 49.2983V94H110.363V34C114.397 34.0014 118.265 35.6137 121.118 38.4826C123.97 41.3514 125.572 45.2418 125.572 49.2983Z" fill="black"/>
<path d="M125.572 91.0792C125.572 91.9791 127.378 92.8944 127.378 92.8944V94.0052H125.572V91.0792Z" fill="black"/>
<path d="M254.645 34V78.7069C254.646 80.7154 254.253 82.7044 253.489 84.5601C252.725 86.4159 251.604 88.102 250.192 89.5223C248.78 90.9425 247.103 92.069 245.257 92.8373C243.412 93.6056 241.434 94.0007 239.436 94V34H254.645Z" fill="black"/>
<path d="M254.645 36.926C254.645 36.0261 256.45 35.1107 256.45 35.1107V34H254.645V36.926Z" fill="black"/>
<path d="M233.13 34V94C229.097 93.9986 225.229 92.387 222.378 89.5192C219.526 86.6515 217.923 82.7625 217.921 78.7069V34H233.13Z" fill="black"/>
<path d="M217.921 36.926C217.921 36.0261 216.116 35.1107 216.116 35.1107V34H217.921V36.926Z" fill="black"/>
<path d="M211.62 49.2983V94H196.406V34C200.441 34 204.311 35.6118 207.164 38.4808C210.018 41.3497 211.62 45.2409 211.62 49.2983Z" fill="black"/>
<path d="M211.621 91.0792C211.621 91.9791 213.431 92.8944 213.431 92.8944V94.0052H211.621V91.0792Z" fill="black"/>
<path d="M319.184 49.2983V94H303.975V34C305.973 34 307.951 34.3957 309.797 35.1646C311.642 35.9335 313.319 37.0604 314.731 38.4811C316.144 39.9017 317.264 41.5882 318.028 43.4443C318.792 45.3003 319.185 47.2895 319.184 49.2983Z" fill="black"/>
<path d="M319.179 91.0792C319.179 91.9791 320.989 92.8944 320.989 92.8944V94.0052H319.179V91.0792Z" fill="black"/>
<path d="M104.057 34V94H88.8433V49.2983C88.8433 45.2409 90.4462 41.3497 93.2994 38.4808C96.1526 35.6118 100.022 34 104.057 34Z" fill="black"/>
<path d="M88.8433 91.0792C88.8433 91.9791 87.0381 92.8944 87.0381 92.8944V94.0052H88.8433V91.0792Z" fill="black"/>
<path d="M82.5477 34H67.3335V94H82.5477V34Z" fill="black"/>
<path d="M82.5479 91.0792C82.5479 91.9791 84.3531 92.8944 84.3531 92.8944V94.0052H82.5479V91.0792Z" fill="black"/>
<path d="M67.3336 36.926C67.3336 36.0261 65.5283 35.1107 65.5283 35.1107V34H67.3336V36.926Z" fill="black"/>
<path d="M82.5479 36.926C82.5479 36.0261 84.3531 35.1107 84.3531 35.1107V34H82.5479V36.926Z" fill="black"/>
<path d="M67.3336 91.0792C67.3336 91.9791 65.5283 92.8944 65.5283 92.8944V94.0052H67.3336V91.0792Z" fill="black"/>
<path d="M147.087 34H131.873V94H147.087V34Z" fill="black"/>
<path d="M147.082 91.0792C147.082 91.9791 148.887 92.8944 148.887 92.8944V94.0052H147.082V91.0792Z" fill="black"/>
<path d="M147.082 36.926C147.082 36.0261 148.887 35.1107 148.887 35.1107V34H147.082V36.926Z" fill="black"/>
<path d="M131.873 36.926C131.873 36.0261 130.067 35.1107 130.067 35.1107V34H131.873V36.926Z" fill="black"/>
<path d="M131.873 91.0792C131.873 91.9791 130.067 92.8944 130.067 92.8944V94.0052H131.873V91.0792Z" fill="black"/>
<path d="M168.596 34V94H153.387V49.2983C153.387 45.2418 154.989 41.3514 157.842 38.4826C160.694 35.6137 164.562 34.0014 168.596 34Z" fill="black"/>
<path d="M153.387 91.0792C153.387 91.9791 151.582 92.8944 151.582 92.8944V94.0052H153.387V91.0792Z" fill="black"/>
<path d="M276.16 34V94H260.945V49.2983C260.945 47.2893 261.339 45.2999 262.103 43.4439C262.868 41.5878 263.989 39.9013 265.401 38.4808C266.814 37.0602 268.491 35.9333 270.337 35.1645C272.183 34.3957 274.162 34 276.16 34Z" fill="black"/>
<path d="M260.951 91.0792C260.951 91.9791 259.146 92.8944 259.146 92.8944V94.0052H260.951V91.0792Z" fill="black"/>
</svg>
