<svg width="225" height="128" viewBox="0 0 225 128" fill="none" xmlns="http://www.w3.org/2000/svg">
<g clip-path="url(#clip0_73_1971)">
<path d="M24.7611 103.968C18.0727 103.702 12.6006 101.872 8.32187 98.473C7.5053 97.8236 5.55948 95.8766 4.90668 95.0555C3.1716 92.8737 1.99197 90.7504 1.20517 88.3946C-1.21593 81.1427 0.0301203 71.6267 4.76925 61.183C8.82694 52.2419 15.0881 43.374 26.0117 31.0922C27.6208 29.2849 32.4126 23.9995 32.4436 23.9995C32.455 23.9995 32.1939 24.4519 31.8652 25.0028C29.0249 29.7602 26.5947 35.364 25.2707 40.2154C23.144 47.9998 23.4005 54.6801 26.022 59.8602C27.8304 63.4288 30.9306 66.5199 34.4168 68.2287C40.52 71.219 49.4554 71.4664 60.3675 68.9525C61.1188 68.7784 98.347 58.8959 143.097 46.9908C187.847 35.0846 224.467 25.3509 224.473 25.3589C224.486 25.3693 120.506 69.863 66.5279 92.9459C57.9796 96.6004 55.6937 97.5235 51.6749 98.9345C41.4018 102.542 32.1996 104.263 24.7611 103.968Z" fill="black"/>
</g>
<defs>
<clipPath id="clip0_73_1971">
<rect width="224.473" height="128" fill="white"/>
</clipPath>
</defs>
</svg>
