<svg width="356" height="129" viewBox="0 0 356 129" fill="none" xmlns="http://www.w3.org/2000/svg">
<path d="M54.2966 30.8621C68.5908 30.8621 90.6971 27.6848 90.6971 47.6653C90.6971 59.1679 82.6404 63.1549 76.143 64.3616C77.8247 69.5706 83.787 78.9957 92.5163 76.9946V84.4491C72.9173 84.4491 69.2482 66.6835 68.8201 64.8199H61.9406V84.4491H54.2966V30.8621ZM82.6709 47.5737C82.6709 35.4907 69.9514 37.0182 61.9864 37.0182V58.6485C71.5872 58.6485 82.6709 59.8095 82.6709 47.5737Z" fill="black"/>
<path d="M94.0452 67.9973C94.0452 58.4347 101.49 50.4455 112.284 50.4455C114.621 50.3501 116.953 50.7308 119.139 51.5645C121.324 52.3982 123.317 53.6674 124.996 55.295C126.675 56.9226 128.005 58.8745 128.905 61.0319C129.805 63.1894 130.256 65.5072 130.232 67.8445C130.232 76.7044 123.658 85.2282 112.146 85.2282C100.634 85.2282 94.0452 76.7808 94.0452 67.9973ZM101.552 67.8903C101.552 73.6187 105.603 79.1638 112.07 79.1638C117.374 79.1638 122.618 75.1768 122.618 67.8903C122.618 60.6038 117.374 56.5252 112.07 56.5252C105.588 56.5252 101.567 62.2994 101.567 67.8903H101.552Z" fill="black"/>
<path d="M150.091 85.3351C141.285 85.3351 132.418 79.6067 132.418 68.043C132.418 57.0598 141.193 50.8273 150.167 50.8273C154.485 50.7975 158.675 52.2904 162 55.0434L158.254 59.8553C155.989 58.0567 153.197 57.0481 150.305 56.9834C148.877 56.9969 147.466 57.2956 146.156 57.8621C144.845 58.4286 143.662 59.2514 142.674 60.282C141.687 61.3127 140.916 62.5303 140.407 63.8631C139.898 65.196 139.661 66.6172 139.71 68.043C139.712 70.1534 140.309 72.2205 141.434 74.0066C142.56 75.7927 144.166 77.2253 146.07 78.1396C147.973 79.0539 150.097 79.4129 152.195 79.1752C154.294 78.9375 156.283 78.1128 157.933 76.796L161.725 81.3787C158.412 83.9859 154.307 85.382 150.091 85.3351Z" fill="black"/>
<path d="M178.129 68.761L173.863 72.2285V84.4491H166.525V23.3464H173.863V64.5907L190.68 51.0412L195.266 54.9823L183.189 64.6671L196.841 84.5254H188.234L178.129 68.761Z" fill="black"/>
<path d="M240.274 69.4637H218.336L212.221 84.4491H204.577L229.618 25.0879H230.107L255.027 84.4491H246.19L240.274 69.4637ZM237.66 62.8493L229.542 42.0286L221.103 62.8493H237.66Z" fill="black"/>
<path d="M300.432 44.1978C299.276 44.2015 298.162 43.7693 297.312 42.9876C296.461 42.206 295.938 41.1325 295.845 39.9817C295.928 38.8489 296.442 37.7909 297.282 37.0249C298.121 36.2589 299.222 35.8429 300.359 35.8625C301.495 35.882 302.581 36.3356 303.394 37.13C304.206 37.9244 304.683 38.9994 304.727 40.1344C304.638 41.2213 304.15 42.2369 303.357 42.9866C302.564 43.7364 301.523 44.1676 300.432 44.1978ZM303.856 51.8356V84.4491H296.518V51.805L303.856 51.8356Z" fill="black"/>
<path d="M317.401 22.9646V84.0672H310.063V22.9646H317.401Z" fill="black"/>
<path d="M339.095 78.5374C342.024 78.475 344.858 77.4796 347.182 75.6961L350.576 81.1342C347.053 83.5191 342.906 84.8154 338.651 84.8615C329.356 84.8615 321.131 78.4152 321.131 67.4931C321.131 56.8765 330.304 49.9872 339.37 49.9872C346.479 49.9872 353.481 54.2338 355.85 64.2699L329.968 73.3284C330.896 74.9223 332.228 76.2432 333.831 77.1578C335.433 78.0724 337.249 78.5483 339.095 78.5374ZM338.651 55.853C337.122 55.853 326.987 57.3806 328.439 68.9137L347.457 61.9022C346.765 60.1284 345.555 58.6034 343.985 57.5247C342.415 56.4461 340.557 55.8637 338.651 55.853Z" fill="black"/>
<path d="M290.54 109.043C290.535 104.46 288.865 100.034 285.839 96.5891C282.813 93.1443 278.638 90.9147 274.091 90.3149C278.784 81.6078 275.62 86.2058 281.475 82.9368C284.146 81.43 286.358 79.228 287.876 76.5651C289.394 73.9022 290.162 70.8779 290.097 67.8139C290.1 65.2856 289.58 62.784 288.568 60.4663L292.956 52.3549L286.841 49.0707L283.951 54.4324C280.604 51.7999 276.455 50.3928 272.195 50.4455C261.035 50.4455 254.018 58.7249 254.018 67.9819C253.937 72.187 255.437 76.2695 258.223 79.4229C261.008 82.5764 264.875 84.5715 269.061 85.0143L265.805 91.1246C261.97 92.2371 258.608 94.5792 256.238 97.7898C253.867 101 252.62 104.901 252.688 108.89C252.688 118.468 259.521 128.076 271.599 128.076C274.094 128.072 276.564 127.577 278.867 126.617C281.171 125.658 283.262 124.254 285.022 122.486C286.781 120.718 288.174 118.621 289.121 116.314C290.068 114.007 290.551 111.536 290.54 109.043ZM261.601 67.7986C261.601 62.1466 265.071 56.5099 272.012 56.5099C278.952 56.5099 282.56 62.1925 282.56 67.8597C282.56 73.527 279.029 79.1026 272.012 79.1026C264.994 79.1026 261.601 73.4812 261.601 67.8292V67.7986ZM283.6 109.043C283.603 111.418 282.901 113.741 281.582 115.718C280.264 117.694 278.388 119.235 276.193 120.147C273.997 121.058 271.581 121.298 269.249 120.836C266.917 120.374 264.774 119.232 263.092 117.554C261.41 115.875 260.264 113.736 259.799 111.406C259.334 109.077 259.571 106.662 260.48 104.467C261.389 102.272 262.93 100.396 264.906 99.0761C266.882 97.7561 269.206 97.0515 271.584 97.0515C273.163 97.0475 274.728 97.3552 276.189 97.957C277.65 98.5588 278.977 99.4428 280.095 100.558C281.213 101.674 282.099 102.999 282.703 104.458C283.307 105.916 283.617 107.48 283.615 109.058L283.6 109.043Z" fill="black"/>
<path d="M38.5654 53.3479C38.5654 45.4809 35.2785 43.1896 23.9043 43.1896H9.25854V72.473H20.6633V63.5673C25.0204 64.0408 25.0051 66.8363 25.0051 72.473H38.6113C38.6113 70.6399 39.0852 65.0643 33.2452 62.4827C37.3577 61.0774 38.5654 58.1597 38.5654 53.3479ZM20.6633 61.0926V45.7253C22.5 45.9847 24.1796 46.9026 25.389 48.3078C26.5985 49.7131 27.2554 51.5098 27.2371 53.3632C27.1912 59.2443 25.6166 60.8635 20.6633 61.0926ZM18.2325 45.5879V61.1232H11.6587V45.5879H18.2325ZM11.6587 70.0289V63.5215H18.2325V70.0747L11.6587 70.0289ZM36.1194 70.0289H27.3441C27.5296 67.7177 26.9494 65.4097 25.693 63.4604C33.9332 63.6131 35.7983 66.8821 36.1041 70.0747L36.1194 70.0289ZM27.497 60.9704C28.9493 59.4429 29.6067 57.014 29.6067 53.3326C29.651 51.8491 29.3446 50.3761 28.7124 49.0332C28.0802 47.6902 27.1401 46.515 25.9682 45.6031C35.1409 45.8781 36.1805 48.1847 36.1805 53.3326C36.1652 58.2055 35.2938 60.5274 27.4817 61.0163L27.497 60.9704Z" fill="black"/>
<path d="M6.90422 75.4059L2.5166 84.5713H43.3811L39.2075 75.4059H6.90422ZM6.32328 82.1577L8.43301 77.7889H37.6787L39.6509 82.1577H6.32328Z" fill="black"/>
<path d="M5.58936 30.4802L9.02913 40.3941H36.8531L40.2929 30.4802H5.58936ZM35.1561 38.0111H10.6955L8.95269 32.8785H36.9295L35.1561 38.0111Z" fill="black"/>
<path d="M5.37543 27.9139H40.5376L41.5924 27.1654L45.1239 19.6956L44.0079 18H38.7489L37.7552 18.5346L36.1041 21.0551L34.4224 18.5346L33.4746 18H12.4079L11.4906 18.5346L9.77834 21.0551L8.14254 18.5346L7.14882 18H1.8745L0.789062 19.6956L4.28999 27.1654L5.37543 27.9139ZM6.50673 20.3983L8.78463 23.8047H10.7721L13.0194 20.3983H32.8936L35.1104 23.8047H37.1131L39.391 20.3983H42.0664L39.7426 25.5309H6.13982L3.75491 20.3983H6.50673Z" fill="black"/>
</svg>
