<svg width="184" height="128" viewBox="0 0 184 128" fill="none" xmlns="http://www.w3.org/2000/svg">
<g clip-path="url(#clip0_72_1957)">
<path fill-rule="evenodd" clip-rule="evenodd" d="M76.6308 14.2743C82.5148 8.14906 90.7041 4.35597 99.7512 4.35597C111.814 4.35597 122.268 11.0575 127.898 21.0429C132.895 18.8091 138.307 17.6558 143.781 17.6586C165.494 17.6586 183.119 35.4177 183.119 57.3319C183.119 79.246 165.494 97.0052 143.781 97.0052C141.127 97.0052 138.54 96.7385 136.007 96.2345C131.081 105.014 121.665 110.978 110.943 110.978C106.577 110.987 102.268 109.996 98.3439 108.083C93.3512 119.811 81.724 128.054 68.1868 128.054C54.0465 128.054 42.0507 119.14 37.4266 106.609C35.3685 107.043 33.2707 107.261 31.1673 107.26C14.3464 107.26 0.742188 93.4547 0.742188 76.4997C0.742188 65.107 6.86742 55.1887 15.9548 49.8275C14.0269 45.3863 13.0345 40.5957 13.0396 35.7542C13.0396 16.1856 28.9223 0.369873 48.4909 0.369873C59.9506 0.369873 70.204 5.83165 76.6375 14.3091M27.3072 66.5465C27.1926 66.8454 27.3481 66.9077 27.3849 66.9607C27.7274 67.2086 28.0752 67.3882 28.4237 67.5899C30.2867 68.5751 32.0425 68.8632 33.8788 68.8632C37.6182 68.8632 39.9437 66.8729 39.9437 63.6695V63.6065C39.9437 60.6444 37.3167 59.5655 34.8639 58.7948L34.5429 58.6909C32.6865 58.0891 31.0849 57.5651 31.0849 56.3454V56.2831C31.0849 55.2376 32.0231 54.4669 33.4706 54.4669C35.079 54.4669 36.9957 55.0024 38.222 55.6799C38.222 55.6799 38.5853 55.9145 38.7173 55.564C38.789 55.3743 39.4143 53.7009 39.4813 53.5133C39.5523 53.3169 39.4277 53.1688 39.2997 53.0924C37.8923 52.2346 35.9489 51.6516 33.9384 51.6516L33.5651 51.6529C30.1406 51.6529 27.7482 53.7237 27.7482 56.6858V56.7495C27.7482 59.8724 30.3886 60.8911 32.8548 61.5947L33.2515 61.718C35.0475 62.2702 36.6023 62.7501 36.6023 64.01V64.073C36.6023 65.2323 35.5903 66.0968 33.9686 66.0968C33.3379 66.0968 31.3281 66.0861 29.1501 64.7096C28.8868 64.5561 28.7366 64.4456 28.5336 64.3216C28.4264 64.2566 28.1583 64.1393 28.0417 64.4905L27.3045 66.5411M82.0563 66.5411C81.9417 66.84 82.0972 66.9024 82.1354 66.9553C82.4765 67.2033 82.8257 67.3829 83.1742 67.5846C85.0372 68.5697 86.793 68.8579 88.6292 68.8579C92.3687 68.8579 94.6942 66.8675 94.6942 63.6642V63.6012C94.6942 60.6391 92.0738 59.5601 89.6144 58.7894L89.2934 58.6856C87.437 58.0838 85.8354 57.5597 85.8354 56.34V56.2777C85.8354 55.2322 86.7736 54.4616 88.2211 54.4616C89.8295 54.4616 91.7394 54.997 92.9725 55.6746C92.9725 55.6746 93.3358 55.9091 93.4684 55.5586C93.5395 55.369 94.1654 53.6956 94.2257 53.5079C94.2974 53.3116 94.1721 53.1635 94.0448 53.0871C92.6375 52.2293 90.694 51.6462 88.6835 51.6462L88.3096 51.6476C84.8851 51.6476 82.4926 53.7184 82.4926 56.6805V56.7441C82.4926 59.8671 85.133 60.8857 87.5992 61.5894L87.9953 61.7127C89.798 62.2649 91.3461 62.7447 91.3461 64.0046V64.0676C91.3461 65.227 90.3341 66.0915 88.7123 66.0915C88.0804 66.0915 86.0652 66.0807 83.8939 64.7042C83.6305 64.5508 83.4764 64.4449 83.2767 64.3162C83.209 64.2733 82.8934 64.15 82.7855 64.4851L82.0483 66.5358M119.443 60.2631C119.443 62.0725 119.105 63.5 118.445 64.5119C117.785 65.5104 116.789 65.9997 115.402 65.9997C114.015 65.9997 113.023 65.5145 112.373 64.5186C111.718 63.5134 111.388 62.0792 111.388 60.2698C111.388 58.4604 111.72 57.0397 112.373 56.0411C113.022 55.0493 114.008 54.5735 115.402 54.5735C116.796 54.5735 117.788 55.054 118.445 56.0411C119.109 57.0397 119.443 58.4604 119.443 60.2698M122.566 56.9123C122.258 55.8736 121.782 54.9622 121.145 54.1982C120.508 53.4342 119.704 52.8177 118.746 52.3754C117.794 51.9297 116.669 51.7052 115.395 51.7052C114.122 51.7052 113.003 51.931 112.045 52.3754C111.093 52.8204 110.282 53.4342 109.645 54.1982C109.01 54.9622 108.533 55.8736 108.225 56.9123C107.92 57.9444 107.765 59.0702 107.765 60.2698C107.765 61.4694 107.92 62.5953 108.225 63.6273C108.531 64.666 109.009 65.5775 109.645 66.3414C110.283 67.1054 111.093 67.7153 112.045 68.1509C113.003 68.5851 114.129 68.8063 115.395 68.8063C116.662 68.8063 117.788 68.5851 118.739 68.1509C119.691 67.7166 120.502 67.1054 121.139 66.3414C121.775 65.5775 122.251 64.666 122.559 63.6273C122.864 62.5953 123.018 61.4694 123.018 60.2698C123.018 59.0769 122.864 57.9444 122.559 56.9123M148.226 65.4903C148.124 65.1868 147.828 65.3014 147.828 65.3014C147.374 65.4749 146.889 65.6358 146.373 65.7162C145.853 65.7979 145.274 65.8388 144.664 65.8388C143.157 65.8388 141.95 65.3891 141.092 64.4985C140.228 63.6072 139.745 62.1731 139.752 60.2296C139.757 58.4604 140.184 57.1335 140.952 56.1148C141.709 55.1096 142.875 54.5869 144.416 54.5869C145.703 54.5869 146.688 54.7363 147.72 55.0593C147.72 55.0593 147.965 55.1659 148.082 54.8436C148.356 54.0863 148.559 53.5434 148.853 52.7125C148.936 52.4745 148.732 52.374 148.658 52.3452C148.253 52.1871 147.297 51.9277 146.574 51.8185C145.897 51.7153 145.113 51.6616 144.228 51.6616C142.915 51.6616 141.749 51.8862 140.75 52.3311C139.751 52.7754 138.907 53.39 138.237 54.154C137.567 54.9179 137.057 55.8294 136.716 56.8681C136.377 57.9001 136.206 59.0327 136.206 60.2323C136.206 62.8191 136.903 64.9167 138.284 66.4513C139.664 67.9927 141.742 68.7701 144.449 68.7701C146.051 68.7701 147.693 68.4464 148.872 67.9793C148.872 67.9793 149.098 67.8707 149 67.608L148.229 65.4903M153.691 58.5207C153.84 57.5155 154.116 56.6778 154.549 56.0277C155.197 55.0359 156.184 54.4931 157.571 54.4931C158.958 54.4931 159.876 55.0386 160.533 56.0277C160.969 56.6811 161.159 57.549 161.23 58.5207L153.657 58.5194L153.691 58.5207ZM164.212 56.3092C163.946 55.3107 163.287 54.2987 162.859 53.8363C162.175 53.1058 161.512 52.5898 160.848 52.3083C159.89 51.9011 158.86 51.692 157.819 51.6938C156.499 51.6938 155.299 51.917 154.327 52.3707C153.356 52.8277 152.538 53.4496 151.895 54.227C151.252 55.0044 150.769 55.9225 150.461 56.9747C150.152 58.0134 149.997 59.1527 149.997 60.3455C149.997 61.5652 150.158 62.6978 150.476 63.7231C150.797 64.7552 151.314 65.6599 152.011 66.4105C152.708 67.1677 153.599 67.7575 154.671 68.173C155.737 68.5851 157.03 68.7989 158.511 68.7942C161.567 68.7842 163.176 68.104 163.832 67.7354C163.95 67.6697 164.06 67.5564 163.922 67.2301L163.232 65.2933C163.126 65.0045 162.834 65.109 162.834 65.109C162.076 65.3918 161.004 65.8998 158.491 65.8931C156.849 65.8904 155.636 65.4059 154.872 64.6466C154.095 63.8692 153.706 62.7367 153.646 61.1283L164.234 61.1363C164.234 61.1363 164.513 61.1336 164.542 60.8616C164.553 60.749 164.905 58.6903 164.226 56.3112L164.212 56.3092ZM69.0499 58.5207C69.1994 57.5155 69.4755 56.6778 69.9077 56.0277C70.5564 55.0359 71.5429 54.4931 72.9301 54.4931C74.3174 54.4931 75.2355 55.0386 75.8922 56.0277C76.3272 56.6811 76.5175 57.549 76.5892 58.5207L69.0164 58.5194L69.0499 58.5207ZM79.5714 56.3092C79.306 55.3107 78.6466 54.2987 78.2177 53.8363C77.5341 53.1058 76.8707 52.5898 76.2072 52.3083C75.2494 51.9011 74.2189 51.692 73.1781 51.6938C71.8579 51.6938 70.6583 51.917 69.6866 52.3707C68.7149 52.8277 67.8973 53.4496 67.2539 54.227C66.6126 55.0044 66.1281 55.9225 65.8198 56.9747C65.5122 58.0134 65.3574 59.1527 65.3574 60.3455C65.3574 61.5652 65.5175 62.6978 65.8372 63.7231C66.1575 64.7552 66.6749 65.6599 67.3652 66.4105C68.0621 67.1677 68.9534 67.7575 70.0257 68.173C71.0912 68.5851 72.3779 68.7989 73.8657 68.7942C76.9216 68.7842 78.53 68.104 79.1867 67.7354C79.3033 67.6697 79.4146 67.5564 79.2759 67.2301L78.5856 65.2933C78.479 65.0045 78.1869 65.109 78.1869 65.109C77.4296 65.3918 76.3573 65.8998 73.8442 65.8931C72.2091 65.8904 70.9894 65.4059 70.2254 64.6466C69.448 63.8692 69.0593 62.7367 68.999 61.1283L79.5875 61.1363C79.5875 61.1363 79.8663 61.1336 79.8951 60.8616C79.9065 60.749 80.2576 58.6903 79.5788 56.3112L79.5714 56.3092ZM46.1976 65.4233C45.7828 65.0923 45.7251 65.0112 45.5877 64.7961C45.378 64.4724 45.2708 64.012 45.2708 63.4222C45.2708 62.4974 45.579 61.8273 46.2157 61.3783C46.209 61.3796 47.1271 60.5875 49.285 60.6143C50.2455 60.6315 51.2037 60.7132 52.1533 60.8589V65.6639H52.1546C52.1546 65.6639 50.8143 65.9528 49.2997 66.0439C47.1485 66.1732 46.1969 65.4247 46.2036 65.4267L46.1976 65.4233ZM50.4062 57.9846C49.9773 57.9531 49.421 57.9377 48.7576 57.9377C47.8529 57.9377 46.975 58.0503 46.1574 58.2714C45.3331 58.4939 44.5892 58.8384 43.9526 59.2967C43.3142 59.7522 42.7891 60.3484 42.4179 61.0392C42.0433 61.7361 41.8523 62.5537 41.8523 63.4785C41.8523 64.4167 42.0151 65.2276 42.3368 65.8911C42.652 66.5492 43.1265 67.1181 43.7173 67.5464C44.3051 67.9739 45.0308 68.2903 45.8685 68.4779C46.6995 68.6676 47.6377 68.7634 48.6698 68.7634C49.7554 68.7634 50.8344 68.6722 51.8798 68.496C52.7703 68.3424 53.6573 68.1699 54.5404 67.9786C54.8929 67.8975 55.2842 67.791 55.2842 67.791C55.5456 67.7246 55.5255 67.4452 55.5255 67.4452L55.5195 57.7949C55.5195 55.6772 54.9539 54.1024 53.8374 53.1306C52.7249 52.1589 51.0964 51.6697 48.9854 51.6697C48.1946 51.6697 46.9146 51.7769 46.1507 51.9304C46.1507 51.9304 43.8453 52.378 42.8937 53.1233C42.8937 53.1233 42.6846 53.2519 42.7985 53.5435L43.5491 55.5539C43.6423 55.8146 43.8963 55.7255 43.8963 55.7255C43.8963 55.7255 43.976 55.694 44.0698 55.6384C46.1004 54.5326 48.6738 54.5661 48.6738 54.5661C49.8131 54.5661 50.6977 54.7973 51.2874 55.2497C51.8644 55.6926 52.1586 56.3621 52.1586 57.7695V58.2165C51.2539 58.0851 50.4162 58.0094 50.4162 58.0094L50.4062 57.9846ZM135.516 52.5362C135.531 52.5009 135.539 52.4628 135.54 52.4243C135.54 52.3858 135.532 52.3477 135.517 52.3122C135.503 52.2767 135.481 52.2445 135.453 52.2176C135.426 52.1907 135.393 52.1696 135.357 52.1556C135.177 52.0872 134.278 51.8975 133.588 51.8547C132.261 51.7716 131.524 51.9954 130.861 52.2929C130.205 52.5885 129.48 53.0636 129.078 53.6131L129.077 52.3264C129.077 52.1495 128.951 52.0068 128.773 52.0068H126.066C125.89 52.0068 125.763 52.1495 125.763 52.3264V68.0751C125.763 68.1602 125.797 68.2418 125.857 68.3019C125.917 68.3621 125.999 68.396 126.084 68.3961H128.858C128.943 68.396 129.025 68.3621 129.085 68.3019C129.145 68.2417 129.178 68.1602 129.178 68.0751V60.1673C129.178 59.1084 129.295 58.0563 129.528 57.3928C129.757 56.7367 130.068 56.2134 130.452 55.8381C130.819 55.4756 131.267 55.2067 131.759 55.054C132.221 54.9214 132.699 54.8542 133.18 54.8543C133.733 54.8543 134.339 54.9964 134.339 54.9964C134.543 55.0191 134.656 54.8945 134.725 54.7109C134.907 54.2277 135.422 52.7808 135.523 52.4926M109.603 45.2677C109.26 45.164 108.911 45.0812 108.558 45.0197C108.084 44.9405 107.603 44.9033 107.122 44.9085C105.21 44.9085 103.702 45.4486 102.644 46.5155C101.593 47.5744 100.878 49.1874 100.52 51.3098L100.39 52.0262H97.9907C97.9907 52.0262 97.6978 52.0142 97.6362 52.3338L97.2421 54.5319C97.2146 54.7424 97.3051 54.8737 97.5866 54.8724H99.9227L97.5524 68.1033C97.3667 69.1688 97.1543 70.0454 96.9191 70.7095C96.6872 71.3649 96.4607 71.8562 96.1819 72.2127C95.9118 72.5578 95.6558 72.8118 95.2142 72.9599C94.8496 73.0826 94.4301 73.1388 93.9704 73.1388C93.7144 73.1388 93.374 73.096 93.1226 73.0457C92.8713 72.9961 92.7407 72.9398 92.5523 72.8607C92.5523 72.8607 92.2783 72.7562 92.1704 73.0309C92.0826 73.2554 91.46 74.9677 91.3863 75.1795C91.3112 75.3886 91.4164 75.5534 91.5491 75.601C91.8601 75.7122 92.0913 75.7833 92.5148 75.8831C93.1032 76.0219 93.5991 76.0306 94.0635 76.0306C95.0366 76.0306 95.9232 75.8939 96.6584 75.6285C97.3982 75.3611 98.0423 74.8953 98.6119 74.2647C99.2278 73.5845 99.6151 72.8721 99.9857 71.9004C100.352 70.9374 100.665 69.7418 100.915 68.3486L103.296 54.8724H106.778C106.778 54.8724 107.072 54.8831 107.133 54.5648L107.527 52.3667C107.554 52.1562 107.465 52.0249 107.182 52.0262H103.802C103.819 51.9498 103.972 50.761 104.361 49.6418C104.526 49.164 104.838 48.7786 105.102 48.5139C105.348 48.2618 105.652 48.0728 105.987 47.9631C106.354 47.8495 106.737 47.7943 107.122 47.7995C107.44 47.7995 107.752 47.8377 107.99 47.8873C108.318 47.957 108.445 47.9939 108.531 48.0193C108.875 48.1246 108.922 48.0227 108.989 47.8558L109.797 45.6363C109.881 45.3977 109.678 45.2972 109.603 45.2677ZM62.3745 68.1314C62.3745 68.3083 62.2485 68.4524 62.0716 68.4524H59.2683C59.0907 68.4524 58.9647 68.3083 58.9647 68.1314V45.5686C58.9647 45.3923 59.0907 45.2496 59.2683 45.2496H62.0716C62.2485 45.2496 62.3745 45.3923 62.3745 45.5686V68.1314Z" fill="#111111"/>
</g>
<defs>
<clipPath id="clip0_72_1957">
<rect width="182.953" height="128" fill="white" transform="translate(0.903076)"/>
</clipPath>
</defs>
</svg>
