<svg width="358" height="128" viewBox="0 0 358 128" fill="none" xmlns="http://www.w3.org/2000/svg">
<path d="M97.5945 68.7798C94.5474 68.362 93.37 67.9477 93.37 67.3906C93.37 66.7692 94.2013 66.1442 96.9023 66.1442C100.228 66.1442 103.76 66.7692 106.326 69.3334L112.837 61.6372C110.204 59.2087 105.077 56.5767 96.1423 56.5767C82.9799 56.5767 77.3673 62.955 77.3673 68.6406C77.3673 74.1868 81.5919 77.7938 91.7073 79.8045C95.5857 80.5652 96.9023 81.1901 96.9023 82.0223C96.9023 82.7865 95.4502 83.0615 93.8552 83.0615C89.7663 83.0615 86.1661 81.2758 83.6721 79.0402L76.6787 87.5006C80.7641 91.1755 86.5836 92.6326 95.0363 92.6326C107.714 92.6326 112.909 86.8078 112.909 80.133C112.905 73.7725 108.195 70.2334 97.5945 68.7798ZM141.535 56.5767C139.581 56.5435 137.651 57.008 135.926 57.9266C133.585 59.2087 130.727 62.3551 130.727 54.8696V43.3986H114.796V91.9398H130.727V73.7725C130.727 70.0262 131.769 68.2942 134.053 68.2942C135.715 68.2942 136.479 69.2655 136.479 72.3833V91.9398H152.414V68.2227C152.414 60.8051 148.396 56.5767 141.535 56.5767ZM155.836 91.9326H171.767V57.2695H155.836V91.9326ZM163.799 41.7308C157.498 41.7308 155.14 43.5164 155.14 48.3841C155.14 53.2518 157.498 55.041 163.799 55.041C170.101 55.041 172.459 53.2554 172.459 48.3841C172.459 43.5129 170.104 41.7379 163.799 41.7379V41.7308ZM201.028 56.5695C199.078 56.5301 197.151 57.0042 195.441 57.9443C193.731 58.8845 192.297 60.2577 191.284 61.9265C191.173 62.1033 191.008 62.24 190.814 62.317C190.62 62.3939 190.406 62.4071 190.204 62.3547C190.002 62.3022 189.822 62.1868 189.689 62.0251C189.557 61.8634 189.479 61.6638 189.468 61.4551L189.254 57.2731H175.26V106.496H191.191V86.115C192.925 90.0684 196.112 92.6326 200.961 92.6326C209.413 92.6326 214.262 85.9757 214.262 74.3939C214.262 63.0943 209.552 56.5767 201.028 56.5767V56.5695ZM194.606 81.3901C192.251 81.3901 191.209 79.3116 191.209 74.8725V74.3189C191.209 69.5334 192.458 67.7335 194.606 67.7335C196.822 67.7335 198.206 69.1191 198.206 74.5975C198.206 80.0759 196.804 81.3973 194.588 81.3973L194.606 81.3901ZM231.642 78.1331V43.3986H215.689V80.5652C215.689 89.2363 219.086 92.6326 227.674 92.6326C230.793 92.6326 234.532 91.7291 236.266 90.4148L236.959 81.8151C236.148 82.0549 235.306 82.1752 234.461 82.1722C232.317 82.1615 231.624 80.9152 231.624 78.1402L231.642 78.1331ZM274.102 80.558V70.8584C274.102 61.3587 268.493 56.5731 256.09 56.5731C244.801 56.5731 239.049 61.3551 238.357 69.1227L251.513 71.1405C251.652 67.7442 253.243 66.9085 255.184 66.9085C257.193 66.9085 258.303 68.1584 258.303 70.3084C258.302 70.7023 258.168 71.0843 257.921 71.3914C257.675 71.6985 257.331 71.9123 256.947 71.9976L251.441 73.219C241.604 75.3618 237.933 78.6295 237.933 84.3829C237.933 89.6541 241.329 92.6362 248.601 92.6362C254.977 92.6362 258.923 90.2077 260.932 86.8114C262.249 90.6934 266.284 92.6362 271.811 92.6362C273.612 92.6425 275.382 92.1639 276.935 91.2505L278.184 83.1365C277.635 83.3587 277.044 83.454 276.453 83.4151C274.919 83.4115 274.088 82.5079 274.088 80.5652L274.102 80.558ZM258.31 80.558C258.31 82.8472 256.993 83.9579 255.33 83.9579C254.014 83.9579 252.904 83.1936 252.904 81.5294C252.904 79.7973 254.082 78.4795 256.023 77.926L258.31 77.2331V80.558ZM306.996 56.5767C302.514 56.5767 299.092 58.2624 296.816 61.3372C296.678 61.5295 296.484 61.6742 296.261 61.7512C296.038 61.8283 295.796 61.8338 295.569 61.767C295.343 61.7003 295.142 61.5647 294.996 61.3788C294.85 61.193 294.765 60.9663 294.754 60.7301L294.593 57.2695H280.253V91.9398H296.188V73.7725C296.188 70.0262 297.226 68.362 299.513 68.362C301.176 68.362 301.936 69.2655 301.936 72.3833V91.9398H317.878V68.2227C317.878 60.8051 313.853 56.5767 306.996 56.5767ZM357.305 73.494C357.305 63.3693 351.068 56.5767 338.876 56.5767C326.684 56.5767 319.687 63.0943 319.687 74.6046C319.687 86.115 326.466 92.6326 339.707 92.6326C348.16 92.6326 355.086 89.372 356.68 82.5079L343.864 79.0402C343.379 80.9151 342.08 82.0223 339.707 82.0223C337.006 82.0223 335.426 81.2616 334.926 77.6545H356.955C357.21 76.2825 357.333 74.8894 357.323 73.494H357.305ZM334.926 71.7619C335.344 68.2942 336.589 67.1192 338.944 67.1192C341.231 67.1192 342.13 68.712 342.408 71.7619H334.926ZM67.7158 68.1013C65.4784 68.0655 63.2427 68.2461 61.04 68.6406C60.9829 68.6406 60.9579 68.6406 60.9579 68.5977C60.9579 68.2834 64.0728 66.0478 64.0728 57.0588L55.3811 53.9982V41.7379H45.7474L48.7374 34.9274C52.491 33.7382 54.6318 30.0133 54.6318 26.2313C54.6504 24.0522 53.9027 21.9359 52.5195 20.2529C53.7357 19.3641 54.7224 18.1976 55.3976 16.8503C56.0728 15.5031 56.417 14.014 56.4015 12.5068C56.398 7.01053 52.0949 1.5 46.6715 1.5C44.6235 1.5 42.4255 2.28569 40.2241 4.14991C38.7375 3.36868 37.0827 2.96287 35.4036 2.96781C30.5226 2.96781 25.8128 6.33198 25.8128 12.1282C25.8128 12.1818 25.8128 12.2353 25.8128 12.2889C22.5266 13.596 21.1743 16.7852 21.1743 19.8279C21.1546 21.3925 21.5301 22.9367 22.2661 24.3171C20.9317 25.192 20.1003 27.017 20.1003 28.9883C20.098 30.2606 20.4496 31.5085 21.1157 32.5921C21.7818 33.6757 22.7361 34.5524 23.8717 35.1239L26.7761 41.7379H17.1424V53.9982C13.8313 55.1839 11.4122 56.041 8.45069 57.0874C8.45069 66.0621 11.5692 68.3013 11.5692 68.6191C11.5692 68.6477 11.5406 68.662 11.48 68.662C9.27699 68.269 7.0416 68.0873 4.80415 68.1192C3.54107 68.1192 2.06033 68.162 0.329834 68.2692C1.75705 96.2718 2.78465 104.286 29.2631 106.257C31.7607 106.439 34.1798 106.518 36.4312 106.518C38.7647 106.518 40.9091 106.436 42.7431 106.296C70.3561 104.379 70.82 95.6575 72.1973 68.2692C70.4703 68.1442 68.9931 68.1013 67.7336 68.1013H67.7158ZM67.8371 71.6333H68.4294C68.2474 75.1725 68.0726 78.3867 67.7979 81.2759C62.5622 81.2934 57.4465 82.8459 53.0826 85.7413C48.7187 88.6367 45.2978 92.7483 43.2426 97.5682C42.2256 93.6997 40.5996 90.018 38.4258 86.6614C41.7951 82.0064 46.219 78.2172 51.3347 75.6049C56.4504 72.9926 62.112 71.6315 67.8549 71.6333H67.8371ZM45.3157 102.479C46.5483 97.5523 49.3567 93.1646 53.3127 89.9846C57.2686 86.8045 62.1551 85.0066 67.227 84.865C65.8426 95.7825 63.0631 100.782 45.3335 102.479H45.3157ZM37.9155 47.8377V44.2664H43.9277V49.9805L37.9155 47.8377ZM28.553 44.2664H34.5759V47.902L28.5637 49.9055L28.553 44.2664ZM60.4299 59.623C60.123 63.0229 58.5673 66.4978 55.7914 69.9798C48.9469 72.1591 42.8119 76.1365 38.0262 81.4973V76.1403C38.0262 76.1403 38.0262 72.3476 38.0262 51.659L60.4299 59.623ZM52.8656 50.7269H46.4431V44.2985H52.8835L52.8656 50.7269ZM22.6158 28.9991C22.6158 27.5705 23.2795 26.3492 23.9039 26.3349C25.959 28.1205 29.1453 29.0633 33.3413 29.0633C33.6725 29.0633 33.9902 28.9317 34.2244 28.6972C34.4586 28.4628 34.5901 28.1449 34.5901 27.8134C34.5901 27.4819 34.4586 27.1639 34.2244 26.9295C33.9902 26.6951 33.6725 26.5634 33.3413 26.5634C26.9189 26.5634 23.7076 24.2992 23.7076 19.8387C23.7076 17.5209 24.5568 15.8209 26.1303 14.9245C26.1303 14.971 26.2338 16.1459 27.3649 16.1459C27.5285 16.1531 27.6919 16.1276 27.8455 16.071C27.9992 16.0143 28.1401 15.9276 28.26 15.8159C28.3798 15.7043 28.4763 15.5698 28.5438 15.4205C28.6112 15.2711 28.6483 15.1098 28.6529 14.946C28.6529 14.5424 28.3247 13.6639 28.3247 12.1568C28.3247 6.79982 33.4626 5.44272 35.1467 5.44272C35.8354 5.44272 41.8654 5.60343 41.9617 11.2282C41.9566 11.3917 41.9853 11.5544 42.0459 11.7063C42.1066 11.8581 42.1978 11.9959 42.314 12.1108C42.4302 12.2258 42.5688 12.3155 42.7213 12.3744C42.8737 12.4333 43.0366 12.4602 43.1998 12.4532C43.3654 12.4606 43.5307 12.4338 43.6854 12.3744C43.8402 12.3151 43.981 12.2244 44.0992 12.1081C44.2174 11.9919 44.3104 11.8524 44.3723 11.6986C44.4343 11.5447 44.4639 11.3798 44.4593 11.214C44.4858 9.16995 43.7183 7.19552 42.3185 5.707C43.551 4.69187 45.0867 4.1175 46.6822 4.07491C50.7319 4.07491 53.9075 8.26048 53.9075 12.4175C53.9226 13.6381 53.6285 14.8427 53.0526 15.9187C52.4767 16.9947 51.6378 17.9072 50.6142 18.5708C49.2048 17.6459 47.1889 16.8566 44.3344 16.8566C43.2925 16.8618 42.2529 16.955 41.2267 17.1352C40.9357 17.1723 40.669 17.3165 40.4784 17.5396C40.2878 17.7627 40.187 18.0488 40.1955 18.3423C40.1878 18.5065 40.2134 18.6706 40.2705 18.8248C40.3278 18.9789 40.4155 19.1199 40.5284 19.2393C40.6413 19.3586 40.7772 19.454 40.9279 19.5195C41.0785 19.5851 41.2408 19.6195 41.4051 19.6208C42.3664 19.4689 43.3366 19.3807 44.3095 19.3565C49.7793 19.3565 52.1591 22.8136 52.1591 26.2242C52.1591 29.4383 50.0397 32.6132 46.3968 32.8025H24.8494C24.1691 32.429 23.6023 31.8783 23.2091 31.2088C22.8159 30.5392 22.6109 29.7757 22.6158 28.9991ZM19.6329 44.2557H26.0554V50.684H19.6329V44.2557ZM16.7071 69.9405C13.9312 66.4656 12.372 62.9943 12.0687 59.5837L34.4296 51.634C34.4243 51.7232 34.4243 51.8126 34.4296 51.9019C34.4296 52.9732 34.4296 58.0516 34.4617 81.4223C29.6851 76.0598 23.5513 72.087 16.7071 69.9227V69.9405ZM5.26443 84.8686C10.3368 85.008 15.2243 86.8046 19.1811 89.9842C23.138 93.1638 25.9469 97.5519 27.1793 102.479C8.97162 100.725 6.56676 95.3397 5.26443 84.8686ZM36.0923 102.925C34.1084 102.925 32.328 102.864 30.9044 102.775C29.6757 96.7498 26.4194 91.3287 21.6791 87.4166C16.9388 83.5046 11.0013 81.3383 4.85767 81.2794C4.52585 78.0831 4.26181 74.8511 4.07271 71.6369H4.56866C22.3089 71.6369 37.7907 84.34 40.6058 102.829C39.043 102.9 37.5159 102.925 36.0923 102.925Z" fill="black"/>
</svg>
