<svg width="191" height="128" viewBox="0 0 191 128" fill="none" xmlns="http://www.w3.org/2000/svg">
<path d="M37.6562 56.2222H35.7007V63.0666H37.7007C38.7229 63.0222 39.5229 62.1777 39.5229 61.1555V58.1333C39.5229 57.0666 38.6785 56.2222 37.6562 56.2222Z" fill="black"/>
<path d="M54.5894 66.6222H54.6338H57.0338L55.7894 60.5333C55.3894 62.4889 55.0338 64.4 54.5894 66.6222Z" fill="black"/>
<path d="M0.322754 24V104H190.989V24H0.322754ZM24.0116 56.2222H20.8561V74H18.5005V56.2222H15.3005V53.8667H24.0116V56.2222ZM42.1005 74.0444H39.7005V67.4222C39.7005 66.3556 38.8116 65.4667 37.745 65.4222H35.745V74H35.7005H33.3005V53.8667H37.6116C39.9672 53.8667 41.9228 55.7778 41.9228 58.1778V61.2C41.8783 62.3111 41.4339 63.4222 40.6339 64.2222C41.5672 65.0667 42.1005 66.2222 42.1005 67.4667V74.0444ZM58.6783 73.9556L57.5228 68.9778H54.1894L53.0783 73.9556H50.6339L54.7228 53.8222H56.9005L61.1228 73.9556H58.6783ZM74.5894 74H71.4783L67.7894 53.8667H70.2339L73.0783 68.8L75.8339 53.8667H78.2339L74.5894 74ZM94.7228 56.2222H89.345V63.0222H94.0561V65.3778H89.345V71.6H94.7228V73.9556H86.9894V53.8667H94.7228V56.2222ZM110.101 74H103.523V73.6444L103.434 74V53.8667H103.523H105.878H106.012V63.9111L105.878 64.4444V71.6444H110.101V74ZM121.167 74H118.812V53.8667H121.167V74ZM140.189 61.0222H137.834V58.0889C137.834 57.0667 136.812 56.2222 135.656 56.2222C134.234 56.2222 133.034 57.0667 133.034 58.0889V70.0889C133.034 71.1111 134.323 71.8222 135.656 71.8222C136.767 71.8222 137.834 71.0667 137.834 70.0889V65.2889H135.301V62.9333H140.189V70.0444C140.189 72.3556 138.012 74.1333 135.656 74.1333C133.078 74.1778 130.634 72.4 130.634 70.0889V58.0889C130.634 55.7333 132.989 53.8667 135.656 53.8667C138.101 53.8667 140.189 55.7778 140.189 58.0889V61.0222ZM158.234 74H155.834V65.3778H151.923V74H149.523V53.8667H151.923V63.0222H155.834V53.8667H158.234V74ZM176.012 56.2222H172.856V56.3111V74V74.1778H170.456V65.2444L170.501 65.0667V56.2222H167.301V53.8667H176.012V56.2222Z" fill="black"/>
</svg>
