<?xml version="1.0" encoding="utf-8"?>
<!-- Generator: Adobe Illustrator 28.5.0, SVG Export Plug-In . SVG Version: 9.03 Build 54727)  -->
<svg version="1.1" id="Layer_1" xmlns="http://www.w3.org/2000/svg" xmlns:xlink="http://www.w3.org/1999/xlink" x="0px" y="0px"
	 viewBox="0 0 796.916 326.656" style="enable-background:new 0 0 796.916 326.656;" xml:space="preserve">
<path d="M606.78,229.306h29.661v-54.187c0-12.36,7.225-21.107,17.872-21.107c10.267,0,15.591,7.227,15.591,17.495v57.8h29.661
	v-63.503c0-21.488-12.928-36.699-33.844-36.699c-13.308,0-22.626,5.705-29.661,16.162h-0.571v-13.309h-28.71V229.306z
	 M548.598,129.295c-30.993,0-51.716,22.246-51.716,51.527c0,29.092,20.724,51.528,51.716,51.528s51.716-22.436,51.716-51.528
	C600.314,151.54,579.59,129.295,548.598,129.295z M548.408,210.483c-14.072,0-21.485-11.787-21.485-29.661
	c0-18.063,7.413-29.662,21.485-29.662c14.069,0,21.865,11.598,21.865,29.662C570.273,198.696,562.477,210.483,548.408,210.483z
	 M412.46,229.306h83.28v-23.385h-47.153v-0.573l45.062-50.576v-22.814H412.46v23.385h45.633v0.571L412.46,206.87V229.306z
	 M374.429,229.306h29.851v-97.348h-29.851V229.306z M305.219,229.306h29.661v-44.68c0-20.346,12.169-29.283,30.802-26.81h0.571
	v-25.668c-1.522-0.571-3.232-0.761-6.084-0.761c-11.598,0-19.394,5.323-26.05,16.731h-0.571v-16.16h-28.329V229.306z
	 M250.651,210.675c-13.12,0-21.105-8.559-22.627-21.675h70.16c0.19-20.918-5.325-37.65-16.923-48.107
	c-8.174-7.605-19.014-11.789-32.703-11.789c-29.279,0-49.625,22.246-49.625,51.337c0,29.28,19.394,51.716,51.527,51.716
	c12.169,0,21.865-3.232,29.851-8.747c8.557-5.891,14.64-14.45,16.35-23.005h-28.519C265.291,206.87,259.396,210.675,250.651,210.675
	z M249.129,150.399c10.457,0,17.682,7.798,18.823,19.205h-39.738C230.497,158.004,236.77,150.399,249.129,150.399z M374.429,97.35
	h29.851v26.43h-29.851V97.35z M165.966,229.308c0.782,0,1.485-0.48,1.765-1.213l36.908-96.137h-29.943l-23.701,61.736
	l-23.701-61.736H97.35l36.908,96.137c0.28,0.733,0.983,1.213,1.765,1.213H165.966z"/>
</svg>
