<svg xmlns="http://www.w3.org/2000/svg" viewBox="0 0 43.05 50"><defs><style>.cls-1{fill:#261924;}.cls-2,.cls-8{fill:#e74b4c;}.cls-3,.cls-9{fill:#ff616a;}.cls-4,.cls-7{fill:#e73c3e;}.cls-10,.cls-5{fill:#d14345;}.cls-6{fill:#963131;}.cls-10,.cls-7,.cls-8,.cls-9{stroke:#261924;stroke-linejoin:round;stroke-width:0.27px;}</style></defs><title>gem</title><g id="Layer_2" data-name="Layer 2"><g id="Layer_1-2" data-name="Layer 1"><path class="cls-1" d="M24.45,49.22H24.3L11,47.34A1.07,1.07,0,0,1,10.3,47L8.23,44.4,6.38,45.74a1.07,1.07,0,0,1-.95.15l-4-1.25a1.07,1.07,0,0,1-.75-1V40.87a1.07,1.07,0,0,1,.59-1l1-.52L.1,34.68A1.07,1.07,0,0,1,0,34l1.73-8a1.07,1.07,0,0,1,.74-.8l1.84-.55L2.53,15.24a1.07,1.07,0,0,1,.28-.94L13.68,2.93a1.07,1.07,0,0,1,.48-.29L23.43,0a1.07,1.07,0,0,1,1,.24l8.07,7.38a1.07,1.07,0,0,1,.34.92L31.53,19l.1-.08,4.47-3.17a1.07,1.07,0,0,1,1.09-.09l4.53,2.24a1.07,1.07,0,0,1,.59.88L43,28.25a1.07,1.07,0,0,1-.1.55L37.41,40.25l1.3,3.53a1.07,1.07,0,0,1-.25,1.12l-3.85,3.85a1.07,1.07,0,0,1-.76.31l-.21,0-5.2-1a1.07,1.07,0,0,1-.63-.39l-.92-1.18-1.57,2.32A1.07,1.07,0,0,1,24.45,49.22Z"/><polygon class="cls-1" points="3.58 15.04 14.46 3.67 23.72 1.07 31.78 8.45 29.65 25.36 32.25 19.75 36.72 16.57 41.25 18.81 41.98 28.33 36.26 40.19 37.71 44.15 33.86 47.99 28.66 46.95 26.84 44.61 24.45 48.15 11.13 46.28 8.42 42.95 5.75 44.87 1.79 43.63 1.79 40.87 3.75 39.88 1.07 34.23 2.79 26.25 5.55 25.42 3.58 15.04"/><polygon class="cls-2" points="1.92 43.53 1.92 41.05 4.38 41.87 5.51 44.66 1.92 43.53"/><path class="cls-1" d="M2.06,41.24,4.28,42l1,2.47-3.22-1V41.24m-.27-.37v2.76l3.95,1.25L4.48,41.76l-2.69-.9Z"/><polygon class="cls-3" points="2.21 40.84 3.85 40 5.35 40.19 4.46 41.6 2.21 40.84"/><path class="cls-1" d="M3.84,40.15l1.28.15-.72,1.14-1.86-.63,1.29-.66m0-.27-1.92,1,2.65.9,1.05-1.68-1.78-.21Z"/><polygon class="cls-4" points="3.88 39.76 1.37 34.51 4.1 35.81 5.38 39.93 3.88 39.76"/><path class="cls-1" d="M1.65,34.79,4,35.91,5.2,39.77,4,39.63,1.65,34.79m-.57-.57,2.7,5.65,1.78.21L4.21,35.72,1.09,34.23Z"/><polygon class="cls-3" points="2.96 26.34 5.46 25.59 6.28 29.6 3.92 30.87 2.96 26.34"/><path class="cls-1" d="M5.36,25.76l.77,3.77L4,30.67l-.9-4.24,2.24-.68m.2-.34-2.76.83,1,4.83,2.6-1.4-.87-4.25Z"/><path class="cls-5" d="M1.24,34.15,2.8,26.89l.9,4.22c-.17.5-.45,1.43-.49,1.51L4,35.47Z"/><path class="cls-1" d="M2.8,27.52l.75,3.54c-.2.68-.43,1.41-.46,1.49a.27.27,0,0,0,0,.19l.71,2.47L1.39,34.08,2.8,27.52m0-1.28-1.72,8,3.12,1.49-.88-3c.06-.12.5-1.6.5-1.6l-1-4.83Z"/><polygon class="cls-6" points="4.31 35.66 3.46 32.68 3.95 31.17 6.43 29.83 8.65 32 6.93 35.66 4.31 35.66"/><path class="cls-1" d="M6.41,30l2.08,2-1.64,3.5H4.41l-.8-2.81.45-1.46L6.41,30m0-.33-2.61,1.4-.5,1.64.87,3.08H7L8.81,32l-2.36-2.3Z"/><polygon class="cls-6" points="4.67 41.78 5.59 40.25 8.21 41.16 8.21 42.88 5.82 44.66 4.67 41.78"/><path class="cls-1" d="M5.65,40.41l2.43.84v1.56l-2.2,1.64L4.82,41.79l.83-1.38m-.12-.32-1,1.68,1.24,3.11,2.59-1.92V41.06l-2.81-1Z"/><polygon class="cls-5" points="5.68 40.04 4.39 35.93 6.92 35.93 8.23 40.9 5.68 40.04"/><path class="cls-1" d="M6.81,36.06,8,40.69l-2.25-.75L4.57,36.06H6.81M7,35.79H4.21l1.37,4.35,2.85,1L7,35.79Z"/><polygon class="cls-3" points="14.42 3.9 15.15 5.41 13.86 7.54 4.66 14.11 14.42 3.9"/><path class="cls-1" d="M14.38,4.13,15,5.4l-1.22,2-8,5.74,8.64-9m.07-.46L3.58,15,14,7.61,15.3,5.42l-.84-1.75Z"/><polygon class="cls-2" points="15.39 5.29 14.65 3.75 23.61 1.24 24.59 5.97 15.39 5.29"/><path class="cls-1" d="M23.51,1.4l.91,4.42-9-.66-.64-1.32L23.51,1.4m.2-.33-9.26,2.6.84,1.75,9.46.7-1-5Z"/><polygon class="cls-6" points="14.11 7.61 15.37 5.56 24.64 6.24 25.41 12.27 20.63 25.37 13.81 33.84 14.11 7.61"/><path class="cls-1" d="M15.44,5.7l9.08.67.74,5.86L20.52,25.28l-6.57,8.17.3-25.77,1.2-2m-.14-.28L14,7.61l-.31,26.61,7.08-8.81,4.79-13.16-.78-6.14-9.46-.7Z"/><polygon class="cls-4" points="24.87 6.01 23.93 1.45 31.23 8.13 24.87 6.01"/><path class="cls-1" d="M24.15,1.82l6.53,6L25,5.91l-.84-4.09m-.43-.75,1,5,7,2.34L23.72,1.07Z"/><polygon class="cls-5" points="25.64 12.16 24.92 6.31 31.64 8.54 30.52 17.43 25.64 12.16"/><path class="cls-1" d="M25.08,6.5l6.42,2.13-1.07,8.49-4.63-5L25.08,6.5m-.32-.39.78,6.14,5.07,5.47,1.17-9.27-7-2.34Z"/><polygon class="cls-7" points="30.61 17.73 29.65 25.36 27.09 28.42 20.75 25.41 21.82 22.48 25.54 12.25 30.61 17.73"/><polygon class="cls-5" points="8.87 31.81 6.54 29.57 5.69 25.39 3.73 15.1 13.84 7.87 13.54 34.02 8.87 31.81"/><path class="cls-1" d="M13.7,8.13l-.3,25.67L9,31.71,6.7,29.53l-.87-4.17L3.88,15.15l9.83-7M14,7.61,3.58,15l2,10.38.89,4.25,2.36,2.26,4.86,2.29L14,7.61Z"/><path class="cls-8" d="M20.75,25.42"/><polygon class="cls-9" points="9.26 34.45 9.31 34.47 6.94 35.68 8.81 31.93 10.48 32.74 9.26 34.45 9.26 34.49 9.25 34.47 9.26 34.45"/><polygon class="cls-1" points="8.42 41.06 6.94 35.68 9.31 34.47 8.42 41.06"/><polygon class="cls-2" points="9.26 34.45 9.25 34.47 9.1 34.16 9.26 34.45"/><polygon class="cls-1" points="9.1 34.16 9.25 34.47 9.26 34.45 9.1 34.16 9.1 34.16"/><polygon class="cls-2" points="9.26 34.45 9.25 34.47 9.25 34.47 9.26 34.45"/><polygon class="cls-1" points="9.26 34.45 9.25 34.47 9.26 34.45 9.26 34.45"/><polygon class="cls-4" points="27.26 28.43 29.75 25.45 32.37 19.8 36.73 16.73 41.11 18.89 40.52 27.34 31.51 34.28 27.26 28.43"/><path class="cls-1" d="M36.75,16.88,41,19l-.58,8.3-8.86,6.82-4.11-5.66,2.42-2.9,0-.06,2.57-5.55,4.29-3m0-.31-4.47,3.17-2.6,5.62-2.56,3.06,4.39,6,9.17-7.06.6-8.6-4.53-2.24Z"/><polygon class="cls-6" points="40.79 27.34 41.26 20.64 41.82 28.06 40.79 27.34"/><path class="cls-1" d="M41.26,22.47l.41,5.32-.74-.52.33-4.8m0-3.66-.6,8.6,1.33.92-.73-9.52Z"/><polygon class="cls-2" points="35.22 36.98 40.69 27.6 41.81 28.37 36.27 39.85 35.22 36.98"/><path class="cls-1" d="M40.74,27.79l.9.63L36.29,39.51,35.37,37l5.37-9.2m-.08-.38L35.07,37l1.18,3.23L42,28.33l-1.33-.92Z"/><polygon class="cls-6" points="31.61 34.5 40.19 27.92 34.96 36.9 28.96 46.24 31.61 34.5"/><path class="cls-1" d="M39.73,28.45l-4.89,8.37-5.59,8.71,2.47-10.91,8-6.17m.92-1-9.17,7.06L28.66,47l6.41-10,5.58-9.56Z"/><polygon class="cls-8" points="24.45 48.15 25.48 46.62 23.27 47.98 24.45 48.15"/><polygon class="cls-7" points="28.66 46.95 31.48 34.47 24.63 31.93 23.12 33.81 25.41 36.5 27.31 45.45 28.66 46.95"/><polygon class="cls-10" points="20.75 25.42 19.79 28.54 24.63 31.93 31.48 34.47 27.09 28.42 20.75 25.42"/><polygon class="cls-9" points="18.04 28.79 20.75 25.42 19.79 28.54 18.04 28.79"/><polygon class="cls-8" points="23.12 33.81 24.63 31.93 19.79 28.54 18.04 28.79 20.39 30.59 23.12 33.81"/><polygon class="cls-9" points="35.07 36.97 33.86 47.99 28.66 46.95 35.07 36.97"/><polygon class="cls-6" points="35.14 37.55 37.56 44.11 34.04 47.63 35.14 37.55"/><path class="cls-1" d="M35.21,38.13,36,40.28l1.4,3.79-3.19,3.19,1-9.14M35.07,37,33.86,48l3.85-3.85-1.46-4L35.07,37Z"/><path class="cls-1" d="M23.21,50,23,50l-3.38-.72H12.17a1.07,1.07,0,0,1-.81-.37L10,47.26a1.07,1.07,0,0,1-.12-.18L7.5,42.85a1.07,1.07,0,0,1-.13-.61L7.89,36A1.07,1.07,0,0,1,8,35.6l2.55-5.19A1.07,1.07,0,0,1,11,30l2.6-1.46a1.07,1.07,0,0,1,.33-.12l3.69-.69.2,0a1.07,1.07,0,0,1,.65.22l3.12,2.39a1.06,1.06,0,0,1,.16.16l5,5.92a1.07,1.07,0,0,1,.23.47l1.9,9a1.07,1.07,0,0,1-.47,1.12l-4.63,2.93A1.07,1.07,0,0,1,23.21,50Z"/><polygon class="cls-6" points="19.75 47.98 17.14 44.25 15.45 35.87 17.86 28.95 20.84 31.23 25.84 37.12 27.69 45.92 23.19 48.75 19.75 47.98"/><path class="cls-1" d="M17.93,29.17l2.81,2.14,5,5.84,1.84,8.7-4.38,2.76-3.28-.73-2.6-3.66-1.69-8.3,2.34-6.75m-.13-.44L15.32,35.9,17,44.33l2.69,3.78,3.49.78L27.84,46,25.94,37l-5-5.91L17.8,28.73Z"/><polygon class="cls-2" points="10.48 34.25 11.63 30.93 14.17 29.54 17.6 28.91 15.23 35.73 10.48 34.25"/><path class="cls-1" d="M17.4,29.08l-2.25,6.49-4.5-1.4,1.08-3.1,2.47-1.39,3.2-.6m.4-.35-3.69.69-2.6,1.46-1.2,3.46,5,1.56,2.48-7.17Z"/><polygon class="cls-3" points="8.96 36.07 10.3 34.34 11.51 30.89 8.96 36.07"/><polygon class="cls-1" points="11.51 30.89 8.96 36.07 10.3 34.34 11.51 30.89 11.51 30.89"/><polygon class="cls-2" points="12.23 48.06 10.88 46.49 10.62 41.82 16.98 44.49 19.47 48.06 12.23 48.06"/><path class="cls-1" d="M10.77,42l6.09,2.56,2.35,3.34H12.29L11,46.47,10.77,42m-.29-.41.3,5,1.39,1.62h7.55L17,44.37l-6.56-2.75Z"/><polygon class="cls-4" points="10.61 41.51 10.44 34.52 15.2 36 16.85 44.11 10.61 41.51"/><path class="cls-1" d="M10.58,34.71l4.51,1.4,1.58,7.78-5.93-2.47-.16-6.71m-.28-.37.17,7.26L17,44.33,15.32,35.9l-5-1.56Z"/><polygon class="cls-5" points="8.55 42.27 9.09 36.08 10.18 34.71 10.34 41.6 10.61 45.95 8.55 42.27"/><path class="cls-1" d="M10.06,35.09l.16,6.52.23,3.76-1.73-3.1.51-6.1.84-1.08m.25-.75L9,36.07l-.52,6.26,2.34,4.19-.3-4.93-.17-7.26Z"/></g></g></svg>