<svg xmlns="http://www.w3.org/2000/svg" viewBox="0 0 38 38"><defs><style>.cls-1{isolation:isolate;}.cls-2{fill:#e74b4c;mix-blend-mode:multiply;}.cls-3{fill:#f2f2f2;}</style></defs><title>icon-discovery</title><g class="cls-1"><g id="Layer_2" data-name="Layer 2"><g id="Layer_1-2" data-name="Layer 1"><circle class="cls-2" cx="19" cy="19" r="19"/><path class="cls-3" d="M7.22,20.66V16.81H8.71a1.74,1.74,0,0,1,1.73,1.93,1.73,1.73,0,0,1-1.73,1.91Zm1.49-.48c.8,0,1.21-.62,1.21-1.43S9.51,17.3,8.71,17.3h-1v2.87Z"/><path class="cls-3" d="M11.38,16.76a.33.33,0,1,1,0,.66.33.33,0,1,1,0-.66Zm.25,1.29h-.5v2.6h.5Z"/><path class="cls-3" d="M12.38,18.66a.85.85,0,0,1,.9-.66.81.81,0,0,1,.9.74H13.7a.37.37,0,0,0-.41-.3.39.39,0,0,0-.39.23.29.29,0,0,0,0,.21.46.46,0,0,0,.31.2l.38.1a.75.75,0,0,1,.68.76c0,.48-.47.78-1,.78a.91.91,0,0,1-1-.84h.46a.4.4,0,0,0,.21.3.68.68,0,0,0,.41.09c.23,0,.39-.15.4-.34s-.16-.28-.35-.33l-.36-.08C12.6,19.38,12.33,19.14,12.38,18.66Z"/><path class="cls-3" d="M16.14,18a1.35,1.35,0,0,1,1,.42l-.38.32a.87.87,0,0,0-.62-.25.84.84,0,0,0-.87.85.87.87,0,0,0,1.49.62l.39.32a1.36,1.36,0,0,1-1,.42,1.34,1.34,0,0,1-1.38-1.37A1.33,1.33,0,0,1,16.14,18Z"/><path class="cls-3" d="M17.55,19.34a1.36,1.36,0,0,1,2.73,0,1.36,1.36,0,1,1-2.73,0Zm2.22,0a.86.86,0,0,0-1.72,0,.86.86,0,1,0,1.72,0Z"/><path class="cls-3" d="M21.1,18.05l.79,2,.78-2h.54l-1.09,2.6h-.48l-1.08-2.6Z"/><path class="cls-3" d="M26.12,19.55H24a.81.81,0,0,0,.84.71.84.84,0,0,0,.75-.4L26,20a1.35,1.35,0,1,1-1.2-2,1.26,1.26,0,0,1,1.29,1.35C26.13,19.41,26.13,19.49,26.12,19.55Zm-.5-.39a.77.77,0,0,0-.79-.7.79.79,0,0,0-.83.7Z"/><path class="cls-3" d="M27.28,20.66h-.51v-2.6h.51v.59c.13-.46.38-.64.72-.64a1,1,0,0,1,.45.1l-.08.47a.91.91,0,0,0-.38-.09c-.5,0-.71.54-.71,1.23Z"/><path class="cls-3" d="M29.15,21.92l.55-1.34-1-2.53h.54L30,19.94l.78-1.89h.54l-1.62,3.87Z"/></g></g></g></svg>