<svg xmlns="http://www.w3.org/2000/svg" viewBox="0 0 38.03 38"><defs><style>.cls-1{isolation:isolate;}.cls-2{fill:#e74b4c;}.cls-2,.cls-3,.cls-4{mix-blend-mode:multiply;}.cls-3{fill:#6475cc;}.cls-4{fill:#7ac27c;}.cls-5{fill:#f2f2f2;}</style></defs><title>icon-your-brand</title><g class="cls-1"><g id="Layer_2" data-name="Layer 2"><g id="Layer_1-2" data-name="Layer 1"><path class="cls-2" d="M38,5.08v0A37.92,37.92,0,0,1,19,38,38,38,0,0,1,0,5.08a38.11,38.11,0,0,1,38,0Z"/><path class="cls-3" d="M38,5.08v0A37.92,37.92,0,0,1,19,38,38,38,0,0,1,0,5.08a38.11,38.11,0,0,1,38,0Z"/><path class="cls-4" d="M38,5.08v0A37.92,37.92,0,0,1,19,38,38,38,0,0,1,0,5.08a38.11,38.11,0,0,1,38,0Z"/><path class="cls-5" d="M13.34,13.07a1,1,0,0,1,.74,1,1.16,1.16,0,0,1-1.21,1.19H11.18V11.14h1.56a1,1,0,0,1,1.12,1.07A.86.86,0,0,1,13.34,13.07Zm-.6-.22a.56.56,0,0,0,.55-.63.55.55,0,0,0-.61-.57h-.94v1.2Zm-1,.49v1.4h1.1a.66.66,0,0,0,.66-.68.72.72,0,0,0-.68-.73Z"/><path class="cls-5" d="M15.39,15.27h-.54v-2.8h.54v.63c.14-.49.41-.69.78-.69a1,1,0,0,1,.49.11l-.08.51a1,1,0,0,0-.41-.1c-.54,0-.77.58-.77,1.32Z"/><path class="cls-5" d="M19.36,14.84a1.14,1.14,0,0,1-1,.49,1.46,1.46,0,0,1,0-2.92,1.14,1.14,0,0,1,1,.48v-.42h.54v2.8h-.54Zm-.94-1.9a.88.88,0,0,0-.91.92.92.92,0,1,0,.91-.92Z"/><path class="cls-5" d="M21.36,15.27h-.54v-2.8h.54v.42a1,1,0,0,1,.88-.48c.7,0,1.08.46,1.08,1.24v1.62h-.54V13.69c0-.47-.23-.74-.62-.74a.75.75,0,0,0-.79.82Z"/><path class="cls-5" d="M26.41,14.84a1.14,1.14,0,0,1-1,.49,1.46,1.46,0,0,1,0-2.92,1.12,1.12,0,0,1,1,.48V10.95H27v4.32h-.54Zm-.94-1.9a.88.88,0,0,0-.91.92.92.92,0,1,0,.91-.92Z"/><path class="cls-5" d="M14.5,19.21a1.5,1.5,0,0,0-1-.38,1.59,1.59,0,0,0,0,3.17,1.2,1.2,0,0,0,1.32-1.12H13.65V20.4h1.81c0,1.45-.77,2.13-2,2.13a2.12,2.12,0,0,1,0-4.24,2,2,0,0,1,1.4.55Z"/><path class="cls-5" d="M15.93,21.06a1.47,1.47,0,0,1,2.93,0,1.47,1.47,0,1,1-2.93,0Zm2.39,0a.92.92,0,0,0-1.85,0,.92.92,0,1,0,1.85,0Z"/><path class="cls-5" d="M21.81,22a1.14,1.14,0,0,1-1,.49,1.46,1.46,0,0,1,0-2.92,1.14,1.14,0,0,1,1,.48v-.42h.54v2.8h-.54Zm-.94-1.9a.88.88,0,0,0-.91.92.92.92,0,1,0,.91-.92Z"/><path class="cls-5" d="M23.81,18.15v4.32h-.54V18.15Z"/><path class="cls-5" d="M24.61,20.33a.92.92,0,0,1,1-.71.87.87,0,0,1,1,.79H26a.4.4,0,0,0-.44-.32.41.41,0,0,0-.42.25.32.32,0,0,0,0,.22.49.49,0,0,0,.33.22l.41.1a.81.81,0,0,1,.73.82c0,.52-.5.84-1.09.84a1,1,0,0,1-1-.9H25a.43.43,0,0,0,.23.32.75.75,0,0,0,.44.1c.25,0,.42-.16.43-.37s-.17-.31-.37-.35l-.38-.09C24.85,21.1,24.56,20.84,24.61,20.33Z"/></g></g></g></svg>