<svg xmlns="http://www.w3.org/2000/svg" viewBox="0 0 390.13 390.09"><defs><style>.cls-1{fill:none;stroke:#e74b4c;stroke-miterlimit:10;stroke-width:10.13px;}.cls-2{fill:#261924;}.cls-3,.cls-9{fill:#e74b4c;}.cls-10,.cls-4{fill:#ff616a;}.cls-5,.cls-8{fill:#e73c3e;}.cls-11,.cls-6{fill:#d14345;}.cls-7{fill:#963131;}.cls-10,.cls-11,.cls-8,.cls-9{stroke:#261924;stroke-linejoin:round;stroke-width:1.46px;}</style></defs><title>logo</title><g id="Layer_2" data-name="Layer 2"><g id="Layer_2-2" data-name="Layer 2"><path class="cls-1" d="M385.07,195A189.36,189.36,0,0,1,330.9,327.9a193.89,193.89,0,0,1-17.57,15.85,189.23,189.23,0,0,1-102.25,40.59c-5.28.44-10.61.68-16,.68-3.52,0-7-.08-10.45-.28C84.53,379.3,5.07,296.47,5.07,195c0-104.93,85.07-190,190-190S385.07,90.1,385.07,195Z"/><path class="cls-2" d="M211,327.28a5.81,5.81,0,0,1-.81-.06L137.49,317a5.83,5.83,0,0,1-3.71-2.1L122.48,301l-10.09,7.29a5.83,5.83,0,0,1-5.16.83l-21.66-6.82a5.83,5.83,0,0,1-4.08-5.56V281.68a5.83,5.83,0,0,1,3.21-5.21l5.63-2.83L78.12,247.92a5.83,5.83,0,0,1-.43-3.73l9.42-43.55a5.83,5.83,0,0,1,4-4.35l10.05-3-9.79-51.51a5.83,5.83,0,0,1,1.51-5.12l59.37-62.06A5.84,5.84,0,0,1,154.91,73l50.56-14.2A5.83,5.83,0,0,1,211,60.08l44,40.32a5.83,5.83,0,0,1,1.85,5L249.73,162a5.85,5.85,0,0,1,.53-.42l24.43-17.33a5.83,5.83,0,0,1,6-.47L305.35,156a5.83,5.83,0,0,1,3.23,4.78l4,52a5.83,5.83,0,0,1-.56,3l-30.17,62.53,7.1,19.27a5.83,5.83,0,0,1-1.35,6.14l-21,21a5.83,5.83,0,0,1-5.27,1.59l-28.4-5.68a5.83,5.83,0,0,1-3.46-2.14l-5-6.44-8.57,12.66A5.83,5.83,0,0,1,211,327.28Z"/><polygon class="cls-2" points="97.12 140.65 156.49 78.59 207.04 64.38 251.09 104.7 239.43 197.03 253.63 166.36 278.06 149.03 302.77 161.24 306.75 213.22 275.5 277.99 283.45 299.57 262.43 320.59 234.03 314.91 224.09 302.13 211.02 321.44 138.31 311.22 123.54 293.04 108.98 303.55 87.32 296.73 87.32 281.68 98.04 276.28 83.39 245.41 92.81 201.86 107.89 197.32 97.12 140.65"/><polygon class="cls-3" points="88.05 296.2 88.05 282.69 101.47 287.16 107.62 302.39 88.05 296.2"/><path class="cls-2" d="M88.78,283.7l12.14,4,5.44,13.48-17.58-5.56v-12m-1.46-2v15.05l21.55,6.82-6.85-17-14.7-4.9Z"/><polygon class="cls-4" points="89.61 281.54 98.39 277.03 106.75 278.01 101.92 285.7 89.61 281.54"/><path class="cls-2" d="M98.53,277.78l7,.82-3.91,6.23L91.48,281.4l7.05-3.62m-.27-1.5-10.51,5.4,14.49,4.9,5.75-9.16-9.73-1.14Z"/><polygon class="cls-5" points="98.74 275.6 85.04 246.96 99.93 254.08 106.95 276.56 98.74 275.6"/><path class="cls-2" d="M86.59,248.51l12.74,6.09,6.6,21.11-6.7-.78L86.59,248.51m-3.1-3.1,14.76,30.87,9.73,1.14-7.46-23.86-17-8.14Z"/><polygon class="cls-4" points="93.71 202.37 107.36 198.25 111.85 220.15 98.98 227.1 93.71 202.37"/><path class="cls-2" d="M106.81,199.17l4.22,20.6L99.49,226l-4.93-23.13,12.24-3.7m1.11-1.86-15.05,4.54,5.61,26.35,14.2-7.67-4.76-23.22Z"/><path class="cls-6" d="M84.33,245l8.53-39.66,4.86,22.83c-.92,3.09-2.41,8-2.63,8.44a.75.75,0,0,0,0,.52l4.34,15.06Z"/><path class="cls-2" d="M92.85,208.83,97,228.15c-1.11,3.7-2.33,7.69-2.53,8.15a1.46,1.46,0,0,0-.09,1l3.89,13.5L85.16,244.6l7.69-35.77m0-7-9.37,43.55,17,8.14-4.79-16.62c.32-.64,2.73-8.73,2.73-8.73l-5.61-26.35Z"/><polygon class="cls-7" points="101.08 253.25 96.53 237.16 99.13 228.71 112.65 221.43 124.79 233.27 115.4 253.25 101.08 253.25"/><path class="cls-2" d="M112.53,222.33l11.38,11.1-9,19.1H101.63l-4.34-15.35,2.45-8,12.79-6.88m.25-1.79-14.26,7.67-2.76,8.95L100.53,254h15.34l9.8-20.88-12.89-12.57Z"/><polygon class="cls-7" points="103.04 286.64 108.09 278.3 122.38 283.26 122.38 292.67 109.31 302.4 103.04 286.64"/><path class="cls-2" d="M108.41,279.18l13.24,4.6v8.53l-12,8.94-5.78-14.53,4.55-7.53m-.64-1.76-5.54,9.16,6.75,17L123.11,293v-10.3l-15.34-5.33Z"/><polygon class="cls-6" points="108.57 277.16 101.52 254.71 115.31 254.71 122.48 281.83 108.57 277.16"/><path class="cls-2" d="M114.74,255.44l6.69,25.27-12.28-4.12-6.64-21.15h12.23m1.12-1.46H100.53L108,277.74,123.54,283l-7.67-29Z"/><polygon class="cls-4" points="156.28 79.85 160.25 88.1 153.32 99.6 103.01 135.54 156.28 79.85"/><path class="cls-2" d="M156.08,81.11l3.34,6.95-6.65,11L108.9,130.44l47.18-49.32m.4-2.53L97.12,140.65l56.75-40.54,7.22-12-4.6-9.55Z"/><polygon class="cls-3" points="161.56 87.44 157.52 79.05 206.49 65.3 211.82 91.14 161.56 87.44"/><path class="cls-2" d="M205.93,66.21l5,24.13L162,86.75l-3.48-7.23,47.38-13.31M207,64.38l-50.56,14.2,4.6,9.55,51.64,3.8L207,64.38Z"/><polygon class="cls-7" points="154.59 100.31 161.48 88.9 212.08 92.62 216.24 125.37 190.21 196.95 152.94 243.31 154.59 100.31"/><path class="cls-2" d="M161.87,89.66l49.56,3.65,4.07,32-25.93,71.3L153.7,241.21l1.63-140.69,6.55-10.86m-.79-1.52-7.22,12-1.68,145.31,38.67-48.1L217,125.45l-4.26-33.52-51.64-3.8Z"/><polygon class="cls-5" points="213.35 91.38 208.21 66.44 248.07 102.93 213.35 91.38"/><path class="cls-2" d="M209.38,68.5l35.68,32.66L214,90.82l-4.6-22.32M207,64.38l5.68,27.55,38.36,12.76L207,64.38Z"/><polygon class="cls-6" points="217.68 125.13 213.59 92.99 250.29 105.2 244.17 153.69 217.68 125.13"/><path class="cls-2" d="M214.46,94.05l35,11.65-5.85,46.35-25.26-27.25-3.91-30.75m-1.74-2.11L217,125.45l27.71,29.88,6.4-50.63L212.73,91.94Z"/><polygon class="cls-8" points="244.69 155.33 239.43 197.04 225.47 213.72 190.85 197.31 196.69 181.26 216.99 125.45 244.69 155.33"/><polygon class="cls-6" points="126.08 232.28 113.44 220.17 108.63 197.17 97.92 140.97 153.12 101.54 151.47 244.27 126.08 232.28"/><path class="cls-2" d="M152.38,103l-1.62,140.16L126.5,231.68,114.11,219.8,109.35,197,98.73,141.29,152.38,103m1.49-2.86L97.12,140.65l10.79,56.67,4.86,23.22,12.89,12.36,26.52,12.52,1.68-145.31Z"/><path class="cls-9" d="M190.85,197.32"/><polygon class="cls-10" points="128.13 246.62 128.36 246.74 115.45 253.37 125.67 232.9 134.78 237.3 128.13 246.62 128.09 246.88 128.04 246.74 128.13 246.62"/><polygon class="cls-2" points="123.54 282.74 115.44 253.37 128.37 246.74 123.54 282.74"/><polygon class="cls-3" points="128.13 246.62 128.04 246.74 127.26 245.03 128.13 246.62"/><polygon class="cls-2" points="127.26 245.03 128.04 246.74 128.13 246.62 127.26 245.03 127.26 245.03"/><polygon class="cls-3" points="128.13 246.62 128.04 246.74 128.04 246.74 128.13 246.62"/><polygon class="cls-2" points="128.13 246.62 128.04 246.74 128.13 246.62 128.13 246.62"/><path class="cls-5" d="M226.4,213.75,240,197.5a.71.71,0,0,0,.1-.16l14.12-30.5,23.92-17L302,161.68,298.8,207.8l-49.21,37.9Z"/><path class="cls-2" d="M278.19,150.72l23.06,11.4-3.15,45.31-48.36,37.24-22.42-30.89L240.54,198a1.46,1.46,0,0,0,.2-.32l14-30.32,23.4-16.6m-.13-1.69-24.43,17.33L239.43,197l-14,16.69,24,33,50.06-38.56,3.27-46.94L278.06,149Z"/><polygon class="cls-7" points="300.26 207.82 302.8 171.25 305.9 211.75 300.26 207.82"/><path class="cls-2" d="M302.84,181.25l2.22,29-4-2.81,1.82-26.21m-.07-20-3.27,46.94,7.24,5-4-52Z"/><polygon class="cls-3" points="269.84 260.44 299.73 209.23 305.82 213.47 275.59 276.12 269.84 260.44"/><path class="cls-2" d="M300,210.28l4.93,3.43-29.21,60.54-5-13.73L300,210.28m-.46-2.1L269,260.37,275.5,278l31.25-64.76-7.24-5Z"/><polygon class="cls-7" points="250.09 247.16 296.99 211.03 268.41 260.01 235.65 311.03 250.09 247.16"/><path class="cls-2" d="M294.48,213.89l-26.69,45.73-30.52,47.54,13.47-59.58,43.74-33.69m5-5.71-50.06,38.56L234,314.91l35-54.54,30.46-52.19Z"/><polygon class="cls-9" points="211.02 321.44 216.66 313.1 204.6 320.54 211.02 321.44"/><polygon class="cls-8" points="234.03 314.91 249.44 246.74 212.02 232.89 203.81 243.13 216.28 257.82 226.64 306.67 234.03 314.91"/><polygon class="cls-11" points="190.85 197.32 185.6 214.36 212.02 232.89 249.44 246.74 225.47 213.72 190.85 197.32"/><polygon class="cls-10" points="176.04 215.74 190.85 197.32 185.6 214.36 176.04 215.74"/><polygon class="cls-9" points="203.81 243.13 212.02 232.89 185.6 214.36 176.04 215.74 188.87 225.54 203.81 243.13"/><polygon class="cls-10" points="269.04 260.38 262.43 320.59 234.03 314.91 269.04 260.38"/><polygon class="cls-7" points="269.42 263.54 274.82 278.24 282.61 299.39 263.38 318.61 269.42 263.54"/><path class="cls-2" d="M269.81,266.71l4.32,11.78,7.63,20.71-17.43,17.43,5.47-49.92m-.77-6.34-6.6,60.22,21-21-8-21.59L269,260.37Z"/><path class="cls-2" d="M202.84,328.38a5.52,5.52,0,0,1-1.15-.12l-17.47-3.72H145.69a5.53,5.53,0,0,1-4.2-1.93l-7.21-8.42a5.52,5.52,0,0,1-.64-.92l-12.12-21.88a5.53,5.53,0,0,1-.67-3.14l2.69-32.43a5.53,5.53,0,0,1,.55-2L137.29,227a5.53,5.53,0,0,1,2.25-2.38L153,217a5.53,5.53,0,0,1,1.7-.62l19.12-3.57a5.53,5.53,0,0,1,4.38,1l16.16,12.38a5.51,5.51,0,0,1,.85.81l26,30.62a5.52,5.52,0,0,1,1.19,2.43l9.82,46.37a5.53,5.53,0,0,1-2.45,5.82l-24,15.18A5.53,5.53,0,0,1,202.84,328.38Z"/><polygon class="cls-7" points="185.68 320.58 171.23 300.27 161.93 254.61 175.09 216.62 191.28 228.99 218.53 261.06 228.74 309.24 204.15 324.72 185.68 320.58"/><path class="cls-2" d="M175.45,217.81l15.32,11.71,27.08,31.87,10.07,47.5-23.91,15-17.9-4-14.2-20-9.23-45.32,12.77-36.84m-.72-2.38-13.56,39.13,9.37,46,14.7,20.66,19,4.26,25.28-15.91L219.2,260.73l-27.42-32.27-17-13Z"/><polygon class="cls-3" points="134.75 245.57 140.97 227.68 154.82 219.89 173.64 216.38 160.72 253.65 134.75 245.57"/><path class="cls-2" d="M172.54,217.32l-12.28,35.42-24.57-7.64,5.88-16.92,13.51-7.6,17.46-3.26m2.2-1.89-20.17,3.76-14.2,8L133.82,246l27.36,8.51,13.56-39.13Z"/><polygon class="cls-4" points="126.45 255.5 133.82 246.05 140.37 227.18 126.45 255.5"/><polygon class="cls-2" points="140.37 227.18 126.45 255.5 133.82 246.05 140.37 227.18 140.37 227.18"/><polygon class="cls-3" points="144.34 320.93 137.11 312.55 135.56 286.89 170.07 301.38 183.84 320.93 144.34 320.93"/><path class="cls-2" d="M136.36,288l33.24,14,12.84,18.24H144.67l-6.85-7.95L136.36,288m-1.6-2.25,1.63,27.07,7.61,8.83h41.25l-14.7-20.88-35.79-15Z"/><polygon class="cls-5" points="135.48 285.17 134.57 247.04 160.55 255.12 169.56 299.37 135.48 285.17"/><path class="cls-2" d="M135.32,248l24.6,7.65,8.65,42.48-32.38-13.49L135.32,248m-1.51-2,.94,39.61,35.79,14.91-9.37-46L133.82,246Z"/><polygon class="cls-6" points="124.36 289.54 127.16 255.77 133.13 248.1 134.03 285.68 135.47 309.43 124.36 289.54"/><path class="cls-2" d="M132.45,250.16l.85,35.53v.05l1.25,20.54-9.45-16.91L127.87,256l4.59-5.89m1.36-4.12-7.36,9.45-2.84,34.2,12.78,22.87-1.64-26.91L133.81,246Z"/></g></g></svg>