<svg id="Layer_1" data-name="Layer 1" xmlns="http://www.w3.org/2000/svg" viewBox="0 0 600 600"><defs><style>.cls-1{fill:#e82643;}</style></defs><title>svg-compass-icon</title><g id="Logo_Triangle_Centered" data-name="Logo Triangle Centered"><g id="Artwork_1" data-name="Artwork 1"><path class="cls-1" d="M588,298.56,552.5,284.35h-.15c-8.29-3.4-15.09-16-16.87-25A231.94,231.94,0,0,0,513,192.17c-1.92-3.4-4-7.1-5.92-10.5-2.51-4.59-5.18-8.73-7.84-12.88-.44-.44-.74-1.18-1.18-1.62-3.11-4.74-6.66-9.33-10.06-13.76a181.34,181.34,0,0,0-22.94-24.86A215,215,0,0,0,439,107a191.5,191.5,0,0,0-27.23-16.87A245,245,0,0,0,361.63,70.4c-.6-.3-1.34-.44-1.78-.74-.74-.15-1.33-.44-2.07-.59a5,5,0,0,0-1.78-.45A62.46,62.46,0,0,1,325.08,42l-20-33.44c-3.55-4.73-8.43-4.73-12.13,0L273.15,42a61,61,0,0,1-36.7,28.41,12.77,12.77,0,0,0-3.55,1.33c-3.11.89-6.07,1.92-9,3-.89.44-2.07.74-3.1,1.18-3.26,1.19-6.51,2.37-9.92,3.7l-9.62,4.15C129.62,115.38,76.35,181.07,62.59,260.38c-1.77,8.73-8.28,21.16-16.27,24.86-.15.15-.45.15-.59.3L12,298.85C7.7,300.92,7.7,304,12,306.1l35.66,14.21A24.82,24.82,0,0,1,61.71,338.8c3.4,23.23,10.95,46.32,23.08,69.4a145,145,0,0,0,8.14,15.09,246.76,246.76,0,0,0,30,41c3.85,4.15,7.85,8.29,12,12.14s8.14,7.54,12.58,11.24,9.32,7.25,14.35,11c5.77,3.85,11.69,7.84,17.6,11.25,6.22,3.55,12.43,6.8,18.8,9.76s12.87,5.77,19.38,8.29a213,213,0,0,0,27.08,8.43c3,.74,6.21,1.33,9.17,2.07s5.92,1.19,8.88,1.63a23.93,23.93,0,0,1,17.9,14.35l14.8,37.29c2.07,4.44,5.32,4.44,7.4,0L318,554.38a24,24,0,0,1,18.35-14.64c6.06-.89,12.57-2.08,19.82-3.85,58.59-14.65,110.38-51.05,143.08-101.8,20.42-31.66,32.7-63,37.58-94.55a20.68,20.68,0,0,1,2.22-6.8,22.61,22.61,0,0,1,11.69-12L588,306C592.3,303.88,592.3,300.63,588,298.56Zm-73.69,30.92c-.29,2.07-.44,4.29-.88,6.36a139.66,139.66,0,0,1-4.59,22.64A214.51,214.51,0,0,1,355.56,512.07a160.07,160.07,0,0,1-22.49,4.44,31.56,31.56,0,0,1-6.66,1A169,169,0,0,1,299,519.46a160.64,160.64,0,0,1-26.78-1.92,55.2,55.2,0,0,1-7-.89A93.4,93.4,0,0,1,256,515c-4.44-.89-8.73-1.78-13-3A214.93,214.93,0,0,1,89.38,358a138.81,138.81,0,0,1-4.59-22.64A46.33,46.33,0,0,1,83.9,329c-1.48-8.73-1.63-17.61-1.63-26.64,0-8.87.15-17.75,1.63-26.48a46.33,46.33,0,0,1,.89-6.36,138.6,138.6,0,0,1,4.59-22.64A214.93,214.93,0,0,1,243,92.89c1-.3,2.22-.74,3.55-1a64.23,64.23,0,0,0,40.4-29.44L293,51.61c3.7-4.74,8.58-4.74,12.13,0l6.22,10.8a64.25,64.25,0,0,0,33.44,27.37,1.57,1.57,0,0,1,1.18.3,29,29,0,0,0,5,1.63c1.33.44,3,.59,4.29,1.18A214.24,214.24,0,0,1,508.85,246.18a139.56,139.56,0,0,1,4.59,22.34c.44,2.07.59,4.44.88,6.66a187.23,187.23,0,0,1,1.78,27.22A182.53,182.53,0,0,1,514.32,329.48Zm-152.5,9.8c2.43,5.9-.34,9.38-6.59,9.38H242.71c-6.25,0-8.69-3.48-6.6-9.38l57.3-142.73c3.12-6.6,8-6.6,11.11,0Z"/></g></g></svg>