<svg xmlns="http://www.w3.org/2000/svg" viewBox="0 0 390.13 390.09"><defs><style>.cls-1{fill:none;stroke:#e74b4c;stroke-miterlimit:10;stroke-width:10.13px;}.cls-2{fill:#e74b4c;}</style></defs><title>close</title><g id="Layer_2" data-name="Layer 2"><g id="Layer_1-2" data-name="Layer 1"><path class="cls-1" d="M385.07,195A189.36,189.36,0,0,1,330.9,327.9a193.89,193.89,0,0,1-17.57,15.85,189.23,189.23,0,0,1-102.25,40.59c-5.28.44-10.61.68-16,.68-3.52,0-7-.08-10.45-.28C84.53,379.3,5.07,296.47,5.07,195c0-104.93,85.07-190,190-190S385.07,90.1,385.07,195Z"/></g><g id="Layer_3" data-name="Layer 3"><polygon class="cls-2" points="195.07 203.95 126.36 266.58 123.53 263.76 186.17 195.05 123.53 126.34 126.36 123.51 195.07 186.15 263.78 123.51 266.61 126.34 203.97 195.05 266.61 263.76 263.78 266.58 195.07 203.95"/><path class="cls-2" d="M265.13,125,201.26,195l63.87,70.06-70.06-63.87L125,265.11,188.87,195,125,125l70.06,63.87L265.13,125m-2.7-3-67.36,61.41L127.7,122,122,127.68,183.46,195,122,262.41l5.66,5.66,67.36-61.41,67.36,61.41,5.66-5.66L206.68,195l61.41-67.36L262.43,122Z"/></g></g></svg>