<svg xmlns="http://www.w3.org/2000/svg" viewBox="0 0 38 38"><defs><style>.cls-1{isolation:isolate;}.cls-2{fill:#7ac27c;mix-blend-mode:multiply;}.cls-3{fill:#f2f2f2;}</style></defs><title>icon-development</title><g class="cls-1"><g id="Layer_2" data-name="Layer 2"><g id="Layer_1-2" data-name="Layer 1"><circle class="cls-2" cx="19" cy="19" r="19"/><path class="cls-3" d="M2.58,20.66V16.81H4.07A1.74,1.74,0,0,1,5.8,18.74a1.73,1.73,0,0,1-1.73,1.91Zm1.49-.48c.8,0,1.21-.62,1.21-1.43S4.87,17.3,4.07,17.3h-1v2.87Z"/><path class="cls-3" d="M9,19.55H6.86a.81.81,0,0,0,.84.71.84.84,0,0,0,.75-.4l.44.17a1.29,1.29,0,0,1-1.2.69,1.3,1.3,0,0,1-1.33-1.37A1.29,1.29,0,0,1,7.68,18,1.26,1.26,0,0,1,9,19.35C9,19.41,9,19.49,9,19.55Zm-.5-.39a.76.76,0,0,0-.79-.7.79.79,0,0,0-.83.7Z"/><path class="cls-3" d="M9.78,18.05l.79,2,.79-2h.54l-1.09,2.6h-.48l-1.08-2.6Z"/><path class="cls-3" d="M14.8,19.55H12.69a.81.81,0,0,0,.84.71.84.84,0,0,0,.75-.4l.44.17a1.36,1.36,0,1,1-1.2-2,1.26,1.26,0,0,1,1.29,1.35C14.81,19.41,14.81,19.49,14.8,19.55Zm-.5-.39a.76.76,0,0,0-.79-.7.79.79,0,0,0-.83.7Z"/><path class="cls-3" d="M16,16.64v4h-.51v-4Z"/><path class="cls-3" d="M16.64,19.35a1.36,1.36,0,0,1,2.73,0,1.36,1.36,0,1,1-2.73,0Zm2.22,0a.86.86,0,0,0-1.72,0,.86.86,0,1,0,1.72,0Z"/><path class="cls-3" d="M20.55,18.46a1.06,1.06,0,0,1,.91-.46,1.3,1.3,0,0,1,1.3,1.37,1.28,1.28,0,0,1-1.3,1.35,1,1,0,0,1-.91-.45v1.66H20V18.05h.51Zm.86,1.76a.81.81,0,0,0,.84-.85.85.85,0,1,0-1.69,0A.83.83,0,0,0,21.41,20.22Z"/><path class="cls-3" d="M25.74,19.25v1.41h-.51V19.18c0-.43-.22-.69-.56-.69a.69.69,0,0,0-.72.76v1.41h-.51v-2.6h.51v.39a.92.92,0,0,1,.72-.44A1.14,1.14,0,0,1,25,18a.83.83,0,0,1,.68.51,1,1,0,0,1,.9-.54c.65,0,1,.42,1,1.16v1.51H27V19.18c0-.43-.22-.69-.6-.69A.69.69,0,0,0,25.74,19.25Z"/><path class="cls-3" d="M30.8,19.55H28.69a.81.81,0,0,0,.84.71.84.84,0,0,0,.75-.4l.44.17a1.35,1.35,0,1,1-1.2-2,1.26,1.26,0,0,1,1.29,1.35C30.81,19.41,30.81,19.49,30.8,19.55Zm-.5-.39a.77.77,0,0,0-.79-.7.79.79,0,0,0-.83.7Z"/><path class="cls-3" d="M32,20.66h-.51v-2.6H32v.39a.92.92,0,0,1,.81-.45c.65,0,1,.42,1,1.16v1.51h-.51V19.18c0-.43-.22-.69-.57-.69a.69.69,0,0,0-.74.76Z"/><path class="cls-3" d="M35.85,18.05v.43H35.3v2.18h-.51V18.48h-.47v-.43h.47v-1h.51v1Z"/></g></g></g></svg>