<?xml version="1.0" encoding="utf-8"?>
<!-- Generator: Adobe Illustrator 22.0.0, SVG Export Plug-In . SVG Version: 6.00 Build 0)  -->
<svg version="1.1" id="Layer_1" xmlns="http://www.w3.org/2000/svg" xmlns:xlink="http://www.w3.org/1999/xlink" x="0px" y="0px"
	 viewBox="0 0 50 50" style="enable-background:new 0 0 50 50;" xml:space="preserve">
<style type="text/css">
	.st0{fill:#F2F2F2;stroke:#E74B4C;stroke-width:0.75;stroke-miterlimit:10;}
	.st1{fill:none;stroke:#E74B4C;stroke-width:0.75;stroke-miterlimit:10;}
	.st2{fill:#261924;}
	.st3{fill:#E74B4C;}
	.st4{opacity:0.55;fill:#E74B4C;enable-background:new    ;}
	.st5{opacity:0.55;fill:#F2F2F2;enable-background:new    ;}
	.st6{opacity:0.55;fill:#261924;enable-background:new    ;}
	.st7{fill:#261924;stroke:#E74B4C;stroke-width:0.75;stroke-miterlimit:10;}
	.st8{fill:#F2F2F2;}
	.st9{fill:#261924;stroke:#E74B4C;stroke-width:0.66;stroke-miterlimit:10;}
	.st10{fill:#F2F2F2;stroke:#E74B4C;stroke-width:0.66;stroke-miterlimit:10;}
	.st11{fill:#F2F2F2;stroke:#E74B4C;stroke-width:0.72;stroke-linecap:round;stroke-linejoin:round;}
	.st12{fill:none;stroke:#E74B4C;stroke-width:0.66;stroke-miterlimit:10;}
</style>
<title>icon-branding_3</title>
<g>
	<path class="st0" d="M5.9,8.9H22c1.1,0,2,0.9,2,2v30.7c0,1.1-0.9,2-2,2H5.9c-1.1,0-2-0.9-2-2V10.9C3.9,9.8,4.8,8.9,5.9,8.9z"/>
	<line class="st1" x1="3.9" y1="12.6" x2="24" y2="12.6"/>
	<rect x="6.6" y="15.2" class="st2" width="14.1" height="12"/>
	<rect x="8.9" y="23.8" class="st3" width="11.9" height="17"/>
	<rect x="8.9" y="16.5" class="st4" width="7" height="1"/>
	<rect x="8.9" y="18.2" class="st5" width="12" height="0.5"/>
	<rect x="8.9" y="19.4" class="st5" width="9" height="0.5"/>
	<rect x="11.2" y="33.3" class="st5" width="6" height="0.5"/>
	<rect x="11.2" y="34.5" class="st6" width="8" height="0.5"/>
	<rect x="11.2" y="35.6" class="st6" width="6" height="0.5"/>
	<rect x="11.2" y="36.8" class="st6" width="7" height="0.5"/>
	<rect x="11.2" y="37.9" class="st6" width="3" height="0.5"/>
	<circle class="st2" cx="6.6" cy="10.7" r="0.8"/>
	<circle class="st2" cx="8.8" cy="10.7" r="0.8"/>
	<circle class="st2" cx="11.1" cy="10.7" r="0.8"/>
	<rect x="17.8" y="5.3" class="st0" width="28.7" height="41.9"/>
	<rect x="21.8" y="17.2" class="st6" width="21" height="0.5"/>
	<rect x="21.8" y="18.4" class="st6" width="15.7" height="0.5"/>
	<rect x="21.8" y="19.5" class="st6" width="18.4" height="0.5"/>
	<rect x="21.8" y="20.7" class="st6" width="7.9" height="0.5"/>
	<rect x="21.8" y="23" class="st6" width="21" height="0.5"/>
	<rect x="21.8" y="24.2" class="st6" width="15.7" height="0.5"/>
	<rect x="21.8" y="25.3" class="st6" width="18.4" height="0.5"/>
	<rect x="21.8" y="26.5" class="st6" width="7.9" height="0.5"/>
	<rect x="21.8" y="28.8" class="st6" width="21" height="0.5"/>
	<rect x="21.8" y="30" class="st6" width="15.7" height="0.5"/>
	<rect x="21.8" y="31.1" class="st6" width="18.4" height="0.5"/>
	<rect x="21.8" y="32.3" class="st6" width="7.9" height="0.5"/>
	<rect x="21.8" y="34.7" class="st6" width="21" height="0.5"/>
	<rect x="21.8" y="35.8" class="st6" width="15.7" height="0.5"/>
	<rect x="21.8" y="37" class="st6" width="18.4" height="0.5"/>
	<rect x="21.8" y="38.1" class="st6" width="7.9" height="0.5"/>
	<rect x="21.8" y="14.9" class="st4" width="18.4" height="1"/>
	<rect x="15.5" y="41.8" class="st7" width="11.8" height="7.3"/>
	<path class="st8" d="M14,27.6c-0.5,0-0.9,0.1-1.3,0.3c0,0.9,0.5,1.8,1.3,2.3c0.8-0.5,1.3-1.4,1.3-2.3C14.9,27.7,14.5,27.6,14,27.6z
		 M12.4,28c-0.8,0.5-1.2,1.3-1.2,2.3c0.8,0.4,1.7,0.5,2.6,0C13,29.8,12.5,28.9,12.4,28z M14,25.5c-0.8,0.5-1.3,1.3-1.3,2.2
		c0.8-0.4,1.8-0.4,2.6,0C15.3,26.8,14.8,26,14,25.5z M14,25.5c-0.8,0.5-1.3,1.3-1.3,2.2c0.8-0.4,1.8-0.4,2.6,0
		C15.3,26.8,14.8,26,14,25.5z M14,27.6c-0.5,0-0.9,0.1-1.3,0.3c0,0.9,0.5,1.8,1.3,2.3c0.8-0.5,1.3-1.4,1.3-2.3
		C14.9,27.7,14.5,27.6,14,27.6z M12.4,28c-0.8,0.5-1.2,1.3-1.2,2.3c0.8,0.4,1.7,0.5,2.6,0C13,29.8,12.5,28.9,12.4,28z"/>
	<path class="st8" d="M15.5,28c-0.1,0.9-0.6,1.8-1.3,2.3c0.8,0.4,1.8,0.4,2.6,0C16.7,29.3,16.3,28.5,15.5,28z"/>
	<path class="st3" d="M21.4,44.7c-0.5,0-1,0.1-1.4,0.3c0,0.9,0.5,1.8,1.3,2.3c0.8-0.5,1.4-1.4,1.4-2.3
		C22.3,44.8,21.8,44.7,21.4,44.7z M19.8,45.1c-0.8,0.5-1.2,1.3-1.2,2.3c0.8,0.4,1.7,0.5,2.6,0C20.4,46.9,19.9,46.1,19.8,45.1
		L19.8,45.1z M21.4,42.6c-0.8,0.5-1.3,1.3-1.4,2.2c0.8-0.4,1.8-0.4,2.6,0C22.6,43.9,22.1,43.1,21.4,42.6L21.4,42.6z M21.4,42.6
		c-0.8,0.5-1.3,1.3-1.4,2.2c0.8-0.4,1.8-0.4,2.6,0C22.6,43.9,22.1,43.1,21.4,42.6L21.4,42.6z M21.4,44.7c-0.5,0-1,0.1-1.4,0.3
		c0,0.9,0.5,1.8,1.3,2.3c0.8-0.5,1.4-1.4,1.4-2.3C22.3,44.8,21.8,44.7,21.4,44.7L21.4,44.7z M19.8,45.1c-0.8,0.5-1.2,1.3-1.2,2.3
		c0.8,0.4,1.7,0.5,2.6,0C20.4,46.9,19.9,46.1,19.8,45.1L19.8,45.1z"/>
	<path class="st3" d="M22.9,45.2c-0.1,0.9-0.6,1.8-1.3,2.3c0.8,0.4,1.8,0.4,2.6,0C24.1,46.5,23.7,45.7,22.9,45.2z"/>
	<path class="st2" d="M24.5,9c-0.5,0-0.9,0.1-1.3,0.3c0,0.9,0.5,1.8,1.3,2.3c0.8-0.5,1.3-1.4,1.3-2.3C25.5,9.1,25,9,24.5,9z M23,9.4
		c-0.8,0.5-1.2,1.3-1.2,2.3c0.8,0.4,1.7,0.5,2.6,0.1C23.6,11.2,23.1,10.4,23,9.4z M24.5,6.9c-0.8,0.5-1.3,1.3-1.3,2.2
		c0.8-0.4,1.8-0.4,2.6,0C25.8,8.2,25.3,7.4,24.5,6.9z M24.5,6.9c-0.8,0.5-1.3,1.3-1.3,2.2c0.8-0.4,1.8-0.4,2.6,0
		C25.8,8.2,25.3,7.4,24.5,6.9z M24.5,9c-0.5,0-0.9,0.1-1.3,0.3c0,0.9,0.5,1.8,1.3,2.3c0.8-0.5,1.3-1.4,1.3-2.3C25.5,9.1,25,9,24.5,9
		L24.5,9z M23,9.4c-0.8,0.5-1.2,1.3-1.2,2.3c0.8,0.4,1.7,0.5,2.6,0.1C23.6,11.2,23.1,10.4,23,9.4z"/>
	<path class="st2" d="M26.1,9.4c-0.1,0.9-0.6,1.8-1.3,2.3c0.8,0.4,1.8,0.4,2.6-0.1C27.3,10.8,26.8,10,26.1,9.4z"/>
	<path class="st9" d="M47.9,34.2v12.4c0,1.9-11.2,1.8-11.2,0V34.2c0-0.1,0-0.2,0-0.3l3.3-14.3c0.2-0.7,0.3-1.5,0.3-2.3v-6.5
		c0-0.8,0.6-1.4,1.4-1.4l0,0H43c0.8,0,1.4,0.6,1.4,1.4l0,0v6.5c0,0.8,0.1,1.5,0.3,2.3l3.3,14.3C47.9,34,47.9,34.1,47.9,34.2z"/>
	<path class="st10" d="M47.9,34.2v9.5H36.8v-9.5H47.9z"/>
	<path class="st11" d="M41,10.9h2.7V8.4c-0.1-0.5-0.5-0.9-1-0.9H42c-0.5,0-0.9,0.4-1,0.9V10.9z"/>
	<line class="st12" x1="40.3" y1="10.9" x2="44.4" y2="10.9"/>
	<path class="st2" d="M42.3,38.4c-0.5,0-1.1,0.1-1.6,0.4c0,1.1,0.6,2.1,1.6,2.7c1-0.6,1.5-1.6,1.6-2.7
		C43.4,38.5,42.9,38.4,42.3,38.4z M40.5,39c-0.9,0.6-1.4,1.6-1.5,2.6c0.9,0.5,2.1,0.5,3,0.1C41.2,41.1,40.6,40.1,40.5,39z M42.4,36
		c-0.9,0.6-1.5,1.5-1.6,2.6c1-0.5,2.1-0.5,3.1,0C43.8,37.5,43.2,36.6,42.4,36L42.4,36z M42.4,36c-0.9,0.6-1.5,1.5-1.6,2.6
		c1-0.5,2.1-0.5,3.1,0C43.8,37.5,43.2,36.6,42.4,36L42.4,36z M42.4,38.5c-0.5,0-1.1,0.1-1.6,0.4c0,1.1,0.6,2.1,1.6,2.7
		c1-0.6,1.5-1.6,1.6-2.7C43.4,38.6,42.9,38.4,42.4,38.5L42.4,38.5z M40.5,39c-0.9,0.6-1.4,1.6-1.5,2.6c0.9,0.5,2.1,0.5,3,0.1
		C41.2,41.1,40.6,40.1,40.5,39z"/>
	<path class="st2" d="M44.2,39c-0.1,1.1-0.6,2.1-1.6,2.7c0.9,0.5,2.1,0.4,3-0.1C45.6,40.6,45,39.6,44.2,39z"/>
</g>
</svg>
