<svg xmlns="http://www.w3.org/2000/svg" viewBox="0 0 390.13 390.09"><defs><style>.cls-1{fill:none;stroke:#e74b4c;stroke-miterlimit:10;stroke-width:10.13px;}.cls-2{fill:#e74b4c;}</style></defs><title>menu</title><g id="Layer_2" data-name="Layer 2"><g id="Layer_1-2" data-name="Layer 1"><path class="cls-1" d="M385.07,195A189.36,189.36,0,0,1,330.9,327.9a193.89,193.89,0,0,1-17.57,15.85,189.23,189.23,0,0,1-102.25,40.59c-5.28.44-10.61.68-16,.68-3.52,0-7-.08-10.45-.28C84.53,379.3,5.07,296.47,5.07,195c0-104.93,85.07-190,190-190S385.07,90.1,385.07,195Z"/></g><g id="Layer_4" data-name="Layer 4"><polygon class="cls-2" points="190.69 201.43 95.9 197.05 95.9 193.05 190.59 188.67 199.44 188.67 294.24 193.05 294.24 197.05 199.49 201.43 190.69 201.43"/><path class="cls-2" d="M199.45,190.67l94.7,4.38-94.7,4.38h-8.76L96,195l94.7-4.38h8.76m.09-4h-9L95.8,191v8l94.7,4.38h9.13l94.7-4.38v-8l-94.7-4.38Z"/><polygon class="cls-2" points="190.69 267.11 95.9 262.73 95.9 258.73 190.59 254.35 199.44 254.35 294.24 258.73 294.24 262.73 199.49 267.11 190.69 267.11"/><path class="cls-2" d="M199.45,256.35l94.7,4.38-94.7,4.38h-8.76L96,260.73l94.7-4.38h8.76m.09-4h-9l-94.7,4.38v8l94.7,4.38h9.13l94.7-4.38v-8l-94.7-4.38Z"/><polygon class="cls-2" points="190.69 135.75 95.9 131.37 95.9 127.37 190.59 122.99 199.44 122.99 294.24 127.37 294.24 131.37 199.49 135.75 190.69 135.75"/><path class="cls-2" d="M199.45,125l94.7,4.38-94.7,4.38h-8.76L96,129.37l94.7-4.38h8.76m.09-4h-9l-94.7,4.38v8l94.7,4.38h9.13l94.7-4.38v-8L199.63,121Z"/></g></g></svg>