<?xml version="1.0" encoding="utf-8"?>
<!-- Generator: Adobe Illustrator 19.2.1, SVG Export Plug-In . SVG Version: 6.00 Build 0)  -->
<svg version="1.1" id="Layer_1" xmlns="http://www.w3.org/2000/svg" xmlns:xlink="http://www.w3.org/1999/xlink" x="0px" y="0px"
	 viewBox="0 0 600 400" style="enable-background:new 0 0 600 400;" xml:space="preserve">
<style type="text/css">
	.st0{fill:#362409;}
	.st1{fill:#F2F2F2;}
	.st2{fill:#ACD49F;}
	.st3{clip-path:url(#SVGID_2_);fill:#58754E;}
	.st4{clip-path:url(#SVGID_4_);fill:#58754E;}
	.st5{clip-path:url(#SVGID_6_);fill:#58754E;}
</style>
<g>
	<path class="st0" d="M504.7,183h-408c-4.9,0-8.8-3.9-8.8-8.8v-33.1c0-3.8,2.5-7.2,6.2-8.4l204-64.2c1.7-0.5,3.6-0.5,5.3,0l204,64.2
		c3.7,1.2,6.2,4.6,6.2,8.4v33.1C513.5,179.1,509.6,183,504.7,183z M105.5,165.4h390.4v-17.8L300.7,86.2l-195.2,61.4V165.4z"/>
	<g>
		<polygon class="st0" points="504.7,167.9 504.7,329.3 300.7,390.1 96.8,329.3 96.8,167.9 		"/>
		<path class="st0" d="M300.7,398.9c-0.8,0-1.7-0.1-2.5-0.4l-204-60.8c-3.7-1.1-6.3-4.5-6.3-8.4V167.9c0-4.9,3.9-8.8,8.8-8.8h408
			c4.9,0,8.8,3.9,8.8,8.8v161.4c0,3.9-2.6,7.3-6.3,8.4l-204,60.8C302.4,398.8,301.6,398.9,300.7,398.9z M105.5,322.8L300.7,381
			l195.2-58.2V176.7H105.5V322.8z"/>
	</g>
	<g>
		<path class="st1" d="M192.2,286.8c5-5.2,11.9-8.3,19.6-8.3c13.1,0,23.2,8.1,26.3,20.9H230c-2.9-8.6-9.9-12.8-18.2-12.8
			c-5.4,0-10.4,2.3-14,6.1c-3.6,3.8-5.9,8.8-5.9,14.6c0,5.6,2.3,10.8,5.9,14.4c3.6,3.8,8.6,6.1,14,6.1c8.6,0,16-5,18.7-13.5h8.1
			c-3.2,12.8-13.5,21.6-26.8,21.6c-7.7,0-14.6-3.2-19.6-8.3c-5-5.2-8.1-12.4-8.1-20.3C184.1,299.2,187.3,292,192.2,286.8z"/>
		<path class="st1" d="M255.7,286.6c5.2-5.2,12.4-8.6,20.5-8.6c8.1,0,15.3,3.4,20.5,8.6s8.3,12.4,8.3,20.5s-3.4,15.3-8.3,20.5
			c-5.2,5.4-12.4,8.6-20.5,8.6c-7.9,0-15.3-3.2-20.5-8.6c-5.2-5.2-8.3-12.4-8.3-20.5C247.2,298.9,250.5,291.7,255.7,286.6z
			 M290.8,292.4c-3.8-3.8-9-6.1-14.6-6.1c-5.6,0-10.8,2.3-14.4,6.1c-3.8,3.8-6.1,9-6.1,14.6c0,5.6,2.3,11,6.1,14.6
			c3.8,3.8,9,6.1,14.4,6.1c5.6,0,10.8-2.3,14.6-6.1c3.6-3.8,6.1-8.8,6.1-14.6C296.7,301.2,294.4,296,290.8,292.4z"/>
		<path class="st1" d="M336.5,278.7c18.5,0,27.9,14.2,27.9,28.4c0,14.2-9.2,28.4-27.9,28.4h-20.3v-56.7L336.5,278.7L336.5,278.7z
			 M336.5,327.3c13.1,0,19.8-10.1,19.8-20c0-10.1-6.8-20.3-19.8-20.3h-12.2v40.3H336.5z"/>
		<path class="st1" d="M382.9,327.3h26.3v8.1h-34.7v-56.7H409v8.1h-26.3v16h25.7v8.3h-25.7v16.2H382.9z"/>
	</g>
	<g>
		<g>
			<path class="st2" d="M119.3,253.7c-3.4,0-6.5-0.7-9.5-2.3c-2.9-1.4-5.2-3.4-7.4-5.6c-2-2.3-3.6-5-4.7-8.1
				c-1.1-3.2-1.8-6.3-1.8-9.5c0-3.4,0.5-6.8,1.6-9.9c1.1-3.2,2.7-5.9,4.7-8.3c2-2.3,4.5-4.3,7.2-5.6c2.9-1.4,5.9-2,9.5-2
				c4.3,0,7.9,1.1,11,3.2s5.9,4.7,8.1,8.1v-10.4h5.9v50c0,3.4-0.7,6.5-2,9.2s-3.2,5-5.2,6.5c-2.3,1.8-4.7,3.2-7.9,4.1
				c-2.9,0.9-6.1,1.4-9.5,1.4c-5.6,0-10.4-1.1-13.7-3.2c-3.6-2-6.3-4.7-8.6-8.1l4.1-3.2c2,3.2,4.5,5.6,7.9,7
				c3.2,1.6,6.8,2.3,10.4,2.3c2.5,0,4.7-0.2,7-0.9s4.1-1.6,5.6-2.9c1.6-1.4,2.9-2.9,3.8-5s1.4-4.3,1.4-7v-9.9
				c-2,3.2-4.5,5.6-7.9,7.7C126.5,252.8,122.9,253.7,119.3,253.7z M121.1,248.3c1.8,0,3.8-0.5,5.6-1.1c1.8-0.7,3.6-1.6,5-2.9
				c1.6-1.1,2.7-2.5,3.8-4.1c1.1-1.6,1.6-2.9,2-4.5v-15.3c-0.7-1.8-1.6-3.4-2.9-5c-1.4-1.6-2.7-2.9-4.1-3.8c-1.6-1.1-3.2-2-5-2.5
				c-1.8-0.7-3.6-0.9-5.4-0.9c-2.7,0-5.2,0.7-7.4,1.8c-2.3,1.1-4.1,2.7-5.6,4.7c-1.6,1.8-2.7,4.1-3.4,6.5c-0.9,2.5-1.1,5-1.1,7.4
				c0,2.7,0.5,5.2,1.4,7.7s2.3,4.5,3.8,6.3c1.6,1.8,3.6,3.2,5.9,4.3C116.1,247.8,118.6,248.3,121.1,248.3z"/>
		</g>
		<g>
			<path class="st2" d="M176,208.7c-4.1,0.2-7.7,1.4-10.8,3.4c-3.2,2.3-5.2,5.2-6.5,8.8v29h-6.1v-46.6h5.6v11.3
				c1.6-3.4,3.8-6.1,6.3-8.1c2.7-2.3,5.4-3.4,8.6-3.4c0.5,0,1.1,0,1.6,0c0.5,0,0.9,0,1.1,0L176,208.7z"/>
			<path class="st2" d="M200.1,251c-3.4,0-6.5-0.7-9.5-2c-2.9-1.4-5.2-2.9-7.4-5.2c-2-2.3-3.6-4.7-4.7-7.7s-1.8-6.1-1.8-9.2
				c0-3.4,0.7-6.3,1.8-9.2c1.1-2.9,2.7-5.4,4.7-7.7c2-2.3,4.5-4.1,7.4-5.2c2.9-1.4,5.9-2,9.2-2c3.4,0,6.5,0.7,9.2,2
				c2.9,1.4,5.2,3.2,7.4,5.2c2,2.3,3.6,4.7,4.7,7.7c1.1,2.9,1.8,6.1,1.8,9.2s-0.7,6.3-1.8,9.2c-1.1,2.9-2.7,5.4-4.7,7.7
				c-2,2.3-4.5,4.1-7.4,5.2C206.4,250.3,203.3,251,200.1,251z M183,226.9c0,2.7,0.5,5,1.4,7.2c0.9,2.3,2,4.3,3.6,5.9
				c1.6,1.8,3.4,2.9,5.4,4.1c2,0.9,4.3,1.4,6.5,1.4c2.3,0,4.5-0.5,6.5-1.6c2-0.9,3.8-2.3,5.4-4.1c1.6-1.8,2.7-3.6,3.6-5.9
				c0.9-2.3,1.4-4.7,1.4-7.4c0-2.5-0.5-5-1.4-7.2c-0.9-2.3-2-4.3-3.6-6.1s-3.4-3.2-5.4-4.1c-2-0.9-4.3-1.6-6.5-1.6
				c-2.3,0-4.5,0.5-6.5,1.6c-2,0.9-3.8,2.3-5.4,4.1c-1.6,1.8-2.7,3.8-3.6,6.1C183.4,221.7,183,224.2,183,226.9z"/>
			<path class="st2" d="M288.1,203.3h5.9l-20,46.6h-5.2l-9.9-23.9l-9.9,23.9h-5.2l-19.6-46.6h5.9l17.1,40.3l8.8-21.4l-7.9-18.9h5.2
				l6.1,15.3l6.1-15.3h5.2l-7.9,18.9l8.8,21.4L288.1,203.3z"/>
		</g>
	</g>
	<g>
		<path class="st1" d="M316.3,264.9c0.2,0,0.7,0,0.9,0.2c0.2,0,0.7,0,0.9,0c0.7,0,1.4,0,2-0.2c0.7-0.2,1.1-0.2,1.6-0.5
			c0.2-0.2,0.7-0.5,0.9-0.7c0.2-0.5,0.7-1.1,1.4-2c0.5-0.9,1.1-2.5,2-4.1c0.7-1.8,1.8-4.3,2.9-7.2l-20.5-47.1h6.5l17.6,41.4
			l16.2-41.4h5.9L330,264.3c-0.9,2.3-2,3.8-3.6,5c-1.6,1.1-3.6,1.6-6.5,1.6c-1.1,0-2.3,0-3.2-0.2v-5.6H316.3z"/>
		<path class="st1" d="M385.6,251.4c-3.4,0-6.5-0.7-9.5-2c-2.9-1.4-5.4-3.2-7.4-5.4c-2-2.3-3.6-4.7-4.7-7.9
			c-1.1-2.9-1.8-6.1-1.8-9.2c0-3.4,0.7-6.5,1.8-9.5c1.1-2.9,2.7-5.6,5-7.9c2-2.3,4.5-4.1,7.4-5.4c2.9-1.4,6.1-2,9.5-2
			c3.4,0,6.5,0.7,9.5,2c2.9,1.4,5.4,3.2,7.4,5.4c2,2.3,3.6,4.7,5,7.9c1.1,2.9,1.8,6.1,1.8,9.5c0,3.2-0.7,6.3-1.8,9.2
			c-1.1,2.9-2.7,5.6-5,7.9c-2,2.3-4.5,4.1-7.4,5.4C392.2,250.8,389,251.4,385.6,251.4z M368.5,227.1c0,2.7,0.5,5.2,1.4,7.4
			c0.9,2.3,2,4.3,3.6,6.1c1.6,1.8,3.4,3.2,5.4,4.1c2,0.9,4.3,1.4,6.8,1.4c2.3,0,4.5-0.5,6.8-1.6c2-0.9,3.8-2.3,5.4-4.1
			c1.6-1.8,2.7-3.8,3.6-6.1c0.9-2.3,1.4-4.7,1.4-7.4c0-2.7-0.5-5-1.4-7.4c-0.9-2.3-2.3-4.3-3.6-6.1c-1.6-1.8-3.4-3.2-5.4-4.1
			c-2-0.9-4.3-1.6-6.5-1.6c-2.3,0-4.5,0.5-6.8,1.6c-2,0.9-3.8,2.5-5.4,4.1c-1.6,1.8-2.7,3.8-3.6,6.1
			C369,221.9,368.5,224.4,368.5,227.1z"/>
		<path class="st1" d="M438.3,251.4c-5,0-8.8-1.8-11.3-5.2c-2.5-3.4-3.8-8.6-3.8-15.3v-27.7h6.1v26.6c0,10.6,3.6,16,11,16
			c1.8,0,3.6-0.2,5.4-0.9c1.8-0.7,3.4-1.6,5-2.7c1.6-1.1,2.7-2.5,4.1-4.1c1.1-1.6,2-3.4,2.9-5.4v-29.5h6.1v39.2
			c0,1.8,0.7,2.5,2.3,2.5v5.4c-1.1,0.2-2,0.2-2.5,0.2c-1.4,0-2.5-0.5-3.6-1.4c-0.9-0.9-1.6-1.8-1.6-3.2v-6.5c-2,3.6-5,6.5-8.3,8.6
			C446.2,250.3,442.4,251.4,438.3,251.4z"/>
		<path class="st1" d="M505.4,208.7c-4.1,0.2-7.9,1.4-10.8,3.4c-3.2,2.3-5.2,5.2-6.5,9v29.3H482v-47.1h5.9v11.3
			c1.6-3.4,3.8-6.1,6.5-8.3c2.7-2.3,5.6-3.4,8.6-3.4c0.5,0,1.1,0,1.6,0s0.9,0,1.1,0v5.9H505.4z"/>
	</g>
	<g>
		<g>
			<defs>
				<rect id="SVGID_1_" x="60.7" y="1.1" width="464.3" height="157.8"/>
			</defs>
			<clipPath id="SVGID_2_">
				<use xlink:href="#SVGID_1_"  style="overflow:visible;"/>
			</clipPath>
			<path class="st3" d="M211.6,146.5c0,0,24.8,4.3,27.9,0c0,0-15.3-4.5-21.2-6.5c-5.9-2-14.9-6.1-19.4-13.7c2,0.5,18.7,0,19.4-4.1
				c-11.5-4.5-37.8-29.5-30.2-27.9c7.4,1.4,12.6-0.5,11.7-1.6c-0.9-1.4-11.5-11-14-14.4c-2.5-3.4-0.7-2,8.1-5
				c-8.8-2.5-15.3-17.3-18.2-27c-2.5,6.3-9.9,19.6-21.2,27.9c4.7,3.8,8.3,2,10.1,1.8c1.8-0.2-4.5,16.7-17.3,21.4
				c7,4.7,11.9,0.9,11.9,0.9s-3.6,19.4-29,29.7c4.1,5,16.9-0.5,19.4-0.9c-7.7,13.7-13.1,20-25,23.2c2.9,2,15.1,1.4,19.8,0
				c-11.9,11.3-15.1,13.3-20.9,13.7c6.8,6.8,14,1.4,14.9,1.1c-1.1,5.2-20,10.8-20,10.8c3.8,2.9,10.4,2,18.7,0.9
				c8.3-1.1,42.1-7.4,42.1-7.4s43,9.2,54.9,8.6c-11-8.3-26.3-23.4-27-25c8.6,4.5,26.3,5.6,27.7,5.4
				C220.1,154.2,211.6,146.5,211.6,146.5z"/>
		</g>
		<g>
			<defs>
				<rect id="SVGID_3_" x="60.7" y="1.1" width="464.3" height="157.8"/>
			</defs>
			<clipPath id="SVGID_4_">
				<use xlink:href="#SVGID_3_"  style="overflow:visible;"/>
			</clipPath>
			<path class="st4" d="M377.5,153.5c0,0-20,8.3-24.1,1.8c0,0,16.9-11,24.8-14.2s10.4-6.8,16.2-18.2c-2.7,0.9-24.8,0-25.7-6.3
				c15.3-6.8,55.6-44.1,45.7-41.9c-9.9,2.3-27.2,1.1-21.2-3.2c1.8-1.4,15.3-16.7,18.5-21.8c3.4-5.2,0.9-3.2-10.8-7.7
				c11.7-3.8,20.3-26.3,24.1-41c3.4,9.7,13.1,29.9,28.1,42.3c-6.3,5.6-11,2.9-13.5,2.7c-2.5-0.2,6.1,25.4,23,32.6
				c-7.7,6.1-5.4,7.4-21.6,1.8c2.7,4.7,39.6,42.8,44.4,44.8c-5.4,7.7-22.5-0.9-25.7-1.4c10.1,20.9,17.3,30.4,33.1,35.4
				c-3.8,3.2-20,2.3-26.3,0c15.8,17.1,20,20.3,27.7,20.9c-9,10.4-18.5,2.3-19.8,1.6c1.6,7.9,26.6,16.4,26.6,16.4
				c-5.2,4.5-13.7,3.2-24.8,1.4c-11-1.8-55.6-11.3-55.6-11.3s-56.7,14-72.5,13.1c14.6-12.8,34.9-35.8,35.8-38.3
				c-11.3,7-34.9,8.6-36.7,8.1C366.3,165,377.5,153.5,377.5,153.5z"/>
		</g>
		<g>
			<defs>
				<rect id="SVGID_5_" x="124.7" y="1.1" width="367.2" height="157.8"/>
			</defs>
			<clipPath id="SVGID_6_">
				<use xlink:href="#SVGID_5_"  style="overflow:visible;"/>
			</clipPath>
			<path class="st5" d="M332.9,152.1c0,0,24.3,5.4,27.5,0c0,0-15.1-5.6-20.7-8.1c-5.9-2.7-14.6-7.4-19.1-17.1c2,0.7,18.5,0,19.1-5.2
				c-11.3-5.6-36.9-36.7-29.7-34.9c7.2,1.8,12.4-0.5,11.5-2c-0.9-1.6-11.3-13.7-13.7-18c-2.5-4.3-0.7-2.7,7.9-6.3
				c-8.6-3.2-15.1-21.6-18-33.8c-2.5,7.9-9.7,24.5-20.7,34.7c4.7,4.7,8.1,2.5,9.9,2.3c1.8-0.2-4.5,20.9-17.1,26.8
				c6.8,6.1,11.7,1.1,11.7,1.1s-3.6,24.1-28.6,37.2c4.1,6.3,16.7-0.7,19.1-1.1c-7.4,17.3-12.8,25-24.5,29c2.9,2.7,14.9,1.8,19.6,0
				c-11.7,14-14.9,16.7-20.5,17.3c6.8,8.3,13.7,1.8,14.6,1.4c-1.1,6.5-19.8,13.5-19.8,13.5c3.8,3.8,10.1,2.7,18.5,1.1
				c8.1-1.6,41.2-9.2,41.2-9.2s42.1,11.5,53.8,10.8c-10.8-10.6-25.9-29.3-26.6-31.3c8.3,5.9,25.9,7,27.2,6.5
				C341.3,161.8,332.9,152.1,332.9,152.1z"/>
		</g>
	</g>
</g>
</svg>
