<?xml version="1.0" encoding="utf-8"?>
<!-- Generator: Adobe Illustrator 19.2.1, SVG Export Plug-In . SVG Version: 6.00 Build 0)  -->
<svg version="1.1" id="Layer_1" xmlns="http://www.w3.org/2000/svg" xmlns:xlink="http://www.w3.org/1999/xlink" x="0px" y="0px"
	 viewBox="0 0 197.7 197.7" style="enable-background:new 0 0 197.7 197.7;" xml:space="preserve">
<style type="text/css">
	.st0{fill:none;}
	.st1{fill:#FFFFFF;stroke:#90D8CD;stroke-width:4;stroke-miterlimit:10;}
	.st2{clip-path:url(#SVGID_2_);}
	.st3{fill:#FFFFFF;stroke:#070F11;stroke-width:1.7769;stroke-miterlimit:10;}
	.st4{fill:#FFFFFF;stroke:#070F11;stroke-width:1.8387;stroke-miterlimit:10;}
	.st5{fill:#152021;}
	.st6{fill:#FFFFFF;}
	.st7{fill:#FFFFFF;stroke:#070F11;stroke-width:2.0159;stroke-miterlimit:10;}
	.st8{fill:#90D8CD;}
	.st9{fill:none;stroke:#90D8CD;stroke-width:4;stroke-miterlimit:10;}
</style>
<rect x="33.5" y="33.1" class="st0" width="162" height="162"/>
<g>
	<path class="st1" d="M193.6,114c0,1.2,0,2.4-0.1,3.6c0,0,0,0.1,0,0.1c-0.1,2.9-0.4,5.8-0.8,8.6c0,0.1,0,0.1,0,0.2
		c-1.5,9.7-4.7,18.9-9.3,27.1c-3.2,5.7-7,11-11.4,15.8c0,0-0.1,0.1-0.1,0.1c0,0.1-0.1,0.1-0.1,0.2c-1.1,1.2-2.2,2.3-3.3,3.4
		c-0.1,0.1-0.2,0.1-0.2,0.2c-0.3,0.3-0.5,0.5-0.8,0.8c-0.1,0.1-0.1,0.1-0.2,0.2c0,0,0,0-0.1,0.1c-0.2,0.2-0.4,0.3-0.6,0.5
		c0,0-0.1,0.1-0.1,0.1c-3.2,2.8-6.5,5.4-10.1,7.7c-1.3,0.9-2.7,1.7-4.1,2.5c-0.5,0.3-0.9,0.5-1.4,0.8c-0.4,0.2-0.8,0.4-1.1,0.6
		c-6.1,3.1-12.6,5.6-19.4,7.1c-0.3,0.1-0.7,0.1-1,0.2c-1.4,0.3-2.7,0.5-4.1,0.8c-0.4,0.1-0.9,0.1-1.3,0.2c-0.1,0-0.3,0-0.4,0.1
		c-0.9,0.1-1.9,0.2-2.8,0.3c-0.1,0-0.2,0-0.3,0c-2.6,0.3-5.3,0.4-8,0.4c-3.8,0-7.6-0.3-11.2-0.8c-0.1,0-0.3,0-0.4-0.1
		c-0.5-0.1-0.9-0.1-1.3-0.2c-1.4-0.2-2.8-0.5-4.1-0.8c-0.3-0.1-0.7-0.1-1-0.2c-3-0.7-6-1.6-8.8-2.6c0,0-0.1,0-0.1,0
		c-0.3-0.1-0.6,0.2-0.9,0c-0.1-0.1-0.2,0-0.2,0c0,0,0,0,0,0c-7.7-3-14.9-7-21.3-11.9c0,0-0.1-0.2-0.1-0.2c-0.4-0.3-0.8-0.7-1.2-1
		c-0.1-0.1-0.2-0.2-0.3-0.2c-1.3-1.1-2.6-2.2-3.9-3.3c0,0,0-0.1-0.1-0.1c-0.1-0.1-0.1-0.1-0.2-0.2l0,0c-0.3-0.3-0.5-0.5-0.8-0.8
		c-0.1-0.1-0.2-0.1-0.2-0.2c-6.1-5.8-11.2-12.4-15.3-19.8c0,0,0-0.1-0.1-0.1c-0.3-0.6-0.6-1.2-1-1.8c-0.1-0.2-0.2-0.3-0.2-0.5
		c0,0,0,0,0,0c-1.4-2.8-2.6-5.6-3.7-8.5c-3.2-8.8-5-18.3-5-28.2c0-13.2,3.1-25.7,8.7-36.7c0,0,0,0,0,0c0.1-0.2,0.2-0.3,0.2-0.5
		c0.3-0.6,0.6-1.2,1-1.8c0,0,0-0.1,0.1-0.1c2.3-4.2,5-8.2,8-11.9c0.9-1.1,1.8-2.2,2.8-3.3c1.3-1.5,2.7-2.9,4.1-4.2l0.1-0.1
		c0.4-0.3,0.7-0.7,1.1-1c0,0,0.1-0.1,0.1-0.1c4.1-3.8,8.7-7.2,13.5-10.1c0.1-0.1,0.2-0.1,0.3-0.2c0.7-0.4,1.4-0.8,2.1-1.2
		c0.1-0.1,0.2-0.1,0.3-0.1c1.3-0.7,2.5-1.4,3.8-2c0.1,0,0.1-0.1,0.2-0.1c0.7-0.4,1.5-0.7,2.2-1c0.1,0,0.1-0.1,0.2-0.1
		c0.1-0.1,0.3-0.1,0.4-0.2c9.9-4.3,20.8-6.7,32.3-6.7c9.1,0,17.9,1.5,26.1,4.3c0.5,0.2,0.9,0.3,1.4,0.5c0.1,0,0.3,0.1,0.4,0.1
		c0.4,0.1,0.8,0.3,1.2,0.5c1.1,0.4,2.2,0.8,3.2,1.3c0.1,0.1,0.3,0.1,0.4,0.2c0.5,0.2,0.9,0.4,1.4,0.6c0.3,0.2,0.7,0.3,1,0.5
		c0.1,0,0.1,0,0.2,0.1c3.4,1.6,6.6,3.5,9.7,5.5c0.3,0.2,0.6,0.4,0.9,0.6c0.3,0.2,0.5,0.3,0.8,0.5c0,0,0.1,0.1,0.1,0.1
		c3,2.1,5.9,4.5,8.6,7c0.2,0.2,0.5,0.4,0.7,0.7c0,0,0,0,0,0c0.2,0.2,0.3,0.3,0.5,0.5l0.1,0.1c1.4,1.4,2.8,2.8,4.1,4.3
		c0.1,0.1,0.1,0.1,0.1,0.2c0.1,0.1,0.2,0.2,0.3,0.3c0.1,0.1,0.2,0.2,0.3,0.3c0.1,0.2,0.3,0.3,0.4,0.5c0,0,0,0,0.1,0.1
		c0.1,0.1,0.1,0.1,0.2,0.2c0,0,0,0,0,0.1c0.3,0.4,0.6,0.7,0.9,1.1c0,0.1,0.1,0.1,0.1,0.2c1.1,1.3,2.1,2.6,3.1,4
		c0.1,0.2,0.3,0.4,0.4,0.6c0.1,0.2,0.2,0.4,0.4,0.5c0,0,0,0.1,0.1,0.1c1.6,2.2,3,4.6,4.3,7c0.1,0.2,0.2,0.4,0.3,0.6c0,0,0,0,0,0.1
		c0.1,0.2,0.2,0.3,0.3,0.5c0,0,0,0,0,0.1c1,1.9,1.9,3.8,2.8,5.8c0,0,0,0,0,0.1c0.2,0.4,0.3,0.8,0.5,1.1c0,0,0,0.1,0,0.1
		c0,0.1,0.1,0.2,0.1,0.3c0.1,0.3,0.2,0.5,0.3,0.8c0,0,0,0,0,0c0,0,0,0,0,0c0,0.1,0,0.1,0.1,0.2c0.5,1.2,0.9,2.4,1.3,3.6
		c0.2,0.6,0.4,1.2,0.6,1.8c0,0,0,0,0,0.1c0.1,0.3,0.2,0.5,0.2,0.8c0,0.1,0,0.1,0,0.2c0,0,0,0.1,0,0.1c0,0,0,0.1,0,0.1
		c0.7,2.3,1.3,4.6,1.7,7c0,0,0,0.1,0,0.1c0.1,0.3,0.1,0.7,0.2,1c0,0,0,0,0,0.1C193.2,103.8,193.6,108.8,193.6,114z"/>
	<g>
		<defs>
			<path id="SVGID_1_" d="M195.2,114c0,1.2,0,2.4-0.1,3.6c0,0,0,0.1,0,0.1c-0.1,2.9-0.4,5.8-0.8,8.6c0,0.1,0,0.1,0,0.2
				c-1.5,9.7-4.7,18.9-9.3,27.1c-3.2,5.7-7,11-11.4,15.8c0,0-0.1,0.1-0.1,0.1c0,0.1-0.1,0.1-0.1,0.2c-0.7,0.7-1.3,1.5-2,2.1
				c-0.5,0.5-1,1-1.6,1.5c-0.3,0.3-0.5,0.5-0.8,0.8c-0.1,0.1-0.1,0.1-0.2,0.2c0,0,0,0-0.1,0.1c-0.2,0.2-0.4,0.3-0.6,0.5
				c0,0-0.1,0.1-0.1,0.1c-3.2,2.8-6.5,5.4-10.1,7.7c-1.3,0.9-2.7,1.7-4.1,2.5c-0.5,0.3-0.9,0.5-1.4,0.8c-0.4,0.2-0.8,0.4-1.1,0.6
				c-6.1,3.1-12.6,5.6-19.4,7.1c-0.3,0.1-0.7,0.1-1,0.2c-1.4,0.3-2.7,0.5-4.1,0.8c-0.4,0.1-0.9,0.1-1.3,0.2c-0.1,0-0.3,0-0.4,0.1
				c-0.9,0.1-1.9,0.2-2.8,0.3c-0.1,0-0.2,0-0.3,0c-2.6,0.3-5.3,0.4-8,0.4c-3.8,0-7.6-0.3-11.2-0.8c-0.1,0-0.3,0-0.4-0.1
				c-0.5-0.1-0.9-0.1-1.3-0.2c-1.4-0.2-2.8-0.5-4.1-0.8c-0.3-0.1-0.7-0.1-1-0.2c-3-0.7-6-1.6-8.8-2.6c0,0-0.1,0-0.1,0
				c-0.3-0.1-0.6,0-0.9-0.3c-0.1-0.1-0.2-0.1-0.2-0.2c0,0,0,0,0,0c-7.7-2.6-14.9-6.7-21.3-11.6c0,0-0.1,0-0.1-0.1
				c-0.4-0.3-0.8-0.6-1.2-0.9c-0.1-0.1-0.2-0.1-0.3-0.2c-1.3-1.1-4.2-5.7-5.4-6.9c0,0,0,0-0.1-0.1c-0.1-0.1-0.1-0.1-0.2-0.2l0,0
				c-0.3-0.3-0.5-0.5-0.8-0.8c-0.1-0.1-0.2-0.1-0.2-0.2c-6-5.7-48.1-64.8-52.4-72.5c0,0-1.4-5.6-1.4-5.6l3.6-35.6l110.3-44.7
				c0,0,29.4,30.6,32.4,32.1c4.9,1.9,6,3.9,20.5,11.3c0.3,0.1,0.5,0.4,0.7,0.7c0,0,0,0,0,0c0.2,0.2,0.3,0.3,0.5,0.5l0.1,0.1
				c1.4,1.4,2.8,2.8,4.1,4.3c0.1,0.1,0.1,0.1,0.1,0.2c0.1,0.1,0.2,0.2,0.3,0.3c0.1,0.1,0.2,0.2,0.3,0.3c0.1,0.2,0.3,0.3,0.4,0.5
				c0,0,0,0,0.1,0.1c0.1,0.1,0.1,0.1,0.2,0.2c0,0,0,0,0,0.1c0.3,0.4,0.6,0.7,0.9,1.1c0,0.1,0.1,0.1,0.1,0.2c1.1,1.3,2.1,2.6,3.1,4
				c0.1,0.2,0.3,0.4,0.4,0.6c0.1,0.2,0.2,0.4,0.4,0.5c0,0,0,0.1,0.1,0.1c1.6,2.2,3,4.6,4.3,7c0.1,0.2,0.2,0.4,0.3,0.6c0,0,0,0,0,0.1
				c0.1,0.2,0.2,0.3,0.3,0.5c0,0,0,0,0,0.1c1,1.9,1.9,3.8,2.8,5.8c0,0,0,0,0,0.1c0.2,0.4,0.3,0.8,0.5,1.1c0,0,0,0.1,0,0.1
				c0,0.1,0.1,0.2,0.1,0.3c0.1,0.3,0.2,0.5,0.3,0.8c0,0,0,0,0,0c0,0,0,0,0,0c0,0.1,0,0.1,0.1,0.2c0.5,1.2,0.9,2.4,1.3,3.6
				c0.2,0.6,0.4,1.2,0.6,1.8c0,0,0,0,0,0.1c0.1,0.3,0.2,0.5,0.2,0.8c0,0.1,0,0.1,0,0.2c0,0,0,0.1,0,0.1c0,0,0,0.1,0,0.1
				c0.7,2.3,1.3,4.6,1.7,7c0,0,0,0.1,0,0.1c0.1,0.3,0.1,0.7,0.2,1c0,0,0,0,0,0.1C194.7,103.8,195.2,108.8,195.2,114z"/>
		</defs>
		<clipPath id="SVGID_2_">
			<use xlink:href="#SVGID_1_"  style="overflow:visible;"/>
		</clipPath>
		<g class="st2">
			
				<rect x="141.8" y="79.9" transform="matrix(0.4981 -0.8671 0.8671 0.4981 0.4693 185.0086)" class="st3" width="36.5" height="24.4"/>
			
				<rect x="53.4" y="43.2" transform="matrix(0.4981 -0.8671 0.8671 0.4981 -12.1236 89.9293)" class="st3" width="36.5" height="24.4"/>
			
				<rect x="136.5" y="13" transform="matrix(0.825 -0.5651 0.5651 0.825 -25.1475 102.8076)" class="st4" width="33.9" height="158"/>
			<g>
				<path class="st5" d="M99.6,229.8c-1.6,0-3.1-0.8-4-2.1L5.6,96.4c-0.7-1.1-1-2.4-0.8-3.7c0.2-1.3,1-2.4,2-3.1l95-65.1
					c3-2,6.5-3.1,10.1-3.1c6,0,11.5,2.9,14.8,7.8L202,138.9c2.7,3.9,3.7,8.7,2.8,13.4c-0.9,4.7-3.5,8.8-7.5,11.5l-95,65.1
					C101.5,229.5,100.5,229.8,99.6,229.8z"/>
				<path class="st6" d="M111.9,22.4c5.4,0,10.7,2.6,14,7.3l75.2,109.8c5.3,7.7,3.3,18.3-4.4,23.5l-95,65.1
					c-0.7,0.5-1.4,0.7-2.2,0.7c-1.2,0-2.5-0.6-3.2-1.7L6.4,95.8c-1.2-1.8-0.8-4.2,1-5.4l95-65.1C105.3,23.3,108.6,22.4,111.9,22.4
					 M111.9,20.4c-3.8,0-7.5,1.1-10.7,3.3l-95,65.1C5,89.6,4.1,91,3.8,92.5c-0.3,1.5,0,3.1,0.9,4.4l90,131.3
					c1.1,1.6,2.9,2.6,4.9,2.6c1.2,0,2.3-0.4,3.3-1l95-65.1c4.2-2.8,7-7.2,7.9-12.2s-0.1-10-3-14.2L127.6,28.6
					C124.1,23.4,118.2,20.4,111.9,20.4L111.9,20.4z"/>
			</g>
			
				<rect x="37.8" y="74.6" transform="matrix(0.825 -0.5651 0.5651 0.825 -36.9502 64.8742)" class="st7" width="96.9" height="35.1"/>
			
				<rect x="129.6" y="20.4" transform="matrix(0.825 -0.5651 0.5651 0.825 -35.0112 94.7077)" class="st8" width="11.7" height="166.9"/>
		</g>
	</g>
	<path class="st9" d="M163.4,50.6c1.4,1.1,2.8,2.3,4.1,3.6c0.2,0.2,0.5,0.4,0.7,0.7c0,0,0,0,0,0c0.2,0.2,0.3,0.3,0.5,0.5l0.1,0.1
		c1.4,1.4,2.8,2.8,4.1,4.3c0.1,0.1,0.1,0.1,0.1,0.2c0.1,0.1,0.2,0.2,0.3,0.3c0.1,0.1,0.2,0.2,0.3,0.3c0.1,0.2,0.3,0.3,0.4,0.5
		c0,0,0,0,0.1,0.1c0.1,0.1,0.1,0.1,0.2,0.2c0,0,0,0,0,0.1c0.3,0.4,0.6,0.7,0.9,1.1c0,0.1,0.1,0.1,0.1,0.2c1.1,1.3,2.1,2.6,3.1,4
		c0.1,0.2,0.3,0.4,0.4,0.6c0.1,0.2,0.2,0.4,0.4,0.5c0,0,0,0.1,0.1,0.1c1.6,2.2,3,4.6,4.3,7c0.1,0.2,0.2,0.4,0.3,0.6c0,0,0,0,0,0.1
		c0.1,0.2,0.2,0.3,0.3,0.5c0,0,0,0,0,0.1c1,1.9,1.9,3.8,2.8,5.8c0,0,0,0,0,0.1c0.2,0.4,0.3,0.8,0.5,1.1c0,0,0,0.1,0,0.1
		c0,0.1,0.1,0.2,0.1,0.3c0.1,0.3,0.2,0.5,0.3,0.8c0,0,0,0,0,0c0,0,0,0,0,0c0,0.1,0,0.1,0.1,0.2c0.5,1.2,0.9,2.4,1.3,3.6
		c0.2,0.6,0.4,1.2,0.6,1.8c0,0,0,0,0,0.1c0.1,0.3,0.2,0.5,0.2,0.8c0,0.1,0,0.1,0,0.2c0,0,0,0.1,0,0.1c0,0,0,0.1,0,0.1
		c0.7,2.3,1.3,4.6,1.7,7c0,0,0,0.1,0,0.1c0.1,0.3,0.1,0.7,0.2,1c0,0,0,0,0,0.1c0.9,4.9,1.4,9.9,1.4,15.1c0,1.2,0,2.4-0.1,3.6
		c0,0,0,0.1,0,0.1c-0.1,2.9-0.4,5.8-0.8,8.6c0,0.1,0,0.1,0,0.2c-1.5,9.7-4.7,18.9-9.3,27.1c-3.2,5.7-7,11-11.4,15.8
		c0,0-0.1,0.1-0.1,0.1c0,0.1-0.1,0.1-0.1,0.2c-1.1,1.2-2.2,2.3-3.3,3.4c-0.1,0.1-0.2,0.1-0.2,0.2c-0.3,0.3-0.5,0.5-0.8,0.8
		c-0.1,0.1-0.1,0.1-0.2,0.2c0,0,0,0-0.1,0.1c-0.2,0.2-0.4,0.3-0.6,0.5c0,0-0.1,0.1-0.1,0.1c-3.2,2.8-6.5,5.4-10.1,7.7
		c-1.3,0.9-2.7,1.7-4.1,2.5c-0.5,0.3-0.9,0.5-1.4,0.8c-0.4,0.2-0.8,0.4-1.1,0.6c-6.1,3.1-12.6,5.6-19.4,7.1c-0.3,0.1-0.7,0.1-1,0.2
		c-1.4,0.3-2.7,0.5-4.1,0.8c-0.4,0.1-0.9,0.1-1.3,0.2c-0.1,0-0.3,0-0.4,0.1c-0.9,0.1-1.9,0.2-2.8,0.3c-0.1,0-0.2,0-0.3,0
		c-2.6,0.3-5.3,0.4-8,0.4c-3.8,0-7.6-0.3-11.2-0.8c-0.1,0-0.3,0-0.4-0.1c-0.5-0.1-0.9-0.1-1.3-0.2c-1.4-0.2-2.8-0.5-4.1-0.8
		c-0.3-0.1-0.7-0.1-1-0.2c-3-0.7-6-1.6-8.8-2.6c0,0-0.1,0-0.1,0c-0.3-0.1-0.6,0.2-0.9,0c-0.1-0.1-0.2,0-0.2,0c0,0,0,0,0,0
		c-7.7-3-14.9-7-21.3-11.9c0,0-0.1-0.2-0.1-0.2c-0.4-0.3-0.8-0.7-1.2-1c-0.1-0.1-0.2-0.2-0.3-0.2c-1.3-1.1-2.6-2.2-3.9-3.3
		c0,0,0-0.1-0.1-0.1c-0.1-0.1-0.1-0.1-0.2-0.2l0,0c-0.3-0.3-0.5-0.5-0.8-0.8c-0.1-0.1-0.2-0.1-0.2-0.2c-2.6-2.5-5-5.1-7.2-7.9"/>
</g>
</svg>
