<?xml version="1.0" encoding="utf-8"?>
<!-- Generator: Adobe Illustrator 19.2.1, SVG Export Plug-In . SVG Version: 6.00 Build 0)  -->
<svg version="1.1" id="Layer_1" xmlns="http://www.w3.org/2000/svg" xmlns:xlink="http://www.w3.org/1999/xlink" x="0px" y="0px"
	 viewBox="0 0 197.7 197.7" style="enable-background:new 0 0 197.7 197.7;" xml:space="preserve">
<style type="text/css">
	.st0{fill:none;}
	.st1{fill:#FFFFFF;stroke:#90D8CD;stroke-width:4.1293;stroke-miterlimit:10;}
	.st2{clip-path:url(#SVGID_2_);}
	.st3{fill:#FFFFFF;stroke:#070F11;stroke-width:1.8526;stroke-miterlimit:10;}
	.st4{fill:#152021;}
	.st5{fill:#FFFFFF;}
	.st6{fill:#FFFFFF;stroke:#070F11;stroke-width:2.0311;stroke-miterlimit:10;}
	.st7{fill:#90D8CD;}
	.st8{fill:none;stroke:#90D8CD;stroke-width:4.1293;stroke-miterlimit:10;}
</style>
<rect x="33.5" y="33.1" class="st0" width="162" height="162"/>
<g>
	<circle class="st1" cx="113.4" cy="113" r="82.1"/>
	<g>
		<defs>
			<path id="SVGID_1_" d="M197.1,113c0,1.2,0,2.4-0.1,3.6c0,0,0,0.1,0,0.1c-0.1,2.9-0.4,5.8-0.8,8.7c0,0.1,0,0.1,0,0.2
				c-1.5,9.8-4.7,19-9.4,27.3c-3.2,5.8-7.1,11.1-11.5,15.9c0,0-0.1,0.1-0.1,0.1c0,0.1-0.1,0.1-0.1,0.2c-0.7,0.7-1.3,1.5-2,2.1
				c-0.5,0.5-1,1-1.6,1.5c-0.3,0.3-0.5,0.5-0.8,0.8c-0.1,0.1-0.1,0.1-0.2,0.2c0,0,0,0-0.1,0.1c-0.2,0.2-0.4,0.3-0.6,0.5
				c0,0-0.1,0.1-0.1,0.1c-3.2,2.8-6.6,5.4-10.2,7.8c-1.4,0.9-2.7,1.7-4.1,2.5c-0.5,0.3-0.9,0.5-1.4,0.8c-0.4,0.2-0.8,0.4-1.1,0.6
				c-6.1,3.2-12.7,5.6-19.6,7.2c-0.3,0.1-0.7,0.1-1,0.2c-1.4,0.3-2.8,0.6-4.2,0.8c-0.4,0.1-0.9,0.1-1.4,0.2c-0.1,0-0.3,0-0.4,0.1
				c-0.9,0.1-1.9,0.2-2.8,0.3c-0.1,0-0.2,0-0.3,0c-2.7,0.3-5.4,0.4-8.1,0.4c-3.8,0-7.6-0.3-11.3-0.8c-0.1,0-0.3,0-0.4-0.1
				c-0.5-0.1-0.9-0.1-1.4-0.2c-1.4-0.2-2.8-0.5-4.2-0.8c-0.3-0.1-0.7-0.1-1-0.2c-3-0.7-6-1.6-8.9-2.6c0,0-0.1,0-0.1,0
				c-0.3-0.1-0.6,0-0.9-0.3c-0.1-0.1-0.2-0.1-0.2-0.2c0,0,0,0,0,0c-7.8-2.6-15-6.8-21.4-11.7c0,0-0.1,0-0.1-0.1
				c-0.4-0.3-0.8-0.6-1.2-0.9c-0.1-0.1-0.2-0.1-0.3-0.2c-1.3-1.1-4.2-5.8-5.5-7c0,0,0,0-0.1-0.1c-0.1-0.1-0.1-0.1-0.2-0.2l0,0
				c-0.3-0.3-0.5-0.5-0.8-0.8c-0.1-0.1-0.2-0.1-0.2-0.2c-6.1-5.8-48.4-65.3-52.8-73c0,0-1.4-5.7-1.4-5.7l3.6-35.9l115.4-39.9
				c1.8-0.6,3.9-0.1,5.1,1.4c5.6,6.6,20.9,24.5,23.3,25.7c5,2,6,3.9,20.6,11.4c0.3,0.1,0.5,0.4,0.7,0.7c0,0,0,0,0,0
				c0.2,0.2,0.3,0.3,0.5,0.5L172,54c1.4,1.4,2.8,2.8,4.2,4.3c0.1,0.1,0.1,0.1,0.1,0.2c0.1,0.1,0.2,0.2,0.3,0.3
				c0.1,0.1,0.2,0.2,0.3,0.3c0.1,0.2,0.3,0.3,0.4,0.5c0,0,0,0,0.1,0.1c0.1,0.1,0.1,0.1,0.2,0.2c0,0,0,0,0,0.1
				c0.3,0.4,0.6,0.7,0.9,1.1c0,0.1,0.1,0.1,0.1,0.2c1.1,1.3,2.1,2.7,3.1,4c0.1,0.2,0.3,0.4,0.4,0.6c0.1,0.2,0.2,0.4,0.4,0.5
				c0,0,0,0.1,0.1,0.1c1.6,2.3,3,4.6,4.4,7c0.1,0.2,0.2,0.4,0.3,0.6c0,0,0,0,0,0.1c0.1,0.2,0.2,0.3,0.3,0.5c0,0,0,0,0,0.1
				c1,1.9,2,3.9,2.8,5.9c0,0,0,0,0,0.1c0.2,0.4,0.3,0.8,0.5,1.1c0,0,0,0.1,0,0.1c0,0.1,0.1,0.2,0.1,0.3c0.1,0.3,0.2,0.5,0.3,0.8
				c0,0,0,0,0,0c0,0,0,0,0,0c0,0.1,0,0.1,0.1,0.2c0.5,1.2,0.9,2.4,1.3,3.6c0.2,0.6,0.4,1.2,0.6,1.8c0,0,0,0,0,0.1
				c0.1,0.3,0.2,0.5,0.2,0.8c0,0.1,0,0.1,0,0.2c0,0,0,0.1,0,0.1c0,0,0,0.1,0,0.1c0.7,2.3,1.3,4.6,1.7,7c0,0,0,0.1,0,0.1
				c0.1,0.3,0.1,0.7,0.2,1c0,0,0,0,0,0.1C196.6,102.8,197.1,107.8,197.1,113z"/>
		</defs>
		<clipPath id="SVGID_2_">
			<use xlink:href="#SVGID_1_"  style="overflow:visible;"/>
		</clipPath>
		<g class="st2">
			
				<rect x="137.9" y="11.3" transform="matrix(0.825 -0.5651 0.5651 0.825 -24.2506 103.5024)" class="st3" width="34.1" height="159.2"/>
			<g>
				<path class="st4" d="M100.7,229.7c-1.6,0-3.1-0.8-4.1-2.1L6,95.3c-1.5-2.2-1-5.3,1.3-6.8L103,22.9c3-2.1,6.5-3.1,10.2-3.1
					c6,0,11.6,2.9,15,7.8l75.8,110.6c5.6,8.2,3.5,19.5-4.7,25.1l-95.7,65.6C102.7,229.4,101.7,229.7,100.7,229.7z"/>
				<path class="st5" d="M113.2,20.8c5.5,0,10.8,2.6,14.1,7.4l75.8,110.6c5.3,7.7,3.3,18.4-4.4,23.7L102.9,228
					c-0.7,0.5-1.4,0.7-2.2,0.7c-1.2,0-2.5-0.6-3.2-1.7L6.9,94.7c-1.2-1.8-0.8-4.2,1-5.4l95.7-65.6C106.5,21.7,109.9,20.8,113.2,20.8
					 M113.2,18.7L113.2,18.7c-3.9,0-7.6,1.1-10.7,3.3L6.7,87.6c-2.7,1.8-3.4,5.5-1.5,8.2l90.6,132.3c1.1,1.6,2.9,2.6,4.9,2.6
					c1.2,0,2.4-0.4,3.3-1l95.7-65.6c8.7-5.9,10.9-17.9,5-26.5L129,27C125.4,21.8,119.5,18.7,113.2,18.7L113.2,18.7z"/>
			</g>
			
				<rect x="38.5" y="73.3" transform="matrix(0.825 -0.5651 0.5651 0.825 -36.1424 65.2827)" class="st6" width="97.6" height="35.3"/>
			
				<rect x="131" y="18.8" transform="matrix(0.825 -0.5651 0.5651 0.825 -34.1887 95.3414)" class="st7" width="11.8" height="168.2"/>
		</g>
	</g>
	<path class="st8" d="M50.9,166.2c15.1,17.7,37.5,28.9,62.5,28.9c45.3,0,82.1-36.7,82.1-82.1c0-5.1-0.5-10.1-1.4-15"/>
</g>
</svg>
