<?xml version="1.0" encoding="utf-8"?>
<!-- Generator: Adobe Illustrator 19.2.1, SVG Export Plug-In . SVG Version: 6.00 Build 0)  -->
<svg version="1.1" id="Layer_1" xmlns="http://www.w3.org/2000/svg" xmlns:xlink="http://www.w3.org/1999/xlink" x="0px" y="0px"
	 viewBox="0 0 197.7 197.7" style="enable-background:new 0 0 197.7 197.7;" xml:space="preserve">
<style type="text/css">
	.st0{fill:none;}
	.st1{fill:#FFFFFF;stroke:#90D8CD;stroke-width:4;stroke-miterlimit:10;}
	.st2{clip-path:url(#SVGID_2_);}
	.st3{fill:#070F11;}
	.st4{fill:#FFFFFF;}
	.st5{fill:#070F11;stroke:#FFFFFF;stroke-width:3.413;stroke-miterlimit:10;}
	.st6{fill:#90D8CD;}
	.st7{fill:none;stroke:#90D8CD;stroke-width:4;stroke-miterlimit:10;}
</style>
<rect x="33.5" y="33.1" class="st0" width="162" height="162"/>
<g>
	<path class="st1" d="M193.6,113.7c0,1.2,0,2.4-0.1,3.6c0,0,0,0.1,0,0.1c-0.1,2.9-0.4,5.8-0.8,8.6c0,0.1,0,0.1,0,0.2
		c-1.5,9.7-4.7,18.8-9.3,27c-3.2,5.7-7,11-11.4,15.7c0,0-0.1,0.1-0.1,0.1c0,0.1-0.1,0.1-0.1,0.2c-1.1,1.2-2.2,2.3-3.3,3.4
		c-0.1,0.1-0.2,0.1-0.2,0.2c-0.3,0.3-0.5,0.5-0.8,0.8c-0.1,0.1-0.1,0.1-0.2,0.2c0,0,0,0-0.1,0.1c-0.2,0.2-0.4,0.3-0.6,0.5
		c0,0-0.1,0.1-0.1,0.1c-3.1,2.8-6.5,5.4-10.1,7.7c-1.3,0.9-2.7,1.7-4.1,2.5c-0.5,0.3-0.9,0.5-1.4,0.8c-0.4,0.2-0.8,0.4-1.1,0.6
		c-6,3.1-12.5,5.5-19.3,7.1c-0.3,0.1-0.7,0.1-1,0.2c-1.4,0.3-2.7,0.5-4.1,0.8c-0.4,0.1-0.9,0.1-1.3,0.2c-0.1,0-0.3,0-0.4,0.1
		c-0.9,0.1-1.9,0.2-2.8,0.3c-0.1,0-0.2,0-0.3,0c-2.6,0.3-5.3,0.4-8,0.4c-3.8,0-7.5-0.3-11.2-0.8c-0.1,0-0.3,0-0.4-0.1
		c-0.4-0.1-0.9-0.1-1.3-0.2c-1.4-0.2-2.8-0.5-4.1-0.8c-0.3-0.1-0.7-0.1-1-0.2c-3-0.7-5.9-1.6-8.8-2.6c0,0-0.1,0-0.1,0
		c-0.3-0.1-0.6,0.5-0.9,0.3c-0.1-0.1-0.2,0.3-0.2,0.3c0,0,0,0,0,0c-7.7-2-14.8-7.3-21.2-12.2c0,0-0.1-0.3-0.1-0.4
		c-0.4-0.3-0.8-0.7-1.2-1c-0.1-0.1-0.2-0.2-0.3-0.3c-1.3-1.1-2.6-2.2-3.9-3.3c0,0,0-0.1-0.1-0.1c-0.1-0.1-0.1-0.1-0.2-0.2l0,0
		c-0.3-0.3-0.5-0.5-0.8-0.8c-0.1-0.1-0.2-0.1-0.2-0.2c-6-5.7-11.2-12.4-15.2-19.8c0,0,0-0.1-0.1-0.1c-0.3-0.6-0.6-1.2-0.9-1.8
		c-0.1-0.2-0.2-0.3-0.2-0.5c0,0,0,0,0,0c-1.4-2.7-2.6-5.6-3.7-8.5c-3.2-8.7-5-18.2-5-28c0-13.1,3.1-25.5,8.7-36.5c0,0,0,0,0,0
		c0.1-0.2,0.2-0.3,0.2-0.5c0.3-0.6,0.6-1.2,0.9-1.8c0,0,0-0.1,0.1-0.1c2.3-4.2,5-8.2,8-11.9c0.9-1.1,1.8-2.2,2.8-3.3
		c1.3-1.4,2.7-2.9,4.1-4.2l0.1-0.1c0.4-0.3,0.7-0.7,1.1-1c0,0,0.1-0.1,0.1-0.1c4.1-3.8,8.6-7.2,13.5-10.1c0.1-0.1,0.2-0.1,0.3-0.2
		c0.7-0.4,1.4-0.8,2.1-1.2c0.1-0.1,0.2-0.1,0.3-0.1c1.3-0.7,2.5-1.3,3.8-2c0.1,0,0.1-0.1,0.2-0.1c0.7-0.4,1.5-0.7,2.2-1
		c0.1,0,0.1-0.1,0.2-0.1c0.1-0.1,0.3-0.1,0.4-0.2c9.9-4.3,20.7-6.6,32.2-6.6c9.1,0,17.8,1.5,26,4.2c0.5,0.2,0.9,0.3,1.4,0.5
		c0.1,0,0.3,0.1,0.4,0.1c0.4,0.1,0.8,0.3,1.2,0.5c1.1,0.4,2.1,0.8,3.2,1.3c0.1,0.1,0.3,0.1,0.4,0.2c0.5,0.2,0.9,0.4,1.4,0.6
		c0.3,0.2,0.7,0.3,1,0.5c0.1,0,0.1,0,0.2,0.1c3.3,1.6,6.6,3.4,9.6,5.5c0.3,0.2,0.6,0.4,0.8,0.6c0.3,0.2,0.5,0.3,0.8,0.5
		c0,0,0.1,0.1,0.1,0.1c3,2.1,5.9,4.4,8.6,6.9c0.2,0.2,0.5,0.4,0.7,0.7c0,0,0,0,0,0c0.2,0.2,0.3,0.3,0.5,0.5l0.1,0.1
		c1.4,1.4,2.8,2.8,4.1,4.3c0.1,0.1,0.1,0.1,0.1,0.2c0.1,0.1,0.2,0.2,0.3,0.3c0.1,0.1,0.2,0.2,0.3,0.3c0.1,0.2,0.3,0.3,0.4,0.5
		c0,0,0,0,0.1,0.1c0.1,0.1,0.1,0.1,0.2,0.2c0,0,0,0,0,0.1c0.3,0.4,0.6,0.7,0.9,1.1c0,0.1,0.1,0.1,0.1,0.2c1.1,1.3,2.1,2.6,3,4
		c0.1,0.2,0.3,0.4,0.4,0.6c0.1,0.2,0.2,0.4,0.4,0.5c0,0,0,0.1,0.1,0.1c1.5,2.2,3,4.6,4.3,6.9c0.1,0.2,0.2,0.4,0.3,0.6c0,0,0,0,0,0.1
		c0.1,0.2,0.2,0.3,0.3,0.5c0,0,0,0,0,0.1c1,1.9,1.9,3.8,2.8,5.8c0,0,0,0,0,0.1c0.2,0.4,0.3,0.8,0.5,1.1c0,0,0,0.1,0,0.1
		c0,0.1,0.1,0.2,0.1,0.3c0.1,0.3,0.2,0.5,0.3,0.8c0,0,0,0,0,0c0,0,0,0,0,0c0,0.1,0,0.1,0.1,0.2c0.5,1.2,0.9,2.3,1.3,3.5
		c0.2,0.6,0.4,1.2,0.6,1.8c0,0,0,0,0,0.1c0.1,0.3,0.2,0.5,0.2,0.8c0,0.1,0,0.1,0,0.2c0,0,0,0.1,0,0.1c0,0,0,0.1,0,0.1
		c0.7,2.3,1.3,4.6,1.7,6.9c0,0,0,0.1,0,0.1c0.1,0.3,0.1,0.7,0.2,1c0,0,0,0,0,0.1C193.1,103.5,193.6,108.5,193.6,113.7z"/>
	<g>
		<defs>
			<path id="SVGID_1_" d="M195.1,113.7c0,1.2,0,2.4-0.1,3.6c0,0,0,0.1,0,0.1c-0.1,2.9-0.4,5.8-0.8,8.6c0,0.1,0,0.1,0,0.2
				c-1.5,9.7-4.7,18.8-9.3,27c-3.2,5.7-7,11-11.4,15.7c0,0-0.1,0.1-0.1,0.1c0,0.1-0.1,0.1-0.1,0.2c-1.1,1.2-2.2,2.3-3.3,3.4
				c-0.1,0.1-0.2,0.1-0.2,0.2c-0.3,0.3-0.5,0.5-0.8,0.8c-0.1,0.1-0.1,0.1-0.2,0.2c0,0,0,0-0.1,0.1c-0.2,0.2-0.4,0.3-0.6,0.5
				c0,0-0.1,0.1-0.1,0.1c-3.1,2.8-6.5,5.4-10.1,7.7c-1.3,0.9-2.7,1.7-4.1,2.5c-0.5,0.3-0.9,0.5-1.4,0.8c-0.4,0.2-0.8,0.4-1.1,0.6
				c-6,3.1-12.5,5.5-19.3,7.1c-0.3,0.1-0.7,0.1-1,0.2c-1.4,0.3-2.7,0.5-4.1,0.8c-0.4,0.1-0.9,0.1-1.3,0.2c-0.1,0-0.3,0-0.4,0.1
				c-0.9,0.1-1.9,0.2-2.8,0.3c-0.1,0-0.2,0-0.3,0c-2.6,0.3-5.3,0.4-8,0.4c-3.8,0-7.5-0.3-11.2-0.8c-0.1,0-0.3,0-0.4-0.1
				c-0.4-0.1-0.9-0.1-1.3-0.2c-1.4-0.2-2.8-0.5-4.1-0.8c-0.3-0.1-0.7-0.1-1-0.2c-3-0.7-5.9-1.6-8.8-2.6c0,0-0.1,0-0.1,0
				c-0.3-0.1-0.6,0.5-0.9,0.3c-0.1-0.1-0.2,0.3-0.2,0.3c0,0,0,0,0,0c-7.7-3-14.8-7.3-21.2-12.2c0,0-0.1-0.3-0.1-0.4
				c-0.4-0.3-0.8-0.7-1.2-1c-0.1-0.1-0.2-0.2-0.3-0.3c-1.3-1.1-4.7,4.4-5.9,3.3c0,0,0-0.1-0.1-0.1c-0.1-0.1-0.1-0.1-0.2-0.2l0,0
				c-0.3-0.3-0.5-0.5-0.8-0.8c-0.1-0.1-0.1-0.3-0.1-0.2c0.2,0.2-41.3-2.3-41.3-2.3V40.4l18.7-1.3c0,0,107.3,0.3,110.3,1.8
				c4.9,1.9,10.8,5.8,25.3,13.2c0.3,0.1,0.5,0.4,0.7,0.7c0,0,0,0,0,0c0.2,0.2,0.3,0.3,0.5,0.5l0.1,0.1c1.4,1.4,2.8,2.8,4.1,4.3
				c0.1,0.1,0.1,0.1,0.1,0.2c0.1,0.1,0.2,0.2,0.3,0.3c0.1,0.1,0.2,0.2,0.3,0.3c0.1,0.2,0.3,0.3,0.4,0.5c0,0,0,0,0.1,0.1
				c0.1,0.1,0.1,0.1,0.2,0.2c0,0,0,0,0,0.1c0.3,0.4,0.6,0.7,0.9,1.1c0,0.1,0.1,0.1,0.1,0.2c1.1,1.3,2.1,2.6,3,4
				c0.1,0.2,0.3,0.4,0.4,0.6c0.1,0.2,0.2,0.4,0.4,0.5c0,0,0,0.1,0.1,0.1c1.5,2.2,3,4.6,4.3,6.9c0.1,0.2,0.2,0.4,0.3,0.6
				c0,0,0,0,0,0.1c0.1,0.2,0.2,0.3,0.3,0.5c0,0,0,0,0,0.1c1,1.9,1.9,3.8,2.8,5.8c0,0,0,0,0,0.1c0.2,0.4,0.3,0.8,0.5,1.1
				c0,0,0,0.1,0,0.1c0,0.1,0.1,0.2,0.1,0.3c0.1,0.3,0.2,0.5,0.3,0.8c0,0,0,0,0,0c0,0,0,0,0,0c0,0.1,0,0.1,0.1,0.2
				c0.5,1.2,0.9,2.3,1.3,3.5c0.2,0.6,0.4,1.2,0.6,1.8c0,0,0,0,0,0.1c0.1,0.3,0.2,0.5,0.2,0.8c0,0.1,0,0.1,0,0.2c0,0,0,0.1,0,0.1
				c0,0,0,0.1,0,0.1c0.7,2.3,1.3,4.6,1.7,6.9c0,0,0,0.1,0,0.1c0.1,0.3,0.1,0.7,0.2,1c0,0,0,0,0,0.1
				C194.6,103.5,195.1,108.5,195.1,113.7z"/>
		</defs>
		<clipPath id="SVGID_2_">
			<use xlink:href="#SVGID_1_"  style="overflow:visible;"/>
		</clipPath>
		<g class="st2">
			<g>
				<path class="st3" d="M27.1,158.3V52.7c0-5.9,5.1-10.7,11.4-10.7h148c6.3,0,11.4,4.8,11.4,10.7v105.5H27.1z"/>
				<path class="st4" d="M186.4,43.3c5.6,0,10.1,4.2,10.1,9.4V157c0,0-4.5,0-10.1,0h-148c-5.6,0-10.1,0-10.1,0V52.7
					c0-5.2,4.5-9.4,10.1-9.4H186.4 M186.4,40.8h-148c-7,0-12.7,5.4-12.7,12V157v2.6h2.6h10.1h148h10.1h2.6V157V52.7
					C199.1,46.1,193.4,40.8,186.4,40.8L186.4,40.8z"/>
			</g>
			<path class="st5" d="M206.7,165c0,4.4-2.9,8-6.5,8H24.7c-3.6,0-6.5-3.6-6.5-8l0,0c0-4.4,2.9-8,6.5-8h175.5
				C203.8,157,206.7,160.6,206.7,165L206.7,165z"/>
			<path class="st6" d="M38.1,53.3v94.3h148.6V53.3H38.1z M155.9,96.1c-1,1-2.6,1-3.6,0l-24-24c-1-1-1-2.6,0-3.6
				c0.5-0.5,1.1-0.7,1.8-0.7c0.7,0,1.3,0.2,1.8,0.7l24,24C156.9,93.5,156.9,95.1,155.9,96.1z M167.9,108c-1,1-2.6,1-3.6,0l-5.6-5.6
				c-1-1-1-2.6,0-3.6c0.5-0.5,1.1-0.7,1.8-0.7c0.7,0,1.3,0.2,1.8,0.7l5.6,5.6C168.8,105.4,168.8,107,167.9,108z M169.6,91.4
				c-1,1-2.3,1.3-2.8,0.8l-21.3-21.3c-0.6-0.6-0.2-1.8,0.8-2.8c0.7-0.7,1.5-1,2.1-1c0.3,0,0.6,0.1,0.7,0.3l21.3,21.3
				C170.9,89.2,170.6,90.5,169.6,91.4z"/>
		</g>
		<g class="st2">
			<g>
				<path class="st3" d="M38,176c-2.1,0-3.9-1.8-3.9-3.9v-91c0-2.2,1.7-3.9,3.9-3.9h52.6c2.1,0,3.9,1.8,3.9,3.9v91
					c0,2.2-1.7,3.9-3.9,3.9H38z"/>
				<path class="st4" d="M90.6,78.5c1.4,0,2.6,1.2,2.6,2.7v91c0,1.5-1.2,2.7-2.6,2.7H38c-1.4,0-2.6-1.2-2.6-2.7v-91
					c0-1.5,1.2-2.7,2.6-2.7H90.6 M90.6,75.9H38c-2.8,0-5.1,2.3-5.1,5.2v91c0,2.9,2.3,5.2,5.1,5.2h52.6c2.8,0,5.1-2.3,5.1-5.2v-91
					C95.7,78.3,93.4,75.9,90.6,75.9L90.6,75.9z"/>
			</g>
			<g>
				<path class="st6" d="M40,87.8v77.7h48.6V87.8H40z M75.5,114.7c-0.7,0.7-1.9,0.7-2.7,0L55.1,96.9c-0.7-0.7-0.7-1.9,0-2.7
					c0.4-0.4,0.9-0.6,1.3-0.6c0.5,0,1,0.2,1.3,0.6L75.5,112C76.3,112.8,76.3,114,75.5,114.7z M84.4,123.5c-0.7,0.7-1.9,0.7-2.7,0
					l-4.1-4.1c-0.7-0.7-0.7-1.9,0-2.7c0.4-0.4,0.8-0.6,1.3-0.6c0.5,0,1,0.2,1.3,0.6l4.1,4.1C85.1,121.6,85.1,122.8,84.4,123.5z
					 M85.7,111.3c-0.7,0.7-1.7,1-2.1,0.6L67.8,96c-0.4-0.4-0.2-1.4,0.6-2.1c0.5-0.5,1.1-0.8,1.5-0.8c0.2,0,0.4,0.1,0.6,0.2
					l15.8,15.8C86.7,109.6,86.4,110.5,85.7,111.3z"/>
			</g>
			<g>
				<path class="st4" d="M69.2,82.9h-11c-0.7,0-1.3,0.6-1.3,1.3c0,0.7,0.6,1.3,1.3,1.3h11c0.7,0,1.3-0.6,1.3-1.3
					C70.6,83.5,70,82.9,69.2,82.9L69.2,82.9z"/>
			</g>
			<g>
				<g>
					<path class="st4" d="M69.7,167.5H58.8c-0.4,0-0.7,0.3-0.7,0.7v2.8c0,0.4,0.3,0.7,0.7,0.7h10.9c0.4,0,0.7-0.3,0.7-0.7v-2.8
						C70.5,167.9,70.1,167.5,69.7,167.5L69.7,167.5z"/>
				</g>
				<g>
					<path class="st4" d="M69.7,167.5H58.8c-0.4,0-0.8,0.4-0.8,0.8v2.8c0,0.4,0.4,0.8,0.8,0.8h10.9c0.4,0,0.8-0.4,0.8-0.8v-2.8
						C70.5,167.8,70.2,167.5,69.7,167.5L69.7,167.5z M58.8,171.7c-0.4,0-0.7-0.3-0.7-0.7v-2.8c0-0.4,0.3-0.7,0.7-0.7h10.9
						c0.4,0,0.7,0.3,0.7,0.7v2.8c0,0.4-0.3,0.7-0.7,0.7H58.8L58.8,171.7z"/>
				</g>
			</g>
		</g>
		<g class="st2">
			<g>
				<path class="st3" d="M87.9,177.1c-2.4,0-4.3-1.9-4.3-4.3V120c0-2.4,1.9-4.3,4.3-4.3h21.5c2.4,0,4.3,1.9,4.3,4.3v52.8
					c0,2.4-1.9,4.3-4.3,4.3H87.9z"/>
				<path class="st4" d="M109.4,117c1.7,0,3,1.3,3,3v52.8c0,1.7-1.3,3-3,3H87.9c-1.7,0-3-1.3-3-3V120c0-1.7,1.3-3,3-3H109.4
					 M109.4,114.5H87.9c-3.1,0-5.5,2.5-5.5,5.5v52.8c0,3.1,2.5,5.5,5.5,5.5h21.5c3.1,0,5.5-2.5,5.5-5.5V120
					C115,117,112.5,114.5,109.4,114.5L109.4,114.5z"/>
			</g>
			<rect x="86.2" y="123.7" class="st0" width="24.9" height="43.9"/>
			<path class="st4" d="M96.6,121.7h4.2c0.3,0,0.5-0.2,0.5-0.5c0-0.3-0.2-0.5-0.5-0.5h-4.2c-0.3,0-0.5,0.2-0.5,0.5
				C96.1,121.4,96.3,121.7,96.6,121.7z"/>
			<circle class="st4" cx="98.7" cy="119.2" r="0.7"/>
			<path class="st4" d="M98.7,118.5c0.4,0,0.7,0.3,0.7,0.7c0,0.4-0.3,0.7-0.7,0.7s-0.7-0.3-0.7-0.7C98,118.8,98.3,118.5,98.7,118.5z
				"/>
			<path class="st4" d="M101.3,169.8H96c-0.2,0-0.3,0.1-0.3,0.3v1.3c0,0.2,0.1,0.3,0.3,0.3h5.3c0.2,0,0.3-0.1,0.3-0.3v-1.3
				C101.6,170,101.5,169.8,101.3,169.8z"/>
			<path class="st6" d="M86.8,124.8v41.8h23.7v-41.8H86.8z M102.4,139.9c-0.4,0.4-1.2,0.4-1.6,0L89.9,129c-0.4-0.4-0.4-1.2,0-1.6
				c0.2-0.2,0.5-0.3,0.8-0.3c0.3,0,0.6,0.1,0.8,0.3l10.9,10.9C102.9,138.7,102.9,139.5,102.4,139.9z M107.9,145.3
				c-0.4,0.4-1.2,0.4-1.6,0l-2.5-2.5c-0.4-0.4-0.4-1.2,0-1.6c0.2-0.2,0.5-0.3,0.8-0.3c0.3,0,0.6,0.1,0.8,0.3l2.5,2.5
				C108.3,144.1,108.3,144.9,107.9,145.3z M108.6,137.8c-0.4,0.4-1,0.6-1.3,0.3l-9.7-9.7c-0.3-0.3-0.1-0.8,0.4-1.3
				c0.3-0.3,0.7-0.5,0.9-0.5c0.1,0,0.3,0,0.3,0.1l9.7,9.7C109.2,136.8,109.1,137.4,108.6,137.8z"/>
		</g>
	</g>
	<path class="st7" d="M152.9,43.3c1.5,0.8,2.9,1.7,4.3,2.7c0.3,0.2,0.6,0.4,0.8,0.6c0.3,0.2,0.5,0.3,0.8,0.5c0,0,0.1,0.1,0.1,0.1
		c3,2.1,5.9,4.4,8.6,6.9c0.2,0.2,0.5,0.4,0.7,0.7c0,0,0,0,0,0c0.2,0.2,0.3,0.3,0.5,0.5l0.1,0.1c1.4,1.4,2.8,2.8,4.1,4.3
		c0.1,0.1,0.1,0.1,0.1,0.2c0.1,0.1,0.2,0.2,0.3,0.3c0.1,0.1,0.2,0.2,0.3,0.3c0.1,0.2,0.3,0.3,0.4,0.5c0,0,0,0,0.1,0.1
		c0.1,0.1,0.1,0.1,0.2,0.2c0,0,0,0,0,0.1c0.3,0.4,0.6,0.7,0.9,1.1c0,0.1,0.1,0.1,0.1,0.2c1.1,1.3,2.1,2.6,3,4
		c0.1,0.2,0.3,0.4,0.4,0.6c0.1,0.2,0.2,0.4,0.4,0.5c0,0,0,0.1,0.1,0.1c1.5,2.2,3,4.6,4.3,6.9c0.1,0.2,0.2,0.4,0.3,0.6c0,0,0,0,0,0.1
		c0.1,0.2,0.2,0.3,0.3,0.5c0,0,0,0,0,0.1c1,1.9,1.9,3.8,2.8,5.8c0,0,0,0,0,0.1c0.2,0.4,0.3,0.8,0.5,1.1c0,0,0,0.1,0,0.1
		c0,0.1,0.1,0.2,0.1,0.3c0.1,0.3,0.2,0.5,0.3,0.8c0,0,0,0,0,0c0,0,0,0,0,0c0,0.1,0,0.1,0.1,0.2c0.5,1.2,0.9,2.3,1.3,3.5
		c0.2,0.6,0.4,1.2,0.6,1.8c0,0,0,0,0,0.1c0.1,0.3,0.2,0.5,0.2,0.8c0,0.1,0,0.1,0,0.2c0,0,0,0.1,0,0.1c0,0,0,0.1,0,0.1
		c0.7,2.3,1.3,4.6,1.7,6.9c0,0,0,0.1,0,0.1c0.1,0.3,0.1,0.7,0.2,1c0,0,0,0,0,0.1c0.9,4.9,1.4,9.9,1.4,15c0,1.2,0,2.4-0.1,3.6
		c0,0,0,0.1,0,0.1c-0.1,2.9-0.4,5.8-0.8,8.6c0,0.1,0,0.1,0,0.2c-1.5,9.7-4.7,18.8-9.3,27c-3.2,5.7-7,11-11.4,15.7
		c0,0-0.1,0.1-0.1,0.1c0,0.1-0.1,0.1-0.1,0.2c-1.1,1.2-2.2,2.3-3.3,3.4c-0.1,0.1-0.2,0.1-0.2,0.2c-0.3,0.3-0.5,0.5-0.8,0.8
		c-0.1,0.1-0.1,0.1-0.2,0.2c0,0,0,0-0.1,0.1c-0.2,0.2-0.4,0.3-0.6,0.5c0,0-0.1,0.1-0.1,0.1c-3.1,2.8-6.5,5.4-10.1,7.7
		c-1.3,0.9-2.7,1.7-4.1,2.5c-0.5,0.3-0.9,0.5-1.4,0.8c-0.4,0.2-0.8,0.4-1.1,0.6c-6,3.1-12.5,5.5-19.3,7.1c-0.3,0.1-0.7,0.1-1,0.2
		c-1.4,0.3-2.7,0.5-4.1,0.8c-0.4,0.1-0.9,0.1-1.3,0.2c-0.1,0-0.3,0-0.4,0.1c-0.9,0.1-1.9,0.2-2.8,0.3c-0.1,0-0.2,0-0.3,0
		c-2.6,0.3-5.3,0.4-8,0.4c-3.8,0-7.5-0.3-11.2-0.8c-0.1,0-0.3,0-0.4-0.1c-0.4-0.1-0.9-0.1-1.3-0.2c-1.4-0.2-2.8-0.5-4.1-0.8
		c-0.3-0.1-0.7-0.1-1-0.2c-3-0.7-5.9-1.6-8.8-2.6c0,0-0.1,0-0.1,0c-0.3-0.1-0.6,0.5-0.9,0.3c-0.1-0.1-0.2,0.3-0.2,0.3c0,0,0,0,0,0
		c-6.2-2-12-5.8-17.4-9.5"/>
</g>
</svg>
