<?xml version="1.0" encoding="utf-8"?>
<!-- Generator: Adobe Illustrator 19.2.1, SVG Export Plug-In . SVG Version: 6.00 Build 0)  -->
<svg version="1.1" id="Layer_1" xmlns="http://www.w3.org/2000/svg" xmlns:xlink="http://www.w3.org/1999/xlink" x="0px" y="0px"
	 viewBox="0 0 197.7 197.7" style="enable-background:new 0 0 197.7 197.7;" xml:space="preserve">
<style type="text/css">
	.st0{fill:#FFFFFF;stroke:#90D8CD;stroke-width:4.1333;stroke-miterlimit:10;}
	.st1{clip-path:url(#SVGID_2_);}
	.st2{fill:#FFFFFF;stroke:#FFFFFF;stroke-width:5;stroke-miterlimit:10;}
	.st3{fill:#FFFFFF;stroke:#FFFFFF;stroke-width:5.5499;stroke-miterlimit:10;}
	.st4{fill:none;}
	.st5{fill:#152021;}
	.st6{fill:#FFFFFF;}
	.st7{fill:#152021;stroke:#FFFFFF;stroke-width:7;stroke-miterlimit:10;}
	.st8{fill:#152021;stroke:#FFFFFF;stroke-width:7.0517;stroke-miterlimit:10;}
	.st9{fill:none;stroke:#152021;stroke-width:5.628;stroke-linecap:round;stroke-linejoin:round;stroke-miterlimit:10;}
	.st10{fill:#152021;stroke:#152021;stroke-width:5.628;stroke-linecap:round;stroke-linejoin:round;stroke-miterlimit:10;}
	.st11{clip-path:url(#SVGID_4_);fill:#90D8CD;}
	.st12{fill:#070F11;stroke:#FFFFFF;stroke-width:7.9525;stroke-miterlimit:10;}
	.st13{fill:#90D8CD;}
	.st14{fill:#070F11;}
	.st15{fill:none;stroke:#90D8CD;stroke-width:4.1333;stroke-miterlimit:10;}
</style>
<g>
	<circle class="st0" cx="112" cy="110.6" r="82.1"/>
	<g>
		<defs>
			<path id="SVGID_1_" d="M195.7,110.6c0,1.2,0,2.4-0.1,3.6c0,0,0,0.1,0,0.1c-0.1,2.9-0.4,5.8-0.8,8.7c0,0.1,0,0.1,0,0.2
				c-1.5,9.8-4.7,19-9.4,27.3c-3.2,5.8-7.1,11.1-11.5,15.9c0,0-0.1,0.1-0.1,0.1c0,0.1-0.1,0.1-0.1,0.2c-0.7,0.7-1.3,1.5-2,2.1
				c-0.5,0.5-1.1,1-1.6,1.5c-0.3,0.3-0.5,0.5-0.8,0.8c-0.1,0.1-0.1,0.1-0.2,0.2c0,0,0,0-0.1,0.1c-0.2,0.2-0.4,0.3-0.6,0.5
				c0,0-0.1,0.1-0.1,0.1c-3.2,2.8-6.6,5.4-10.2,7.8c-1.4,0.9-2.7,1.7-4.1,2.5c-0.5,0.3-0.9,0.5-1.4,0.8c-0.4,0.2-0.8,0.4-1.1,0.6
				c-6.1,3.2-12.7,5.6-19.6,7.2c-0.3,0.1-0.7,0.1-1,0.2c-1.4,0.3-2.8,0.6-4.2,0.8c-0.4,0.1-0.9,0.1-1.4,0.2c-0.1,0-0.3,0-0.4,0.1
				c-0.9,0.1-1.9,0.2-2.9,0.3c-0.1,0-0.2,0-0.3,0c-2.7,0.3-5.4,0.4-8.1,0.4c-3.8,0-7.6-0.3-11.3-0.8c-0.1,0-0.3,0-0.4-0.1
				c-0.5-0.1-0.9-0.1-1.4-0.2c-1.4-0.2-2.8-0.5-4.2-0.8c-0.3-0.1-0.7-0.1-1-0.2c-3-0.7-6-1.6-8.9-2.6c0,0-0.1,0-0.1,0
				c-0.3-0.1-0.6,0-1-0.3c-0.1-0.1-0.2-0.1-0.2-0.2c0,0,0,0,0,0c-7.8-2.6-15-6.8-21.4-11.7c0,0-0.1,0-0.1-0.1
				c-0.4-0.3-0.8-0.6-1.2-0.9c-0.1-0.1-0.2-0.1-0.3-0.2c-1.3-1.1-4.7,4.5-6,3.4c0,0,0,0-0.1-0.1c-0.1-0.1-0.1-0.1-0.2-0.2l0,0
				c-0.3-0.3-0.5-0.5-0.8-0.8c-0.1-0.1-0.2-0.1-0.2-0.2c-6.1-5.8-34.8-38.1-38.9-45.5c-46.6-10.5,3.3-98.6,3.3-98.6l70.9-13.3
				c11.9-2.2,24.2,0,34.6,6.3c8.5,5.2,17.5,10.6,19,11.3c5,2,11,5.9,25.6,13.3c0.3,0.1,0.5,0.4,0.7,0.7c0,0,0,0,0,0
				c0.2,0.2,0.3,0.3,0.5,0.5l0.1,0.1c1.4,1.4,2.8,2.8,4.2,4.3c0.1,0.1,0.1,0.1,0.1,0.2c0.1,0.1,0.2,0.2,0.3,0.3
				c0.1,0.1,0.2,0.2,0.3,0.3c0.1,0.2,0.3,0.3,0.4,0.5c0,0,0,0,0.1,0.1c0.1,0.1,0.1,0.1,0.2,0.2c0,0,0,0,0,0.1
				c0.3,0.4,0.6,0.7,0.9,1.1c0,0.1,0.1,0.1,0.1,0.2c1.1,1.3,2.1,2.7,3.1,4c0.1,0.2,0.3,0.4,0.4,0.6c0.1,0.2,0.2,0.4,0.4,0.5
				c0,0,0,0.1,0.1,0.1c1.6,2.3,3,4.6,4.4,7c0.1,0.2,0.2,0.4,0.3,0.6c0,0,0,0,0,0.1c0.1,0.2,0.2,0.3,0.3,0.5c0,0,0,0,0,0.1
				c1,1.9,2,3.9,2.8,5.9c0,0,0,0,0,0.1c0.2,0.4,0.3,0.8,0.5,1.1c0,0,0,0.1,0,0.1c0,0.1,0.1,0.2,0.1,0.3c0.1,0.3,0.2,0.5,0.3,0.8
				c0,0,0,0,0,0c0,0,0,0,0,0c0,0.1,0,0.1,0.1,0.2c0.5,1.2,0.9,2.4,1.3,3.6c0.2,0.6,0.4,1.2,0.6,1.8c0,0,0,0,0,0.1
				c0.1,0.3,0.2,0.5,0.2,0.8c0,0.1,0,0.1,0,0.2c0,0,0,0.1,0,0.1c0,0,0,0.1,0,0.1c0.7,2.3,1.3,4.6,1.8,7c0,0,0,0.1,0,0.1
				c0.1,0.3,0.1,0.7,0.2,1c0,0,0,0,0,0.1C195.2,100.3,195.7,105.4,195.7,110.6z"/>
		</defs>
		<clipPath id="SVGID_2_">
			<use xlink:href="#SVGID_1_"  style="overflow:visible;"/>
		</clipPath>
		<g class="st1">
			<path class="st2" d="M113,45.9l23.9,33.3h-0.4v48H26.1c-11.6,0-21.6-9.4-21.6-21V79l26.4-25.7c0.5-0.5,1.1-0.8,1.7-1.1l18.8-7.7
				c0.1,0,0.2-0.1,0.3-0.2l15-14.7c1-1,2.5-1.5,3.9-1.5c1.4,0.1,2.8,0.8,3.7,1.9L91.8,52l14.7-7.7C108.7,43.1,111.5,43.8,113,45.9z"
				/>
			<polygon class="st3" points="137,78.9 137,79 136.9,78.9 			"/>
			<path class="st4" d="M43.3,63.7L37,68.8c-0.3,0.2-0.3,0.5,0,0.8l9.5,9.2h23.2L51,49.4v0.1l-15.4,6.3l7.7,6.9
				C43.7,63,43.6,63.5,43.3,63.7z"/>
			<path class="st4" d="M76.5,47.1l-10.1,8c-0.3,0.2-0.2,0.6,0.1,0.7l9.2,4.9c0.2,0.1,0.3,0.1,0.2,0.3l-4.7,17.7h36.3L88.5,54.6
				l0,0.1L71.1,32.7c-0.2-0.3-0.5-0.3-0.6-0.3c-0.1,0-0.2,0-0.4,0.2l-1,1.2v0l7.8,12.6C76.9,46.7,76.7,46.9,76.5,47.1z"/>
			<path class="st4" d="M109.6,48.3c-0.2-0.3-0.7-0.4-1.1-0.2l-3.7,2h0l2.2,4.2c0.1,0.3,0.1,0.6-0.2,0.8l-6.1,4.4
				c-0.3,0.2-0.3,0.7-0.1,0.9l6.8,6.8c0.1,0.1,0.2,0,0.2,0.2l1,11.4h23.1l0,0.2L109.6,48.3z"/>
			<path class="st5" d="M137,78.9L113,45.7c-1.5-2.1-4.3-2.7-6.6-1.5L91.8,52L74.4,30.1c-0.9-1.1-2.2-1.8-3.7-1.9s-2.9,0.4-3.9,1.5
				l-15,14.7c-0.1,0.1-0.2,0.1-0.3,0.2l-18.7,7.7c-0.6,0.3-1.2,0.6-1.7,1.1L5,79v27.2c0,11.6,9.5,21.5,21.1,21.5H138v-49h-1
				L137,78.9z M100.7,59.4l6.1-4.4c0.2-0.2,0.3-0.5,0.2-0.8l-2.2-4.2l3.7-2c0.4-0.2,0.8-0.1,1.1,0.2l22.1,30.6l0-0.2h-23.1l-1-11.4
				c0-0.1-0.1-0.2-0.2-0.3l-6.8-6.8C100.4,60,100.4,59.6,100.7,59.4z M66.4,55.1l10.1-8c0.2-0.1,0.2-0.4,0.1-0.6l-8-12.6l1.2-1.2
				c0.2-0.2,0.5-0.2,0.6-0.2c0.1,0,0.4,0.1,0.6,0.3l17.5,22l0-0.2l18.9,24.1H71.1L75.8,61c0.1-0.2,0-0.3-0.2-0.4l-9.2-4.9
				C66.2,55.6,66.1,55.3,66.4,55.1z M51,49.8L51,49.8l18.7,28.9H46.5L37,69.5c-0.3-0.3-0.3-0.6,0-0.9l6.3-5c0.3-0.2,0.3-0.7,0-0.9
				l-7.6-6.8L51,49.8z M29,123.4c-11.8,0-20.1-8.6-20.1-20.4c0-11.7,8.3-20.4,20.1-20.4c11.8,0,20.1,8.6,20.1,20.4
				C49.1,114.8,40.8,123.4,29,123.4z M93,107.1c0,9.8-5.6,16.3-17,16.3c-11.5,0-17-6.6-17-16.2V83.7h7V107c0,6.3,2.9,10.3,9.5,10.3
				c6.6,0,9.5-4.1,9.5-10.3V83.7h8V107.1z M133,88.7h-12v33h-7v-33h-12v-5h31V88.7z"/>
			<polygon class="st5" points="137.2,79.4 137.2,79.4 137.2,79.4 137.2,79.4 137.2,79.4 			"/>
			<path class="st5" d="M29,88.8c-8,0-13,6.1-13,14.2c0,8.1,5.1,14.2,13,14.2c7.9,0,13-6.1,13-14.2C42,94.9,36.9,88.8,29,88.8z"/>
			<path class="st6" d="M29,82.7c-11.8,0-20.1,8.6-20.1,20.4c0,11.7,8.3,20.4,20.1,20.4c11.8,0,20.1-8.6,20.1-20.4
				C49.1,91.3,40.8,82.7,29,82.7z M29,117.3c-8,0-13-6.1-13-14.2c0-8.1,5.1-14.2,13-14.2c7.9,0,13,6.1,13,14.2
				C42,111.2,36.9,117.3,29,117.3z"/>
			<path class="st6" d="M85,107c0,6.3-2.9,10.3-9.5,10.3c-6.6,0-9.5-4.1-9.5-10.3V83.7h-7v23.5c0,9.7,5.6,16.2,17,16.2
				c11.4,0,17-6.5,17-16.3V83.7h-8V107z"/>
			<polygon class="st6" points="102,88.7 114,88.7 114,121.7 121,121.7 121,88.7 133,88.7 133,83.7 102,83.7 			"/>
			<path class="st5" d="M105.4,35.2c0.2-0.2,0.1-0.5-0.2-0.6l-2.9-0.4c-0.1,0-0.2-0.1-0.3-0.2l-0.2-0.4l-1.1-2.2
				c-0.1-0.2-0.5-0.2-0.6,0L98.8,34c0,0.1-0.1,0.2-0.3,0.2l-2.9,0.5c-0.3,0-0.4,0.4-0.2,0.6l2.1,2c0.1,0.1,0.1,0.2,0.1,0.3l-0.5,2.9
				c0,0.3,0.2,0.5,0.5,0.3l2.6-1.4c0.1-0.1,0.2-0.1,0.3,0l1.2,0.6l1.4,0.7c0.2,0.1,0.5-0.1,0.5-0.4l-0.5-2.9c0-0.1,0-0.2,0.1-0.3
				L105.4,35.2z"/>
		</g>
		<g class="st1">
			<g>
				<path class="st7" d="M182.6,89.1l-7.3-2.3c0,0,0,0,0.1,0c-1.5-0.7-13.3-12.8-14.2-14.4c5.2,1.8,4.5,1.3,6.9-0.6
					c-5.4-2.3-8.1-10.5-7.4-10.4c0.8,0.1,2.3,0.9,4.3-0.9c-4.8-4-7.9-10.4-9-13.6c-1.2,4.7-4,11.9-7.7,13.1c3.7,1.4,4.5,0.8,3.4,2.4
					c-1.1,1.6-5.4,6.6-5.9,7c-1.9,1.4,3.6,1.7,6.8,1c1.8-0.4-1.8,3.5-6.1,7.2l-27.3-8.6c-0.3-0.4-0.6-0.8-0.7-1.1
					c-0.8-1.3-0.2-0.9,2.5-2c-2.8-1-4.8-6.9-5.7-10.8c-0.8,2.6-3.1,7.9-6.7,11.1c1.5,1.5,2.6,0.8,3.2,0.7c0.2,0,0,1.3-0.7,2.9
					l-29.6,9.3c-1.5-1.5-2.2-2.7-1.3-2.5c2.4,0.5,4-0.1,3.8-0.5c-0.3-0.4-3.7-3.5-4.5-4.6c-0.8-1.1-0.2-0.7,2.6-1.6
					c-2.8-0.8-4.9-5.6-5.9-8.6c-0.8,2-3.2,6.3-6.8,8.9c1.5,1.2,2.7,0.6,3.3,0.6c0.6-0.1-1.4,5.4-5.6,6.8c2.2,1.5,3.8,0.3,3.8,0.3
					s-0.5,2.7-3.3,5.6l-17.3,5.4c-1.2,0.4-2,1.5-2,2.7v8.4v2.1V152c0,1.2,0.9,2.3,2.1,2.7l65.2,19.5c0.3,0.1,0.5,0.1,0.8,0.1
					c0.3,0,0.5,0,0.8-0.1l65.1-19.5c1.2-0.4,1.9-1.5,1.9-2.7v-49.6v-2.1v-8.4C184.5,90.6,183.8,89.5,182.6,89.1z M86.3,95.5
					c2.7,1.5,8.5,1.9,8.9,1.8c-4.6-1.4-7.3-3.8-7.3-3.8s8,1.4,9,0c0,0-4.9-1.4-6.8-2.1c-1.9-0.7-4.8-1.9-6.2-4.4
					c0.7,0.2,6,0,6.2-1.3c-0.9-0.4-2.1-1.1-3.4-2.1l22.4-7c0.3,0,0.6-0.1,0.8-0.2l0.5-0.1c-0.2,1.2-1.8,7.9-9.1,11.7
					c1.3,2,5.3-0.2,6.1-0.4c-2.4,5.5-4.1,7.9-7.9,9.2c0.3,0.3,0.9,0.4,1.6,0.4h-13C87,97.2,86.3,95.7,86.3,95.5z M126.6,95.3
					c0,0,4.3,1,6.9,0.8c-0.2,0.1-0.4,0.3-0.4,0.3c1.3,2.1,7.7-0.6,7.7-0.6s-0.7,1.6-2,1.6h-10C127.5,97.2,126.6,95.3,126.6,95.3z
					 M102.9,97.2c1,0,2-0.3,2.6-0.5c-0.1,0.2-0.3,0.5-0.4,0.5H102.9z M178.5,97.2h-1.4c-3.3,0-5.7-3-7.7-6.4l9.1,3.1V97.2z
					 M146.3,85.9c-1.9,3.7-2.7,4.8-5.2,5.8c-1.6,0.7-4.3,2.3-6.1,3.4c-1.2-0.5-4.7-1.8-6.2-2.5c-1.8-0.8-4.7-2.4-6.1-5.5
					c0.6,0.2,5.9,0,6.1-1.6c-3-1.5-9.2-8.7-9.9-10.7l22.4,7c-1.2,0.9-2.3,1.6-3.2,1.9C138.4,85.9,145.4,86.2,146.3,85.9z M66.5,90
					C64.7,92.6,63,94,60,94.8c0.9,0.7,4.8,0.4,6.3-0.1c-1.2,1.2-2.2,2.5-3,2.5h-8.9v-3.3L66.5,90z"/>
				<path class="st8" d="M223.5,120.1l-24.3-24.7c-1.1-1.1-2.9-1.1-4,0s-1.1,2.9,0,4l22.3,22.7l-22.3,22.7c-1.1,1.1-1.1,2.9,0,4
					c0.5,0.5,1.3,0.8,2,0.8c0.7,0,1.5-0.3,2-0.8l24.3-24.7C224.6,123,224.6,121.2,223.5,120.1z"/>
			</g>
			<g>
				<polygon class="st9" points="181.6,91.8 181.6,102.4 51.1,102.4 51.1,91.8 116.4,71.3 				"/>
				<polygon class="st10" points="181.6,100.3 181.6,152 116.4,171.5 51.1,152 51.1,100.3 				"/>
				<g>
					<path class="st6" d="M81.6,138.4c1.6-1.6,3.8-2.7,6.3-2.7c4.1,0,7.4,2.6,8.4,6.7h-2.6c-1-2.7-3.2-4.1-5.9-4.1
						c-1.7,0-3.3,0.8-4.5,1.9c-1.1,1.2-1.9,2.8-1.9,4.7c0,1.8,0.7,3.4,1.9,4.6c1.1,1.2,2.7,1.9,4.5,1.9c2.7,0,5.1-1.6,6-4.3h2.6
						c-1,4.1-4.4,6.9-8.6,6.9c-2.5,0-4.7-1-6.3-2.7c-1.6-1.7-2.6-3.9-2.6-6.5C79,142.4,80.1,140.1,81.6,138.4z"/>
					<path class="st6" d="M101.9,138.3c1.7-1.7,4-2.7,6.5-2.7c2.6,0,4.9,1.1,6.6,2.7c1.6,1.7,2.7,4,2.7,6.6c0,2.6-1.1,4.9-2.7,6.6
						c-1.7,1.7-4,2.7-6.6,2.7c-2.5,0-4.9-1-6.5-2.7c-1.6-1.7-2.7-4-2.7-6.6C99.2,142.3,100.3,140,101.9,138.3z M113.2,140.2
						c-1.2-1.2-2.9-2-4.7-2c-1.8,0-3.4,0.8-4.6,2c-1.2,1.2-1.9,2.9-1.9,4.7c0,1.8,0.8,3.5,1.9,4.7c1.2,1.2,2.9,2,4.6,2
						c1.8,0,3.5-0.8,4.7-2c1.2-1.2,1.9-2.8,1.9-4.7S114.3,141.4,113.2,140.2z"/>
					<path class="st6" d="M127.8,135.8c5.9,0,8.9,4.5,8.9,9.1c0,4.5-3,9-8.9,9h-6.5v-18.1H127.8z M127.8,151.3
						c4.2,0,6.3-3.2,6.3-6.4c0-3.2-2.1-6.5-6.3-6.5h-3.9v12.9H127.8z"/>
					<path class="st6" d="M142.7,151.3h8.4v2.6H140v-18.1h11v2.6h-8.4v5.1h8.2v2.6h-8.2V151.3z"/>
				</g>
				<g>
					<g>
						<path class="st6" d="M58.3,127.8c-1.1,0-2.1-0.2-3-0.7c-0.9-0.5-1.7-1.1-2.4-1.8c-0.7-0.8-1.2-1.6-1.5-2.6c-0.4-1-0.6-2-0.6-3
							c0-1.1,0.2-2.2,0.5-3.2c0.4-1,0.9-1.9,1.5-2.6c0.7-0.8,1.4-1.4,2.3-1.8c0.9-0.4,1.9-0.7,3-0.7c1.4,0,2.5,0.3,3.5,1
							c1,0.7,1.9,1.5,2.6,2.6l0-3.3l1.9,0l0,16c0,1.1-0.2,2.1-0.6,2.9c-0.4,0.8-1,1.6-1.7,2.1c-0.7,0.6-1.5,1-2.5,1.3
							c-1,0.3-2,0.4-3,0.4c-1.8,0-3.3-0.3-4.4-1c-1.1-0.7-2-1.5-2.7-2.6l1.3-1c0.6,1,1.5,1.8,2.5,2.2s2.1,0.7,3.3,0.7
							c0.8,0,1.5-0.1,2.2-0.3c0.7-0.2,1.3-0.5,1.8-0.9c0.5-0.4,0.9-0.9,1.2-1.6c0.3-0.6,0.5-1.4,0.5-2.2l0-3.1
							c-0.6,1-1.5,1.8-2.5,2.4C60.6,127.5,59.5,127.8,58.3,127.8z M58.9,126.1c0.6,0,1.2-0.1,1.8-0.3c0.6-0.2,1.1-0.5,1.6-0.9
							c0.5-0.4,0.9-0.8,1.2-1.3c0.3-0.5,0.5-0.9,0.6-1.4l0-4.9c-0.2-0.6-0.5-1.1-0.9-1.6c-0.4-0.5-0.8-0.9-1.3-1.3
							c-0.5-0.3-1-0.6-1.6-0.8c-0.6-0.2-1.1-0.3-1.7-0.3c-0.9,0-1.7,0.2-2.4,0.6c-0.7,0.4-1.3,0.9-1.8,1.5c-0.5,0.6-0.9,1.3-1.1,2.1
							c-0.3,0.8-0.4,1.6-0.4,2.4c0,0.9,0.2,1.7,0.5,2.4c0.3,0.8,0.7,1.5,1.3,2c0.5,0.6,1.2,1,1.9,1.4
							C57.3,125.9,58.1,126.1,58.9,126.1z"/>
					</g>
					<g>
						<path class="st6" d="M76.5,113.4c-1.3,0-2.5,0.4-3.4,1.1c-1,0.7-1.7,1.6-2.1,2.8l0,9.3l-1.9,0l0-14.9l1.8,0l0,3.6
							c0.5-1.1,1.2-1.9,2-2.6c0.8-0.7,1.7-1,2.7-1c0.2,0,0.3,0,0.5,0c0.2,0,0.3,0,0.4,0L76.5,113.4z"/>
						<path class="st6" d="M84.1,126.9c-1.1,0-2.1-0.2-3-0.6c-0.9-0.4-1.7-1-2.3-1.7c-0.7-0.7-1.2-1.5-1.5-2.5
							c-0.4-0.9-0.5-1.9-0.5-3c0-1,0.2-2,0.6-3c0.4-0.9,0.9-1.8,1.5-2.5c0.7-0.7,1.4-1.3,2.3-1.7c0.9-0.4,1.9-0.6,3-0.6
							c1.1,0,2.1,0.2,3,0.6c0.9,0.4,1.7,1,2.3,1.7c0.7,0.7,1.2,1.5,1.5,2.5c0.4,0.9,0.6,1.9,0.6,3c0,1-0.2,2-0.6,3
							c-0.4,0.9-0.9,1.8-1.5,2.5c-0.7,0.7-1.4,1.3-2.3,1.7C86.2,126.7,85.2,126.9,84.1,126.9z M78.7,119.2c0,0.8,0.1,1.6,0.4,2.3
							c0.3,0.7,0.7,1.3,1.1,1.9c0.5,0.5,1.1,1,1.7,1.3c0.7,0.3,1.4,0.5,2.1,0.5c0.7,0,1.4-0.2,2.1-0.5c0.7-0.3,1.2-0.7,1.7-1.3
							c0.5-0.5,0.9-1.2,1.2-1.9c0.3-0.7,0.4-1.5,0.4-2.3c0-0.8-0.1-1.6-0.4-2.3c-0.3-0.7-0.7-1.4-1.2-1.9c-0.5-0.5-1.1-1-1.7-1.3
							c-0.6-0.3-1.3-0.5-2.1-0.5c-0.7,0-1.4,0.2-2.1,0.5c-0.7,0.3-1.2,0.8-1.7,1.3c-0.5,0.6-0.9,1.2-1.2,1.9
							C78.9,117.6,78.7,118.4,78.7,119.2z"/>
						<path class="st6" d="M112.4,111.7l1.9,0l-6.4,14.9l-1.6,0L103,119l-3.2,7.6l-1.6,0l-6.4-14.9l1.9,0l5.4,12.9l2.8-6.8l-2.6-6.1
							l1.7,0l2,4.9l1.9-4.9l1.7,0l-2.5,6.1l2.8,6.8L112.4,111.7z"/>
					</g>
				</g>
				<g>
					<path class="st6" d="M121.3,131.4c0.1,0,0.2,0,0.3,0c0.1,0,0.2,0,0.3,0c0.2,0,0.4,0,0.6-0.1c0.2,0,0.4-0.1,0.5-0.1
						c0.1,0,0.2-0.1,0.3-0.2c0.1-0.1,0.2-0.3,0.4-0.7c0.2-0.3,0.4-0.8,0.6-1.3c0.3-0.6,0.6-1.3,1-2.3l-6.6-15.1h2.1l5.6,13.3
						l5.2-13.3h1.9l-7.8,19.4c-0.3,0.7-0.7,1.2-1.2,1.6c-0.5,0.3-1.2,0.5-2.1,0.5c-0.4,0-0.7,0-1-0.1V131.4z"/>
					<path class="st6" d="M143.5,127.1c-1.1,0-2.1-0.2-3-0.6c-0.9-0.4-1.7-1-2.4-1.7c-0.7-0.7-1.2-1.5-1.5-2.5
						c-0.4-0.9-0.5-1.9-0.5-3c0-1.1,0.2-2.1,0.6-3c0.4-0.9,0.9-1.8,1.6-2.5c0.7-0.7,1.5-1.3,2.4-1.7c0.9-0.4,1.9-0.6,3-0.6
						c1.1,0,2.1,0.2,3,0.6c0.9,0.4,1.7,1,2.4,1.7c0.7,0.7,1.2,1.5,1.6,2.5c0.4,0.9,0.6,1.9,0.6,3c0,1-0.2,2-0.6,3
						c-0.4,0.9-0.9,1.8-1.6,2.5c-0.7,0.7-1.5,1.3-2.4,1.7C145.6,126.8,144.6,127.1,143.5,127.1z M138.1,119.3c0,0.8,0.1,1.6,0.4,2.4
						c0.3,0.7,0.7,1.4,1.2,1.9c0.5,0.5,1.1,1,1.7,1.3c0.7,0.3,1.4,0.5,2.1,0.5c0.8,0,1.5-0.2,2.1-0.5c0.7-0.3,1.2-0.8,1.8-1.3
						c0.5-0.5,0.9-1.2,1.2-1.9c0.3-0.7,0.4-1.5,0.4-2.4c0-0.8-0.1-1.6-0.4-2.4c-0.3-0.7-0.7-1.4-1.2-1.9c-0.5-0.5-1.1-1-1.7-1.3
						c-0.7-0.3-1.4-0.5-2.1-0.5c-0.8,0-1.5,0.2-2.1,0.5c-0.7,0.3-1.2,0.8-1.7,1.3c-0.5,0.6-0.9,1.2-1.2,2
						C138.2,117.7,138.1,118.5,138.1,119.3z"/>
					<path class="st6" d="M160.4,127.1c-1.6,0-2.8-0.5-3.6-1.6c-0.8-1.1-1.2-2.7-1.2-4.9v-8.9h2v8.5c0,3.4,1.2,5.1,3.5,5.1
						c0.6,0,1.1-0.1,1.7-0.3c0.6-0.2,1.1-0.5,1.5-0.8c0.5-0.4,0.9-0.8,1.3-1.3c0.4-0.5,0.7-1.1,0.9-1.7v-9.5h2v12.5
						c0,0.5,0.2,0.8,0.7,0.8v1.7c-0.4,0.1-0.7,0.1-0.8,0.1c-0.4,0-0.8-0.1-1.1-0.4c-0.3-0.3-0.5-0.6-0.5-1v-2.1
						c-0.7,1.2-1.6,2.1-2.7,2.7C162.9,126.7,161.7,127.1,160.4,127.1z"/>
					<path class="st6" d="M181.9,113.4c-1.3,0-2.5,0.4-3.5,1.1c-1,0.7-1.7,1.6-2.1,2.9v9.4h-2v-15.1h1.9v3.6
						c0.5-1.1,1.2-1.9,2.1-2.6c0.8-0.7,1.8-1.1,2.7-1.1c0.2,0,0.3,0,0.5,0c0.2,0,0.3,0,0.4,0V113.4z"/>
				</g>
				<g>
					<defs>
						<rect id="SVGID_3_" x="39.6" y="34" width="148.5" height="63.5"/>
					</defs>
					<clipPath id="SVGID_4_">
						<use xlink:href="#SVGID_3_"  style="overflow:visible;"/>
					</clipPath>
					<path class="st11" d="M87.9,93.5c0,0,8,1.4,9,0c0,0-4.9-1.4-6.8-2.1c-1.9-0.7-4.8-1.9-6.2-4.4c0.7,0.2,6,0,6.2-1.3
						c-3.7-1.4-12.1-9.4-9.7-9c2.4,0.5,4-0.1,3.8-0.5c-0.3-0.4-3.7-3.5-4.5-4.6c-0.8-1.1-0.2-0.7,2.6-1.6c-2.8-0.8-4.9-5.6-5.9-8.6
						c-0.8,2-3.2,6.3-6.8,8.9c1.5,1.2,2.7,0.6,3.3,0.6c0.6-0.1-1.4,5.4-5.6,6.8c2.2,1.5,3.8,0.3,3.8,0.3s-1.2,6.2-9.3,9.5
						c1.3,1.6,5.4-0.2,6.2-0.3c-2.5,4.4-4.2,6.4-8,7.4c0.9,0.7,4.8,0.5,6.4,0c-3.8,3.6-4.8,4.3-6.7,4.4c2.2,2.2,4.5,0.5,4.8,0.3
						c-0.4,1.6-6.4,3.5-6.4,3.5c1.2,1,3.3,0.7,6,0.3c2.7-0.4,13.4-2.4,13.4-2.4s13.7,2.9,17.6,2.7c-3.5-2.7-8.5-7.5-8.7-8
						c2.7,1.5,8.5,1.8,8.9,1.7C90.6,96,87.9,93.5,87.9,93.5z"/>
					<path class="st11" d="M140.9,95.7c0,0-6.4,2.6-7.7,0.6c0,0,5.4-3.5,7.9-4.6c2.5-1,3.3-2.1,5.2-5.8c-0.9,0.3-7.9,0-8.2-2
						c4.9-2.2,17.8-14.1,14.6-13.4c-3.2,0.7-8.7,0.4-6.8-1c0.6-0.4,4.9-5.4,5.9-7c1.1-1.6,0.3-1-3.4-2.4c3.7-1.2,6.5-8.5,7.7-13.1
						c1.1,3.1,4.2,9.6,9,13.6c-2,1.8-3.5,0.9-4.3,0.9c-0.8-0.1,1.9,8.2,7.4,10.4c-2.4,1.9-1.7,2.4-6.9,0.6
						c0.9,1.5,12.7,13.7,14.2,14.4c-1.7,2.4-7.2-0.3-8.2-0.4c3.2,6.7,5.5,9.8,10.6,11.3c-1.2,1-6.4,0.7-8.4,0
						c5.1,5.4,6.4,6.5,8.9,6.7c-2.9,3.3-5.9,0.7-6.3,0.5c0.5,2.5,8.5,5.3,8.5,5.3c-1.6,1.5-4.4,1-7.9,0.4
						c-3.5-0.6-17.8-3.6-17.8-3.6s-18.2,4.5-23.2,4.2c4.7-4.1,11.2-11.4,11.5-12.2c-3.6,2.2-11.2,2.8-11.8,2.6
						C137.3,99.5,140.9,95.7,140.9,95.7z"/>
					<path class="st11" d="M126.6,95.4c0,0,7.8,1.7,8.8,0c0,0-4.8-1.8-6.7-2.6c-1.8-0.8-4.7-2.4-6.1-5.5c0.6,0.2,5.9,0,6.1-1.6
						c-3.6-1.8-11.8-11.8-9.5-11.2c2.3,0.6,4-0.1,3.7-0.6c-0.3-0.5-3.6-4.4-4.4-5.7c-0.8-1.3-0.2-0.9,2.5-2c-2.8-1-4.8-6.9-5.7-10.8
						c-0.8,2.6-3.1,7.9-6.7,11.1c1.5,1.5,2.6,0.8,3.2,0.7c0.6-0.1-1.4,6.7-5.5,8.6c2.2,1.9,3.8,0.4,3.8,0.4s-1.1,7.7-9.1,11.9
						c1.3,2,5.3-0.2,6.1-0.4c-2.4,5.5-4.1,8-7.9,9.3c0.9,0.9,4.7,0.6,6.2,0c-3.8,4.5-4.7,5.3-6.6,5.5c2.1,2.7,4.4,0.6,4.7,0.4
						c-0.4,2.1-6.3,4.3-6.3,4.3c1.2,1.2,3.3,0.9,5.9,0.4c2.6-0.5,13.2-3,13.2-3s13.5,3.7,17.2,3.4c-3.5-3.4-8.3-9.4-8.5-10
						c2.7,1.8,8.3,2.3,8.7,2.1C129.3,98.4,126.6,95.4,126.6,95.4z"/>
				</g>
			</g>
		</g>
		<g class="st1">
			<rect x="112.9" y="109.9" class="st6" width="97.1" height="58.7"/>
			<g>
				<path class="st12" d="M219.5,201.4H100.1v-92.1h119.4V201.4z M101.3,200.2h116.9v-89.6H101.3V200.2z"/>
				<rect x="101.3" y="168.6" class="st13" width="81.4" height="32.1"/>
				<polyline class="st13" points="100.7,109.9 100.7,200.8 104.4,200.8 146,109.9 103.2,109.9 				"/>
				<polyline class="st13" points="216.5,200.6 216.5,109.9 209,109.9 167.3,200.6 214,200.6 				"/>
				<polyline class="st13" points="218.8,200.8 218.8,109.9 211.4,109.9 169.4,200.6 212.3,200.6 				"/>
				<g>
					<path class="st6" d="M166.7,200.2v0.6h-15.6v-0.6h4.9v-25.6v-0.3c0-0.1,0-0.2,0-0.2c0,0,0-0.1,0-0.2c0-0.2-0.1-0.5-0.2-0.8
						c-0.1-0.3-0.2-0.6-0.4-0.9c-0.1-0.2-0.2-0.4-0.3-0.6c-0.1-0.2-0.3-0.3-0.5-0.5c-0.3-0.3-0.6-0.6-1-0.8
						c-0.4-0.2-0.8-0.4-1.2-0.5c-0.4-0.1-0.7-0.1-0.9-0.2h-0.3c-1.2,0-2.5,0.3-3.7,0.8c-1.2,0.5-2.3,1.1-3.3,1.8
						c-0.8,0.5-1.5,1-2,1.5c-0.6,0.5-0.9,0.8-1.1,0.9v25.6h4.9v0.6h-15.6v-0.6h4.9v-24.9c-0.2,0.3-0.5,0.6-0.9,1.1
						c-0.4,0.5-0.8,1-1.2,1.6c-0.6,1-1.2,2.1-1.8,3.3c-0.5,1.2-0.8,2.5-0.8,3.7H130c0-1.2,0.2-2.5,0.7-3.7c0.5-1.2,1-2.3,1.6-3.2
						c0.6-0.9,1.2-1.7,1.8-2.4c0.6-0.6,0.9-1.1,1.1-1.2l0.1-0.1l5.2-5.2l0.5-0.5v5.2c0.4-0.3,0.9-0.7,1.6-1.3
						c0.7-0.5,1.5-1.1,2.4-1.6c0.9-0.5,1.9-1,2.9-1.4c1.1-0.4,2.1-0.6,3.3-0.6c0.1,0,0.2,0,0.2,0c0.1,0,0.1,0,0.2,0
						c2.5,0.1,4.4,0.7,5.8,1.8c1.4,1.1,2.4,2.3,3,3.6c0.6,1.3,1,2.6,1.1,3.6c0.1,1.1,0.2,1.7,0.2,1.7v20.4H166.7z"/>
					<path class="st6" d="M190.1,180v4.6v0.3v0.3c0,2.2-0.4,4.2-1.1,6.1c-0.7,1.9-1.6,3.5-2.8,5c-1.2,1.4-2.6,2.6-4.2,3.4
						c-1.6,0.8-3.3,1.2-5.1,1.2c-1.8,0-3.6-0.4-5.2-1.2c-1.6-0.8-3-2-4.2-3.4c-1.2-1.4-2.2-3.1-2.9-5c-0.7-1.9-1.1-4-1.1-6.1v-9.8
						c-0.2,0.3-0.5,0.6-0.9,1.1c-0.4,0.5-0.8,1-1.2,1.6c-0.6,1-1.2,2.1-1.8,3.3c-0.5,1.2-0.8,2.5-0.8,3.7h-0.6
						c0-1.2,0.2-2.5,0.7-3.6c0.5-1.2,1-2.3,1.6-3.2c0.6-1,1.2-1.8,1.8-2.4c0.6-0.6,0.9-1.1,1.1-1.2l5.8-5.8v15.9v0.3
						c0,2.1,0.2,4.1,0.6,6c0.4,1.9,1,3.5,1.7,4.9c0.7,1.4,1.5,2.5,2.4,3.2c0.9,0.8,1.8,1.1,2.8,1.1h0.1h0.1c1,0,1.9-0.4,2.8-1.1
						c0.9-0.8,1.7-1.8,2.3-3.2c0.7-1.4,1.2-3,1.7-4.9c0.4-1.9,0.6-3.9,0.6-6v-0.3V180v-0.4v-10h-4.9V169H195v0.6h-4.9v10.1V180z"/>
					<path class="st6" d="M202.8,169.1c1.8,0,3.6,0.4,5.2,1.2c1.6,0.8,3,2,4.2,3.4c1.2,1.4,2.1,3.1,2.8,5.1c0.7,1.9,1,4,1,6.2v0.3
						h-0.3h-5.2h-0.3h-1.9c-0.7,0-1.4,0.1-2.2,0.1c-0.6,0.1-1.4,0.2-2.3,0.2c-0.9,0.1-1.7,0.2-2.6,0.4c-1.2,0.3-2.3,0.6-3.3,1.1
						c-1,0.5-1.9,1.1-2.5,1.8c0.4,2.7,1,5,2,6.9c0.7,1.3,1.5,2.4,2.4,3.2c0.9,0.8,1.8,1.2,2.8,1.2h0.1h0.1c1.1,0,2.1-0.4,3-1.3
						c0.9-0.9,1.8-2.1,2.5-3.7l0.1-0.2h4.6l-0.3,0.5c-1.2,1.6-2.7,2.9-4.4,3.8c-1.7,0.9-3.6,1.4-5.5,1.4c-1.8,0-3.6-0.4-5.2-1.2
						c-1.6-0.8-3-2-4.2-3.4c-1.2-1.4-2.1-3.1-2.8-5.1c-0.7-1.9-1-4-1-6.2c0-2.2,0.3-4.2,1-6.2c0.7-1.9,1.6-3.6,2.8-5.1
						c1.2-1.4,2.6-2.6,4.2-3.4C199.3,169.5,201,169.1,202.8,169.1z M210.3,184.6c0-2.1-0.3-4-0.7-5.9c-0.4-1.8-0.9-3.4-1.6-4.7
						c-0.7-1.3-1.5-2.4-2.4-3.2c-0.9-0.8-1.8-1.2-2.8-1.2h-0.1h-0.1c-1,0-2,0.4-2.8,1.2c-0.9,0.8-1.7,1.8-2.4,3.2
						c-0.7,1.4-1.2,3-1.7,4.9c-0.4,1.9-0.6,3.9-0.6,6c0,1.2,0.1,2.3,0.2,3.3c0.7-0.6,1.6-1.2,2.6-1.6c1-0.4,2.1-0.8,3.1-1.1
						c0.9-0.2,1.8-0.4,2.6-0.5c0.8-0.1,1.6-0.2,2.3-0.3c0.8-0.1,1.5-0.1,2.3-0.1H210.3z"/>
					<path class="st6" d="M116.8,168.8c1.8,0,3.6,0.4,5.2,1.2c1.6,0.8,3,2,4.2,3.4c1.2,1.4,2.1,3.1,2.8,5.1c0.7,1.9,1,4,1,6.2v0.3
						h-0.3h-5.2h-0.3h-1.9c-0.7,0-1.4,0.1-2.2,0.1c-0.6,0.1-1.4,0.2-2.3,0.2c-0.9,0.1-1.7,0.2-2.6,0.5c-1.2,0.3-2.3,0.6-3.3,1.1
						c-1,0.5-1.9,1.1-2.5,1.8c0.4,2.7,1,5,2,6.9c0.7,1.3,1.5,2.4,2.4,3.2c0.9,0.8,1.8,1.2,2.8,1.2h0.1h0.1c1.1,0,2.1-0.4,3-1.3
						c0.9-0.9,1.8-2.1,2.5-3.7l0.1-0.2h4.6l-0.3,0.5c-1.2,1.6-2.7,2.9-4.4,3.8c-1.7,0.9-3.6,1.4-5.5,1.4c-1.8,0-3.6-0.4-5.2-1.2
						c-1.6-0.8-3-2-4.2-3.4c-1.2-1.4-2.1-3.1-2.8-5.1c-0.7-1.9-1-4-1-6.2c0-2.2,0.3-4.2,1-6.2c0.7-1.9,1.6-3.6,2.8-5.1
						c1.2-1.4,2.6-2.6,4.2-3.4C113.2,169.3,114.9,168.8,116.8,168.8z M124.3,184.4c0-2.1-0.3-4-0.7-5.9c-0.4-1.8-0.9-3.4-1.6-4.7
						c-0.7-1.3-1.5-2.4-2.4-3.2c-0.9-0.8-1.8-1.2-2.8-1.2h-0.1h-0.1c-1,0-2,0.4-2.8,1.2c-0.9,0.8-1.7,1.8-2.4,3.2
						c-0.7,1.4-1.2,3-1.7,4.9c-0.4,1.9-0.6,3.9-0.6,6c0,1.2,0.1,2.3,0.2,3.3c0.7-0.6,1.6-1.2,2.6-1.6c1-0.4,2.1-0.8,3.1-1.1
						c0.9-0.2,1.8-0.4,2.6-0.5c0.8-0.1,1.6-0.2,2.3-0.3c0.8-0.1,1.5-0.1,2.3-0.1H124.3z"/>
				</g>
				<g>
					<path class="st14" d="M159,168.6v-2.2h5.6l-9.5-20.6h-23.4l-9.6,20.6h5.6v2.2h-15v-2.2h6.7l24.1-52.5c0.3-0.6,0.5-1.2,0.8-1.8
						c0.3-0.6,0.6-1.2,0.8-1.7c0.3-0.6,1-0.3,1.3-0.9h1.2l26.2,56.8h7.5v2.2H159z M143.4,120.4l-10.7,23.2h21.3L143.4,120.4z"/>
					<path class="st14" d="M204.7,133.7h-5.6l-2.4,5.5l-2.3,5.3l-10.1,20.5c-0.3,0.5-0.6,1-0.9,1.5c-0.3,0.5-1.2,1.9-1.5,2.3l-0.5,0
						l-18.9-35h-6.7v-2.2h14.2h7.1v2.2h-5.4l13.2,24.6l7.2-14.9l2.2-4.9l2.1-4.8H190v-2.2h14.7V133.7z"/>
				</g>
				<path class="st14" d="M219.5,201.4H100.1v-92.1h119.4V201.4z M101.3,200.2h116.9v-89.6H101.3V200.2z"/>
			</g>
		</g>
	</g>
	<path class="st15" d="M33.5,135c10.4,33.4,41.5,57.7,78.3,57.7c45.1,0.1,82.1-36.6,82.3-81.7c0-9.6-1.5-18.7-4.5-27.3"/>
</g>
<rect x="33.5" y="33.1" class="st4" width="162" height="162"/>
</svg>
