<?xml version="1.0" encoding="utf-8"?>
<!-- Generator: Adobe Illustrator 19.2.1, SVG Export Plug-In . SVG Version: 6.00 Build 0)  -->
<svg version="1.1" id="Layer_1" xmlns="http://www.w3.org/2000/svg" xmlns:xlink="http://www.w3.org/1999/xlink" x="0px" y="0px"
	 viewBox="0 0 197.7 197.7" style="enable-background:new 0 0 197.7 197.7;" xml:space="preserve">
<style type="text/css">
	.st0{fill:#FFFFFF;stroke:#90D8CD;stroke-width:4.083;stroke-miterlimit:10;}
	.st1{clip-path:url(#SVGID_2_);}
	.st2{fill:#070F11;}
	.st3{fill:#FFFFFF;}
	.st4{fill:#070F11;stroke:#FFFFFF;stroke-width:3.414;stroke-miterlimit:10;}
	.st5{fill:#90D8CD;}
	.st6{fill:none;}
	.st7{fill:none;stroke:#90D8CD;stroke-width:4;stroke-miterlimit:10;}
</style>
<g>
	<circle class="st0" cx="113.5" cy="113.9" r="81.2"/>
	<g>
		<defs>
			<path id="SVGID_1_" d="M196.2,113.9c0,1.2,0,2.4-0.1,3.6c0,0,0,0.1,0,0.1c-0.1,2.9-0.4,5.8-0.8,8.6c0,0.1,0,0.1,0,0.2
				c-1.5,9.7-4.7,18.8-9.3,27c-3.2,5.7-7,11-11.4,15.7c0,0-0.1,0.1-0.1,0.1c0,0.1-0.1,0.1-0.1,0.2c-1.1,1.2-2.2,2.3-3.3,3.4
				c-0.1,0.1-0.2,0.1-0.2,0.2c-0.3,0.3-0.5,0.5-0.8,0.8c-0.1,0.1-0.1,0.1-0.2,0.2c0,0,0,0-0.1,0.1c-0.2,0.2-0.4,0.3-0.6,0.5
				c0,0-0.1,0.1-0.1,0.1c-3.1,2.8-6.5,5.4-10.1,7.7c-1.3,0.9-2.7,1.7-4.1,2.5c-0.5,0.3-0.9,0.5-1.4,0.8c-0.4,0.2-0.8,0.4-1.1,0.6
				c-6,3.1-12.5,5.5-19.3,7.1c-0.3,0.1-0.7,0.1-1,0.2c-1.4,0.3-2.7,0.5-4.1,0.8c-0.4,0.1-0.9,0.1-1.3,0.2c-0.1,0-0.3,0-0.4,0.1
				c-0.9,0.1-1.9,0.2-2.8,0.3c-0.1,0-0.2,0-0.3,0c-2.6,0.3-5.3,0.4-8,0.4c-3.8,0-7.5-0.3-11.2-0.8c-0.1,0-0.3,0-0.4-0.1
				c-0.4-0.1-0.9-0.1-1.3-0.2c-1.4-0.2-2.8-0.5-4.1-0.8c-0.3-0.1-0.7-0.1-1-0.2c-3-0.7-5.9-1.6-8.8-2.6c0,0-0.1,0-0.1,0
				c-0.3-0.1-0.6-0.7-0.9-0.9c-0.1-0.1-0.2,0.1-0.2-0.9c0,0,0,0,0,0c-7.7-2-14.8-6.1-21.2-11c0,0-0.1,0.3-0.1,0.3
				c-0.4-0.3-0.8-0.4-1.2-0.7c-0.1-0.1-0.2-0.1-0.3-0.1c-1.3-1.1-4.7,4.5-5.9,3.4c0,0,0,0.2-0.1,0.2c-0.1-0.1-0.1,0-0.2,0h0
				c-0.3-1-0.5-0.7-0.8-1c-0.1-0.1-0.6-0.4-0.5-0.3C57,179.6,15,177,15,177V40.7l19.2-1.3c0,0,107.6,0.3,110.6,1.8
				c4.9,1.9,10.9,5.8,25.4,13.2c0.3,0.1,0.5,0.4,0.7,0.7c0,0,0,0,0,0c0.2,0.2,0.3,0.3,0.5,0.5l0.1,0.1c1.4,1.4,2.8,2.8,4.1,4.3
				c0.1,0.1,0.1,0.1,0.1,0.2c0.1,0.1,0.2,0.2,0.3,0.3c0.1,0.1,0.2,0.2,0.3,0.3c0.1,0.2,0.3,0.3,0.4,0.5c0,0,0,0,0.1,0.1
				c0.1,0.1,0.1,0.1,0.2,0.2c0,0,0,0,0,0.1c0.3,0.4,0.6,0.7,0.9,1.1c0,0.1,0.1,0.1,0.1,0.2c1.1,1.3,2.1,2.6,3,4
				c0.1,0.2,0.3,0.4,0.4,0.6c0.1,0.2,0.2,0.4,0.4,0.5c0,0,0,0.1,0.1,0.1c1.5,2.2,3,4.6,4.3,6.9c0.1,0.2,0.2,0.4,0.3,0.6
				c0,0,0,0,0,0.1c0.1,0.2,0.2,0.3,0.3,0.5c0,0,0,0,0,0.1c1,1.9,1.9,3.8,2.8,5.8c0,0,0,0,0,0.1c0.2,0.4,0.3,0.8,0.5,1.1
				c0,0,0,0.1,0,0.1c0,0.1,0.1,0.2,0.1,0.3c0.1,0.3,0.2,0.5,0.3,0.8c0,0,0,0,0,0c0,0,0,0,0,0c0,0.1,0,0.1,0.1,0.2
				c0.5,1.2,0.9,2.3,1.3,3.5c0.2,0.6,0.4,1.2,0.6,1.8c0,0,0,0,0,0.1c0.1,0.3,0.2,0.5,0.2,0.8c0,0.1,0,0.1,0,0.2c0,0,0,0.1,0,0.1
				c0,0,0,0.1,0,0.1c0.7,2.3,1.3,4.6,1.7,7c0,0,0,0.1,0,0.1c0.1,0.3,0.1,0.7,0.2,1c0,0,0,0,0,0.1
				C195.7,103.8,196.2,108.8,196.2,113.9z"/>
		</defs>
		<clipPath id="SVGID_2_">
			<use xlink:href="#SVGID_1_"  style="overflow:visible;"/>
		</clipPath>
		<g class="st1">
			<g>
				<path class="st2" d="M28.1,158.6V53c0-5.9,5.1-10.7,11.4-10.7h148c6.3,0,11.4,4.8,11.4,10.7v105.5H28.1z"/>
				<path class="st3" d="M187.5,43.6c5.6,0,10.1,4.2,10.1,9.4v104.3c0,0-4.5,0-10.1,0h-148c-5.6,0-10.1,0-10.1,0V53
					c0-5.2,4.5-9.4,10.1-9.4H187.5 M187.5,41h-148c-7,0-12.7,5.4-12.7,12v104.3v2.6h2.6h10.1h148h10.1h2.6v-2.6V53
					C200.2,46.4,194.5,41,187.5,41L187.5,41z"/>
			</g>
			<path class="st4" d="M207.8,165.3c0,4.4-2.9,8-6.5,8H25.8c-3.6,0-6.5-3.6-6.5-8l0,0c0-4.4,2.9-8,6.5-8h175.6
				C204.9,157.3,207.8,160.9,207.8,165.3L207.8,165.3z"/>
			<path class="st5" d="M39.2,53.5v94.3h148.7V53.5H39.2z M157,96.4c-1,1-2.6,1-3.6,0l-24-24c-1-1-1-2.6,0-3.6
				c0.5-0.5,1.1-0.7,1.8-0.7c0.7,0,1.3,0.2,1.8,0.7l24,24C158,93.8,158,95.4,157,96.4z M168.9,108.3c-1,1-2.6,1-3.6,0l-5.6-5.6
				c-1-1-1-2.6,0-3.6c0.5-0.5,1.1-0.7,1.8-0.7c0.7,0,1.3,0.2,1.8,0.7l5.6,5.6C169.9,105.7,169.9,107.3,168.9,108.3z M170.7,91.7
				c-1,1-2.3,1.3-2.8,0.8l-21.3-21.3c-0.6-0.6-0.2-1.8,0.8-2.8c0.7-0.7,1.5-1,2.1-1c0.3,0,0.6,0.1,0.7,0.3l21.3,21.3
				C172,89.5,171.7,90.7,170.7,91.7z"/>
		</g>
		<g class="st1">
			<g>
				<path class="st2" d="M39,176.3c-2.1,0-3.9-1.8-3.9-3.9v-91c0-2.2,1.7-3.9,3.9-3.9h52.6c2.1,0,3.9,1.8,3.9,3.9v91
					c0,2.2-1.7,3.9-3.9,3.9H39z"/>
				<path class="st3" d="M91.6,78.8c1.4,0,2.6,1.2,2.6,2.7v91c0,1.5-1.2,2.7-2.6,2.7H39c-1.4,0-2.6-1.2-2.6-2.7v-91
					c0-1.5,1.2-2.7,2.6-2.7H91.6 M91.6,76.2H39c-2.8,0-5.1,2.3-5.1,5.2v91c0,2.9,2.3,5.2,5.1,5.2h52.6c2.8,0,5.1-2.3,5.1-5.2v-91
					C96.8,78.6,94.5,76.2,91.6,76.2L91.6,76.2z"/>
			</g>
			<g>
				<path class="st5" d="M41,88.1v77.7h48.6V88.1H41z M76.6,115c-0.7,0.7-1.9,0.7-2.7,0L56.1,97.2c-0.7-0.7-0.7-1.9,0-2.7
					c0.4-0.4,0.9-0.6,1.3-0.6c0.5,0,1,0.2,1.3,0.6l17.8,17.8C77.3,113.1,77.3,114.3,76.6,115z M85.5,123.8c-0.7,0.7-1.9,0.7-2.7,0
					l-4.1-4.1c-0.7-0.7-0.7-1.9,0-2.7c0.4-0.4,0.8-0.6,1.3-0.6c0.5,0,1,0.2,1.3,0.6l4.1,4.1C86.2,121.9,86.2,123.1,85.5,123.8z
					 M86.7,111.6c-0.7,0.7-1.7,1-2.1,0.6L68.8,96.3c-0.4-0.4-0.2-1.4,0.6-2.1c0.5-0.5,1.1-0.8,1.5-0.8c0.2,0,0.4,0.1,0.6,0.2
					l15.8,15.8C87.7,109.9,87.5,110.8,86.7,111.6z"/>
			</g>
			<g>
				<path class="st3" d="M70.3,83.2h-11c-0.7,0-1.3,0.6-1.3,1.3c0,0.7,0.6,1.3,1.3,1.3h11c0.7,0,1.3-0.6,1.3-1.3
					C71.6,83.8,71,83.2,70.3,83.2L70.3,83.2z"/>
			</g>
			<g>
				<g>
					<path class="st3" d="M70.8,167.8H59.9c-0.4,0-0.7,0.3-0.7,0.7v2.8c0,0.4,0.3,0.7,0.7,0.7h10.9c0.4,0,0.7-0.3,0.7-0.7v-2.8
						C71.5,168.2,71.2,167.8,70.8,167.8L70.8,167.8z"/>
				</g>
				<g>
					<path class="st3" d="M70.8,167.8H59.9c-0.4,0-0.8,0.4-0.8,0.8v2.8c0,0.4,0.4,0.8,0.8,0.8h10.9c0.4,0,0.8-0.4,0.8-0.8v-2.8
						C71.6,168.2,71.2,167.8,70.8,167.8L70.8,167.8z M59.9,172c-0.4,0-0.7-0.3-0.7-0.7v-2.8c0-0.4,0.3-0.7,0.7-0.7h10.9
						c0.4,0,0.7,0.3,0.7,0.7v2.8c0,0.4-0.3,0.7-0.7,0.7H59.9L59.9,172z"/>
				</g>
			</g>
		</g>
		<g class="st1">
			<g>
				<path class="st2" d="M89,177.4c-2.4,0-4.3-1.9-4.3-4.3v-52.8c0-2.4,1.9-4.3,4.3-4.3h21.5c2.4,0,4.3,1.9,4.3,4.3v52.8
					c0,2.4-1.9,4.3-4.3,4.3H89z"/>
				<path class="st3" d="M110.5,117.3c1.7,0,3,1.3,3,3v52.8c0,1.7-1.3,3-3,3H89c-1.7,0-3-1.3-3-3v-52.8c0-1.7,1.3-3,3-3H110.5
					 M110.5,114.8H89c-3.1,0-5.6,2.5-5.6,5.6v52.8c0,3.1,2.5,5.6,5.6,5.6h21.5c3.1,0,5.6-2.5,5.6-5.6v-52.8
					C116,117.3,113.6,114.8,110.5,114.8L110.5,114.8z"/>
			</g>
			<rect x="87.3" y="124" class="st6" width="24.9" height="44"/>
			<path class="st3" d="M97.7,122h4.2c0.3,0,0.5-0.2,0.5-0.5c0-0.3-0.2-0.5-0.5-0.5h-4.2c-0.3,0-0.5,0.2-0.5,0.5
				C97.2,121.7,97.4,122,97.7,122z"/>
			<circle class="st3" cx="99.8" cy="119.5" r="0.7"/>
			<path class="st3" d="M99.8,118.8c0.4,0,0.7,0.3,0.7,0.7c0,0.4-0.3,0.7-0.7,0.7c-0.4,0-0.7-0.3-0.7-0.7
				C99.1,119.1,99.4,118.8,99.8,118.8z"/>
			<path class="st3" d="M102.4,170.2h-5.3c-0.2,0-0.3,0.1-0.3,0.3v1.3c0,0.2,0.1,0.3,0.3,0.3h5.3c0.2,0,0.3-0.1,0.3-0.3v-1.3
				C102.7,170.3,102.6,170.2,102.4,170.2z"/>
			<path class="st5" d="M87.9,125.1v41.8h23.7v-41.8H87.9z M103.5,140.2c-0.4,0.4-1.2,0.4-1.6,0L91,129.3c-0.4-0.4-0.4-1.2,0-1.6
				c0.2-0.2,0.5-0.3,0.8-0.3c0.3,0,0.6,0.1,0.8,0.3l10.9,10.9C104,139,104,139.8,103.5,140.2z M108.9,145.6c-0.4,0.4-1.2,0.4-1.6,0
				l-2.5-2.5c-0.4-0.4-0.4-1.2,0-1.6c0.2-0.2,0.5-0.3,0.8-0.3c0.3,0,0.6,0.1,0.8,0.3l2.5,2.5C109.4,144.4,109.4,145.2,108.9,145.6z
				 M109.7,138.1c-0.4,0.4-1,0.6-1.3,0.3l-9.7-9.7c-0.3-0.3-0.1-0.8,0.4-1.3c0.3-0.3,0.7-0.5,0.9-0.5c0.1,0,0.3,0,0.3,0.1l9.7,9.7
				C110.3,137.1,110.2,137.7,109.7,138.1z"/>
		</g>
	</g>
	<path class="st7" d="M154,43.6c1.5,0.8,2.9,1.7,4.3,2.7c0.3,0.2,0.6,0.4,0.8,0.6c0.3,0.2,0.5,0.3,0.8,0.5c0,0,0.1,0.1,0.1,0.1
		c3,2.1,5.9,4.4,8.6,6.9c0.2,0.2,0.5,0.4,0.7,0.7c0,0,0,0,0,0c0.2,0.2,0.3,0.3,0.5,0.5l0.1,0.1c1.4,1.4,2.8,2.8,4.1,4.3
		c0.1,0.1,0.1,0.1,0.1,0.2c0.1,0.1,0.2,0.2,0.3,0.3c0.1,0.1,0.2,0.2,0.3,0.3c0.1,0.2,0.3,0.3,0.4,0.5c0,0,0,0,0.1,0.1
		c0.1,0.1,0.1,0.1,0.2,0.2c0,0,0,0,0,0.1c0.3,0.4,0.6,0.7,0.9,1.1c0,0.1,0.1,0.1,0.1,0.2c1.1,1.3,2.1,2.6,3,4
		c0.1,0.2,0.3,0.4,0.4,0.6c0.1,0.2,0.2,0.4,0.4,0.5c0,0,0,0.1,0.1,0.1c1.5,2.2,3,4.6,4.3,6.9c0.1,0.2,0.2,0.4,0.3,0.6c0,0,0,0,0,0.1
		c0.1,0.2,0.2,0.3,0.3,0.5c0,0,0,0,0,0.1c1,1.9,1.9,3.8,2.8,5.8c0,0,0,0,0,0.1c0.2,0.4,0.3,0.8,0.5,1.1c0,0,0,0.1,0,0.1
		c0,0.1,0.1,0.2,0.1,0.3c0.1,0.3,0.2,0.5,0.3,0.8c0,0,0,0,0,0c0,0,0,0,0,0c0,0.1,0,0.1,0.1,0.2c0.5,1.2,0.9,2.3,1.3,3.5
		c0.2,0.6,0.4,1.2,0.6,1.8c0,0,0,0,0,0.1c0.1,0.3,0.2,0.5,0.2,0.8c0,0.1,0,0.1,0,0.2c0,0,0,0.1,0,0.1c0,0,0,0.1,0,0.1
		c0.7,2.3,1.3,4.6,1.7,7c0,0,0,0.1,0,0.1c0.1,0.3,0.1,0.7,0.2,1c0,0,0,0,0,0.1c0.9,4.9,1.4,9.9,1.4,15c0,1.2,0,2.4-0.1,3.6
		c0,0,0,0.1,0,0.1c-0.1,2.9-0.4,5.8-0.8,8.6c0,0.1,0,0.1,0,0.2c-1.5,9.7-4.7,18.8-9.3,27c-3.2,5.7-7,11-11.4,15.7
		c0,0-0.1,0.1-0.1,0.1c0,0.1-0.1,0.1-0.1,0.2c-1.1,1.2-2.2,2.3-3.3,3.4c-0.1,0.1-0.2,0.1-0.2,0.2c-0.3,0.3-0.5,0.5-0.8,0.8
		c-0.1,0.1-0.1,0.1-0.2,0.2c0,0,0,0-0.1,0.1c-0.2,0.2-0.4,0.3-0.6,0.5c0,0-0.1,0.1-0.1,0.1c-3.1,2.8-6.5,5.4-10.1,7.7
		c-1.3,0.9-2.7,1.7-4.1,2.5c-0.5,0.3-0.9,0.5-1.4,0.8c-0.4,0.2-0.8,0.4-1.1,0.6c-6,3.1-12.5,5.5-19.3,7.1c-0.3,0.1-0.7,0.1-1,0.2
		c-1.4,0.3-2.7,0.5-4.1,0.8c-0.4,0.1-0.9,0.1-1.3,0.2c-0.1,0-0.3,0-0.4,0.1c-0.9,0.1-1.9,0.2-2.8,0.3c-0.1,0-0.2,0-0.3,0
		c-2.6,0.3-5.3,0.4-8,0.4c-3.8,0-7.5-0.3-11.2-0.8c-0.1,0-0.3,0-0.4-0.1c-0.4-0.1-0.9-0.1-1.3-0.2c-1.4-0.2-2.8-0.5-4.1-0.8
		c-0.3-0.1-0.7-0.1-1-0.2c-3-0.7-5.9-1.6-8.8-2.6c0,0-0.1,0-0.1,0c-0.3-0.1-0.6-0.2-0.9-0.4c-0.1-0.1-0.2,0.6-0.2-0.4c0,0,0,0,0,0
		c-6.2-3-12-5-17.4-8.7"/>
</g>
<rect x="33.5" y="33.1" class="st6" width="162" height="162"/>
</svg>
