<?xml version="1.0" encoding="utf-8"?>
<!-- Generator: Adobe Illustrator 19.2.1, SVG Export Plug-In . SVG Version: 6.00 Build 0)  -->
<svg version="1.1" id="Layer_1" xmlns="http://www.w3.org/2000/svg" xmlns:xlink="http://www.w3.org/1999/xlink" x="0px" y="0px"
	 viewBox="0 0 197.7 197.7" style="enable-background:new 0 0 197.7 197.7;" xml:space="preserve">
<style type="text/css">
	.st0{fill:none;}
	.st1{fill:#FFFFFF;stroke:#90D8CD;stroke-width:4;stroke-miterlimit:10;}
	.st2{clip-path:url(#SVGID_2_);}
	.st3{fill:#FFFFFF;stroke:#FFFFFF;stroke-width:5;stroke-miterlimit:10;}
	.st4{fill:#FFFFFF;stroke:#FFFFFF;stroke-width:5.4749;stroke-miterlimit:10;}
	.st5{fill:#152021;}
	.st6{fill:#FFFFFF;}
	.st7{fill:#152021;stroke:#FFFFFF;stroke-width:6;stroke-miterlimit:10;}
	.st8{fill:#152021;stroke:#FFFFFF;stroke-width:6.9564;stroke-miterlimit:10;}
	.st9{fill:none;stroke:#152021;stroke-width:5.5519;stroke-linecap:round;stroke-linejoin:round;stroke-miterlimit:10;}
	.st10{fill:#152021;stroke:#152021;stroke-width:5.5519;stroke-linecap:round;stroke-linejoin:round;stroke-miterlimit:10;}
	.st11{font-family:'Code-Bold';}
	.st12{font-size:25.5661px;}
	.st13{letter-spacing:1;}
	.st14{clip-path:url(#SVGID_4_);fill:#90D8CD;}
	.st15{fill:#070F11;stroke:#FFFFFF;stroke-width:7.845;stroke-miterlimit:10;}
	.st16{fill:#90D8CD;}
	.st17{fill:#070F11;}
	.st18{fill:none;stroke:#90D8CD;stroke-width:4;stroke-miterlimit:10;}
</style>
<rect x="33.5" y="33.1" class="st0" width="162" height="162"/>
<g>
	<path class="st1" d="M195.5,114c0,1.2,0,2.4-0.1,3.6c0,0,0,0.1,0,0.1c-0.1,2.9-0.4,5.7-0.8,8.5c0,0.1,0,0.1,0,0.2
		c-1.5,9.7-4.7,18.8-9.2,27c-3.2,5.7-7,10.9-11.4,15.7c0,0-0.1,0.1-0.1,0.1c0,0.1-0.1,0.1-0.1,0.2c-1.1,1.2-2.2,2.3-3.3,3.4
		c-0.1,0.1-0.2,0.1-0.2,0.2c-0.3,0.3-0.5,0.5-0.8,0.8c-0.1,0.1-0.1,0.1-0.2,0.2c0,0,0,0-0.1,0.1c-0.2,0.2-0.4,0.3-0.6,0.5
		c0,0-0.1,0.1-0.1,0.1c-3.1,2.8-6.5,5.4-10.1,7.7c-1.3,0.9-2.7,1.7-4.1,2.5c-0.5,0.3-0.9,0.5-1.4,0.8c-0.4,0.2-0.7,0.4-1.1,0.6
		c-6,3.1-12.5,5.5-19.3,7.1c-0.3,0.1-0.7,0.1-1,0.2c-1.4,0.3-2.7,0.5-4.1,0.8c-0.4,0.1-0.9,0.1-1.3,0.2c-0.1,0-0.3,0-0.4,0.1
		c-0.9,0.1-1.9,0.2-2.8,0.3c-0.1,0-0.2,0-0.3,0c-2.6,0.3-5.3,0.4-8,0.4c-3.8,0-7.5-0.3-11.2-0.8c-0.1,0-0.3,0-0.4-0.1
		c-0.4-0.1-0.9-0.1-1.3-0.2c-1.4-0.2-2.7-0.5-4.1-0.8c-0.3-0.1-0.7-0.1-1-0.2c-3-0.7-5.9-1.6-8.8-2.6c0,0-0.1,0-0.1,0
		c-0.3-0.1-0.6-0.1-0.9-0.3c-0.1-0.1-0.2-0.3-0.2-0.3c0,0,0,0,0,0c-7.7-1-14.8-6.7-21.2-11.6c0,0-0.1,0-0.1-0.1
		c-0.4-0.3-0.8-0.6-1.2-0.9c-0.1-0.1-0.2-0.1-0.3-0.2c-1.3-1.1-2.6-2.1-3.9-3.3c0,0,0,0-0.1-0.1c-0.1-0.1-0.1-0.1-0.2-0.2l0,0
		c-0.3-0.2-0.5-0.5-0.8-0.8c-0.1-0.1-0.2-0.1-0.2-0.2c-6-5.7-11.2-12.4-15.2-19.7c0,0,0-0.1-0.1-0.1c-0.3-0.6-0.6-1.2-0.9-1.8
		c-0.1-0.2-0.2-0.3-0.2-0.5c0,0,0,0,0,0c-1.4-2.7-2.6-5.6-3.7-8.5c-3.2-8.7-5-18.2-5-28c0-13.1,3.1-25.5,8.7-36.5c0,0,0,0,0,0
		c0.1-0.2,0.2-0.3,0.2-0.5c0.3-0.6,0.6-1.2,0.9-1.8c0,0,0-0.1,0.1-0.1c2.3-4.2,5-8.2,8-11.9c0.9-1.1,1.8-2.2,2.8-3.3
		c1.3-1.4,2.7-2.9,4.1-4.2l0.1-0.1c0.4-0.3,0.7-0.7,1.1-1c0,0,0.1-0.1,0.1-0.1c4.1-3.8,8.6-7.2,13.5-10.1c0.1-0.1,0.2-0.1,0.3-0.2
		c0.7-0.4,1.4-0.8,2.1-1.2c0.1-0.1,0.2-0.1,0.3-0.1c1.3-0.7,2.5-1.3,3.8-2c0.1,0,0.1-0.1,0.2-0.1c0.7-0.4,1.5-0.7,2.2-1
		c0.1,0,0.1-0.1,0.2-0.1c0.1-0.1,0.2-0.1,0.4-0.2c9.9-4.3,20.7-6.6,32.1-6.6c9.1,0,17.8,1.5,25.9,4.2c0.5,0.2,0.9,0.3,1.4,0.5
		c0.1,0,0.3,0.1,0.4,0.1c0.4,0.1,0.8,0.3,1.2,0.5c1.1,0.4,2.1,0.8,3.2,1.3c0.1,0.1,0.2,0.1,0.4,0.2c0.5,0.2,0.9,0.4,1.4,0.6
		c0.3,0.2,0.7,0.3,1,0.5c0.1,0,0.1,0,0.2,0.1c3.3,1.6,6.5,3.4,9.6,5.5c0.3,0.2,0.6,0.4,0.8,0.6c0.2,0.2,0.5,0.3,0.7,0.5
		c0,0,0.1,0.1,0.1,0.1c3,2.1,5.9,4.4,8.6,6.9c0.2,0.2,0.5,0.4,0.7,0.7c0,0,0,0,0,0c0.2,0.2,0.3,0.3,0.5,0.5l0.1,0.1
		c1.4,1.4,2.8,2.8,4.1,4.3c0.1,0.1,0.1,0.1,0.1,0.2c0.1,0.1,0.2,0.2,0.3,0.3c0.1,0.1,0.2,0.2,0.3,0.3c0.1,0.2,0.3,0.3,0.4,0.5
		c0,0,0,0,0.1,0.1c0.1,0.1,0.1,0.1,0.2,0.2c0,0,0,0,0,0.1c0.3,0.4,0.6,0.7,0.9,1.1c0,0.1,0.1,0.1,0.1,0.2c1.1,1.3,2.1,2.6,3,4
		c0.1,0.2,0.3,0.4,0.4,0.6c0.1,0.2,0.2,0.4,0.4,0.5c0,0,0,0.1,0.1,0.1c1.5,2.2,3,4.5,4.3,6.9c0.1,0.2,0.2,0.4,0.3,0.6c0,0,0,0,0,0.1
		c0.1,0.2,0.2,0.3,0.3,0.5c0,0,0,0,0,0.1c1,1.9,1.9,3.8,2.8,5.8c0,0,0,0,0,0.1c0.2,0.4,0.3,0.7,0.5,1.1c0,0,0,0.1,0,0.1
		c0,0.1,0.1,0.2,0.1,0.3c0.1,0.3,0.2,0.5,0.3,0.8c0,0,0,0,0,0c0,0,0,0,0,0c0,0.1,0,0.1,0.1,0.2c0.5,1.2,0.9,2.3,1.3,3.5
		c0.2,0.6,0.4,1.2,0.6,1.7c0,0,0,0,0,0.1c0.1,0.3,0.2,0.5,0.2,0.8c0,0.1,0,0.1,0,0.2c0,0,0,0.1,0,0.1c0,0,0,0.1,0,0.1
		c0.7,2.3,1.3,4.6,1.7,6.9c0,0,0,0.1,0,0.1c0.1,0.3,0.1,0.7,0.2,1c0,0,0,0,0,0.1C195,103.8,195.5,108.8,195.5,114z"/>
	<g>
		<defs>
			<path id="SVGID_1_" d="M197,114c0,1.2,0,2.4-0.1,3.6c0,0,0,0.1,0,0.1c-0.1,2.9-0.4,5.7-0.8,8.5c0,0.1,0,0.1,0,0.2
				c-1.5,9.7-4.7,18.8-9.2,27c-3.2,5.7-7,10.9-11.4,15.7c0,0-0.1,0.1-0.1,0.1c0,0.1-0.1,0.1-0.1,0.2c-1.1,1.2-2.2,2.3-3.3,3.4
				c-0.1,0.1-0.2,0.1-0.2,0.2c-0.3,0.3-0.5,0.5-0.8,0.8c-0.1,0.1-0.1,0.1-0.2,0.2c0,0,0,0-0.1,0.1c-0.2,0.2-0.4,0.3-0.6,0.5
				c0,0-0.1,0.1-0.1,0.1c-3.1,2.8-6.5,5.4-10.1,7.7c-1.3,0.9-2.7,1.7-4.1,2.5c-0.5,0.3-0.9,0.5-1.4,0.8c-0.4,0.2-0.7,0.4-1.1,0.6
				c-6,3.1-12.5,5.5-19.3,7.1c-0.3,0.1-0.7,0.1-1,0.2c-1.4,0.3-2.7,0.5-4.1,0.8c-0.4,0.1-0.9,0.1-1.3,0.2c-0.1,0-0.3,0-0.4,0.1
				c-0.9,0.1-1.9,0.2-2.8,0.3c-0.1,0-0.2,0-0.3,0c-2.6,0.3-5.3,0.4-8,0.4c-3.8,0-7.5-0.3-11.2-0.8c-0.1,0-0.3,0-0.4-0.1
				c-0.4-0.1-0.9-0.1-1.3-0.2c-1.4-0.2-2.7-0.5-4.1-0.8c-0.3-0.1-0.7-0.1-1-0.2c-3-0.7-5.9-1.6-8.8-2.6c0,0-0.1,0-0.1,0
				c-0.3-0.1-0.6-0.1-0.9-0.3c-0.1-0.1-0.2-0.3-0.2-0.3c0,0,0,0,0,0c-7.7-2-14.8-6.7-21.2-11.6c0,0-0.1,0-0.1-0.1
				c-0.4-0.3-0.8-0.6-1.2-0.9c-0.1-0.1-0.2-0.1-0.3-0.2c-1.3-1.1-4.6,4.5-5.9,3.3c0,0,0,0-0.1-0.1c-0.1-0.1-0.1-0.1-0.2-0.2l0,0
				c-0.3-0.2-0.5-0.5-0.8-0.8c-0.1-0.1-0.2-0.1-0.2-0.2c-6-5.7-34.3-37.5-38.4-44.9C-26.3,124,22.9,37,22.9,37l88.3-16.5
				c0,0,31.6,19.3,34.6,20.8c4.9,1.9,10.8,5.8,25.3,13.1c0.3,0.1,0.5,0.4,0.7,0.7c0,0,0,0,0,0c0.2,0.2,0.3,0.3,0.5,0.5l0.1,0.1
				c1.4,1.4,2.8,2.8,4.1,4.3c0.1,0.1,0.1,0.1,0.1,0.2c0.1,0.1,0.2,0.2,0.3,0.3c0.1,0.1,0.2,0.2,0.3,0.3c0.1,0.2,0.3,0.3,0.4,0.5
				c0,0,0,0,0.1,0.1c0.1,0.1,0.1,0.1,0.2,0.2c0,0,0,0,0,0.1c0.3,0.4,0.6,0.7,0.9,1.1c0,0.1,0.1,0.1,0.1,0.2c1.1,1.3,2.1,2.6,3,4
				c0.1,0.2,0.3,0.4,0.4,0.6c0.1,0.2,0.2,0.4,0.4,0.5c0,0,0,0.1,0.1,0.1c1.5,2.2,3,4.5,4.3,6.9c0.1,0.2,0.2,0.4,0.3,0.6
				c0,0,0,0,0,0.1c0.1,0.2,0.2,0.3,0.3,0.5c0,0,0,0,0,0.1c1,1.9,1.9,3.8,2.8,5.8c0,0,0,0,0,0.1c0.2,0.4,0.3,0.7,0.5,1.1
				c0,0,0,0.1,0,0.1c0,0.1,0.1,0.2,0.1,0.3c0.1,0.3,0.2,0.5,0.3,0.8c0,0,0,0,0,0c0,0,0,0,0,0c0,0.1,0,0.1,0.1,0.2
				c0.5,1.2,0.9,2.3,1.3,3.5c0.2,0.6,0.4,1.2,0.6,1.7c0,0,0,0,0,0.1c0.1,0.3,0.2,0.5,0.2,0.8c0,0.1,0,0.1,0,0.2c0,0,0,0.1,0,0.1
				c0,0,0,0.1,0,0.1c0.7,2.3,1.3,4.6,1.7,6.9c0,0,0,0.1,0,0.1c0.1,0.3,0.1,0.7,0.2,1c0,0,0,0,0,0.1C196.5,103.8,197,108.8,197,114z"
				/>
		</defs>
		<clipPath id="SVGID_2_">
			<use xlink:href="#SVGID_1_"  style="overflow:visible;"/>
		</clipPath>
		<g class="st2">
			<path class="st3" d="M115.5,49.8L139,82.3h-0.7v49H29.7c-11.5,0-22.4-10.2-22.4-21.7V82.9l26.6-25.4c0.5-0.5,1.4-0.8,2-1.1
				l18.7-7.6c0.1,0,0.3-0.1,0.4-0.2l14.9-14.5c1-1,2.4-1.5,3.9-1.4c1.4,0.1,2.8,0.8,3.7,1.9l17.2,21.6l14.5-7.8
				C111.2,47.2,114,47.8,115.5,49.8z"/>
			<polygon class="st4" points="139.1,82.8 139,82.8 139,82.8 			"/>
			<path class="st0" d="M46.6,67.7l-6.2,5c-0.3,0.2-0.3,0.6,0,0.9l9.4,9.2h22.9L53.8,53.7v0l-15,6.2l7.7,6.8
				C46.9,67,46.9,67.5,46.6,67.7z"/>
			<path class="st0" d="M79.4,51.4l-10,7.9c-0.2,0.2-0.2,0.6,0.1,0.7l9,4.9c0.2,0.1,0.3,0.3,0.2,0.5l-4.6,17.6h35.8L91.2,58.9l0,0
				L74.1,37.2c-0.2-0.2-0.5-0.3-0.6-0.3c-0.1,0-0.3,0-0.5,0.2l-1.1,1.2v0l7.8,12.4C79.8,51,79.6,51.2,79.4,51.4z"/>
			<path class="st0" d="M112,52.5c-0.2-0.3-0.7-0.4-1-0.2l-3.7,2h0l2.2,4.1c0.1,0.3,0.1,0.6-0.2,0.7l-6,4.3
				c-0.3,0.2-0.3,0.6-0.1,0.9l6.7,6.7c0.1,0.1,0.2,0.2,0.2,0.3l1,11.4h22.8l0,0L112,52.5z"/>
			<path class="st5" d="M139,82.8L115.5,50c-1.5-2-4.2-2.7-6.5-1.5l-14.5,7.7L77.4,34.6c-0.9-1.1-2.2-1.8-3.6-1.9
				c-1.4-0.1-2.8,0.4-3.8,1.4L55.1,48.7c-0.1,0.1-0.2,0.1-0.3,0.2l-18.5,7.6c-0.6,0.2-1.2,0.6-1.7,1.1L8.8,82.9v26.8
				c0,11.5,9.4,20.2,20.9,20.2h108.1v-47L139,82.8L139,82.8z M103.3,63.5l6-4.4c0.2-0.2,0.3-0.5,0.2-0.8l-2.2-4.2l3.7-2
				c0.4-0.2,0.8-0.1,1,0.2l21.8,30.3l0,0h-22.8l-1-11.4c0-0.1-0.1-0.2-0.2-0.4l-6.7-6.7C102.9,64.1,103,63.7,103.3,63.5z M69.4,59.2
				l10-7.9c0.2-0.1,0.2-0.4,0.1-0.6l-7.9-12.4l1.2-1.2c0.2-0.2,0.5-0.2,0.6-0.2c0.1,0,0.4,0.1,0.6,0.3l17.2,21.7l0,0l18.7,23.9H74.1
				l4.6-17.6c0.1-0.2,0-0.4-0.2-0.5l-9-4.8C69.2,59.8,69.2,59.4,69.4,59.2z M53.8,53.7V54l18.8,28.9H49.8l-9.4-9.2
				c-0.3-0.3-0.2-0.7,0-0.9l6.2-5c0.3-0.2,0.3-0.7,0-1l-7.8-6.9L53.8,53.7z M32.6,126.7c-11.6,0-19.9-8.5-19.9-20.1
				c0-11.6,8.2-20.1,19.9-20.1c11.6,0,19.9,8.5,19.9,20.1C52.4,118.2,44.2,126.7,32.6,126.7z M95.8,110.6c0,9.7-5.7,16.1-17,16.1
				c-11.3,0-17-6.5-17-16V86.8h7v23.6c0,6.2,2.5,10.2,9,10.2c6.5,0,9-4,9-10.2V86.8h9V110.6z M134.8,93.8h-12v31h-7v-31h-11v-7h30
				V93.8z"/>
			<polygon class="st5" points="139.3,83.2 139.3,83.3 139.3,83.3 139.3,83.3 139.3,83.2 			"/>
			<path class="st5" d="M32.6,92.5c-7.9,0-12.9,6-12.9,14c0,8,5,14,12.9,14c7.8,0,12.9-6.1,12.9-14C45.4,98.5,40.4,92.5,32.6,92.5z"
				/>
			<path class="st6" d="M32.6,86.5c-11.6,0-19.9,8.5-19.9,20.1c0,11.6,8.2,20.1,19.9,20.1c11.6,0,19.9-8.5,19.9-20.1
				C52.4,95,44.2,86.5,32.6,86.5z M32.6,120.6c-7.9,0-12.9-6.1-12.9-14c0-8,5-14,12.9-14c7.8,0,12.9,6,12.9,14
				C45.4,114.6,40.4,120.6,32.6,120.6z"/>
			<path class="st6" d="M86.8,110.4c0,6.2-2.5,10.2-9,10.2c-6.5,0-9-4-9-10.2V86.8h-7v23.8c0,9.6,5.7,16,17,16
				c11.2,0,17-6.4,17-16.1V86.8h-9V110.4z"/>
			<polygon class="st6" points="104.8,93.8 115.8,93.8 115.8,124.8 122.8,124.8 122.8,93.8 134.8,93.8 134.8,86.8 104.8,86.8 			"/>
			<path class="st5" d="M107.9,39.6c0.2-0.2,0.1-0.5-0.2-0.6l-2.9-0.4c-0.1,0-0.2-0.1-0.3-0.2l-0.2-0.4l-1.1-2.2
				c-0.1-0.2-0.5-0.2-0.6,0l-1.3,2.6c0,0.1-0.1,0.2-0.2,0.2l-2.9,0.4c-0.3,0-0.4,0.4-0.2,0.6l2.1,2c0.1,0.1,0.1,0.2,0.1,0.3
				l-0.5,2.9c0,0.3,0.2,0.5,0.5,0.3l2.6-1.4c0.1-0.1,0.2-0.1,0.3,0l1.2,0.6l1.4,0.7c0.2,0.1,0.5-0.1,0.5-0.4l-0.5-2.9
				c0-0.1,0-0.2,0.1-0.3L107.9,39.6z"/>
		</g>
		<g class="st2">
			<g>
				<path class="st7" d="M188.3,92.8l-7-2.3c0,0,0.1,0,0.1,0c-1.5-0.7-13.1-12.7-13.9-14.2c5.1,1.8,4.4,1.3,6.8-0.6
					c-5.4-2.2-8-10.4-7.2-10.3c0.8,0.1,2.3,0.9,4.2-0.9c-4.7-3.9-7.8-10.3-8.9-13.4c-1.2,4.6-4,11.8-7.6,12.9
					c3.7,1.4,4.4,0.8,3.4,2.4c-1,1.6-5.3,6.5-5.8,6.9c-1.9,1.4,3.6,1.7,6.7,1c1.8-0.4-1.8,3.4-6,7.1l-26.9-8.5
					c-0.3-0.4-0.6-0.8-0.7-1.1c-0.8-1.3-0.2-0.8,2.5-2c-2.7-1-4.8-6.8-5.7-10.6c-0.8,2.5-3.1,7.8-6.6,11c1.5,1.5,2.6,0.8,3.1,0.7
					c0.2,0,0,1.2-0.7,2.8l-29.2,9.2c-1.5-1.5-2.2-2.7-1.3-2.5c2.4,0.4,4-0.1,3.7-0.5c-0.3-0.4-3.6-3.5-4.4-4.5
					c-0.8-1.1-0.2-0.7,2.6-1.6c-2.8-0.8-4.8-5.5-5.8-8.5c-0.8,2-3.1,6.2-6.7,8.8c1.5,1.2,2.6,0.6,3.2,0.6c0.6-0.1-1.4,5.3-5.5,6.8
					c2.2,1.5,3.8,0.3,3.8,0.3s-0.5,2.7-3.2,5.5l-17.8,5.3c-1.2,0.4-2.8,1.4-2.8,2.7v8.3v2.1v49c0,1.2,1.6,2.3,2.8,2.7l64.8,19.2
					c0.3,0.1,0.7,0.1,1,0.1c0.3,0,0.6,0,0.9-0.1l64-19.2c1.2-0.4,1.6-1.4,1.6-2.7v-49v-2.1v-8.3C189.8,94.2,189.5,93.2,188.3,92.8z
					 M93.6,100.1c2.7,1.5,8.3,1.3,8.8,1.2c-4.5-1.3-7.2-4-7.2-4s7.8,1.2,8.8-0.1c0,0-4.8-1.5-6.7-2.1c-1.9-0.7-4.7-1.9-6.1-4.3
					c0.6,0.2,5.9,0,6.1-1.3c-0.9-0.4-2.1-1.1-3.4-2.1l22.1-6.9c0.3,0,0.5-0.1,0.7-0.2l0.5-0.1c-0.2,1.2-1.8,7.8-9,11.6
					c1.3,2,5.2-0.2,6-0.3c-2.4,5.5-4.1,8.8-7.8,10.1c0.3,0.3,0.9-0.6,1.6,1.4H95.2C94.3,100.8,93.7,100.3,93.6,100.1z M133.5,99.9
					c0,0,4.3,0.5,6.8,0.3c-0.2,0.1-0.4,0-0.4,0c1.3,2,7.6,0.3,7.6,0.3s-0.7,0.4-1.9,2.4h-9.9C134.3,100.8,133.5,99.9,133.5,99.9z
					 M110,102.8c1-2,2-0.3,2.6-0.5c-0.1,0.2-0.3-1.5-0.4,0.5H110z M184.8,102.8h-1.6c-3.3-2-5.5-4-7.5-7.3l9.1,2V102.8z M152.8,89.6
					c-1.9,3.7-2.7,4.7-5.1,5.8c-1.6,0.6-4.3,2.3-6,3.4c-1.2-0.5-4.6-1.7-6.1-2.4c-1.8-0.8-4.6-2.4-6-5.4c0.6,0.2,5.8,0,6-1.6
					c-3-1.5-9.1-8.6-9.7-10.5l22.1,6.9c-1.2,0.9-2.3,1.5-3.2,1.9C145,89.6,152,89.9,152.8,89.6z M73.9,93.7
					c-1.7,2.5-3.4,3.9-6.3,4.7c0.9,0.7,4.8,1.4,6.3,0.9c-1.2,1.1-2.1,1.5-2.9,3.5h-9.2v-5.3L73.9,93.7z"/>
				<path class="st8" d="M229,123.4L205.1,99c-1.1-1.1-2.8-1.1-3.9,0s-1.1,2.8,0,3.9l22,22.4l-22,22.4c-1.1,1.1-1.1,2.9,0,3.9
					c0.5,0.5,1.2,0.8,1.9,0.8c0.7,0,1.4-0.3,2-0.8l23.9-24.4C230.1,126.2,230.1,124.5,229,123.4z"/>
			</g>
			<g>
				<polygon class="st9" points="187.7,95.4 187.7,105.9 59,105.9 59,95.4 123.3,75.2 				"/>
				<polygon class="st10" points="187.7,103.9 187.7,154.8 123.3,174.1 59,154.8 59,103.9 				"/>
				<text transform="matrix(1 0 0 1 86.4193 156.762)" class="st6 st11 st12 st13">code</text>
				<g>
					<g>
						<path class="st6" d="M66.1,131c-1.1,0-2.1-0.2-3-0.7c-0.9-0.5-1.7-1-2.3-1.8c-0.7-0.7-1.2-1.6-1.5-2.6c-0.4-1-0.5-2-0.5-3
							c0-1.1,0.2-2.1,0.5-3.1c0.4-1,0.8-1.9,1.5-2.6c0.6-0.7,1.4-1.3,2.3-1.8c0.9-0.4,1.9-0.7,3-0.7c1.3,0,2.5,0.3,3.5,1
							c1,0.7,1.8,1.5,2.5,2.5l0-3.3l1.8,0l0,15.8c0,1.1-0.2,2-0.6,2.9c-0.4,0.8-1,1.5-1.7,2.1c-0.7,0.6-1.5,1-2.5,1.3
							c-0.9,0.3-1.9,0.4-3,0.4c-1.8,0-3.2-0.3-4.3-1c-1.1-0.6-2-1.5-2.7-2.6l1.3-1c0.6,1,1.4,1.7,2.5,2.2c1,0.5,2.1,0.7,3.3,0.7
							c0.8,0,1.5-0.1,2.2-0.3c0.7-0.2,1.3-0.5,1.8-0.9c0.5-0.4,0.9-0.9,1.2-1.6c0.3-0.6,0.5-1.4,0.5-2.2l0-3.1
							c-0.6,1-1.5,1.8-2.5,2.4C68.3,130.7,67.2,131,66.1,131z M66.6,129.3c0.6,0,1.2-0.1,1.8-0.3c0.6-0.2,1.1-0.5,1.6-0.9
							c0.5-0.4,0.9-0.8,1.2-1.3c0.3-0.5,0.5-0.9,0.6-1.4l0-4.9c-0.2-0.6-0.5-1.1-0.9-1.6c-0.4-0.5-0.8-0.9-1.3-1.2
							c-0.5-0.3-1-0.6-1.6-0.8c-0.6-0.2-1.1-0.3-1.7-0.3c-0.9,0-1.7,0.2-2.3,0.6c-0.7,0.4-1.3,0.9-1.7,1.5c-0.5,0.6-0.8,1.3-1.1,2
							c-0.3,0.8-0.4,1.5-0.4,2.3c0,0.8,0.2,1.6,0.5,2.4c0.3,0.8,0.7,1.4,1.2,2c0.5,0.6,1.1,1,1.9,1.4
							C65.1,129.1,65.8,129.3,66.6,129.3z"/>
					</g>
					<g>
						<path class="st6" d="M84,116.8c-1.3,0-2.4,0.4-3.4,1.1c-1,0.7-1.6,1.6-2,2.8l0,9.2l-1.9,0l0-14.7l1.8,0l0,3.5
							c0.5-1,1.2-1.9,2-2.6c0.8-0.7,1.7-1,2.7-1c0.2,0,0.3,0,0.5,0c0.2,0,0.3,0,0.4,0L84,116.8z"/>
						<path class="st6" d="M91.5,130.1c-1.1,0-2.1-0.2-3-0.6c-0.9-0.4-1.7-1-2.3-1.7c-0.7-0.7-1.2-1.5-1.5-2.4
							c-0.4-0.9-0.5-1.9-0.5-2.9c0-1,0.2-2,0.5-2.9c0.4-0.9,0.9-1.7,1.5-2.4c0.6-0.7,1.4-1.3,2.3-1.7c0.9-0.4,1.9-0.6,2.9-0.6
							c1.1,0,2,0.2,2.9,0.6c0.9,0.4,1.7,1,2.3,1.7c0.7,0.7,1.2,1.5,1.5,2.4c0.4,0.9,0.6,1.9,0.6,2.9c0,1-0.2,2-0.5,2.9
							c-0.4,0.9-0.9,1.7-1.5,2.4c-0.6,0.7-1.4,1.2-2.3,1.7C93.6,129.9,92.6,130.1,91.5,130.1z M86.2,122.5c0,0.8,0.1,1.6,0.4,2.3
							c0.3,0.7,0.7,1.3,1.1,1.9c0.5,0.5,1,1,1.7,1.3c0.6,0.3,1.3,0.5,2.1,0.5c0.7,0,1.4-0.2,2.1-0.5c0.7-0.3,1.2-0.7,1.7-1.3
							c0.5-0.5,0.9-1.2,1.2-1.9c0.3-0.7,0.4-1.5,0.4-2.3c0-0.8-0.1-1.6-0.4-2.3c-0.3-0.7-0.7-1.4-1.2-1.9c-0.5-0.5-1.1-1-1.7-1.3
							c-0.6-0.3-1.3-0.5-2.1-0.5c-0.7,0-1.4,0.2-2.1,0.5c-0.6,0.3-1.2,0.7-1.7,1.3c-0.5,0.5-0.9,1.2-1.1,1.9
							C86.3,120.9,86.2,121.7,86.2,122.5z"/>
						<path class="st6" d="M119.4,115.1l1.9,0l-6.3,14.7l-1.6,0l-3.1-7.5l-3.1,7.5l-1.6,0l-6.3-14.7l1.8,0l5.4,12.7l2.8-6.7l-2.5-6
							l1.6,0l1.9,4.8l1.9-4.8l1.6,0l-2.5,6l2.8,6.7L119.4,115.1z"/>
					</g>
				</g>
				<g>
					<path class="st6" d="M128.2,134.6c0.1,0,0.2,0,0.3,0c0.1,0,0.2,0,0.3,0c0.2,0,0.4,0,0.6-0.1c0.2,0,0.4-0.1,0.5-0.1
						c0.1,0,0.2-0.1,0.3-0.2c0.1-0.1,0.2-0.3,0.4-0.7c0.2-0.3,0.4-0.8,0.6-1.3c0.2-0.6,0.6-1.3,0.9-2.3l-6.5-14.9h2l5.5,13.1
						l5.1-13.1h1.9l-7.7,19.2c-0.3,0.7-0.7,1.2-1.2,1.6c-0.5,0.3-1.2,0.5-2,0.5c-0.4,0-0.7,0-1-0.1V134.6z"/>
					<path class="st6" d="M150.1,130.2c-1.1,0-2.1-0.2-3-0.6c-0.9-0.4-1.7-1-2.3-1.7c-0.7-0.7-1.2-1.5-1.5-2.5
						c-0.4-0.9-0.5-1.9-0.5-2.9c0-1,0.2-2,0.6-3c0.4-0.9,0.9-1.8,1.5-2.5c0.7-0.7,1.4-1.3,2.3-1.7c0.9-0.4,1.9-0.6,3-0.6
						c1.1,0,2.1,0.2,3,0.6c0.9,0.4,1.7,1,2.3,1.7c0.7,0.7,1.2,1.5,1.5,2.5c0.4,0.9,0.6,1.9,0.6,3c0,1-0.2,2-0.6,2.9
						c-0.4,0.9-0.9,1.8-1.5,2.5c-0.7,0.7-1.4,1.3-2.3,1.7C152.2,130,151.2,130.2,150.1,130.2z M144.7,122.6c0,0.8,0.1,1.6,0.4,2.3
						c0.3,0.7,0.7,1.3,1.1,1.9c0.5,0.5,1.1,1,1.7,1.3c0.7,0.3,1.4,0.5,2.1,0.5c0.7,0,1.4-0.2,2.1-0.5c0.7-0.3,1.2-0.7,1.7-1.3
						c0.5-0.5,0.9-1.2,1.2-1.9c0.3-0.7,0.4-1.5,0.4-2.3c0-0.8-0.1-1.6-0.4-2.3c-0.3-0.7-0.7-1.4-1.2-1.9c-0.5-0.5-1.1-1-1.7-1.3
						c-0.6-0.3-1.3-0.5-2.1-0.5s-1.4,0.2-2.1,0.5c-0.7,0.3-1.2,0.7-1.7,1.3c-0.5,0.6-0.9,1.2-1.2,1.9
						C144.9,121,144.7,121.8,144.7,122.6z"/>
					<path class="st6" d="M166.7,130.2c-1.6,0-2.7-0.5-3.5-1.6c-0.8-1.1-1.2-2.7-1.2-4.8v-8.7h1.9v8.4c0,3.4,1.2,5.1,3.5,5.1
						c0.6,0,1.1-0.1,1.7-0.3c0.6-0.2,1.1-0.5,1.5-0.8c0.5-0.4,0.9-0.8,1.3-1.3c0.4-0.5,0.7-1.1,0.9-1.7v-9.4h1.9v12.4
						c0,0.5,0.2,0.8,0.7,0.8v1.7c-0.4,0.1-0.6,0.1-0.8,0.1c-0.4,0-0.8-0.1-1.1-0.4c-0.3-0.3-0.5-0.6-0.5-1v-2.1
						c-0.7,1.2-1.6,2.1-2.7,2.7C169.2,129.9,168,130.2,166.7,130.2z"/>
					<path class="st6" d="M187.9,116.8c-1.3,0-2.5,0.4-3.4,1.1c-1,0.7-1.7,1.6-2.1,2.8v9.2h-1.9v-14.9h1.8v3.6c0.5-1,1.2-1.9,2-2.6
						c0.8-0.7,1.7-1,2.7-1c0.2,0,0.3,0,0.5,0c0.2,0,0.3,0,0.4,0V116.8z"/>
				</g>
				<g>
					<defs>
						<rect id="SVGID_3_" x="47.6" y="38.5" width="146.5" height="62.6"/>
					</defs>
					<clipPath id="SVGID_4_">
						<use xlink:href="#SVGID_3_"  style="overflow:visible;"/>
					</clipPath>
					<path class="st14" d="M95.2,97.2c0,0,7.8,1.3,8.8,0c0,0-4.8-1.4-6.7-2.1c-1.9-0.7-4.7-1.9-6.1-4.3c0.6,0.2,5.9,0,6.1-1.3
						c-3.6-1.4-11.9-9.3-9.6-8.8c2.4,0.4,4-0.1,3.7-0.5c-0.3-0.4-3.6-3.5-4.4-4.5c-0.8-1.1-0.2-0.7,2.6-1.6
						c-2.8-0.8-4.8-5.5-5.8-8.5c-0.8,2-3.1,6.2-6.7,8.8c1.5,1.2,2.6,0.6,3.2,0.6c0.6-0.1-1.4,5.3-5.5,6.8c2.2,1.5,3.8,0.3,3.8,0.3
						s-1.1,6.1-9.2,9.4c1.3,1.6,5.3-0.2,6.1-0.3c-2.4,4.4-4.1,6.3-7.9,7.3c0.9,0.7,4.8,0.4,6.3,0c-3.8,3.5-4.8,4.2-6.6,4.4
						c2.1,2.1,4.4,0.4,4.7,0.3c-0.4,1.6-6.3,3.4-6.3,3.4c1.2,1,3.3,0.7,5.9,0.3c2.6-0.4,13.3-2.3,13.3-2.3s13.5,2.9,17.3,2.7
						c-3.5-2.7-8.3-7.4-8.6-7.9c2.7,1.5,8.3,1.8,8.8,1.7C97.9,99.6,95.2,97.2,95.2,97.2z"/>
					<path class="st14" d="M147.6,99.4c0,0-6.3,2.6-7.6,0.6c0,0,5.3-3.5,7.8-4.5c2.5-1,3.2-2.1,5.1-5.8c-0.8,0.3-7.8,0-8.1-2
						c4.8-2.1,17.6-13.9,14.4-13.2c-3.1,0.7-8.6,0.4-6.7-1c0.6-0.4,4.8-5.3,5.8-6.9c1-1.6,0.3-1-3.4-2.4c3.7-1.2,6.4-8.3,7.6-12.9
						c1,3.1,4.1,9.5,8.9,13.4c-2,1.8-3.5,0.9-4.2,0.9c-0.8-0.1,1.9,8.1,7.3,10.3c-2.4,1.9-1.7,2.3-6.8,0.6
						c0.8,1.5,12.5,13.5,14,14.2c-1.7,2.4-7.1-0.3-8.1-0.4c3.2,6.6,5.5,9.6,10.5,11.2c-1.2,1-6.3,0.7-8.3,0c5,5.4,6.3,6.4,8.8,6.6
						c-2.8,3.2-5.8,0.7-6.2,0.5c0.5,2.5,8.4,5.2,8.4,5.2c-1.6,1.4-4.3,1-7.8,0.4c-3.5-0.6-17.5-3.6-17.5-3.6s-17.9,4.4-22.9,4.1
						c4.6-4,11-11.3,11.3-12c-3.6,2.2-11,2.7-11.6,2.6C144,103,147.6,99.4,147.6,99.4z"/>
					<path class="st14" d="M133.5,99c0,0,7.7,1.7,8.7,0c0,0-4.8-1.7-6.6-2.6c-1.8-0.8-4.6-2.4-6-5.4c0.6,0.2,5.8,0,6-1.6
						c-3.6-1.7-11.7-11.6-9.4-11c2.3,0.6,3.9-0.1,3.6-0.6c-0.3-0.5-3.6-4.3-4.3-5.7c-0.8-1.3-0.2-0.8,2.5-2c-2.7-1-4.8-6.8-5.7-10.6
						c-0.8,2.5-3.1,7.8-6.6,11c1.5,1.5,2.6,0.8,3.1,0.7c0.6-0.1-1.4,6.6-5.4,8.4c2.2,1.9,3.7,0.4,3.7,0.4s-1.1,7.6-9,11.7
						c1.3,2,5.2-0.2,6-0.3c-2.4,5.5-4.1,7.9-7.8,9.2c0.9,0.8,4.7,0.6,6.1,0c-3.7,4.4-4.7,5.2-6.5,5.5c2.1,2.7,4.3,0.6,4.6,0.4
						c-0.3,2-6.2,4.3-6.2,4.3c1.2,1.2,3.2,0.8,5.8,0.3c2.6-0.5,13-2.9,13-2.9s13.3,3.6,17,3.4c-3.4-3.3-8.2-9.3-8.4-9.9
						c2.7,1.8,8.2,2.2,8.6,2.1C136.1,102,133.5,99,133.5,99z"/>
				</g>
			</g>
		</g>
		<g class="st2">
			<rect x="115.3" y="113.4" class="st6" width="95.8" height="57.9"/>
			<g>
				<path class="st15" d="M220.4,203.6H102.7v-90.9h117.8V203.6z M103.9,202.4h115.3V114H103.9V202.4z"/>
				<rect x="103.9" y="171.3" class="st16" width="80.3" height="31.7"/>
				<polyline class="st16" points="103.3,113.4 103.3,203 107,203 148,113.4 105.7,113.4 				"/>
				<polyline class="st16" points="217.5,202.8 217.5,113.4 210.1,113.4 169,202.8 215.1,202.8 				"/>
				<polyline class="st16" points="219.8,203 219.8,113.4 212.5,113.4 171.1,202.8 213.3,202.8 				"/>
				<g>
					<path class="st6" d="M168.3,202.4v0.6H153v-0.6h4.9v-25.3v-0.3c0-0.1,0-0.2,0-0.2c0,0,0-0.1,0-0.2c0-0.2-0.1-0.5-0.2-0.8
						c-0.1-0.3-0.2-0.6-0.4-0.9c-0.1-0.2-0.2-0.4-0.3-0.5c-0.1-0.2-0.3-0.3-0.4-0.5c-0.3-0.3-0.6-0.6-1-0.8
						c-0.4-0.2-0.8-0.4-1.2-0.4c-0.4-0.1-0.7-0.1-0.9-0.2H153c-1.2,0-2.4,0.3-3.7,0.8c-1.2,0.5-2.3,1.1-3.2,1.7
						c-0.8,0.5-1.4,1-2,1.5c-0.5,0.5-0.9,0.8-1.1,0.9v25.2h4.9v0.6h-15.4v-0.6h4.9v-24.6c-0.2,0.3-0.5,0.6-0.9,1.1
						c-0.4,0.5-0.8,1-1.2,1.6c-0.6,1-1.2,2-1.7,3.2c-0.5,1.2-0.8,2.4-0.8,3.7h-0.5c0-1.2,0.2-2.4,0.7-3.6c0.5-1.2,1-2.2,1.6-3.2
						c0.6-0.9,1.2-1.7,1.7-2.4c0.6-0.6,0.9-1,1.1-1.2l0.1-0.1l5.1-5.1l0.5-0.5v5.1c0.4-0.3,0.9-0.7,1.5-1.3c0.7-0.5,1.4-1,2.3-1.6
						c0.9-0.5,1.9-1,2.9-1.4c1-0.4,2.1-0.6,3.2-0.6c0.1,0,0.2,0,0.2,0c0.1,0,0.1,0,0.2,0c2.5,0.1,4.4,0.7,5.7,1.7
						c1.4,1.1,2.4,2.2,3,3.5c0.6,1.3,1,2.5,1.1,3.6c0.1,1.1,0.2,1.6,0.2,1.7v20.2H168.3z"/>
					<path class="st6" d="M191.5,182.5v4.5v0.3v0.3c0,2.1-0.4,4.1-1.1,6c-0.7,1.8-1.6,3.5-2.8,4.9c-1.2,1.4-2.6,2.5-4.1,3.3
						c-1.6,0.8-3.2,1.2-5,1.2c-1.8,0-3.5-0.4-5.1-1.2c-1.6-0.8-3-1.9-4.1-3.3c-1.2-1.4-2.1-3.1-2.8-5c-0.7-1.9-1.1-3.9-1.1-6v-9.6
						c-0.2,0.3-0.5,0.6-0.9,1.1c-0.4,0.5-0.8,1-1.2,1.6c-0.6,1-1.2,2-1.7,3.2c-0.5,1.2-0.8,2.4-0.8,3.7h-0.5c0-1.2,0.2-2.4,0.7-3.6
						c0.5-1.2,1-2.2,1.6-3.2c0.6-1,1.2-1.8,1.7-2.4c0.6-0.6,0.9-1,1.1-1.2l5.7-5.7V187v0.3c0,2.1,0.2,4.1,0.6,5.9
						c0.4,1.8,1,3.4,1.6,4.8c0.7,1.4,1.5,2.4,2.3,3.2c0.9,0.8,1.8,1.1,2.8,1.1h0.1h0.1c1,0,1.9-0.4,2.8-1.1c0.9-0.8,1.7-1.8,2.3-3.2
						c0.7-1.4,1.2-3,1.6-4.8c0.4-1.8,0.6-3.8,0.6-5.9V187v-4.5v-0.4v-9.8H181v-0.6h15.4v0.6h-4.9v10V182.5z"/>
					<path class="st6" d="M204,171.7c1.8,0,3.5,0.4,5.1,1.2c1.6,0.8,2.9,1.9,4.1,3.3c1.2,1.4,2.1,3.1,2.8,5c0.7,1.9,1,3.9,1,6.1v0.3
						h-0.3h-5.1h-0.3h-1.8c-0.7,0-1.4,0.1-2.2,0.1c-0.6,0.1-1.4,0.2-2.2,0.2c-0.8,0.1-1.7,0.2-2.6,0.4c-1.1,0.3-2.2,0.6-3.2,1.1
						c-1,0.5-1.9,1-2.5,1.8c0.4,2.6,1,4.9,2,6.8c0.7,1.3,1.5,2.4,2.3,3.1c0.9,0.8,1.8,1.2,2.8,1.2h0.1h0.1c1,0,2-0.4,3-1.3
						c0.9-0.9,1.7-2.1,2.4-3.6l0.1-0.2h4.6l-0.3,0.5c-1.2,1.6-2.6,2.9-4.3,3.8c-1.7,0.9-3.5,1.4-5.5,1.4c-1.8,0-3.5-0.4-5.1-1.2
						c-1.6-0.8-3-1.9-4.2-3.3c-1.2-1.4-2.1-3.1-2.8-5c-0.7-1.9-1-3.9-1-6.1c0-2.1,0.3-4.2,1-6.1c0.7-1.9,1.6-3.6,2.8-5
						c1.2-1.4,2.6-2.5,4.2-3.3C200.5,172.1,202.2,171.7,204,171.7z M211.4,187.1c0-2-0.3-4-0.6-5.8c-0.4-1.8-0.9-3.4-1.5-4.7
						c-0.7-1.3-1.5-2.4-2.4-3.1c-0.9-0.8-1.8-1.2-2.8-1.2H204H204c-1,0-1.9,0.4-2.8,1.2c-0.9,0.8-1.6,1.8-2.3,3.1
						c-0.7,1.4-1.2,3-1.6,4.8c-0.4,1.8-0.6,3.8-0.6,5.9c0,1.2,0.1,2.3,0.2,3.3c0.7-0.6,1.6-1.2,2.6-1.6c1-0.4,2-0.8,3.1-1.1
						c0.9-0.2,1.8-0.4,2.6-0.5c0.8-0.1,1.6-0.2,2.3-0.3c0.8-0.1,1.5-0.1,2.3-0.1H211.4z"/>
					<path class="st6" d="M119.1,171.5c1.8,0,3.5,0.4,5.1,1.2c1.6,0.8,2.9,1.9,4.1,3.3c1.2,1.4,2.1,3.1,2.8,5c0.7,1.9,1,3.9,1,6.1
						v0.3h-0.3h-5.1h-0.3h-1.8c-0.7,0-1.4,0.1-2.2,0.1c-0.6,0.1-1.4,0.2-2.2,0.2c-0.8,0.1-1.7,0.2-2.6,0.4c-1.1,0.3-2.2,0.6-3.2,1.1
						c-1,0.5-1.9,1-2.5,1.8c0.4,2.6,1,4.9,2,6.8c0.7,1.3,1.5,2.4,2.3,3.1c0.9,0.8,1.8,1.2,2.8,1.2h0.1h0.1c1,0,2-0.4,3-1.3
						c0.9-0.9,1.7-2.1,2.4-3.6l0.1-0.2h4.6l-0.3,0.5c-1.2,1.6-2.6,2.9-4.3,3.8c-1.7,0.9-3.5,1.4-5.5,1.4c-1.8,0-3.5-0.4-5.1-1.2
						c-1.6-0.8-3-1.9-4.2-3.3c-1.2-1.4-2.1-3.1-2.8-5c-0.7-1.9-1-3.9-1-6.1s0.3-4.2,1-6.1c0.7-1.9,1.6-3.6,2.8-5
						c1.2-1.4,2.6-2.5,4.2-3.3C115.6,171.9,117.3,171.5,119.1,171.5z M126.5,186.8c0-2.1-0.3-4-0.6-5.8c-0.4-1.8-0.9-3.4-1.5-4.7
						c-0.7-1.3-1.5-2.4-2.4-3.1c-0.9-0.8-1.8-1.2-2.8-1.2h-0.1h-0.1c-1,0-1.9,0.4-2.8,1.2c-0.9,0.8-1.6,1.8-2.3,3.1
						c-0.7,1.4-1.2,3-1.6,4.8c-0.4,1.8-0.6,3.8-0.6,5.9c0,1.2,0.1,2.3,0.2,3.3c0.7-0.6,1.6-1.2,2.6-1.6c1-0.4,2-0.8,3.1-1.1
						c0.9-0.2,1.8-0.4,2.6-0.5c0.8-0.1,1.6-0.2,2.3-0.3c0.8-0.1,1.5-0.1,2.3-0.1H126.5z"/>
				</g>
				<g>
					<path class="st17" d="M160.8,171.3v-2.2h5.6l-9.4-20.3h-23l-9.4,20.3h5.6v2.2h-14.8v-2.2h6.6l23.8-51.8
						c0.3-0.6,0.5-1.1,0.8-1.7c0.3-0.6,0.6-1.1,0.8-1.7c0.3-0.6,1-0.3,1.2-0.8h1.2l25.8,56.1h7.4v2.2H160.8z M145.5,123.7
						l-10.5,22.9h21L145.5,123.7z"/>
					<path class="st17" d="M205.9,136.8h-5.5l-2.3,5.4l-2.3,5.2l-9.9,20.2c-0.3,0.5-0.6,1-0.9,1.5c-0.3,0.5-1.2,1.8-1.4,2.2l-0.5,0
						l-18.6-34.5h-6.6v-2.2h14h7v2.2h-5.3l13.1,24.3l7.1-14.7l2.1-4.8l2-4.8h-6.4v-2.2h14.5V136.8z"/>
				</g>
				<path class="st17" d="M220.4,203.6H102.7v-90.9h117.8V203.6z M103.9,202.4h115.3V114H103.9V202.4z"/>
			</g>
		</g>
	</g>
	<path class="st18" d="M165.4,50.9c1.4,1.1,2.8,2.3,4.1,3.6c0.2,0.2,0.5,0.4,0.7,0.7c0,0,0,0,0,0c0.2,0.2,0.3,0.3,0.5,0.5l0.1,0.1
		c1.4,1.4,2.8,2.8,4.1,4.3c0.1,0.1,0.1,0.1,0.1,0.2c0.1,0.1,0.2,0.2,0.3,0.3c0.1,0.1,0.2,0.2,0.3,0.3c0.1,0.2,0.3,0.3,0.4,0.5
		c0,0,0,0,0.1,0.1c0.1,0.1,0.1,0.1,0.2,0.2c0,0,0,0,0,0.1c0.3,0.4,0.6,0.7,0.9,1.1c0,0.1,0.1,0.1,0.1,0.2c1.1,1.3,2.1,2.6,3,4
		c0.1,0.2,0.3,0.4,0.4,0.6c0.1,0.2,0.2,0.4,0.4,0.5c0,0,0,0.1,0.1,0.1c1.5,2.2,3,4.5,4.3,6.9c0.1,0.2,0.2,0.4,0.3,0.6c0,0,0,0,0,0.1
		c0.1,0.2,0.2,0.3,0.3,0.5c0,0,0,0,0,0.1c1,1.9,1.9,3.8,2.8,5.8c0,0,0,0,0,0.1c0.2,0.4,0.3,0.7,0.5,1.1c0,0,0,0.1,0,0.1
		c0,0.1,0.1,0.2,0.1,0.3c0.1,0.3,0.2,0.5,0.3,0.8c0,0,0,0,0,0c0,0,0,0,0,0c0,0.1,0,0.1,0.1,0.2c0.5,1.2,0.9,2.3,1.3,3.5
		c0.2,0.6,0.4,1.2,0.6,1.7c0,0,0,0,0,0.1c0.1,0.3,0.2,0.5,0.2,0.8c0,0.1,0,0.1,0,0.2c0,0,0,0.1,0,0.1c0,0,0,0.1,0,0.1
		c0.7,2.3,1.3,4.6,1.7,6.9c0,0,0,0.1,0,0.1c0.1,0.3,0.1,0.7,0.2,1c0,0,0,0,0,0.1c0.9,4.9,1.4,9.9,1.4,15c0,1.2,0,2.4-0.1,3.6
		c0,0,0,0.1,0,0.1c-0.1,2.9-0.4,5.7-0.8,8.5c0,0.1,0,0.1,0,0.2c-1.5,9.7-4.7,18.8-9.2,27c-3.2,5.7-7,10.9-11.4,15.7
		c0,0-0.1,0.1-0.1,0.1c0,0.1-0.1,0.1-0.1,0.2c-1.1,1.2-2.2,2.3-3.3,3.4c-0.1,0.1-0.2,0.1-0.2,0.2c-0.3,0.3-0.5,0.5-0.8,0.8
		c-0.1,0.1-0.1,0.1-0.2,0.2c0,0,0,0-0.1,0.1c-0.2,0.2-0.4,0.3-0.6,0.5c0,0-0.1,0.1-0.1,0.1c-3.1,2.8-6.5,5.4-10.1,7.7
		c-1.3,0.9-2.7,1.7-4.1,2.5c-0.5,0.3-0.9,0.5-1.4,0.8c-0.4,0.2-0.7,0.4-1.1,0.6c-6,3.1-12.5,5.5-19.3,7.1c-0.3,0.1-0.7,0.1-1,0.2
		c-1.4,0.3-2.7,0.5-4.1,0.8c-0.4,0.1-0.9,0.1-1.3,0.2c-0.1,0-0.3,0-0.4,0.1c-0.9,0.1-1.9,0.2-2.8,0.3c-0.1,0-0.2,0-0.3,0
		c-2.6,0.3-5.3,0.4-8,0.4c-3.8,0-7.5-0.3-11.2-0.8c-0.1,0-0.3,0-0.4-0.1c-0.4-0.1-0.9-0.1-1.3-0.2c-1.4-0.2-2.7-0.5-4.1-0.8
		c-0.3-0.1-0.7-0.1-1-0.2c-3-0.7-5.9-1.6-8.8-2.6c0,0-0.1,0-0.1,0c-0.3-0.1-0.6-0.1-0.9-0.3c-0.1-0.1-0.2-0.3-0.2-0.3c0,0,0,0,0,0
		c-7.7-1-14.8-6.7-21.2-11.6c0,0-0.1,0-0.1-0.1c-0.4-0.3-0.8-0.6-1.2-0.9c-0.1-0.1-0.2-0.1-0.3-0.2c-1.3-1.1-2.6-2.1-3.9-3.3
		c0,0,0,0-0.1-0.1c-0.1-0.1-0.1-0.1-0.2-0.2l0,0c-0.3-0.2-0.5-0.5-0.8-0.8c-0.1-0.1-0.2-0.1-0.2-0.2c-2.6-2.4-5-5.1-7.2-7.8"/>
</g>
</svg>
