<svg width="144" height="36" viewBox="0 0 144 36" fill="none" xmlns="http://www.w3.org/2000/svg">
<path d="M0 4C0 1.79086 1.79086 0 4 0H72V36H4C1.79086 36 0 34.2091 0 32V4Z" fill="white"/>
<path fill-rule="evenodd" clip-rule="evenodd" d="M38 9H38.75H44.25H45V9.75V24C45 25.6574 43.656 27 42 27H39.5H38.75H38H34H33.25H32.5H30C28.344 27 27 25.6574 27 24V18.75V18H27.75H32.5V14.25V13.5H33.25H38V9.75V9ZM39.5 13.5V14.25V25.5H42C42.828 25.5 43.5 24.8286 43.5 24V10.5H39.5V13.5ZM38 15H34V18V18.75V25.5H38V15ZM32.5 19.5H28.5V24C28.5 24.8286 29.172 25.5 30 25.5H32.5V19.5Z" fill="#111111"/>
<path d="M72.5 0.5H140C141.933 0.5 143.5 2.067 143.5 4V32C143.5 33.933 141.933 35.5 140 35.5H72.5V0.5Z" stroke="#CCCCCC"/>
<path fill-rule="evenodd" clip-rule="evenodd" d="M100.5 12C100.5 11.172 101.171 10.5 102 10.5H114C114.828 10.5 115.5 11.1722 115.5 12V24C115.5 24.8278 114.828 25.5 114 25.5H102C101.171 25.5 100.5 24.828 100.5 24V12ZM102 9C100.343 9 99 10.344 99 12V24C99 25.656 100.343 27 102 27H114C115.656 27 117 25.6562 117 24V12C117 10.3438 115.656 9 114 9H102ZM112.5 15H106.5V13.5H112.5V15ZM112.5 18.75H106.5V17.25H112.5V18.75ZM103.5 13.5H105V15H103.5V13.5ZM105 17.25H103.5V18.75H105V17.25ZM112.5 22.5H106.5V21H112.5V22.5ZM105 21H103.5V22.5H105V21Z" fill="#9E9EA0"/>
</svg>
