<svg id="Layer_1" data-name="Layer 1" xmlns="http://www.w3.org/2000/svg" viewBox="0 0 50 50"><defs><style>.cls-1,.cls-10{fill:#261924;}.cls-2{fill:#e74b4c;}.cls-3{fill:#ff616a;}.cls-4{fill:#e73c3e;}.cls-5{fill:#d14345;}.cls-6{fill:#963131;}.cls-7,.cls-8,.cls-9{fill:#fff;}.cls-10,.cls-8,.cls-9{stroke:#261924;stroke-miterlimit:10;}.cls-8{stroke-width:1.91px;}.cls-9{stroke-width:0.88px;}.cls-10{stroke-width:2.65px;}.cls-11{fill:none;}</style></defs><title>icon-branding</title><path class="cls-1" d="M24.3,10,24,12.21l-.79.91.41-3.24-5-4.59L12.86,6.91,6.09,14l1.23,6.46L5.61,21h0l-1.07,5,1.67,3.52L5,30.06v1.72l1.7.54-.47.54-1.43-.45a.67.67,0,0,1-.46-.63V30.06a.66.66,0,0,1,.36-.59l.64-.32L3.92,26.21a.66.66,0,0,1,0-.43l1.07-5a.67.67,0,0,1,.46-.49L6.55,20,5.44,14.11a.66.66,0,0,1,.17-.58l6.77-7.08a.64.64,0,0,1,.3-.18l5.76-1.62.18,0a.66.66,0,0,1,.45.17l5,4.59A.67.67,0,0,1,24.3,10Z"/><polygon class="cls-1" points="7.13 31.78 7.12 31.79 6.65 30.62 4.97 30.06 6.19 29.45 4.52 25.93 5.6 20.96 5.61 20.96 4.54 25.93 6.22 29.45 5.02 30.06 6.67 30.62 7.13 31.78"/><path class="cls-1" d="M6.24,24s-.28.92-.31,1v0l.31-1,1.63-.87-.55-2.65.54,2.65Z"/><polygon class="cls-1" points="17.44 18.61 19.76 12.25 19.75 12.25 17.27 19.09 17.44 18.61"/><polygon class="cls-1" points="7.88 23.09 9.34 24.52 9.34 24.5 9.84 24.74 9.84 24.73 9.34 24.5 7.88 23.09"/><polygon class="cls-1" points="9.03 26.4 9.03 26.4 8.87 26.48 9.03 26.4"/><polygon class="cls-1" points="15.46 22.07 16.78 20.44 15.46 22.07 15.46 22.07"/><polygon class="cls-1" points="23.23 13.12 23.23 13.12 23.64 9.88 23.23 13.12"/><polygon class="cls-1" points="16.78 20.44 16.88 20.49 16.88 20.49 16.78 20.44 16.78 20.44"/><polygon class="cls-2" points="5.24 31.59 5.24 30.43 6.45 30.83 6.82 31.74 6.59 32.01 5.24 31.59"/><path class="cls-1" d="M5.5,30.8l.74.25.26.65h0l-1-.32V30.8M5,30.06v1.72l1.7.54.45-.52-.48-1.17L5,30.06Z"/><polygon class="cls-3" points="5.7 30.01 6.27 29.72 6.87 29.79 6.56 30.3 5.7 30.01"/><polygon class="cls-1" points="6.22 29.45 5.02 30.06 6.67 30.62 7.3 29.57 7.32 29.58 7.32 29.57 6.22 29.45 6.22 29.45"/><polygon class="cls-4" points="6.39 29.2 5.1 26.49 6.24 27.04 6.94 29.26 6.39 29.2"/><path class="cls-1" d="M5.66,27.05l.36.17.53,1.7-.9-1.88M4.54,25.93l1.68,3.52,1.1.13L6.48,26.9l0-.06-1.93-.92Z"/><polygon class="cls-3" points="5.91 21.14 7.12 20.78 7.56 22.95 6.43 23.56 5.91 21.14"/><path class="cls-1" d="M6.92,21.12l.35,1.69-.65.35-.39-1.84.69-.21m.4-.67L5.6,21l.64,3,1.62-.87-.54-2.65Z"/><path class="cls-5" d="M4.84,25.78l.76-3.55L6,24c-.06.2-.24.8-.28.9a.3.3,0,0,0,0,.16v0L6,26.36Z"/><path class="cls-1" d="M5.6,23.49l.1.45-.24.78a.54.54,0,0,0-.05.24.53.53,0,0,0,0,.16l.21.74-.49-.24.46-2.14M5.6,21l-1.07,5,1.93.92L5.94,25h0v0c0-.07.31-1,.31-1L5.6,21Z"/><polygon class="cls-6" points="6.68 26.64 6.21 24.99 6.47 24.15 7.83 23.42 9.01 24.57 7.98 26.64 6.68 26.64"/><path class="cls-1" d="M7.78,23.74l.91.88-.87,1.75H6.88L6.49,25l.2-.66,1.09-.59m.09-.65L6.25,24l-.31,1h0l.53,1.86,0,.06H8.2l0-.07h0l1.16-2.32L7.87,23.09Z"/><polygon class="cls-6" points="6.97 30.65 7.41 29.92 8.17 30.17 7.22 31.28 6.97 30.65"/><path class="cls-1" d="M7.53,30.24l.19.06-.41.47,0-.1.26-.43m-.22-.66-.63,1,.46,1.16,1.37-1.59V30l-1.19-.4v0Z"/><polygon class="cls-5" points="7.54 29.4 6.84 27.17 8 27.17 8.39 28.6 8.29 29.66 7.54 29.4"/><path class="cls-1" d="M7.79,27.43l.32,1.15-.06.72-.3-.1L7.2,27.43h.59m.4-.53H6.48l.84,2.67h0v0l1.19.4.12-1.48L8.2,26.9Z"/><polygon class="cls-3" points="12.79 7.37 13.08 7.98 12.36 9.18 8.23 12.13 12.79 7.37"/><path class="cls-1" d="M12.71,7.83l.07.14-.62,1-1.79,1.28,2.34-2.45m.15-.92L6.09,14l6.47-4.62L13.38,8l-.52-1.09Z"/><polygon class="cls-2" points="13.55 7.74 13.23 7.08 18.42 5.62 18.94 8.14 13.55 7.74"/><path class="cls-1" d="M18.22,6l.39,1.9-4.88-.36-.12-.24L18.22,6m.4-.66L12.86,6.91,13.38,8l5.89.43-.65-3.14Z"/><path class="cls-6" d="M12.82,9.44l.7-1.16L19,8.68l.45,3.54-3,8.13-1.11,1.36a.93.93,0,0,0-.48-.13l-.17,0L12.68,22Z"/><path class="cls-1" d="M13.67,8.55l5.13.38.41,3.26-2.44,6.72-.46,1.27-1,1.2a1.2,1.2,0,0,0-.4-.07l-.22,0-1.77.33.14-12.15.58-1M13.38,8l-.82,1.36-.15,13,.11,0,2.3-.43h.12a.66.66,0,0,1,.4.14l.12.09,1.31-1.63h0l.49-1.35,2.49-6.84-.49-3.82L13.38,8Z"/><polygon class="cls-4" points="19.5 8.23 19.05 6.04 22.55 9.24 19.5 8.23"/><path class="cls-1" d="M19.47,6.78l2,1.81L19.73,8l-.26-1.24m-.85-1.49.65,3.14,4.37,1.46-5-4.6Z"/><polygon class="cls-5" points="20 12.13 19.59 8.81 23.35 10.06 22.98 13.01 21.94 14.22 20 12.13"/><path class="cls-1" d="M19.9,9.2l3.16,1.05-.33,2.65-.8.92L20.26,12,19.9,9.2m-.63-.77.48,3.81h0l2.18,2.36h0l1.29-1.49.41-3.24L19.27,8.43Z"/><polygon class="cls-3" points="17.45 19.08 17.59 18.67 19.75 12.61 21.66 14.44 17.31 19.42 17.45 19.08"/><path class="cls-1" d="M19.86,13.08l1.43,1.37-3.24,3.71,1.81-5.08m-.25-.87-2.26,6.36-.15.4-.5,1.28h0l.11.12,5.2-6-2.27-2.17-.15,0Z"/><path class="cls-5" d="M9.46,24.26,8.12,23l-.54-2.57L6.38,14.1l5.91-4.22-.14,12.27L10.56,23a.93.93,0,0,0-.38.4l-.46.95Z"/><path class="cls-1" d="M12,10.4,11.88,22l-1.45.82a1.19,1.19,0,0,0-.49.51l-.34.7-1.25-1.2-.52-2.48L6.67,14.22,12,10.4m.54-1L6.09,14l1.23,6.46.55,2.65L9.34,24.5l.5.24.58-1.18a.66.66,0,0,1,.27-.29l1.62-.91.1,0,.15-13Z"/><polygon class="cls-3" points="9.34 24.52 8.18 26.83 8.87 26.48 9.03 26.4 9.84 24.74 9.34 24.5 9.34 24.52"/><path class="cls-1" d="M8.18,26.83h0l0,.07.45,1.63L8.77,27a.66.66,0,0,1,.07-.24L9,26.4l-.16.08Z"/><polygon class="cls-5" points="16.88 20.49 16.7 20.69 16.78 20.44 16.88 20.49"/><polygon class="cls-3" points="16.78 20.44 16.7 20.69 15.49 22.09 15.47 22.07 16.78 20.44"/><path class="cls-1" d="M18.72,35.61l-.06,0a.68.68,0,0,1-.36.1h-.14l-.59-.13Z"/><path class="cls-1" d="M15.49,22.09l-.44.51-.12-.09-2.3.43L11,23.85,9.43,27.08l-.18,2.25-.74.86V30l.13-1.48L8.77,27a.65.65,0,0,1,.06-.24L9,26.4l.82-1.66h0l.58-1.18a.67.67,0,0,1,.27-.29l1.62-.91.1,0,.11,0,2.3-.43h.12a.67.67,0,0,1,.41.14l.12.09Z"/><polygon class="cls-1" points="10.27 26 10.32 28.08 10.32 28.08 10.27 26 10.27 26"/><polygon class="cls-6" points="15.06 22.6 14.81 22.89 14.94 22.51 15.06 22.6"/><polygon class="cls-1" points="14.94 22.51 14.81 22.89 15.06 22.6 14.94 22.51 14.94 22.51"/><polygon class="cls-2" points="10.62 25.83 11.24 24.03 12.77 23.17 14.48 22.86 11.64 26.15 10.62 25.83"/><path class="cls-1" d="M13.78,23.26l-2.23,2.58-.6-.19.5-1.45,1.37-.77,1-.18m1.15-.75-2.3.43L11,23.85,10.28,26l1.45.45,3.08-3.57.13-.38Z"/><polygon class="cls-3" points="10.27 26 10.27 26 10.27 26 11.02 23.85 9.43 27.07 10.27 26"/><polygon class="cls-1" points="11.02 23.85 9.43 27.07 10.27 26 10.27 26 10.27 26 11.02 23.85 11.02 23.85"/><polygon class="cls-3" points="9.43 27.08 9.43 27.08 9.43 27.08 9.43 27.08"/><rect class="cls-1" x="9.43" y="27.08" transform="translate(-19.22 28) rotate(-72.65)"/><polygon class="cls-4" points="10.55 26.36 11.27 26.59 10.57 27.39 10.55 26.36"/><polygon class="cls-1" points="10.28 26 10.32 28.08 11.73 26.45 10.28 26 10.28 26"/><polygon class="cls-5" points="9.69 27.18 10.03 26.75 10.06 27.99 9.58 28.54 9.69 27.18"/><polygon class="cls-1" points="10.27 26 9.43 27.08 9.25 29.33 10.32 28.08 10.27 26 10.27 26"/><rect class="cls-7" x="24.32" y="12.85" width="19.75" height="11.94"/><path class="cls-8" d="M22,31.22H45.74V13H22Z"/><rect class="cls-9" x="21.52" y="12.46" width="24.63" height="19.4"/><rect class="cls-2" x="21.96" y="24.79" width="16.56" height="6.53"/><polyline class="cls-2" points="21.84 12.85 21.84 31.34 22.59 31.34 31.05 12.85 22.35 12.85"/><polyline class="cls-2" points="45.39 31.3 45.39 12.85 43.87 12.85 35.39 31.3 44.89 31.3"/><polygon class="cls-2" points="45.86 31.52 45.86 12.85 44.36 12.85 35.81 31.48 45.86 31.52"/><path class="cls-7" d="M35.26,31.22v.12H32.09v-.12h1V25.87a.63.63,0,0,0,0-.16.72.72,0,0,0-.08-.18l-.06-.12s-.06-.06-.1-.1a.8.8,0,0,0-.2-.16,1.24,1.24,0,0,0-.24-.1,1.3,1.3,0,0,1-.18,0h-.06a2,2,0,0,0-.75.16,3.54,3.54,0,0,0-.67.37,2.35,2.35,0,0,0-.41.31,2.22,2.22,0,0,1-.22.18v5.21h1v.12H27.88v-.12h1V26.15c0,.06-.1.12-.18.22s-.16.2-.24.33-.24.43-.37.67a2,2,0,0,0-.16.75H27.8a2,2,0,0,1,.14-.75,3.88,3.88,0,0,1,.33-.65,5.08,5.08,0,0,1,.37-.49c.12-.12.18-.22.22-.24l0,0,1.06-1.06.1-.1v1.06l.33-.26a5.08,5.08,0,0,1,.49-.33,5.27,5.27,0,0,1,.59-.28,1.87,1.87,0,0,1,.67-.12h.08a2,2,0,0,1,1.18.37A2,2,0,0,1,34,26a2.46,2.46,0,0,1,.22.73c0,.22,0,.35,0,.35V31.2h1Z"/><path class="cls-7" d="M40,27.11v1.06a3.67,3.67,0,0,1-.79,2.26,2.78,2.78,0,0,1-.85.69,2.29,2.29,0,0,1-1,.24,2.37,2.37,0,0,1-1.06-.24,2.78,2.78,0,0,1-.85-.69,3.34,3.34,0,0,1-.59-1,3.62,3.62,0,0,1-.22-1.24v-2c0,.06-.1.12-.18.22s-.16.2-.24.33-.24.43-.37.67a2,2,0,0,0-.16.75h-.12a1.81,1.81,0,0,1,.14-.73,3.88,3.88,0,0,1,.33-.65,2.54,2.54,0,0,1,.37-.49c.12-.12.18-.22.22-.24l1.18-1.18v3.3a5.91,5.91,0,0,0,.12,1.22,4.08,4.08,0,0,0,.35,1,1.88,1.88,0,0,0,.49.65.81.81,0,0,0,.57.22h0a.92.92,0,0,0,.57-.22,1.79,1.79,0,0,0,.47-.65,5.17,5.17,0,0,0,.35-1,5.91,5.91,0,0,0,.12-1.22V25h-1v-.12H41V25H40v2.12Z"/><path class="cls-7" d="M42.61,24.89a2.37,2.37,0,0,1,1.06.24,2.78,2.78,0,0,1,.85.69,3.18,3.18,0,0,1,.57,1,3.65,3.65,0,0,1,.2,1.26v.06H43.73l-.45,0a2.86,2.86,0,0,1-.47,0,4.75,4.75,0,0,0-.53.08,3.25,3.25,0,0,0-.67.22,1.64,1.64,0,0,0-.51.37,4.39,4.39,0,0,0,.41,1.4A2.37,2.37,0,0,0,42,31a.84.84,0,0,0,.57.24h0a.83.83,0,0,0,.61-.26,2.43,2.43,0,0,0,.51-.75l0,0h.94l-.06.1a2.71,2.71,0,0,1-.9.77,2.41,2.41,0,0,1-1.12.28,2.37,2.37,0,0,1-1.06-.24,2.78,2.78,0,0,1-.85-.69,3.18,3.18,0,0,1-.57-1,3.65,3.65,0,0,1-.2-1.26,3.73,3.73,0,0,1,.2-1.26,3.66,3.66,0,0,1,.57-1,2.78,2.78,0,0,1,.85-.69A3.15,3.15,0,0,1,42.61,24.89ZM44.13,28a5.7,5.7,0,0,0-.14-1.2,3.76,3.76,0,0,0-.33-1,2.37,2.37,0,0,0-.49-.65.84.84,0,0,0-.57-.24h0a.8.8,0,0,0-.57.24,2.1,2.1,0,0,0-.49.65,5.17,5.17,0,0,0-.35,1A5.91,5.91,0,0,0,41,28.1a6.61,6.61,0,0,0,0,.67,1.94,1.94,0,0,1,.53-.33c.2-.08.43-.16.63-.22s.37-.08.53-.1l.47-.06a3.6,3.6,0,0,1,.47,0h.43Z"/><path class="cls-7" d="M25.11,24.83a2.37,2.37,0,0,1,1.06.24,2.78,2.78,0,0,1,.85.69,3.18,3.18,0,0,1,.57,1,3.65,3.65,0,0,1,.2,1.26v.06H26.23l-.45,0a2.86,2.86,0,0,1-.47,0,2.43,2.43,0,0,0-.53.1,3.25,3.25,0,0,0-.67.22,1.64,1.64,0,0,0-.51.37,4.39,4.39,0,0,0,.41,1.4,2.37,2.37,0,0,0,.49.65.84.84,0,0,0,.57.24h0a.83.83,0,0,0,.61-.26,2.43,2.43,0,0,0,.51-.75l0,0h.94l-.06.1a2.71,2.71,0,0,1-.9.77,2.41,2.41,0,0,1-1.12.28A2.37,2.37,0,0,1,24.06,31a2.78,2.78,0,0,1-.85-.69,3.18,3.18,0,0,1-.57-1,3.65,3.65,0,0,1-.2-1.26,3.73,3.73,0,0,1,.2-1.26,3.66,3.66,0,0,1,.57-1,2.78,2.78,0,0,1,.85-.69A3,3,0,0,1,25.11,24.83ZM26.64,28a5.7,5.7,0,0,0-.14-1.2,3.76,3.76,0,0,0-.33-1,2.37,2.37,0,0,0-.49-.65.84.84,0,0,0-.57-.24h0a.8.8,0,0,0-.57.24,2.1,2.1,0,0,0-.49.65,5.17,5.17,0,0,0-.35,1,5.91,5.91,0,0,0-.12,1.22,6.61,6.61,0,0,0,0,.67,1.94,1.94,0,0,1,.53-.33c.2-.08.43-.16.63-.22s.37-.08.53-.1l.47-.06a3.6,3.6,0,0,1,.47,0h.43Z"/><path class="cls-1" d="M33.7,24.79v-.45h1.14L32.9,20.15H28.14l-2,4.19h1.14v.45H24.28v-.45h1.36l4.9-10.68c.06-.12.1-.24.16-.37s.12-.24.16-.35.2-.06.26-.18h.24l5.33,11.55h1.53v.45H33.7ZM30.52,15,28.35,19.7h4.33Z"/><path class="cls-1" d="M43,17.69H41.86l-.49,1.12-.47,1.08-2.05,4.17-.18.31c-.06.1-.24.39-.31.47h-.1l-3.84-7.12H33v-.45h4.33v.45h-1.1l2.69,5,1.46-3,.45-1,.43-1H40v-.45h3Z"/><path class="cls-10" d="M33.46,19.53l6,8.55V40.4H11.15A5.52,5.52,0,0,1,5.6,35V28l6.78-6.6a1.59,1.59,0,0,1,.44-.28l4.83-2s.05,0,.08-.05l3.85-3.77a1.44,1.44,0,0,1,1-.39,1.38,1.38,0,0,1,.95.49L28,21.1l3.77-2A1.3,1.3,0,0,1,33.46,19.53Z"/><path class="cls-11" d="M15.47,24l-1.6,1.29c-.08.05-.08.13,0,.2l2.41,2.34h5.89l-4.75-7.46v0L13.52,22l2,1.75A.15.15,0,0,1,15.47,24Z"/><path class="cls-11" d="M23.9,19.8l-2.56,2a.1.1,0,0,0,0,.18l2.34,1.24c.05,0,.08,0,.05.08l-1.19,4.49h9.21L26.95,21.7v0l-4.42-5.58a.17.17,0,0,0-.15-.08s-.05,0-.1.05l-.25.3h0l2,3.2A.26.26,0,0,1,23.9,19.8Z"/><path class="cls-11" d="M32.3,20.1a.22.22,0,0,0-.28-.05l-.94.51h0l.56,1.07a.16.16,0,0,1-.05.2L30,22.94a.16.16,0,0,0,0,.23l1.73,1.73s.05,0,.05.05L32,27.84h5.86v.05Z"/><path class="cls-2" d="M33.17,19.44a1.3,1.3,0,0,0-1.68-.38l-3.71,2-4.42-5.56a1.31,1.31,0,0,0-.94-.48,1.2,1.2,0,0,0-1,.38l-3.81,3.73-.08.05-4.75,2a1.57,1.57,0,0,0-.43.28l-6.62,6.5v6.9a5.46,5.46,0,0,0,5.36,5.46h28.4V27.82ZM30,22.92l1.55-1.12a.2.2,0,0,0,.05-.2l-.56-1.07L32,20a.23.23,0,0,1,.28.05l5.61,7.77v-.05H32l-.25-2.89s0-.05-.05-.08L30,23.1C30,23.07,30,23,30,22.92Zm-8.71-1.09,2.56-2c.05,0,.05-.1,0-.15l-2-3.2.3-.3a.21.21,0,0,1,.15-.05.28.28,0,0,1,.15.08l4.44,5.58V21.7l4.8,6.12H22.53l1.19-4.49c0-.05,0-.08-.05-.1L21.34,22A.08.08,0,0,1,21.34,21.83Zm-3.91-1.35h0l4.75,7.34H16.29l-2.41-2.34a.14.14,0,0,1,0-.23L15.47,24a.14.14,0,0,0,0-.23L13.55,22ZM11.84,39.16A5,5,0,0,1,6.74,34a5,5,0,0,1,5.1-5.18A5,5,0,0,1,16.95,34,5,5,0,0,1,11.84,39.16ZM28.09,35c0,2.49-1.42,4.14-4.31,4.14s-4.31-1.68-4.31-4.11v-6h1.78V35c0,1.6.74,2.61,2.41,2.61s2.41-1,2.41-2.61V29.09h2Zm10.15-4.67h-3v8.38H33.42V30.36h-3V29.09h7.87Z"/><path class="cls-2" d="M11.84,30.38A3.3,3.3,0,0,0,8.55,34a3.31,3.31,0,1,0,6.6,0A3.31,3.31,0,0,0,11.84,30.38Z"/><path class="cls-1" d="M11.84,28.83A5,5,0,0,0,6.74,34a5,5,0,0,0,5.1,5.18A5,5,0,0,0,16.95,34,5,5,0,0,0,11.84,28.83Zm0,8.78A3.3,3.3,0,0,1,8.55,34a3.31,3.31,0,1,1,6.6,0A3.31,3.31,0,0,1,11.84,37.62Z"/><path class="cls-1" d="M26.06,35c0,1.6-.74,2.61-2.41,2.61s-2.41-1-2.41-2.61V29.09H19.46v6c0,2.46,1.42,4.11,4.31,4.11s4.31-1.65,4.31-4.14V29.09h-2Z"/><polygon class="cls-1" points="30.37 30.36 33.42 30.36 33.42 38.73 35.2 38.73 35.2 30.36 38.24 30.36 38.24 29.09 30.37 29.09 30.37 30.36"/></svg>