<?xml version="1.0" encoding="utf-8"?>
<!-- Generator: Adobe Illustrator 19.2.1, SVG Export Plug-In . SVG Version: 6.00 Build 0)  -->
<svg version="1.1" id="Layer_1" xmlns="http://www.w3.org/2000/svg" xmlns:xlink="http://www.w3.org/1999/xlink" x="0px" y="0px"
	 viewBox="0 0 420 387.7" style="enable-background:new 0 0 420 387.7;" xml:space="preserve">
<style type="text/css">
	.st0{fill:#006837;}
	.st1{fill:#194A00;}
	.st2{fill:none;stroke:#194A00;stroke-width:5.435;stroke-miterlimit:10;}
</style>
<g>
	<path class="st0" d="M393.3,203.8c2.7,9.5,4.1,19.6,4.1,30.2c0,53.3-36.6,96.6-81.8,96.6c-10.4,0-20.4-2.3-29.5-6.5
		c-12,35.7-41.5,60.9-76,60.9c-30.2,0-56.5-19.3-70.7-48.1c-9.3,9.2-21.2,15-34.3,15c-28.5,0-51.9-26.4-53.4-59.4h-0.1
		c-21.5-2-39.3-20.6-45.6-44.3c-0.2-0.9-0.5-1.9-0.7-2.8c-0.1-0.4-0.2-0.8-0.2-1.1c0-0.2-0.1-0.4-0.1-0.5c-1-4.7-1.5-9.7-1.5-14.8
		l0,0c0-21,8.7-39.6,22.1-51.1c0.8-24.8,7.5-48,18.5-67.6C45.6,76.7,69,50,97.7,50c4,0,7.9,0.5,11.7,1.5c9.2-4.1,19.1-6.4,29.5-6.4
		c1.2,0,2.3,0,3.5,0.1C157.1,19.6,182,2.7,210.2,2.7c25.7,0,48.5,14,63.5,35.8c9.7-11.2,22.9-18.1,37.5-18.1
		c29.5,0,53.5,28.3,53.5,63.2c0,1.6,0,3.2-0.2,4.7c28.9,0.8,52.2,28.8,52.2,63.2C416.7,173.3,407.4,192.4,393.3,203.8z"/>
	<path class="st1" d="M51.3,294.1c-28.7-3.8-50.4-31.6-50.4-65.6h5.4c0,31,19.6,56.7,45.7,60.2L51.3,294.1z"/>
	<path class="st1" d="M210.2,387.7c-29.7,0-57.6-18.7-72.7-48.8l4.9-2.4c14.2,28.2,40.2,45.8,67.9,45.8c32.5,0,61.3-23.2,73.4-59
		l5.2,1.7C275.9,363.1,245,387.7,210.2,387.7z"/>
	<path class="st1" d="M110.5,54l-2.2-5c9.7-4.4,20-6.6,30.7-6.6c1.2,0,2.5,0,3.7,0.1l-0.3,5.4c-1.1-0.1-2.3-0.1-3.4-0.1
		C129.1,47.8,119.5,49.9,110.5,54z"/>
	<path class="st1" d="M28.5,177.8l-5.4-0.2c0.8-24.4,7.3-48.2,18.7-68.7l4.8,2.6C35.5,131.4,29.3,154.3,28.5,177.8z"/>
	<path class="st1" d="M328.6,138.6c0,0,0.4,0,1.2-0.1c0.4,0,0.9,0,1.5,0c0.6,0,1.3,0,2.1,0.1c3.2,0.2,7.7,0.9,13.2,3.2
		c1.4,0.5,2.7,1.3,4.2,2c1.4,0.8,2.9,1.6,4.4,2.5c3,1.8,6.1,4.1,9.3,6.6c6.3,5.1,12.6,11.9,18.2,20.2c5.6,8.3,10.3,18.1,13.5,29.1
		c3.2,10.9,4.9,23,4.5,35.4c-0.3,12.5-2.7,25.3-7.3,37.6c-2.3,6.1-5.2,12.1-8.7,17.8c-0.8,1.4-1.8,2.8-2.7,4.2
		c-0.9,1.4-2,2.7-2.9,4.1c-1.1,1.3-2.1,2.6-3.2,3.9c-1.1,1.2-2.2,2.5-3.4,3.7c-4.6,4.8-9.8,9.2-15.5,12.8c-5.6,3.7-11.7,6.6-18,8.7
		c-6.3,2.1-12.9,3.3-19.4,3.6l-2.4,0.1l-1.2,0l-0.2,0l-0.2,0l-0.3,0l-0.6,0c-1.6-0.1-3,0-4.7-0.2l-2.5-0.2c-0.8-0.1-1.6-0.2-2.4-0.3
		l-2.4-0.4l-2.3-0.5c-12.4-2.7-23.5-8.6-32.4-15.8c-9-7.2-15.8-15.8-21-24.3c-2.6-4.2-4.7-8.5-6.5-12.7c-1.8-4.2-3.2-8.2-4.4-12.1
		c-2.2-7.8-3.1-14.8-3.4-20.5c-0.2-2.9,0-5.4,0-7.7c0.2-2.2,0.3-4.1,0.5-5.6c0.2-1.5,0.4-2.7,0.5-3.4c0.1-0.8,0.2-1.2,0.2-1.2
		s0.1,0.4,0.2,1.2c0.1,0.8,0.2,1.9,0.4,3.5c0.4,3,0.9,7.4,1.9,12.9c1,5.5,2.4,12,4.7,19.4c1.2,3.6,2.5,7.5,4.3,11.4
		c1.7,3.9,3.8,8,6.3,11.9c5,8,11.5,15.9,19.9,22.6c8.3,6.7,18.6,11.9,29.9,14.2l2.1,0.4l2.2,0.3c0.7,0.1,1.4,0.2,2.2,0.3l2.1,0.2
		c1.4,0.2,3,0.2,4.5,0.2l0.6,0l0.3,0c0,0,0.2,0,0,0l0.1,0l1.1,0l2.2-0.1c5.9-0.3,11.9-1.5,17.6-3.4c5.7-1.9,11.3-4.6,16.4-8
		c5.1-3.4,9.9-7.4,14.2-11.9c8.6-9,15.2-19.8,19.6-31.3c4.4-11.5,6.7-23.6,7.1-35.3c0.4-11.8-1.1-23.2-4-33.6
		c-2.9-10.4-7.3-19.7-12.4-27.6c-5.1-7.9-11-14.3-16.8-19.1c-5.8-4.9-11.6-8.3-16.5-10.7c-4.8-2.5-8.8-4.4-11.5-5.7
		c-1.4-0.7-2.5-1.2-3.2-1.5C329,138.8,328.6,138.6,328.6,138.6z"/>
	<path class="st1" d="M361.8,88.4c0,0,0-0.7,0-2.1c0-0.7,0-1.5,0-2.5c0-1-0.1-2.1-0.2-3.3c-0.2-2.4-0.5-5.4-1.1-8.8
		c-0.7-3.4-1.6-7.1-3.1-11.1c-1.4-4-3.4-8.1-5.9-12.1c-0.6-1-1.3-2-2-3c-0.7-1-1.4-2-2.3-2.9c-1.6-2-3.3-3.8-5.2-5.6
		c-1.9-1.8-3.9-3.4-6.1-4.9c-2.2-1.5-4.5-2.8-6.9-3.9c-2.4-1.1-5-2-7.6-2.7c-2.6-0.7-5.3-1.1-8-1.2l-2-0.1l-0.1,0c-0.1,0,0.1,0,0,0
		l-0.1,0l-0.3,0l-0.6,0l-1.1,0c-0.8,0-1.4,0.1-2,0.1c-0.6,0-1.3,0.1-2,0.2c-2.7,0.3-5.3,1-7.8,1.8c-5.1,1.7-9.8,4.3-13.9,7.4
		c-4.1,3.2-7.6,6.9-10.4,10.7c-2.9,3.8-5.2,7.8-7.1,11.6c-1.9,3.8-3.3,7.5-4.4,10.8c-1.1,3.3-1.9,6.3-2.4,8.8
		c-0.3,1.2-0.5,2.4-0.7,3.3c-0.2,1-0.3,1.8-0.5,2.5c-0.2,1.4-0.4,2.1-0.4,2.1s-0.1-0.7-0.3-2.1c-0.1-0.7-0.2-1.6-0.2-2.6
		c0-0.5-0.1-1.1-0.1-1.6c0-0.6,0-1.2,0-1.9c-0.1-2.6,0.2-5.8,0.7-9.5c0.6-3.7,1.6-7.7,3.2-12.1c1.6-4.3,3.9-8.8,7-13.2
		c3.1-4.4,6.9-8.6,11.4-12.3c4.6-3.7,9.9-6.8,15.8-8.9c2.9-1,6-1.8,9.1-2.2c0.8-0.1,1.6-0.2,2.4-0.3c0.8-0.1,1.7-0.2,2.4-0.2l1.1,0
		l0.6,0l0.3,0l0.3,0l0.1,0l2.4,0.1c3.2,0.2,6.3,0.6,9.4,1.4c3.1,0.7,6.1,1.8,8.9,3.1c2.8,1.3,5.5,2.8,8,4.6c2.5,1.7,4.8,3.6,7,5.6
		c2.1,2,4.1,4.2,5.8,6.4c0.9,1.1,1.7,2.2,2.5,3.3c0.7,1.2,1.5,2.3,2.2,3.4c2.8,4.6,4.8,9.2,6.3,13.6c1.5,4.4,2.4,8.5,3,12.2
		c0.6,3.7,0.7,6.9,0.8,9.7c0,1.3,0,2.5,0,3.6c-0.1,1-0.1,1.8-0.2,2.5c-0.1,1.4-0.1,2.1-0.1,2.1L361.8,88.4z"/>
	<path class="st1" d="M391.6,201.7c0,0,0.6-0.5,1.6-1.4c0.3-0.2,0.6-0.5,0.9-0.8c0.3-0.3,0.6-0.6,0.9-0.9c0.7-0.7,1.4-1.4,2.2-2.4
		c0.4-0.5,0.8-1,1.3-1.5c0.4-0.5,0.9-1.1,1.3-1.7c0.2-0.3,0.5-0.6,0.7-0.9c0.2-0.3,0.5-0.7,0.7-1c0.5-0.7,1-1.3,1.4-2.1
		c1.9-2.9,3.7-6.4,5.4-10.4c3.3-7.9,5.5-17.9,5.2-28.8c-0.1-5.4-0.9-10.9-2.3-16.4c-0.7-2.7-1.6-5.4-2.7-8.1
		c-1.1-2.6-2.3-5.2-3.8-7.7c-2.8-4.9-6.3-9.5-10.4-13.3c-4-3.9-8.6-6.9-13.4-9.1c-2.4-1.1-4.8-2-7.3-2.6c-2.5-0.6-4.9-1-7.3-1.2
		c-0.6-0.1-1.2-0.1-1.8-0.1l-0.9,0l-0.1,0l-0.1,0c0,0,0.1,0,0,0l-0.2,0l-0.5,0c-0.6,0-1.3,0-1.9,0c-0.6,0-1.1,0.1-1.7,0.1
		c-0.5,0-1.1,0.1-1.7,0.2c-0.6,0.1-1.1,0.1-1.6,0.2c-1.1,0.2-2.1,0.4-3.2,0.7c-4.1,1-7.7,2.5-10.8,4.1c-3.1,1.5-5.8,3.1-8,4.4
		c-2.2,1.4-4,2.5-5.2,3.2c-1.2,0.8-1.9,1.2-1.9,1.2s0.3-0.7,1.1-2c0.7-1.3,2-3,3.8-5.1c1.8-2,4.4-4.3,7.7-6.3c3.3-2,7.3-3.8,12-5
		c1.1-0.3,2.4-0.6,3.6-0.8c0.6-0.1,1.2-0.2,1.9-0.3c0.6-0.1,1.3-0.2,1.9-0.2c0.7-0.1,1.3-0.1,2-0.2c0.6,0,1.2,0,1.9-0.1l0.5,0l0.2,0
		l0.2,0l0.1,0l1,0c0.7,0,1.4,0,2,0.1c2.8,0.2,5.6,0.6,8.4,1.2c2.8,0.7,5.6,1.6,8.4,2.8c5.5,2.4,10.8,5.8,15.3,10.1
		c4.6,4.2,8.6,9.3,11.8,14.8c1.6,2.7,3,5.6,4.2,8.5c1.2,2.9,2.2,5.9,3,8.9c1.6,6,2.4,12.1,2.5,18c0.1,5.9-0.4,11.6-1.5,16.9
		c-1.1,5.3-2.7,10.2-4.6,14.5c-1.9,4.3-4,8.1-6.2,11.3c-0.5,0.8-1.1,1.5-1.6,2.3c-0.3,0.4-0.5,0.7-0.8,1.1c-0.3,0.3-0.5,0.7-0.8,1
		c-0.5,0.6-1,1.3-1.5,1.8c-0.5,0.6-1,1.1-1.5,1.6c-0.9,1-1.9,1.9-2.7,2.6c-0.4,0.4-0.8,0.7-1.1,1c-0.3,0.3-0.6,0.5-0.9,0.8
		c-1.1,0.9-1.7,1.4-1.7,1.4L391.6,201.7z"/>
	<path class="st1" d="M147,88.6c0,0-0.5-0.6-1.2-1.6c-0.4-0.5-0.9-1.2-1.4-2c-0.6-0.8-1.2-1.6-1.9-2.6c-0.6-1-1.4-2-2.3-3.2
		c-0.8-1.2-1.7-2.4-2.7-3.6c-0.9-1.3-2.1-2.6-3.1-4c-0.6-0.7-1.2-1.4-1.8-2.1c-0.3-0.4-0.6-0.7-0.9-1.1c-0.3-0.3-0.7-0.7-1-1
		c-2.7-2.8-6.1-5.4-9.9-7.7c-3.8-2.3-8.1-4.1-12.8-5.2c-2.3-0.6-4.7-0.9-7.2-1.1c-0.6,0-1.2,0-1.8-0.1l-0.9,0l-0.2,0l-0.1,0
		c-0.1,0,0.1,0,0,0l-0.1,0l-0.5,0l-2,0.1l-1.8,0.2c-4.9,0.5-9.9,2-14.5,4.2C74.2,60,70,63,66.3,66.5c-3.7,3.5-6.9,7.5-9.4,11.6
		c-2.6,4.1-4.6,8.5-6.1,12.7c-1.5,4.3-2.5,8.4-3.1,12.4c-0.6,3.9-0.8,7.5-0.9,10.8c-0.1,3.3-0.2,6.1-0.3,8.4
		c-0.1,2.4-0.1,4.3-0.2,5.6c-0.1,1.3-0.1,2-0.1,2s-0.1-0.2-0.3-0.5c-0.2-0.3-0.4-0.8-0.7-1.4c-0.6-1.2-1.3-3-2-5.4
		c-0.7-2.4-1.2-5.4-1.4-8.8c-0.2-3.4,0-7.4,0.5-11.6c0.5-4.2,1.5-8.8,3-13.5c1.5-4.7,3.5-9.5,6.3-14.1c2.7-4.7,6.2-9.1,10.3-13.1
		c4.1-4,8.9-7.4,14.2-10c5.3-2.6,11-4.2,16.8-4.8l2.2-0.2l2,0l0.5,0l0.1,0c0,0,0.2,0,0.2,0l0.1,0l0.3,0l1.1,0.1
		c0.7,0,1.4,0.1,2.1,0.1c2.8,0.2,5.6,0.7,8.3,1.4c5.3,1.4,10.2,3.6,14.4,6.3c4.2,2.7,7.8,5.7,10.8,8.9c0.4,0.4,0.8,0.8,1.1,1.2
		c0.3,0.4,0.7,0.8,1,1.2c0.7,0.8,1.3,1.5,1.9,2.3c0.6,0.8,1.1,1.6,1.7,2.3c0.6,0.7,1,1.5,1.4,2.3c0.4,0.8,0.8,1.5,1.2,2.2
		c0.4,0.7,0.7,1.4,1,2.1c0.6,1.4,1.1,2.6,1.5,3.9c0.4,1.2,0.7,2.3,0.9,3.2c0.2,0.9,0.3,1.7,0.4,2.4C146.9,87.9,147,88.6,147,88.6z"
		/>
	<path class="st1" d="M158.7,288.4c1.4,3.7,1.7,7.7,1.5,11.6c-0.2,3.9-1.2,7.7-2.3,11.4c-2.3,7.5-5.8,14.6-10.4,21
		c-4.7,6.3-10.6,11.9-17.5,15.9c-6.9,4-14.8,6.4-22.9,6.7l-1.5,0l-0.5,0l-0.4,0l-0.7,0l-1.4,0c-0.5,0-1-0.1-1.5-0.1l-1.6-0.1
		l-1.5-0.2c-1-0.1-2-0.3-3-0.5c-3.9-0.8-7.8-2.1-11.4-3.9c-3.6-1.7-7-3.9-10.1-6.4c-3.1-2.5-6-5.3-8.5-8.3c-2.6-3-4.8-6.3-6.7-9.7
		c-1.9-3.4-3.6-7-4.9-10.7c-2.7-7.4-4.1-15.2-4.3-22.9l2.9,2.6l-0.1,0l-0.2,0l-0.3,0c-4.3-0.4-8.6-1.5-12.7-3
		c-4.1-1.6-8-3.7-11.5-6.2c-3.6-2.5-6.8-5.5-9.7-8.8c-2.9-3.3-5.5-6.8-7.6-10.6c-4.3-7.5-7.3-15.8-8.7-24.4l-0.5-3.2l-0.3-3.2
		c-0.1-1.1-0.1-2.2-0.2-3.2l0-1.6l0-0.8l0-0.4l0-0.3l0-0.2l0.1-3.1l0.2-3.3l0.3-3.2l0.5-3.2c1.5-8.5,4.4-16.8,8.9-24.3
		c2.2-3.7,4.8-7.3,7.7-10.5c2.9-3.2,6.2-6.2,9.8-8.7c7.2-5,15.7-8.4,24.4-9.2c2.2-0.2,4.4-0.3,6.6-0.2c2.3,0.2,4.4,0.5,6.5,1.1
		c4.2,1.2,8.2,3.1,11.4,6.1c-2.2-0.2-4.2-0.5-6.3-0.6c-2-0.2-4-0.3-6-0.4c-1.9-0.1-3.9-0.1-5.8-0.1l-0.8,0l-0.4,0l-0.3,0l-1.4,0.1
		c-1,0-1.9,0.2-2.9,0.2c-7.6,0.9-14.9,4-21.2,8.5c-3.1,2.3-5.9,5-8.5,7.9c-2.6,2.9-4.8,6.1-6.8,9.5c-3.9,6.8-6.5,14.3-7.8,22
		l-0.4,2.9l-0.3,2.9l-0.2,2.9l-0.1,3.1l0,2.9l0.2,2.9l0.3,2.9l0.4,2.9c1.3,7.7,3.8,15.3,7.6,22.1c1.9,3.4,4.1,6.6,6.6,9.6
		c2.5,3,5.3,5.7,8.4,8c3.1,2.3,6.4,4.3,10,5.9c3.6,1.5,7.3,2.6,11.1,3.2l-0.5,0l0.1,0l2.7-0.1l0.2,2.7c0.5,7.2,2.1,14.3,4.7,21
		c1.3,3.3,2.8,6.6,4.7,9.6c1.8,3.1,3.9,6,6.2,8.6c4.6,5.4,10.2,9.8,16.6,12.8c3.1,1.5,6.5,2.6,9.9,3.4c0.8,0.2,1.7,0.4,2.6,0.5
		l1.3,0.2l1.2,0.1c0.4,0,0.8,0.1,1.3,0.1l1.4,0l0.7,0l0.4,0c-0.2,0,0,0-0.1,0l0,0l0.1,0l0.2,0l1.3,0c3.5-0.1,6.9-0.7,10.3-1.6
		c3.4-0.9,6.6-2.3,9.7-4c6.1-3.4,11.5-8.3,15.9-13.9c4.4-5.6,7.8-12.1,10-18.9c1.2-3.4,1.9-7,2.8-10.5
		C156.3,295.7,157.2,292.2,158.7,288.4z"/>
	<path class="st2" d="M291.4,88.5"/>
	<path class="st1" d="M136,66.9l-5.2-1.6C142.9,26.3,174.8,0,210.2,0c24.8,0,48.2,12.7,64.3,34.9l-4.4,3.2
		c-15-20.8-36.9-32.7-59.9-32.7C177.2,5.4,147.4,30.1,136,66.9z"/>
	<path class="st1" d="M103,180.8c0,0-0.4-0.4-1-1.1c-0.6-0.8-1.6-1.9-2.5-3.5c-1.9-3.2-4.1-8.2-4.8-14.7c-0.1-0.8-0.1-1.6-0.2-2.5
		l0-0.6l0-0.2l0-0.3l0-0.3c0-0.4,0-0.8,0-1.2c0-0.8,0-1.7,0-2.5c0-0.4,0-0.9,0.1-1.3c0-0.5,0.1-0.9,0.1-1.4c0.1-1,0.2-1.9,0.3-2.9
		c0.2-0.9,0.4-1.9,0.5-2.9c0.3-1.9,1-3.8,1.5-5.8c1.3-3.9,3-7.8,5.4-11.4l0.9-1.4l1-1.3c0.7-0.9,1.3-1.8,2-2.6l2.3-2.4
		c0.4-0.4,0.8-0.8,1.2-1.2l1.3-1.1c3.4-2.9,7.2-5.3,11.4-6.9c0.5-0.2,1-0.4,1.5-0.6l1.6-0.5c1.1-0.3,2.1-0.7,3.2-0.8
		c1.1-0.2,2.1-0.3,3.2-0.5c1.1-0.1,2.1-0.1,3.2-0.1c4.1-0.1,8.3,0.6,11.9,1.8c3.6,1.2,6.8,2.9,9.6,4.7c2.7,1.8,4.9,3.9,6.6,6
		c1.7,2,2.8,4,3.6,5.7c0.8,1.7,1.3,3.1,1.5,4.1c0.3,1,0.3,1.5,0.3,1.5s-0.4-0.3-1.2-1c-0.7-0.7-1.8-1.6-3.1-2.8
		c-1.3-1.1-2.9-2.5-4.8-3.9c-1.8-1.4-3.9-3-6.3-4.4c-2.4-1.4-5.2-2.7-8.2-3.5c-0.8-0.2-1.5-0.4-2.3-0.5c-0.8-0.1-1.6-0.3-2.4-0.3
		c-0.8,0-1.5-0.2-2.5-0.1c-0.5,0-0.9,0-1.4,0l-1.1,0.1c-0.8,0.1-1.7,0.1-2.5,0.2c-0.8,0.2-1.7,0.3-2.5,0.5c-0.9,0.1-1.7,0.5-2.5,0.7
		l-1.2,0.4c-0.4,0.1-0.8,0.4-1.2,0.5c-3.3,1.3-6.3,3.4-9.1,5.8l-1,0.9c-0.3,0.3-0.7,0.6-1,0.9l-1.9,2c-0.6,0.7-1.1,1.4-1.7,2.1
		l-0.8,1.1l-0.7,1.2c-0.5,0.8-1,1.5-1.5,2.3c-0.4,0.8-0.8,1.6-1.3,2.4c-0.5,0.8-0.8,1.6-1.1,2.4c-0.3,0.8-0.7,1.6-1,2.4
		c-0.5,1.7-1.2,3.3-1.5,5c-0.2,0.8-0.4,1.6-0.6,2.4c-0.1,0.8-0.3,1.6-0.4,2.3c-0.1,0.4-0.1,0.8-0.2,1.2c-0.1,0.4-0.1,0.8-0.1,1.2
		c-0.1,0.8-0.1,1.7-0.2,2.5c0,0.4-0.1,0.8-0.1,1.2l0,0.3l0,0.1l0,0c0-0.3,0-0.1,0-0.1l0,0.1l0,0.6c0,0.7,0,1.5,0,2.2
		c0,2.9,0.1,5.5,0.3,7.9c0.2,2.4,0.4,4.5,0.6,6.2c0.2,1.8,0.4,3.2,0.5,4.1C102.9,180.2,103,180.8,103,180.8z"/>
	<path class="st1" d="M223.3,152c0,0,0-0.5-0.1-1.5c0-1,0-2.5,0.3-4.3c0.3-1.8,0.7-4.1,1.6-6.5c0.9-2.5,2.2-5.2,4.1-7.9
		c0.5-0.7,1-1.3,1.5-2l0.1-0.1l0.2-0.2l0.2-0.2l0.4-0.4c0.3-0.3,0.5-0.6,0.8-0.9c0.3-0.3,0.6-0.6,0.8-0.9c0.3-0.3,0.5-0.6,0.9-0.9
		c0.7-0.6,1.4-1.3,2.2-2c0.4-0.3,0.7-0.7,1.1-1c0.4-0.3,0.8-0.6,1.2-0.9c0.8-0.6,1.6-1.2,2.4-1.7c1.8-1,3.5-2.1,5.5-2.8
		c1.9-0.9,4-1.4,6.1-2c1.1-0.2,2.2-0.4,3.3-0.5l0.8-0.1l0.8,0l1.7-0.1c4.5-0.2,9.1,0.4,13.3,1.9c4.3,1.5,8.2,3.7,11.7,6.5
		c0.9,0.7,1.6,1.5,2.4,2.2l1.2,1.1c0.4,0.4,0.7,0.8,1.1,1.2c0.7,0.8,1.4,1.6,2.1,2.4l0.9,1.2l0.8,1.2c0.6,0.9,1.2,1.8,1.7,2.7
		c0.5,0.9,1,1.7,1.5,2.6c0.4,0.9,0.9,1.7,1.3,2.6c0.4,0.9,0.7,1.8,1.1,2.6c1.3,3.5,2.2,6.9,2.8,10c0.6,3.2,0.8,6.1,0.6,8.7
		c0,1.3-0.2,2.5-0.4,3.6c-0.2,1.1-0.4,2.1-0.7,3c-0.5,1.8-1,3.1-1.5,4.1c-0.4,0.9-0.7,1.4-0.7,1.4s-0.1-0.5-0.3-1.5
		c-0.1-1-0.4-2.4-0.6-4.1c-0.2-0.9-0.3-1.8-0.4-2.9c-0.2-1-0.3-2.1-0.5-3.3c-0.4-2.3-0.9-4.9-1.5-7.7c-0.7-2.8-1.6-5.7-3-8.7
		c-0.4-0.7-0.7-1.5-1.1-2.2c-0.4-0.7-0.8-1.5-1.2-2.2c-0.4-0.7-0.9-1.4-1.4-2.2c-0.5-0.7-1-1.3-1.5-2c-0.6-0.7-1.2-1.4-1.7-2.1
		c-0.6-0.6-1.2-1.3-1.8-1.9c-0.3-0.3-0.6-0.6-0.9-1l-1-0.9c-0.7-0.6-1.3-1.2-2.1-1.7c-2.9-2.2-6.1-3.8-9.4-5l-2.6-0.8l-2.6-0.5
		l-0.7-0.1c-0.2,0-0.4,0-0.7,0l-1.3-0.1l-1.3-0.1l-1.3,0.1l-1.3,0l-0.7,0L257,123c-0.9,0.1-1.7,0.3-2.6,0.4
		c-1.7,0.4-3.3,0.8-4.9,1.5c-1.6,0.5-3,1.4-4.5,2.1c-0.7,0.4-1.4,0.9-2.1,1.3c-0.3,0.2-0.7,0.4-1,0.6c-0.3,0.2-0.6,0.5-0.9,0.7
		c-0.6,0.5-1.2,0.9-1.7,1.4c-0.3,0.2-0.6,0.5-0.9,0.8c-0.3,0.3-0.6,0.6-0.9,0.9c-0.3,0.3-0.6,0.6-0.9,0.9c-0.2,0.2-0.5,0.5-0.7,0.7
		c-0.5,0.5-1,1.1-1.4,1.6c-3.7,4.3-6.3,8.3-8.2,11.3c-0.9,1.5-1.7,2.7-2.2,3.5C223.6,151.5,223.3,152,223.3,152z"/>
	<path class="st1" d="M146.2,180.8c0,0,0,0.2,0,0.6c0,0.4-0.1,1-0.1,1.8c-0.1,1.6-0.2,3.9-0.2,6.7c0,2.8,0.2,6.2,0.7,9.8
		c0.3,1.8,0.7,3.7,1.2,5.6c0.2,1,0.6,1.9,0.9,2.9l0.3,0.7l0.1,0.4l0,0.1c0-0.1,0.1,0.2,0-0.1l0,0.1l0.1,0.2c0.2,0.6,0.5,1.1,0.7,1.7
		c0.1,0.3,0.2,0.6,0.3,0.8l0.3,0.7c0.2,0.4,0.4,0.9,0.7,1.4c0.6,0.9,1,1.9,1.7,2.9c0.6,1,1.3,1.9,2,2.8c0.8,0.9,1.5,1.8,2.4,2.6
		c1.7,1.7,3.7,3.3,5.9,4.6c2.2,1.4,4.5,2.6,7.1,3.7c5.1,2,10.7,3.4,16.6,4c3,0.3,6,0.4,9,0.4c1.5,0,3-0.1,4.6-0.2
		c1.5-0.1,3.1-0.2,4.6-0.4c3.1-0.3,6.1-0.9,9.1-1.5c3-0.7,6-1.4,8.9-2.3c2.9-0.8,5.8-1.9,8.7-2.9l0.5-0.2l0.1,0c-0.2,0.1,0,0-0.1,0
		l0.1-0.1l0.3-0.1l1.1-0.5c0.7-0.3,1.5-0.6,2.2-0.9l1.1-0.4l1-0.5c0.7-0.3,1.3-0.6,2-0.9c5.3-2.4,10.3-5.3,14.8-8.2
		c4.5-2.9,8.6-6.1,12.1-9.2c1.8-1.5,3.4-3.1,5-4.6c1.5-1.5,3.1-2.9,4.4-4.3c2.8-2.7,5.1-5.2,7.1-7.2c2-2.1,3.6-3.7,4.7-4.9
		c1.1-1.1,1.8-1.8,1.8-1.8s-0.1,0.9-0.4,2.5c-0.3,1.6-0.9,3.9-1.9,6.7c-1.1,2.8-2.7,6.2-5,9.7c-1.1,1.8-2.5,3.6-3.9,5.4
		c-0.7,0.9-1.6,1.8-2.4,2.7c-0.8,0.9-1.7,1.8-2.6,2.7c-3.7,3.6-7.9,7.4-12.6,10.9c-4.8,3.5-10,6.9-15.8,10c-0.7,0.4-1.5,0.8-2.2,1.2
		l-1.1,0.6l-1.1,0.5c-0.7,0.3-1.4,0.7-2.1,1l-1.1,0.5l-0.3,0.1l-0.4,0.2l-0.6,0.2c-3.1,1.3-6.2,2.5-9.5,3.6
		c-6.5,2.1-13.3,3.8-20.3,4.6c-7,0.9-14.1,1-21.1,0.2c-3.5-0.4-6.9-1.1-10.3-1.9c-3.4-0.9-6.7-2.1-9.8-3.5
		c-6.3-2.8-12-6.7-16.4-11.5c-1.1-1.2-2.1-2.4-3.1-3.7c-0.9-1.3-1.8-2.6-2.6-3.9c-0.8-1.3-1.4-2.7-2.1-4c-0.3-0.7-0.6-1.4-0.9-2.1
		c-0.1-0.4-0.3-0.7-0.4-1.1c-0.2-0.4-0.2-0.6-0.3-0.9c-0.2-0.6-0.3-1.2-0.5-1.8l-0.1-0.2l0-0.1c-0.1-0.4,0-0.1-0.1-0.2l0-0.1
		l-0.1-0.5c-0.1-0.3-0.1-0.7-0.2-1c-0.2-1.3-0.4-2.6-0.5-3.9c-0.2-2.5-0.1-4.9,0.1-7.1c0.5-4.4,1.7-8,2.9-10.8
		c1.2-2.8,2.5-4.9,3.4-6.2C145.6,181.4,146.2,180.8,146.2,180.8z"/>
</g>
</svg>
