<?xml version="1.0" encoding="utf-8"?>
<!-- Generator: Adobe Illustrator 19.2.1, SVG Export Plug-In . SVG Version: 6.00 Build 0)  -->
<svg version="1.1" id="Layer_1" xmlns="http://www.w3.org/2000/svg" xmlns:xlink="http://www.w3.org/1999/xlink" x="0px" y="0px"
	 viewBox="0 0 413 65.8" style="enable-background:new 0 0 413 65.8;" xml:space="preserve">
<style type="text/css">
	.st0{opacity:0.57;fill:#1A1A1A;}
</style>
<path class="st0" d="M23.3,31.2c-2.7-1.6-4.1-3.4-4.1-5.2c0-9.2,36.6-16.6,81.8-16.6c10.4,0,20.4,0.4,29.5,1.1
	C142.6,4.3,172,0,206.5,0c30.2,0,56.5,3.3,70.7,8.3c9.3-1.6,21.2-3.8,34.3-3.8c28.5,0,51.9,3,53.4,9h0.1c21.5,0,39.3,4.8,45.6,8.8
	c0.2,0.1,0.5,0.9,0.7,1.1c0.1,0.1,0.2,0.4,0.2,0.5c0,0,0.1,0.2,0.1,0.2c1,0.8,1.5,1.7,1.5,2.6l0,0c0,3.6-8.7,6.8-22.1,8.8
	c-0.8,4.3-7.5,8.3-18.5,11.6c-1.3,5.8-24.8,10.4-53.4,10.4c-4,0-7.9-0.1-11.7-0.3c-9.2,0.7-19.1,1.1-29.5,1.1c-1.2,0-2.3,0-3.5,0
	c-14.7,4.4-39.5,7.3-67.7,7.3c-25.7,0-48.5-2.4-63.5-6.2c-9.7,1.9-22.9,3.1-37.5,3.1C76,62.7,52,57.8,52,51.8c0-0.3,0-0.5,0.2-0.8
	C23.2,50.9,0,46.1,0,40.1C0,36.4,9.2,33.1,23.3,31.2z"/>
</svg>
