<svg id="Layer_1" data-name="Layer 1" xmlns="http://www.w3.org/2000/svg" viewBox="0 0 1000.55 294.01"><defs><style>.cls-1{fill:#272123;}</style></defs><title>logo-shiplane-wordmark-dark</title><path class="cls-1" d="M272.62,188.39c-8.54-1.17-11.84-2.33-11.84-3.89,0-1.74,2.33-3.49,9.9-3.49,9.32,0,19.22,1.75,26.41,8.93l18.25-21.55c-7.38-6.8-21.75-14.17-46.79-14.17-36.89,0-52.62,17.86-52.62,33.78,0,15.53,11.84,25.63,40.19,31.26,10.87,2.13,14.56,3.88,14.56,6.21,0,2.14-4.07,2.91-8.54,2.91-11.46,0-21.55-5-28.54-11.26L214,240.81c11.45,10.29,27.76,14.37,51.45,14.37,35.53,0,50.09-16.31,50.09-35C315.53,202.37,302.33,192.46,272.62,188.39Zm123.15-34.17A32.3,32.3,0,0,0,380.05,158c-6.56,3.59-14.57,12.4-14.57-8.56V117.32H320.83V253.24h44.65V202.37c0-10.49,2.92-15.34,9.32-15.34,4.66,0,6.8,2.72,6.8,11.45v54.76h44.66V186.83C426.26,166.06,415,154.22,395.77,154.22Zm40.08,99H480.5V156.16H435.85Zm22.32-140.57c-17.66,0-24.27,5-24.27,18.63s6.61,18.64,24.27,18.64,24.27-5,24.27-18.64S475.84,112.67,458.17,112.67Zm104.34,41.55a31.22,31.22,0,0,0-27.31,15,2.76,2.76,0,0,1-5.09-1.32l-.6-11.71H490.29V294h44.65V236.93c4.86,11.07,13.79,18.25,27.38,18.25,23.69,0,37.28-18.64,37.28-51.07C599.6,172.47,586.4,154.22,562.51,154.22Zm-18,69.5c-6.6,0-9.52-5.82-9.52-18.25v-1.55c0-13.4,3.5-18.44,9.52-18.44,6.21,0,10.09,3.88,10.09,19.22S550.67,223.72,544.46,223.72Zm103.8-9.12V117.32H603.6V221.39c0,24.28,9.52,33.79,33.59,33.79,8.74,0,19.22-2.53,24.08-6.21l1.94-24.08a24.4,24.4,0,0,1-7,1C650.2,225.86,648.26,222.37,648.26,214.6Zm119,6.79V194.21c0-26.6-15.72-40-50.48-40-31.64,0-47.76,13.39-49.7,35.14L704,195c.39-9.51,4.85-11.85,10.29-11.85,5.63,0,8.74,3.5,8.74,9.52a4.85,4.85,0,0,1-3.8,4.73l-15.43,3.42c-27.57,6-37.86,15.15-37.86,31.26,0,14.76,9.52,23.11,29.9,23.11,17.87,0,28.93-6.8,34.56-16.31,3.69,10.87,15,16.31,30.49,16.31a28.15,28.15,0,0,0,14.36-3.88l3.5-22.72a11,11,0,0,1-4.85.78C769.6,229.36,767.27,226.83,767.27,221.39Zm-44.26,0c0,6.41-3.69,9.52-8.35,9.52-3.69,0-6.8-2.14-6.8-6.8,0-4.85,3.3-8.54,8.74-10.09l6.41-1.94ZM859.5,154.22c-12.56,0-22.15,4.72-28.53,13.33a3.19,3.19,0,0,1-5.78-1.7l-.45-9.69H784.55v97.08h44.66V202.37c0-10.49,2.91-15.15,9.32-15.15,4.66,0,6.79,2.53,6.79,11.26v54.76H890V186.83C890,166.06,878.72,154.22,859.5,154.22Zm141,47.37c0-28.35-17.48-47.37-51.65-47.37s-53.78,18.25-53.78,50.48,19,50.48,56.11,50.48c23.69,0,43.1-9.13,47.57-28.35l-35.92-9.71c-1.36,5.25-5,8.35-11.65,8.35-7.57,0-12-2.13-13.4-12.23h61.74A61.43,61.43,0,0,0,1000.55,201.59Zm-62.72-4.85c1.17-9.71,4.66-13,11.26-13,6.41,0,8.93,4.46,9.71,13Zm-748.9-10.25A97.41,97.41,0,0,0,170.17,188c-.16,0-.23,0-.23-.12,0-.88,8.73-7.14,8.73-32.31L154.31,147V112.67h-27l8.38-19.07c10.52-3.33,16.52-13.76,16.52-24.35a26,26,0,0,0-5.92-16.74,26.52,26.52,0,0,0,10.88-21.69C157.16,15.43,145.1,0,129.9,0,124.16,0,118,2.2,111.83,7.42A28.88,28.88,0,0,0,98.32,4.11c-13.68,0-26.88,9.42-26.88,25.65,0,.15,0,.3,0,.45-9.21,3.66-13,12.59-13,21.11a26,26,0,0,0,3.06,12.57c-3.74,2.45-6.07,7.56-6.07,13.08A19.19,19.19,0,0,0,66,94.15l8.14,18.52h-27V147c-9.28,3.32-16.06,5.72-24.36,8.65,0,25.13,8.74,31.4,8.74,32.29,0,.08-.08.12-.25.12a98.64,98.64,0,0,0-18.71-1.52c-3.54,0-7.69.12-12.54.42,4,78.41,6.88,100.85,81.09,106.37,7,.51,13.78.73,20.09.73,6.54,0,12.55-.23,17.69-.62,77.39-5.37,78.69-29.79,82.55-106.48C196.6,186.61,192.46,186.49,188.93,186.49Zm.34,9.89h1.66c-.51,9.91-1,18.91-1.77,27A75.1,75.1,0,0,0,120.29,269a105.51,105.51,0,0,0-13.5-30.54A101.81,101.81,0,0,1,189.27,196.38Zm-63.12,86.37a65.18,65.18,0,0,1,61.41-49.32C183.63,264,175.84,278,126.15,282.75Zm-20.74-153v-10h16.85v16Zm-26.24-10H96v10.18l-16.85,5.61Zm89.34,43c-.86,9.52-5.22,19.25-13,29a112.51,112.51,0,0,0-49.79,32.25V209h0s0-10.62,0-68.55Zm-21.2-24.91H129.26v-18h18.05ZM62.48,77c0-4,1.86-7.42,3.61-7.46,5.76,5,14.69,7.64,26.45,7.64a3.5,3.5,0,1,0,0-7c-18,0-27-6.34-27-18.83,0-6.49,2.38-11.25,6.79-13.76,0,.13.29,3.42,3.46,3.42a3.46,3.46,0,0,0,3.61-3.36c0-1.13-.92-3.59-.92-7.81,0-15,14.4-18.8,19.12-18.8,1.93,0,18.83.45,19.1,16.2a3.33,3.33,0,0,0,3.47,3.43,3.38,3.38,0,0,0,3.53-3.47,22.08,22.08,0,0,0-6-15.42,20.09,20.09,0,0,1,12.23-4.57c11.35,0,20.25,11.72,20.25,23.36a20.23,20.23,0,0,1-9.23,17.23C137,45.21,131.35,43,123.35,43a51.93,51.93,0,0,0-8.71.78,3.31,3.31,0,0,0-2.89,3.38,3.42,3.42,0,0,0,3.39,3.58,62.07,62.07,0,0,1,8.14-.74c15.33,0,22,9.68,22,19.23,0,9-5.94,17.89-16.15,18.42H68.74A12.06,12.06,0,0,1,62.48,77Zm-8.36,42.72h18v18h-18Zm-8.2,71.92c-7.78-9.73-12.15-19.45-13-29l62.67-22.26v0a6.33,6.33,0,0,0,0,.75c0,3,0,17.22.09,82.66A111.78,111.78,0,0,0,45.92,191.59ZM13.85,233.44a65.16,65.16,0,0,1,61.42,49.31C24.24,277.84,17.5,262.76,13.85,233.44ZM100.25,284c-5.56,0-10.55-.17-14.54-.42a75.24,75.24,0,0,0-73-60.19c-.93-8.95-1.67-18-2.2-27h1.39c49.72,0,93.11,35.57,101,87.34C108.52,283.93,104.24,284,100.25,284Z"/></svg>