<svg id="Layer_1" data-name="Layer 1" xmlns="http://www.w3.org/2000/svg" viewBox="0 0 625.73 116.68"><defs><style>.cls-1{fill:#00212d;}</style></defs><title>m-logo</title><rect class="cls-1" x="45.6" width="29.75" height="116.68"/><rect class="cls-1" x="340.06" width="29.75" height="116.68"/><rect class="cls-1" x="550.39" width="29.75" height="116.68"/><path class="cls-1" d="M33.28,0V116.68H3.53V29.75A29.75,29.75,0,0,1,33.28,0Z"/><path class="cls-1" d="M3.53,111c0,1.75-3.53,3.53-3.53,3.53v2.16H3.53Z"/><path class="cls-1" d="M117.41,29.75v86.93H87.67V0A29.74,29.74,0,0,1,117.41,29.75Z"/><path class="cls-1" d="M117.41,111c0,1.75,3.53,3.53,3.53,3.53v2.16h-3.53Z"/><path class="cls-1" d="M243.61,29.75v86.93H213.87V0A29.75,29.75,0,0,1,243.61,29.75Z"/><path class="cls-1" d="M243.61,111c0,1.75,3.53,3.53,3.53,3.53v2.16h-3.53Z"/><path class="cls-1" d="M496,0V86.94a29.73,29.73,0,0,1-29.74,29.74h0V0Z"/><path class="cls-1" d="M496,5.69c0-1.75,3.53-3.53,3.53-3.53V0H496Z"/><path class="cls-1" d="M453.93,0V116.68a29.75,29.75,0,0,1-29.74-29.74V0Z"/><path class="cls-1" d="M424.19,5.69c0-1.75-3.53-3.53-3.53-3.53V0h3.53Z"/><path class="cls-1" d="M411.87,29.75v86.93H382.12V0A29.75,29.75,0,0,1,411.87,29.75Z"/><path class="cls-1" d="M411.87,111c0,1.75,3.54,3.53,3.54,3.53v2.16h-3.54Z"/><path class="cls-1" d="M622.2,29.75v86.93H592.46V0A29.74,29.74,0,0,1,622.2,29.75Z"/><path class="cls-1" d="M622.19,111c0,1.75,3.54,3.53,3.54,3.53v2.16h-3.54Z"/><path class="cls-1" d="M201.54,0V116.68H171.79V29.75A29.75,29.75,0,0,1,201.54,0Z"/><path class="cls-1" d="M171.79,111c0,1.75-3.53,3.53-3.53,3.53v2.16h3.53Z"/><rect class="cls-1" x="129.73" width="29.75" height="116.68"/><path class="cls-1" d="M159.48,111c0,1.75,3.53,3.53,3.53,3.53v2.16h-3.53Z"/><path class="cls-1" d="M129.73,5.69c0-1.75-3.53-3.53-3.53-3.53V0h3.53Z"/><path class="cls-1" d="M159.48,5.69c0-1.75,3.53-3.53,3.53-3.53V0h-3.53Z"/><path class="cls-1" d="M129.73,111c0,1.75-3.53,3.53-3.53,3.53v2.16h3.53Z"/><rect class="cls-1" x="255.93" width="29.75" height="116.68"/><path class="cls-1" d="M285.67,111c0,1.75,3.53,3.53,3.53,3.53v2.16h-3.53Z"/><path class="cls-1" d="M285.67,5.69c0-1.75,3.53-3.53,3.53-3.53V0h-3.53Z"/><path class="cls-1" d="M255.93,5.69c0-1.75-3.53-3.53-3.53-3.53V0h3.53Z"/><path class="cls-1" d="M255.93,111c0,1.75-3.53,3.53-3.53,3.53v2.16h3.53Z"/><path class="cls-1" d="M327.74,0V116.68H298V29.75A29.75,29.75,0,0,1,327.74,0Z"/><path class="cls-1" d="M298,111c0,1.75-3.53,3.53-3.53,3.53v2.16H298Z"/><path class="cls-1" d="M538.07,0V116.68H508.32V29.75A29.75,29.75,0,0,1,538.07,0Z"/><path class="cls-1" d="M508.33,111c0,1.75-3.53,3.53-3.53,3.53v2.16h3.53Z"/></svg>